<svg width="101" height="92" viewBox="0 0 101 92" fill="none" xmlns="http://www.w3.org/2000/svg">
<rect width="101" height="91.6047" rx="10" fill="#FFD978"/>
<g clip-path="url(#clip0_577_153)">
<path d="M46.7111 23.5384C45.9535 23.7995 45.3969 24.4088 45.2113 25.1758L45.1392 25.4751L43.9589 25.5077C42.6807 25.5403 42.5519 25.5675 42.0829 25.8831C41.6757 26.1605 41.3613 26.5685 41.2067 27.0418L41.1139 27.3247L38.5163 27.3519C35.6043 27.39 35.6713 27.3791 34.8416 27.8088C34.0582 28.2168 33.3624 29.0002 33.0377 29.838C32.7336 30.6268 32.7542 29.4953 32.7542 47.2027C32.7542 64.6217 32.7439 63.7622 33.0067 64.5129C33.3057 65.3453 34.0633 66.2265 34.8467 66.6454C34.9859 66.7216 35.2745 66.8413 35.4858 66.912L35.8723 67.0371H47.443H59.0136L59.4105 66.8957C60.0496 66.6617 60.4619 66.3897 60.9464 65.8729C61.4257 65.367 61.7092 64.8665 61.9308 64.1539C62.039 63.7948 62.0493 63.6643 62.0699 62.0214L62.0905 60.2642L61.9359 60.101C61.771 59.927 61.6576 59.9052 61.436 59.9922C61.1783 60.0956 61.1525 60.2751 61.1525 61.967C61.1525 63.686 61.1268 63.8764 60.8124 64.5129C60.4722 65.1929 59.828 65.7587 59.1167 65.9926L58.7559 66.1123H47.4172C36.5578 66.1123 36.063 66.1069 35.7693 66.0144C35.3157 65.8675 34.9189 65.6227 34.5993 65.3017C34.0736 64.774 33.7953 64.2028 33.6819 63.4358C33.6458 63.1855 33.6304 57.9903 33.6407 46.9633C33.6561 31.4754 33.6613 30.8498 33.7489 30.5615C34.0994 29.4681 34.8673 28.6792 35.8311 28.4127C36.0734 28.3474 36.5784 28.3311 38.6143 28.3311C40.9438 28.3311 41.1088 28.3365 41.1345 28.4236C41.418 29.3375 42.1705 30.0121 43.0518 30.1317C43.5208 30.1916 51.3394 30.1916 51.8135 30.1263C52.5454 30.0229 53.169 29.5605 53.4989 28.8642C53.5968 28.652 53.6793 28.4453 53.6793 28.4072C53.6793 28.342 54.1019 28.3311 56.1996 28.3311H58.725L59.127 28.4671C59.998 28.7554 60.632 29.3919 60.9876 30.333C61.1216 30.6975 61.1268 30.7084 61.1525 32.4492L61.1783 34.1955L61.302 34.3369C61.4875 34.5491 61.771 34.5328 61.9514 34.3043L62.0905 34.1302L62.0648 32.4166C62.0442 30.5234 62.0235 30.4037 61.6937 29.6639C61.3278 28.8533 60.6938 28.1733 59.9413 27.7871C59.1425 27.3791 59.2146 27.39 56.2975 27.3682C54.3081 27.3519 53.6793 27.3301 53.6793 27.2812C53.6793 27.2431 53.6123 27.0635 53.5247 26.8786C53.3546 26.4869 52.9835 26.0408 52.6743 25.8504C52.2052 25.5621 52.0712 25.5403 50.8549 25.5077L49.7056 25.4751L49.587 25.1106C49.3603 24.3925 48.8758 23.8539 48.2212 23.5928C47.8089 23.4241 47.1028 23.4024 46.7111 23.5384ZM47.9532 24.5013C48.4274 24.708 48.7057 25.1106 48.7882 25.7035C48.8964 26.4543 48.9531 26.4815 50.5972 26.4815C51.7053 26.4815 51.8754 26.4978 52.0609 26.5848C52.3186 26.7099 52.597 26.9983 52.7155 27.254C53.0247 27.9394 52.7103 28.7772 52.03 29.0873C51.7723 29.2015 51.7672 29.2015 47.3554 29.1906L42.9333 29.1743L42.722 29.0546C42.2787 28.8044 42.0416 28.4508 41.9953 27.972C41.954 27.5749 42.0571 27.2376 42.2942 26.9493C42.6756 26.4923 42.7787 26.4706 44.2372 26.4706C45.871 26.476 45.9483 26.4434 46.0205 25.7688C46.036 25.6002 46.0875 25.3717 46.1287 25.2629C46.2267 25.0235 46.5307 24.6536 46.7266 24.5448C47.0771 24.3544 47.577 24.3381 47.9532 24.5013Z" fill="#7C5900"/>
<path d="M37.9337 34.8267C37.877 34.8648 37.6709 35.1096 37.475 35.3707C37.2792 35.6264 37.0988 35.8386 37.0782 35.8386C37.0575 35.8386 37.006 35.7733 36.9545 35.6971C36.7638 35.387 36.3669 35.3544 36.1865 35.6318C36.0216 35.8821 36.0783 36.067 36.47 36.5675C37.0575 37.3237 37.1245 37.3074 37.9853 36.2139C38.5316 35.5122 38.6295 35.3653 38.6295 35.2021C38.6295 34.843 38.2172 34.6145 37.9337 34.8267Z" fill="#7C5900"/>
<path d="M40.7576 35.4848C40.67 35.5228 40.572 35.6044 40.5411 35.6697C40.402 35.9363 40.5411 36.2899 40.8091 36.3552C40.871 36.3715 44.2365 36.3769 48.2824 36.3715L55.6474 36.3552L55.7453 36.2246C55.8896 36.0342 55.8742 35.7241 55.7092 35.5609L55.5752 35.4304L48.2514 35.4195C42.1028 35.4086 40.8967 35.4195 40.7576 35.4848Z" fill="#7C5900"/>
<path d="M60.8948 36.0072C60.0856 36.1051 59.1373 36.4804 58.3797 36.9972C57.6581 37.4923 56.8902 38.379 56.4675 39.2113C56.2202 39.701 55.9212 40.6203 55.8439 41.1371C55.7769 41.5887 55.7718 42.7147 55.8388 43.1282C56.1583 45.1465 57.3746 46.8601 59.0961 47.725C61.3226 48.8348 63.848 48.4159 65.6261 46.6425C68.0691 44.2053 68.0691 40.0926 65.6261 37.6555C65.1314 37.1604 64.7242 36.8721 64.0696 36.5457C63.0646 36.0452 62.0338 35.8711 60.8948 36.0072ZM62.8791 37.0843C65.1468 37.7208 66.6775 39.9566 66.5487 42.4373C66.4302 44.7058 65.0025 46.5717 62.8791 47.2191C62.5235 47.3279 62.3534 47.3442 61.6164 47.3442C60.8793 47.3442 60.7093 47.3279 60.3536 47.2191C59.8176 47.0559 59.1631 46.7295 58.7611 46.4249C58.323 46.0985 57.6427 45.326 57.385 44.869C56.4366 43.1772 56.4418 41.0827 57.4004 39.4235C57.7406 38.836 58.5188 38.0091 59.0239 37.6936C59.5342 37.3726 60.065 37.1496 60.5856 37.0299C61.1834 36.8884 62.2864 36.9156 62.8791 37.0843Z" fill="#7C5900"/>
<path d="M38.0311 40.4025C37.9744 40.4297 37.7579 40.6691 37.5466 40.9302C37.3405 41.1967 37.1498 41.4361 37.1292 41.4633C37.1034 41.4959 37.0158 41.4307 36.9178 41.311C36.7787 41.1478 36.7117 41.1043 36.5571 41.0988C36.2891 41.0934 36.1035 41.2783 36.1035 41.5558C36.1035 41.7299 36.1602 41.8332 36.4694 42.2249C36.8457 42.7091 36.99 42.8016 37.2271 42.7145C37.3044 42.6873 37.6291 42.3228 37.995 41.855C38.5207 41.1804 38.629 41.0118 38.629 40.8649C38.629 40.5439 38.2991 40.2882 38.0311 40.4025Z" fill="#7C5900"/>
<path d="M40.8099 41.0989C40.5522 41.1533 40.3924 41.6103 40.5522 41.8279C40.7068 42.04 40.7378 42.04 44.4022 42.04H47.9688L48.1182 41.8823C48.3656 41.6212 48.3038 41.2784 47.9842 41.137C47.8348 41.0717 47.2266 41.0608 44.3661 41.0663C42.4746 41.0717 40.8718 41.088 40.8099 41.0989Z" fill="#7C5900"/>
<path d="M38.0311 46.0601C37.9744 46.0873 37.7579 46.3266 37.5466 46.5877C37.3405 46.8543 37.1498 47.0937 37.1292 47.1154C37.1085 47.1426 37.0158 47.0719 36.9178 46.9631C36.7787 46.7999 36.7065 46.7618 36.5468 46.7618C36.2788 46.7618 36.1035 46.9413 36.1035 47.2133C36.1035 47.3874 36.1602 47.4908 36.4694 47.8825C37.057 48.6386 37.124 48.6223 37.9847 47.5234C38.5156 46.8434 38.629 46.6639 38.629 46.517C38.629 46.2015 38.2991 45.9458 38.0311 46.0601Z" fill="#7C5900"/>
<path d="M40.8091 46.7566C40.6441 46.7893 40.4844 47.0286 40.4844 47.2353C40.4844 47.3714 40.5256 47.453 40.6441 47.5563L40.8039 47.6978H44.3859H47.9679L48.1174 47.54C48.3648 47.2789 48.3029 46.9361 47.9834 46.7947C47.8339 46.7294 47.2258 46.7185 44.3653 46.724C42.4738 46.7294 40.8709 46.7457 40.8091 46.7566Z" fill="#7C5900"/>
<path d="M57.7252 49.3296C57.2202 49.4003 56.7254 49.5363 56.2306 49.7484C54.1226 50.6297 52.6744 52.4739 52.2002 54.8784C52.128 55.2483 52.1074 55.6183 52.1074 56.7716V58.2077L52.2517 58.3383C52.4373 58.5069 52.6537 58.5069 52.8393 58.3383L52.9836 58.2077L53.0145 56.6628C53.0454 55.2211 53.0558 55.0906 53.1846 54.6064C53.5351 53.2899 54.3185 52.0931 55.339 51.3261C55.7925 50.9833 56.6481 50.559 57.1686 50.4176C57.684 50.2761 58.488 50.2 58.8385 50.2598C58.988 50.287 59.292 50.4012 59.524 50.5155C60.06 50.7875 60.1785 50.8365 60.5857 50.9289C61.668 51.1901 62.7916 51.0323 63.7811 50.4937C64.2192 50.2544 64.5233 50.2054 65.1624 50.2598C67.1106 50.4339 68.7856 51.6579 69.6567 53.5456C70.1411 54.5792 70.1875 54.8403 70.2184 56.6628L70.2494 58.2077L70.3937 58.3383C70.5947 58.5178 70.8111 58.5069 71.0018 58.3111L71.1513 58.1533V56.962C71.1513 55.2592 71.0431 54.4976 70.6514 53.5184C69.6721 51.0595 67.5435 49.4547 65.0387 49.2915C64.3635 49.248 63.9925 49.3241 63.3843 49.6342C62.1731 50.2544 61.0702 50.2544 59.8538 49.6396C59.591 49.5036 59.2508 49.3676 59.1013 49.335C58.7973 49.2697 58.1943 49.2643 57.7252 49.3296Z" fill="#7C5900"/>
<path d="M38.0311 51.7235C37.9744 51.7452 37.7579 51.9846 37.5466 52.2457C37.3405 52.5123 37.1498 52.7516 37.1292 52.7734C37.1085 52.8006 37.0158 52.7299 36.9178 52.6211C36.7838 52.4633 36.7065 52.4198 36.5519 52.4143C36.2891 52.4089 36.1035 52.5939 36.1035 52.8767C36.1035 53.0454 36.1551 53.1433 36.3921 53.448C36.8663 54.0464 37.0312 54.1552 37.2838 54.0083C37.3353 53.9811 37.5724 53.7091 37.8095 53.399C38.0414 53.0889 38.3249 52.7299 38.4331 52.5993C38.5723 52.4252 38.629 52.311 38.629 52.1804C38.629 51.8649 38.2991 51.6092 38.0311 51.7235Z" fill="#7C5900"/>
<path d="M40.8091 52.4143C40.6441 52.447 40.4844 52.6863 40.4844 52.8931C40.4844 53.0291 40.5256 53.1107 40.6441 53.214L40.8039 53.3555H44.3859H47.9679L48.1174 53.1977C48.3648 52.9366 48.3029 52.5939 47.9834 52.4524C47.8339 52.3871 47.2258 52.3763 44.3653 52.3817C42.4738 52.3871 40.8709 52.4035 40.8091 52.4143Z" fill="#7C5900"/>
<path d="M55.8899 54.6394C55.7662 54.7808 55.7662 54.7808 55.7507 56.2007C55.7301 57.8653 55.7507 58.1591 55.9208 58.3386C56.096 58.5236 56.3279 58.5127 56.5186 58.3114L56.6681 58.1537V56.5108C56.6681 54.5469 56.6578 54.4979 56.1836 54.4979C56.0702 54.4979 55.9775 54.5415 55.8899 54.6394Z" fill="#7C5900"/>
<path d="M66.7809 54.536C66.7448 54.5523 66.683 54.6339 66.6418 54.7155C66.5799 54.8461 66.5645 55.1725 66.5645 56.5107V58.1536L66.7139 58.3114C66.9922 58.6051 67.3891 58.4528 67.4664 58.0285C67.4819 57.9251 67.4922 57.1527 67.4819 56.3094L67.4664 54.7808L67.3427 54.6393C67.219 54.5033 66.9665 54.4544 66.7809 54.536Z" fill="#7C5900"/>
<path d="M38.0266 57.3808C37.9648 57.408 37.738 57.6583 37.5164 57.9357C37.2999 58.2131 37.1144 58.4471 37.1092 58.4579C37.0989 58.4688 37.0113 58.3872 36.9134 58.273C36.6917 58.0173 36.4392 57.9901 36.233 58.1968C36.0011 58.4253 36.0527 58.6483 36.434 59.1488C37.0525 59.9485 37.1247 59.9322 37.9854 58.8333C38.5111 58.1587 38.6296 57.9738 38.6296 57.8323C38.6296 57.5114 38.2998 57.2611 38.0266 57.3808Z" fill="#7C5900"/>
<path d="M40.764 58.0884C40.4651 58.2135 40.4032 58.6052 40.6352 58.8554L40.7846 59.0132H44.3769H47.9693L48.1187 58.8554C48.3558 58.6052 48.3094 58.2788 48.0105 58.1156C47.8816 58.0449 47.3869 58.034 44.3666 58.0394C42.4442 58.0394 40.8207 58.0612 40.764 58.0884Z" fill="#7C5900"/>
</g>
<defs>
<clipPath id="clip0_577_153">
<rect width="41.8502" height="45.2069" fill="white" transform="translate(30.0742 23)"/>
</clipPath>
</defs>
</svg>
