<svg width="105" height="91" viewBox="0 0 105 91" fill="none" xmlns="http://www.w3.org/2000/svg">
<rect x="0.126953" width="104.744" height="91" rx="10" fill="#FAA9E4"/>
<g clip-path="url(#clip0_334_529)">
<path d="M57.1033 18.1548C56.6703 18.5695 56.6592 19.3351 57.081 19.7286C57.3808 20.0157 57.5806 20.0582 59.5011 20.1752C61.5215 20.2922 63.9637 20.9514 65.9397 21.8978C70.4357 24.0458 73.5773 27.5656 75.1647 32.2125C75.7642 33.9671 75.9751 34.2116 76.7633 34.1266C77.4294 34.0521 77.7735 33.6906 77.7735 33.0419C77.7735 32.4784 77.1629 30.6387 76.5302 29.3201C75.4756 27.1083 74.3099 25.5133 72.4006 23.6737C70.9352 22.27 69.9916 21.5363 68.4486 20.6324C65.6067 18.9629 62.3763 18.0378 59.0126 17.9208L57.403 17.8677L57.1033 18.1548Z" fill="#96006D"/>
<path d="M57.6033 24.5562C56.8151 24.6945 56.5043 25.8323 57.0926 26.4171C57.5034 26.8318 58.2916 26.8425 58.7134 26.449C59.5682 25.6196 58.8244 24.3435 57.6033 24.5562Z" fill="#96006D"/>
<path d="M61.6007 25.2052C61.2565 25.2583 60.7903 25.7368 60.7792 26.0665C60.7348 26.8853 60.9235 27.0873 62.2112 27.619C66.1077 29.2247 68.6166 32.5743 69.0162 36.6895C69.1161 37.8061 69.1605 37.9656 69.4269 38.2208C69.8266 38.6355 70.6148 38.6461 71.0477 38.242C71.3696 37.9337 71.3807 37.8699 71.3474 36.7108C71.2586 33.7334 69.7378 30.4795 67.4176 28.2889C65.6415 26.6088 62.6886 25.0456 61.6007 25.2052Z" fill="#96006D"/>
<path d="M37.4218 25.4815C37.2442 25.5559 36.7447 25.9919 36.3339 26.4279C32.3153 30.7345 30.2505 35.8919 30.2505 41.5915C30.2616 46.8127 31.7936 51.2256 35.0573 55.394L35.4125 55.8513L33.9805 60.445C33.2034 62.9759 32.5152 65.1877 32.4708 65.3684C32.393 65.5917 32.1932 65.7938 31.7381 66.049C30.2616 66.9103 28.874 68.3459 27.9415 69.9941C27.3642 71.0149 27.3198 71.6104 27.7972 72.0464L28.108 72.3335H37.6883H47.2574L47.5238 72.0783C48.1011 71.5253 48.0012 70.9511 47.0465 69.4092C46.4137 68.3778 44.7042 66.6976 43.7273 66.1128L43.0279 65.7087V63.7627V61.8168L44.1158 62.274C48.9892 64.3476 54.4065 64.7942 59.624 63.5713C63.3429 62.6994 67.0285 60.796 69.8148 58.297C70.7473 57.4676 70.9805 57.0423 70.7806 56.5318C70.714 56.3511 67.4503 53.1503 63.0543 48.9394L55.4611 41.6553L56.1605 40.9854C56.8377 40.3474 56.8599 40.3261 57.2373 40.4325C58.2253 40.7089 59.3909 40.3793 60.1014 39.6456C60.6675 39.0607 60.7896 38.8374 60.8896 38.1887C61.0672 37.1466 60.7008 36.1683 59.8683 35.4665C59.3465 35.0305 58.7803 34.8604 57.9034 34.8604C57.315 34.8604 57.0708 34.9242 56.5823 35.1688C55.4389 35.7749 54.9394 36.7107 55.0504 38.0399L55.117 38.7949L54.462 39.4223L53.796 40.0603L46.2139 32.8081C42.051 28.8311 38.5319 25.5134 38.3987 25.4496C38.0879 25.3007 37.8326 25.3114 37.4218 25.4815ZM67.9165 56.9147C67.8721 56.9466 67.5613 57.1911 67.2283 57.457C65.3189 58.967 62.6102 60.36 60.1791 61.0937C56.5934 62.1677 52.3195 62.2953 48.8005 61.4446C40.2304 59.3498 34.0693 52.842 32.7594 44.4732C32.5374 43.059 32.5374 40.2729 32.7483 38.8693C33.3588 34.988 34.8131 31.8192 37.3441 28.8098L37.9547 28.0867L52.9745 42.4635C61.2448 50.3856 67.961 56.8828 67.9165 56.9147ZM58.3252 37.1998C58.7692 37.4976 58.525 38.3057 57.9922 38.3057C57.7257 38.3057 57.3483 37.9335 57.3483 37.6677C57.3483 37.4338 57.7146 37.0297 57.9367 37.0297C58.0144 37.0297 58.192 37.1041 58.3252 37.1998ZM40.0084 59.9984L40.6967 60.4663V62.6249C40.6967 63.8159 40.6745 64.7836 40.6523 64.7836C40.619 64.7836 40.2637 64.6985 39.8419 64.6028C38.976 64.4008 36.5227 64.3689 35.7012 64.5496C35.4347 64.6134 35.1905 64.656 35.1794 64.6347C35.1572 64.6134 37.0444 58.3821 37.1998 57.9993C37.2331 57.9142 37.6106 58.1588 38.2877 58.7011C38.8539 59.1584 39.631 59.7432 40.0084 59.9984ZM39.8419 66.921C41.4071 67.2931 42.9613 68.197 44.0714 69.3667C44.4155 69.7389 44.6931 70.0685 44.6931 70.1217C44.6931 70.1642 41.5181 70.2068 37.6328 70.2068C32.0267 70.2068 30.5947 70.1749 30.6613 70.0685C30.9166 69.6644 31.6049 68.9626 32.1932 68.516C34.4356 66.8146 37.0999 66.2617 39.8419 66.921Z" fill="#96006D"/>
<path d="M41.0963 52.3954C40.63 52.6294 40.4857 52.8633 40.4746 53.4056C40.4746 53.8523 40.519 53.9161 41.1962 54.5328C43.8604 56.9892 47.2907 58.5736 51.1872 59.1585C52.4971 59.3605 55.5166 59.3286 56.7932 59.1053C59.5019 58.648 60.1235 58.3397 60.1235 57.4783C60.1235 57.0955 60.0569 56.9467 59.8016 56.6914C59.3909 56.3086 59.08 56.298 57.6591 56.6383C52.5193 57.893 46.9021 56.5107 42.9057 53.0016C42.3285 52.4911 41.8733 52.2359 41.5514 52.2359C41.4737 52.2359 41.2739 52.3104 41.0963 52.3954Z" fill="#96006D"/>
<path d="M57.459 30.437C57.0261 30.6177 56.793 30.9686 56.793 31.4791C56.793 32.1809 57.1926 32.5105 58.1473 32.6062C59.4461 32.7445 60.1566 33.0103 61.0891 33.7228C62.1548 34.5203 62.7876 35.7219 62.9652 37.2425C63.0651 38.1251 63.4203 38.5186 64.1197 38.5186C65.2964 38.5186 65.585 37.6253 65.0411 35.5943C64.4416 33.2868 62.2658 31.2026 59.8458 30.6071C58.9466 30.3838 57.7921 30.3094 57.459 30.437Z" fill="#96006D"/>
<path d="M76.9197 36.3599C76.7864 36.3812 76.5533 36.5301 76.3979 36.6789C75.9872 37.0724 75.9872 37.838 76.3979 38.2421C76.631 38.4654 76.7975 38.5186 77.2194 38.5186C77.6412 38.5186 77.8077 38.4654 78.0409 38.2421C78.274 38.0188 78.3295 37.8593 78.3295 37.4552C78.3295 37.0511 78.274 36.8916 78.0409 36.6683C77.8743 36.5194 77.6856 36.3918 77.5968 36.3918C77.5191 36.3918 77.397 36.3706 77.3082 36.3493C77.2305 36.328 77.0529 36.3387 76.9197 36.3599Z" fill="#96006D"/>
</g>
<defs>
<clipPath id="clip0_334_529">
<rect width="56.8376" height="54.4444" fill="white" transform="translate(24.4883 17.8892)"/>
</clipPath>
</defs>
</svg>
