<svg width="9" height="10" viewBox="0 0 9 10" fill="none" xmlns="http://www.w3.org/2000/svg">
<path d="M6.69947 2.36016L6.728 2.39123C6.7708 2.43783 6.83619 2.43424 6.8778 2.38406L6.90048 2.35705L6.84662 2.35788L6.84624 2.35789L6.7629 2.35918L6.69947 2.36016ZM6.69947 2.36016L6.6993 2.34915L6.71167 2.34895L6.69947 2.36016ZM6.80812 2.26037L6.69647 2.16664L6.69352 1.9766C6.6935 1.97531 6.69348 1.97403 6.69346 1.97275C6.69346 1.97245 6.69345 1.97214 6.69345 1.97184C6.69327 1.96018 6.69309 1.94887 6.69291 1.93791C6.71971 1.93073 6.74825 1.92607 6.77839 1.92456C6.82228 1.92237 6.86433 1.92719 6.90358 1.93756L6.80812 2.26037ZM6.80812 2.26037L6.90712 2.16944L6.90402 1.97334V1.97333L6.90396 1.96943L6.80812 2.26037Z" fill="#002266" stroke="#002266"/>
<path d="M1.34904 2.80338L1.22198 2.6995L1.22118 2.69884L1.18736 2.67119C1.16191 2.70086 1.14291 2.72093 1.13979 2.72093C1.13504 2.72093 1.12315 2.70659 1.11126 2.68986C1.08471 2.64876 1.04083 2.62985 1.00107 2.63472C1.00604 2.67317 1.01624 2.70874 1.0303 2.74121C1.03041 2.74145 1.03052 2.7417 1.03062 2.74194C1.0307 2.74213 1.03078 2.74231 1.03086 2.74249C1.03136 2.74364 1.03187 2.74478 1.03238 2.74592C1.04428 2.77242 1.05876 2.79681 1.07506 2.81894C1.07513 2.81903 1.0752 2.81913 1.07527 2.81922C1.09464 2.84546 1.11657 2.86854 1.13979 2.88822C1.16288 2.90779 1.18724 2.92401 1.21164 2.93667C1.21636 2.93912 1.22119 2.94149 1.22611 2.94377C1.2377 2.93238 1.25021 2.91906 1.26387 2.90378C1.26444 2.90314 1.26501 2.9025 1.26558 2.90186C1.28945 2.87507 1.31683 2.84234 1.34904 2.80338ZM1.34904 2.80338L1.22268 2.69892L1.22188 2.69826L1.1881 2.67033C1.20125 2.65498 1.21609 2.63712 1.23134 2.61817C1.23452 2.61414 1.2377 2.61012 1.24089 2.60614L1.27961 2.58113L1.33659 2.54433C1.35355 2.55316 1.36753 2.56197 1.37847 2.56956C1.37897 2.5699 1.37946 2.57025 1.37995 2.57059C1.38086 2.57123 1.38175 2.57186 1.38261 2.57248C1.38379 2.5752 1.38499 2.57808 1.3862 2.58113C1.38912 2.58844 1.39213 2.59669 1.39504 2.60581C1.4055 2.63863 1.41324 2.67854 1.41401 2.7231C1.40805 2.7306 1.40168 2.73855 1.39488 2.74699C1.39443 2.74754 1.39399 2.7481 1.39354 2.74865C1.38037 2.76498 1.3656 2.78313 1.34904 2.80338ZM1.26425 2.58113L1.32453 2.53829C1.31851 2.53541 1.31217 2.53255 1.30552 2.52975C1.29268 2.54387 1.27734 2.56166 1.26124 2.58113C1.25982 2.58284 1.2584 2.58457 1.25697 2.58631L1.26425 2.58113Z" fill="#002266" stroke="#002266"/>
<mask id="path-3-inside-1_576_237" fill="white">
<path d="M1.99031 2.64316C1.9701 2.65153 1.94751 2.66945 1.94037 2.68379C1.90827 2.74234 1.94037 2.82001 2.0022 2.83435C2.01646 2.83793 2.79282 2.83913 3.72611 2.83793L5.42506 2.83435L5.44765 2.80567C5.48094 2.76385 5.47737 2.69574 5.43933 2.65989L5.40841 2.63121L3.71898 2.62882C2.30061 2.62643 2.02241 2.62882 1.99031 2.64316Z"/>
</mask>
<path d="M1.99031 2.64316C1.9701 2.65153 1.94751 2.66945 1.94037 2.68379C1.90827 2.74234 1.94037 2.82001 2.0022 2.83435C2.01646 2.83793 2.79282 2.83913 3.72611 2.83793L5.42506 2.83435L5.44765 2.80567C5.48094 2.76385 5.47737 2.69574 5.43933 2.65989L5.40841 2.63121L3.71898 2.62882C2.30061 2.62643 2.02241 2.62882 1.99031 2.64316Z" fill="#002266"/>
<path d="M1.99031 2.64316L2.39815 3.55621L2.3855 3.56187L2.3727 3.56717L1.99031 2.64316ZM1.94037 2.68379L2.8357 3.12921L2.82682 3.14706L2.81723 3.16454L1.94037 2.68379ZM2.0022 2.83435L2.22813 1.8602L2.23703 1.86227L2.24588 1.86449L2.0022 2.83435ZM3.72611 2.83793L3.72822 3.83793L3.72739 3.83793L3.72611 2.83793ZM5.42506 2.83435L6.21062 3.45313L5.91114 3.83332L5.42717 3.83434L5.42506 2.83435ZM5.44765 2.80567L4.66208 2.18687L4.66525 2.18289L5.44765 2.80567ZM5.43933 2.65989L6.11946 1.92677L6.12509 1.93207L5.43933 2.65989ZM5.40841 2.63121L5.40983 1.63122L5.80144 1.63177L6.08853 1.89811L5.40841 2.63121ZM3.71898 2.62882L3.71756 3.62882L3.71729 3.62882L3.71898 2.62882ZM2.3727 3.56717C2.4632 3.52971 2.53409 3.48332 2.5886 3.43932C2.61816 3.41545 2.65436 3.38305 2.69241 3.34068C2.72691 3.30225 2.78478 3.23156 2.8357 3.12921L1.04505 2.23837C1.14193 2.04364 1.27704 1.92774 1.33227 1.88315C1.40491 1.82451 1.49721 1.76498 1.60792 1.71916L2.3727 3.56717ZM2.81723 3.16454C2.96134 2.90168 2.95187 2.61633 2.86082 2.39507C2.77011 2.17467 2.56203 1.93764 2.22813 1.8602L1.77626 3.80849C1.00479 3.62956 0.745448 2.78318 1.06351 2.20304L2.81723 3.16454ZM2.24588 1.86449C2.19237 1.85105 2.14969 1.84521 2.13716 1.84351C2.11859 1.84099 2.10375 1.83952 2.09556 1.83877C2.07907 1.83724 2.06641 1.83651 2.0617 1.83624C2.05568 1.8359 2.05115 1.83571 2.04896 1.83563C2.04653 1.83553 2.04489 1.83548 2.0443 1.83546C2.04326 1.83543 2.04673 1.83553 2.05738 1.8357C2.07741 1.836 2.10913 1.83632 2.15302 1.83661C2.23999 1.83719 2.36565 1.83763 2.52143 1.83793C2.83252 1.83853 3.25879 1.83853 3.72483 1.83793L3.72739 3.83793C3.26014 3.83853 2.83159 3.83853 2.51761 3.83793C2.36085 3.83763 2.23143 3.83718 2.13965 3.83656C2.09417 3.83626 2.05559 3.8359 2.0268 3.83546C2.01303 3.83525 1.99745 3.83496 1.98301 3.83452C1.97655 3.83432 1.96417 3.83391 1.9498 3.83311C1.94317 3.83274 1.92896 3.83189 1.91129 3.83026C1.9025 3.82945 1.88716 3.82792 1.86819 3.82535C1.85525 3.82359 1.81225 3.8177 1.75851 3.8042L2.24588 1.86449ZM3.724 1.83793L5.42295 1.83435L5.42717 3.83434L3.72822 3.83793L3.724 1.83793ZM4.6395 2.21556L4.66209 2.18688L6.23321 3.42445L6.21062 3.45313L4.6395 2.21556ZM4.66525 2.18289C4.50866 2.37961 4.46159 2.60274 4.47178 2.78604C4.48192 2.96854 4.5546 3.20025 4.75356 3.38771L6.12509 1.93207C6.56238 2.34409 6.56909 3.0025 6.23004 3.42845L4.66525 2.18289ZM4.75921 3.39299L4.7283 3.36432L6.08853 1.89811L6.11944 1.92679L4.75921 3.39299ZM5.407 3.63121L3.71756 3.62882L3.72039 1.62883L5.40983 1.63122L5.407 3.63121ZM3.71729 3.62882C3.00661 3.62763 2.58794 3.62765 2.34313 3.62969C2.21868 3.63072 2.15097 3.63222 2.11622 3.63367C2.09737 3.63445 2.10326 3.63466 2.12157 3.6327C2.13067 3.63173 2.15595 3.62889 2.18988 3.62231C2.21304 3.61782 2.29707 3.60137 2.39815 3.55621L1.58246 1.73011C1.75038 1.65511 1.90952 1.64398 1.90969 1.64396C1.9549 1.63914 1.99887 1.63682 2.03278 1.63541C2.10354 1.63245 2.20004 1.63081 2.32646 1.62976C2.58336 1.62761 3.01298 1.62763 3.72066 1.62883L3.71729 3.62882Z" fill="#002266" mask="url(#path-3-inside-1_576_237)"/>
<mask id="path-5-inside-2_576_237" fill="white">
<path d="M6.63436 2.7579C6.4477 2.77941 6.22895 2.86185 6.05418 2.97537C5.88773 3.0841 5.71058 3.27887 5.61309 3.46169C5.55602 3.56923 5.48707 3.77117 5.46923 3.88468C5.45378 3.98386 5.45259 4.2312 5.46805 4.32201C5.54176 4.76532 5.82234 5.14171 6.21943 5.3317C6.73304 5.57546 7.31561 5.48345 7.72578 5.09391C8.28932 4.5586 8.28932 3.65526 7.72578 3.11995C7.61164 3.01122 7.51772 2.94789 7.36673 2.87619C7.13489 2.76626 6.89711 2.72803 6.63436 2.7579ZM7.09209 2.99449C7.61521 3.13429 7.96832 3.62539 7.93859 4.17026C7.91125 4.66853 7.58192 5.07838 7.09209 5.22057C7.01006 5.24447 6.97082 5.24806 6.80081 5.24806C6.6308 5.24806 6.59156 5.24447 6.50953 5.22057C6.38588 5.18473 6.23489 5.11303 6.14216 5.04612C6.0411 4.97443 5.88416 4.80475 5.82472 4.70438C5.60596 4.33277 5.60715 3.87273 5.82828 3.50829C5.90675 3.37924 6.08628 3.19762 6.20279 3.12831C6.32049 3.05782 6.44295 3.00883 6.56303 2.98254C6.70094 2.95147 6.95537 2.95745 7.09209 2.99449Z"/>
</mask>
<path d="M6.63436 2.7579C6.4477 2.77941 6.22895 2.86185 6.05418 2.97537C5.88773 3.0841 5.71058 3.27887 5.61309 3.46169C5.55602 3.56923 5.48707 3.77117 5.46923 3.88468C5.45378 3.98386 5.45259 4.2312 5.46805 4.32201C5.54176 4.76532 5.82234 5.14171 6.21943 5.3317C6.73304 5.57546 7.31561 5.48345 7.72578 5.09391C8.28932 4.5586 8.28932 3.65526 7.72578 3.11995C7.61164 3.01122 7.51772 2.94789 7.36673 2.87619C7.13489 2.76626 6.89711 2.72803 6.63436 2.7579ZM7.09209 2.99449C7.61521 3.13429 7.96832 3.62539 7.93859 4.17026C7.91125 4.66853 7.58192 5.07838 7.09209 5.22057C7.01006 5.24447 6.97082 5.24806 6.80081 5.24806C6.6308 5.24806 6.59156 5.24447 6.50953 5.22057C6.38588 5.18473 6.23489 5.11303 6.14216 5.04612C6.0411 4.97443 5.88416 4.80475 5.82472 4.70438C5.60596 4.33277 5.60715 3.87273 5.82828 3.50829C5.90675 3.37924 6.08628 3.19762 6.20279 3.12831C6.32049 3.05782 6.44295 3.00883 6.56303 2.98254C6.70094 2.95147 6.95537 2.95745 7.09209 2.99449Z" fill="#002266"/>
<path d="M6.63436 2.7579L6.51989 1.76447L6.5214 1.7643L6.63436 2.7579ZM6.05418 2.97537L5.50726 2.13818L5.50948 2.13674L6.05418 2.97537ZM5.61309 3.46169L4.72976 2.99294L4.73071 2.99115L5.61309 3.46169ZM5.46923 3.88468L4.48116 3.7307L4.48135 3.72948L5.46923 3.88468ZM5.46805 4.32201L6.45388 4.15423L6.4545 4.15799L5.46805 4.32201ZM6.21943 5.3317L5.79067 6.23512L5.78784 6.23377L6.21943 5.3317ZM7.72578 5.09391L8.41449 5.81895L8.41441 5.81903L7.72578 5.09391ZM7.72578 3.11995L7.03706 3.84498L7.03601 3.84398L7.72578 3.11995ZM7.36673 2.87619L7.79517 1.97262L7.79565 1.97285L7.36673 2.87619ZM7.09209 2.99449L6.8339 3.96059L6.8306 3.95969L7.09209 2.99449ZM7.93859 4.17026L8.93711 4.22473L8.93709 4.22506L7.93859 4.17026ZM7.09209 5.22057L6.8124 4.26048L6.81331 4.26022L7.09209 5.22057ZM6.50953 5.22057L6.78798 4.26012L6.78922 4.26048L6.50953 5.22057ZM6.14216 5.04612L6.72079 4.23049L6.7273 4.23519L6.14216 5.04612ZM5.82472 4.70438L4.9643 5.21397L4.96295 5.21168L5.82472 4.70438ZM5.82828 3.50829L4.97336 2.98954L4.97384 2.98875L5.82828 3.50829ZM6.20279 3.12831L6.71663 3.98621L6.71401 3.98777L6.20279 3.12831ZM6.56303 2.98254L6.78279 3.95811L6.77688 3.9594L6.56303 2.98254ZM6.74883 3.75132C6.75058 3.75112 6.72924 3.75408 6.69126 3.76834C6.65473 3.78205 6.62173 3.79916 6.59888 3.814L5.50948 2.13674C5.79754 1.94964 6.16165 1.80575 6.51989 1.76447L6.74883 3.75132ZM6.60109 3.81256C6.60467 3.81022 6.59972 3.81317 6.58788 3.82354C6.57652 3.83351 6.56274 3.84687 6.54822 3.86286C6.53374 3.87882 6.52104 3.89462 6.51095 3.90861C6.50603 3.91543 6.50224 3.92113 6.49951 3.92547C6.49816 3.92761 6.49716 3.92928 6.49647 3.93047C6.49577 3.93167 6.49546 3.93226 6.49547 3.93223L4.73071 2.99115C4.90481 2.66467 5.1954 2.34191 5.50726 2.13818L6.60109 3.81256ZM6.49642 3.93044C6.50189 3.92014 6.50045 3.92164 6.49358 3.93828C6.48752 3.95299 6.48027 3.97214 6.47307 3.99331C6.46583 4.01457 6.46027 4.03304 6.45671 4.04622C6.45589 4.04928 6.45527 4.0517 6.45483 4.05347C6.45461 4.05435 6.45445 4.05501 6.45434 4.05548C6.45423 4.05594 6.45418 4.05616 6.45419 4.05614C6.45419 4.05613 6.45426 4.05582 6.45438 4.05524C6.4545 4.05466 6.45469 4.05373 6.45493 4.05248C6.4554 4.05008 6.45619 4.04581 6.45712 4.03988L4.48135 3.72948C4.51771 3.49803 4.62481 3.19072 4.72976 2.99294L6.49642 3.93044ZM6.45731 4.03867C6.45973 4.02311 6.46033 4.01511 6.46007 4.01802C6.45992 4.01971 6.45947 4.02529 6.45895 4.03501C6.45791 4.05477 6.45714 4.08115 6.45704 4.10996C6.45694 4.13895 6.45754 4.16383 6.45836 4.18084C6.45877 4.18921 6.45908 4.19241 6.45895 4.19106C6.45888 4.19022 6.45857 4.18692 6.45791 4.18155C6.45729 4.17645 6.45604 4.16699 6.45387 4.15423L4.48222 4.4898C4.45873 4.35177 4.45675 4.19142 4.45705 4.10301C4.45738 4.00791 4.46123 3.85861 4.48116 3.7307L6.45731 4.03867ZM6.4545 4.15799C6.47586 4.28645 6.55449 4.38344 6.65103 4.42963L5.78784 6.23377C5.09019 5.89998 4.60765 5.24418 4.48159 4.48604L6.4545 4.15799ZM6.6482 4.42828C6.79071 4.49592 6.92871 4.47179 7.03715 4.3688L8.41441 5.81903C7.70251 6.49511 6.67537 6.65499 5.79067 6.23512L6.6482 4.42828ZM7.03707 4.36888C7.18556 4.22783 7.18556 3.98604 7.03707 3.84498L8.41449 2.39492C9.39308 3.32449 9.39308 4.88938 8.41449 5.81895L7.03707 4.36888ZM7.03601 3.84398C7.00963 3.81885 7.00041 3.8129 6.99893 3.8119C6.99616 3.81002 6.9823 3.80066 6.93781 3.77953L7.79565 1.97285C8.03451 2.08626 8.21834 2.20804 8.41555 2.39592L7.03601 3.84398ZM6.93828 3.77976C6.88097 3.75258 6.83143 3.74194 6.74733 3.7515L6.5214 1.7643C6.96279 1.71412 7.38882 1.77994 7.79517 1.97262L6.93828 3.77976ZM7.35028 2.02839C8.3368 2.29204 8.99225 3.21384 8.93711 4.22473L6.94008 4.11579C6.94438 4.03694 6.89362 3.97654 6.83391 3.96058L7.35028 2.02839ZM8.93709 4.22506C8.8859 5.15779 8.25847 5.92327 7.37087 6.18093L6.81331 4.26022C6.86636 4.24482 6.89479 4.22053 6.90991 4.20175C6.9248 4.18326 6.93783 4.15671 6.9401 4.11546L8.93709 4.22506ZM7.37178 6.18066C7.14726 6.24607 6.98995 6.24806 6.80081 6.24806V4.24806C6.82049 4.24806 6.83673 4.248 6.85051 4.24789C6.86431 4.24778 6.87444 4.24761 6.88194 4.24742C6.88944 4.24724 6.89302 4.24707 6.8938 4.24703C6.89447 4.24699 6.8915 4.24713 6.88586 4.24766C6.88 4.24822 6.8719 4.24912 6.86214 4.25057C6.85226 4.25203 6.84253 4.25377 6.83331 4.25568C6.81533 4.2594 6.80532 4.26255 6.8124 4.26048L7.37178 6.18066ZM6.80081 6.24806C6.61167 6.24806 6.45436 6.24607 6.22984 6.18066L6.78922 4.26048C6.7963 4.26255 6.78629 4.2594 6.76831 4.25568C6.75909 4.25377 6.74936 4.25203 6.73948 4.25057C6.72972 4.24912 6.72162 4.24822 6.71576 4.24766C6.71012 4.24713 6.70715 4.24699 6.70782 4.24703C6.7086 4.24707 6.71218 4.24724 6.71968 4.24742C6.72718 4.24761 6.73731 4.24778 6.75111 4.24789C6.76489 4.248 6.78113 4.24806 6.80081 4.24806V6.24806ZM6.23108 6.18102C6.01116 6.11727 5.75361 5.99891 5.55702 5.85705L6.7273 4.23519C6.71636 4.22729 6.71271 4.22561 6.71847 4.22892C6.72344 4.23176 6.73194 4.23632 6.7432 4.24167C6.75435 4.24696 6.76536 4.25168 6.7749 4.25538C6.78481 4.25923 6.78939 4.26053 6.78798 4.26012L6.23108 6.18102ZM5.56354 5.86172C5.43259 5.76882 5.31465 5.65228 5.23467 5.56606C5.15625 5.48151 5.04704 5.35368 4.9643 5.21397L6.68514 4.19479C6.67565 4.17877 6.66901 4.16934 6.66762 4.16738C6.66582 4.16483 6.6662 4.16551 6.66926 4.16938C6.67574 4.17755 6.68676 4.19061 6.70099 4.20595C6.71517 4.22124 6.72786 4.23375 6.73657 4.2418C6.74073 4.24563 6.74223 4.24683 6.74098 4.24579C6.74016 4.24511 6.73326 4.23938 6.72077 4.23052L5.56354 5.86172ZM4.96295 5.21168C4.56046 4.52796 4.55822 3.6737 4.97336 2.98954L6.68321 4.02704C6.65607 4.07177 6.65146 4.13758 6.68649 4.19708L4.96295 5.21168ZM4.97384 2.98875C5.06814 2.83366 5.19018 2.69416 5.28938 2.59361C5.38474 2.49694 5.52775 2.36631 5.69157 2.26886L6.71401 3.98777C6.73221 3.97694 6.74327 3.96899 6.74658 3.96656C6.75042 3.96376 6.75069 3.96336 6.7475 3.96603C6.74061 3.97179 6.72826 3.98288 6.71316 3.99819C6.69819 4.01336 6.68567 4.02745 6.67727 4.03772C6.67326 4.04261 6.67158 4.04494 6.67188 4.04452C6.67196 4.04441 6.67607 4.03878 6.68273 4.02783L4.97384 2.98875ZM5.68895 2.27043C5.89254 2.14848 6.11563 2.0568 6.34917 2.00567L6.77688 3.9594C6.77027 3.96085 6.74844 3.96715 6.71663 3.9862L5.68895 2.27043ZM6.34327 2.00698C6.52462 1.96613 6.71375 1.9601 6.85088 1.96323C6.98845 1.96638 7.17582 1.98112 7.35359 2.02928L6.8306 3.95969C6.84691 3.96411 6.85696 3.96595 6.859 3.96632C6.86155 3.96678 6.86034 3.96648 6.85512 3.96587C6.84405 3.96458 6.8264 3.9632 6.80514 3.96271C6.78385 3.96222 6.76637 3.9628 6.75564 3.96357C6.7506 3.96393 6.74967 3.96414 6.7526 3.96375C6.75501 3.96343 6.76566 3.96195 6.78279 3.95809L6.34327 2.00698Z" fill="#002266" mask="url(#path-5-inside-2_576_237)"/>
<path d="M1.24891 3.83947C1.22789 3.86534 1.20757 3.89005 1.19103 3.91009L1.22479 3.93782L1.22658 3.93929L1.27234 3.97688L1.35233 4.04259L1.27205 3.97688L1.22635 3.93948L1.22456 3.93801L1.19079 3.91037C1.18164 3.92145 1.17366 3.93109 1.16736 3.93869C1.15936 3.94834 1.15409 3.95471 1.15261 3.95657C1.14666 3.96374 1.12645 3.9494 1.10386 3.92311M1.24891 3.83947C1.25301 3.83465 1.25711 3.82986 1.26121 3.82513C1.27796 3.80576 1.29448 3.78738 1.30921 3.77169C1.32928 3.78024 1.34682 3.78958 1.36163 3.79868C1.36792 3.80254 1.37362 3.8063 1.3787 3.80983C1.37874 3.80992 1.37879 3.81001 1.37883 3.8101C1.37937 3.81128 1.37992 3.81247 1.38047 3.81369C1.38211 3.81731 1.38376 3.82113 1.38542 3.82513C1.39143 3.83968 1.39745 3.85672 1.40255 3.87603C1.41202 3.91183 1.41501 3.94273 1.41578 3.96409C1.41406 3.96626 1.4123 3.96848 1.41051 3.97073L1.29902 3.88017L1.29665 3.87824L1.24891 3.83947ZM1.24891 3.83947L1.29558 3.87913L1.29789 3.88109L1.40762 3.97436C1.40695 3.97519 1.40628 3.97603 1.40561 3.97688C1.39034 3.99599 1.3727 4.01773 1.35234 4.0426C1.33989 4.05776 1.32764 4.07243 1.31576 4.08643C1.31486 4.0875 1.31396 4.08855 1.31306 4.08961C1.28164 4.12654 1.25283 4.15874 1.22951 4.18311C1.20117 4.17063 1.17644 4.15594 1.15616 4.14099C1.15107 4.13724 1.14599 4.13329 1.14094 4.12914C1.14024 4.12856 1.13954 4.12799 1.13884 4.1274C1.11693 4.10912 1.09567 4.08714 1.07661 4.06168C1.07646 4.06148 1.0763 4.06127 1.07615 4.06107C1.05963 4.03892 1.04478 4.01416 1.0326 3.98693L1.04382 3.97688L1.07611 3.94796L1.07929 3.94511L1.10386 3.92311M1.10386 3.92311L1.07906 3.94442L1.07585 3.94719L1.04129 3.97688L1.03177 3.98506C1.03058 3.98236 1.02941 3.97963 1.02828 3.97688C1.02501 3.96898 1.02196 3.96089 1.01917 3.9526L1.02064 3.87651M1.10386 3.92311C1.09481 3.913 1.08708 3.90498 1.07984 3.89865L1.07071 3.89138C1.0668 3.88859 1.06292 3.88629 1.05895 3.88439C1.057 3.88346 1.05503 3.88263 1.05302 3.88189C1.0437 3.87845 1.03348 3.87694 1.02064 3.87651M1.02064 3.87651L1.01819 3.94965C1.01075 3.927 1.00517 3.90292 1.0019 3.87748C1.00792 3.87672 1.01418 3.87638 1.02064 3.87651ZM1.41429 3.83878L1.41429 3.83878L1.41429 3.83878Z" fill="#002266" stroke="#002266"/>
<mask id="path-8-inside-3_576_237" fill="white">
<path d="M2.00193 3.87678C1.94248 3.88873 1.90562 3.9891 1.94248 4.0369C1.97815 4.0835 1.98528 4.0835 2.83059 4.0835H3.65332L3.6878 4.04884C3.74486 3.99149 3.7306 3.91621 3.65688 3.88514C3.62241 3.87081 3.48211 3.86842 2.82227 3.86961C2.38594 3.87081 2.01619 3.87439 2.00193 3.87678Z"/>
</mask>
<path d="M2.00193 3.87678C1.94248 3.88873 1.90562 3.9891 1.94248 4.0369C1.97815 4.0835 1.98528 4.0835 2.83059 4.0835H3.65332L3.6878 4.04884C3.74486 3.99149 3.7306 3.91621 3.65688 3.88514C3.62241 3.87081 3.48211 3.86842 2.82227 3.86961C2.38594 3.87081 2.01619 3.87439 2.00193 3.87678Z" fill="#002266"/>
<path d="M2.00193 3.87678L1.80486 2.89639L1.82074 2.8932L1.83672 2.89052L2.00193 3.87678ZM1.94248 4.0369L2.73439 3.42624L2.73658 3.42911L1.94248 4.0369ZM3.65332 4.0835L4.3622 4.78882L4.069 5.0835H3.65332V4.0835ZM3.65688 3.88514L4.04088 2.9618L4.04526 2.96364L3.65688 3.88514ZM2.82227 3.86961L2.81953 2.86961L2.82046 2.86961L2.82227 3.86961ZM2.19899 4.85717C2.6501 4.76649 2.82573 4.42084 2.87404 4.29015C2.92236 4.15948 3.01261 3.78706 2.73438 3.42625L1.15058 4.64754C0.835497 4.23894 0.92575 3.79243 0.998136 3.59664C1.07053 3.40082 1.29431 2.99901 1.80486 2.89639L2.19899 4.85717ZM2.73658 3.42911C2.73657 3.42909 2.73637 3.42883 2.73606 3.42843C2.73574 3.42802 2.73525 3.42738 2.73462 3.42657C2.7334 3.42499 2.73141 3.42244 2.72887 3.41924C2.7239 3.41298 2.71562 3.40273 2.70483 3.39028C2.6826 3.36462 2.6487 3.32836 2.60295 3.28957C2.50203 3.20399 2.39653 3.15076 2.30514 3.11906C2.22675 3.09187 2.16635 3.08329 2.1488 3.08094C2.12834 3.0782 2.12028 3.07826 2.1349 3.07902C2.16538 3.08061 2.22587 3.08206 2.34629 3.08279C2.46262 3.08349 2.61794 3.0835 2.83059 3.0835V5.0835C2.42739 5.0835 2.17653 5.0839 2.03094 5.07632C1.97876 5.0736 1.8177 5.06688 1.64971 5.00861C1.53943 4.97036 1.42091 4.90948 1.30947 4.81498C1.21247 4.73273 1.15027 4.64715 1.14838 4.64468L2.73658 3.42911ZM2.83059 3.0835H3.65332V5.0835H2.83059V3.0835ZM2.94444 3.37817L2.97892 3.34352L4.39668 4.75417L4.3622 4.78882L2.94444 3.37817ZM2.97892 3.34352C2.82222 3.501 2.67169 3.78798 2.73879 4.14289C2.80643 4.5007 3.05555 4.71689 3.2685 4.80664L4.04526 2.96364C4.33193 3.08446 4.62504 3.35383 4.70398 3.77138C4.78237 4.18604 4.61044 4.53934 4.39668 4.75417L2.97892 3.34352ZM3.27289 4.80848C3.36656 4.84743 3.44292 4.86145 3.47024 4.86611C3.50281 4.87165 3.52468 4.87329 3.52648 4.87343C3.52941 4.87366 3.51271 4.87243 3.45571 4.87138C3.346 4.86937 3.15693 4.86901 2.82408 4.86961L2.82046 2.86961C3.14746 2.86902 3.35845 2.86926 3.49247 2.87172C3.55733 2.87291 3.62341 2.87489 3.68296 2.87956C3.70645 2.88141 3.86863 2.89017 4.04088 2.96181L3.27289 4.80848ZM2.82501 4.86961C2.60858 4.8702 2.40919 4.87138 2.26286 4.87271C2.18944 4.87337 2.13083 4.87405 2.09065 4.87469C2.07014 4.87502 2.05701 4.87529 2.05006 4.87548C2.04609 4.87558 2.04773 4.87557 2.05251 4.87536C2.05457 4.87527 2.06197 4.87494 2.07212 4.87425C2.07718 4.87391 2.0865 4.87323 2.0983 4.8721C2.10649 4.87132 2.13315 4.86873 2.16713 4.86304L1.83672 2.89052C1.87115 2.88475 1.89843 2.88209 1.90741 2.88123C1.92 2.88002 1.93028 2.87928 1.93647 2.87885C1.94889 2.87801 1.95923 2.87753 1.96488 2.87728C1.97686 2.87675 1.98833 2.87641 1.99669 2.87619C2.01439 2.87572 2.03591 2.87531 2.05888 2.87495C2.10568 2.8742 2.16945 2.87347 2.24479 2.87279C2.39599 2.87142 2.59963 2.87022 2.81953 2.86961L2.82501 4.86961Z" fill="#002266" mask="url(#path-8-inside-3_576_237)"/>
<path d="M1.24891 5.08212C1.22699 5.10911 1.20583 5.13482 1.18892 5.15517L1.22225 5.18258L1.22402 5.18404L1.26717 5.21953L1.34997 5.28764M1.24891 5.08212C1.25335 5.07689 1.25781 5.07171 1.26224 5.06659C1.27814 5.04824 1.29379 5.03081 1.30788 5.01576C1.33763 5.02839 1.36097 5.04235 1.37761 5.05376C1.37845 5.05433 1.37927 5.0549 1.38007 5.05546C1.38021 5.05576 1.38035 5.05606 1.38048 5.05637C1.38195 5.05962 1.38344 5.06303 1.38492 5.06659C1.3911 5.0814 1.39731 5.09885 1.40255 5.11868C1.41194 5.15419 1.41496 5.18487 1.41576 5.2062C1.41396 5.20849 1.41212 5.21081 1.41025 5.21317L1.29903 5.12283L1.29665 5.1209L1.24891 5.08212ZM1.24891 5.08212L1.29558 5.12178L1.2979 5.12376L1.40737 5.21679C1.40664 5.2177 1.40592 5.21861 1.40518 5.21953C1.38941 5.23931 1.37113 5.26184 1.34997 5.28764M1.34997 5.28764C1.33812 5.30205 1.32692 5.31561 1.31631 5.32833L1.18009 5.2199L1.17963 5.21953L1.17864 5.21874L1.15261 5.19803M1.34997 5.28764L1.26689 5.21953L1.22381 5.18422L1.22204 5.18276L1.18871 5.15543C1.16904 5.1791 1.15516 5.19546 1.15261 5.19803M1.15261 5.19803L1.17422 5.21953L1.1758 5.2211L1.17707 5.22236L1.30142 5.3461C1.27385 5.37879 1.25046 5.40529 1.22992 5.42588C1.20197 5.4136 1.1776 5.39918 1.15762 5.38457C1.12955 5.36404 1.10142 5.33711 1.07679 5.30419C1.07664 5.30399 1.07648 5.30378 1.07633 5.30357C1.06021 5.28194 1.0456 5.25773 1.03352 5.23106C1.03314 5.23023 1.03277 5.2294 1.0324 5.22857C1.03107 5.22559 1.02978 5.22258 1.02852 5.21953C1.0248 5.21057 1.02137 5.20135 1.01826 5.19187C1.011 5.16973 1.00549 5.14619 1.00217 5.1213C1.00735 5.12068 1.01272 5.12036 1.01826 5.12036C1.05512 5.12036 1.07176 5.12872 1.10386 5.16457C1.12645 5.18847 1.14785 5.204 1.15261 5.19803Z" fill="#002266" stroke="#002266"/>
<mask id="path-11-inside-4_576_237" fill="white">
<path d="M2.00068 5.11946C1.96264 5.12662 1.92578 5.1792 1.92578 5.22461C1.92578 5.25448 1.93529 5.2724 1.96264 5.2951L1.99949 5.32617H2.82578H3.65207L3.68655 5.29152C3.74362 5.23417 3.72935 5.15889 3.65564 5.12782C3.62116 5.11348 3.48087 5.11109 2.82103 5.11229C2.3847 5.11348 2.01495 5.11707 2.00068 5.11946Z"/>
</mask>
<path d="M2.00068 5.11946C1.96264 5.12662 1.92578 5.1792 1.92578 5.22461C1.92578 5.25448 1.93529 5.2724 1.96264 5.2951L1.99949 5.32617H2.82578H3.65207L3.68655 5.29152C3.74362 5.23417 3.72935 5.15889 3.65564 5.12782C3.62116 5.11348 3.48087 5.11109 2.82103 5.11229C2.3847 5.11348 2.01495 5.11707 2.00068 5.11946Z" fill="#002266"/>
<path d="M2.00068 5.11946L1.8155 4.13675L1.82547 4.13487L1.83548 4.1332L2.00068 5.11946ZM1.96264 5.2951L2.60144 4.5257L2.60714 4.53051L1.96264 5.2951ZM1.99949 5.32617V6.32617H1.63425L1.35499 6.09077L1.99949 5.32617ZM3.65207 5.32617L4.36095 6.0315L4.06776 6.32617H3.65207V5.32617ZM3.65564 5.12782L4.03964 4.20447L4.04402 4.20632L3.65564 5.12782ZM2.82103 5.11229L2.81829 4.11229L2.81922 4.11229L2.82103 5.11229ZM2.18587 6.10216C2.51912 6.03936 2.69835 5.82976 2.7649 5.73583C2.84315 5.6254 2.92578 5.45203 2.92578 5.22461H0.925781C0.925781 4.95177 1.02684 4.72942 1.13303 4.57955C1.22752 4.44619 1.4442 4.20672 1.8155 4.13675L2.18587 6.10216ZM2.92578 5.22461C2.92578 5.12618 2.90857 4.96784 2.81958 4.79814C2.73871 4.64392 2.63669 4.555 2.60142 4.52572L1.32386 6.06449C1.26124 6.0125 1.14079 5.90327 1.04833 5.72695C0.947752 5.53514 0.925781 5.35291 0.925781 5.22461H2.92578ZM2.60714 4.53051L2.644 4.56157L1.35499 6.09077L1.31813 6.0597L2.60714 4.53051ZM1.99949 4.32617H2.82578V6.32617H1.99949V4.32617ZM2.82578 4.32617H3.65207V6.32617H2.82578V4.32617ZM2.94319 4.62084L2.97767 4.58619L4.39543 5.99685L4.36095 6.0315L2.94319 4.62084ZM2.97767 4.58619C2.82098 4.74367 2.67045 5.03065 2.73754 5.38557C2.80519 5.74338 3.05431 5.95957 3.26726 6.04932L4.04402 4.20632C4.33068 4.32714 4.6238 4.5965 4.70273 5.01405C4.78113 5.42872 4.60919 5.78201 4.39543 5.99685L2.97767 4.58619ZM3.27165 6.05116C3.36532 6.09011 3.44168 6.10413 3.46899 6.10878C3.50156 6.11433 3.52344 6.11597 3.52524 6.11611C3.52817 6.11634 3.51147 6.11511 3.45446 6.11406C3.34476 6.11204 3.15568 6.11168 2.82284 6.11228L2.81922 4.11229C3.14622 4.1117 3.35721 4.11193 3.49123 4.1144C3.55609 4.11559 3.62217 4.11757 3.68171 4.12224C3.70521 4.12408 3.86738 4.13285 4.03963 4.20448L3.27165 6.05116ZM2.82377 6.11228C2.60734 6.11287 2.40795 6.11406 2.26162 6.11538C2.18819 6.11605 2.12959 6.11673 2.0894 6.11737C2.06889 6.11769 2.05577 6.11797 2.04881 6.11815C2.04484 6.11826 2.04648 6.11824 2.05127 6.11803C2.05332 6.11794 2.06073 6.11762 2.07087 6.11693C2.07593 6.11658 2.08526 6.11591 2.09705 6.11478C2.10524 6.11399 2.1319 6.11141 2.16589 6.10571L1.83548 4.1332C1.86991 4.12743 1.89719 4.12477 1.90617 4.12391C1.91876 4.1227 1.92904 4.12195 1.93523 4.12153C1.94764 4.12069 1.95798 4.1202 1.96364 4.11995C1.97562 4.11943 1.98709 4.11909 1.99545 4.11887C2.01315 4.11839 2.03466 4.11799 2.05764 4.11762C2.10443 4.11688 2.16821 4.11614 2.24355 4.11546C2.39474 4.1141 2.59839 4.11289 2.81829 4.11229L2.82377 6.11228Z" fill="#002266" mask="url(#path-11-inside-4_576_237)"/>
<path d="M8.79237 7.63423L8.82566 7.66291C8.87203 7.70234 8.92196 7.69995 8.96595 7.65693L8.99273 7.63002L8.9407 7.63111L8.96595 7.65693L8.94002 7.63113L8.85144 7.63299L8.82567 7.6629L8.8511 7.633L8.79237 7.63423ZM8.79237 7.63423L8.79212 7.62228H8.80267L8.79237 7.63423ZM8.78524 7.29488L8.78662 7.3606L8.78767 7.41059L8.89394 7.51633L9.00043 7.39271V7.3606C9.00043 7.33659 9.00033 7.31343 9.00011 7.29105L8.78524 7.29488ZM8.78524 7.29488C8.78467 7.26299 8.78408 7.23328 8.78342 7.20549C8.81104 7.19794 8.8415 7.19278 8.87474 7.19132C8.92055 7.18931 8.96199 7.19473 8.99858 7.20441C8.99931 7.23176 8.99981 7.26036 9.00011 7.29036L8.78524 7.29488Z" fill="#002266" stroke="#002266"/>
<path d="M1.24891 6.32459L1.27472 6.34556L1.31715 6.31025L1.33054 6.29911L1.29652 6.27055C1.28526 6.28283 1.2733 6.29628 1.26121 6.31025C1.25711 6.31498 1.25301 6.31977 1.24891 6.32459ZM1.24891 6.32459L1.27415 6.34604L1.15671 6.44376L1.15261 6.44049M1.24891 6.32459C1.20135 6.38314 1.15736 6.43571 1.15261 6.44049M1.15261 6.44049L1.15627 6.44414L1.14973 6.44958L1.10059 6.41013L1.10049 6.41004L1.0437 6.36444C1.06503 6.36931 1.08081 6.38119 1.10386 6.40704C1.12645 6.43094 1.14785 6.44647 1.15261 6.44049ZM1.01945 6.36163L1.01918 6.37524L1.01859 6.40533L1.01801 6.43476C1.02119 6.44451 1.0247 6.45399 1.02852 6.4632C1.02963 6.46589 1.03077 6.46855 1.03194 6.4712C1.03234 6.4721 1.03274 6.47299 1.03314 6.47389C1.04116 6.4917 1.05031 6.50842 1.06028 6.52401L1.07673 6.51032L1.08402 6.50426L1.13336 6.4632L1.148 6.45101L1.09849 6.41212L1.09832 6.41198L1.03597 6.36301C1.03086 6.36226 1.0254 6.36183 1.01945 6.36163ZM1.01945 6.36163L1.01901 6.37489L1.01802 6.4043L1.0171 6.43192C1.01183 6.4153 1.00754 6.39791 1.00442 6.37975C1.00345 6.37408 1.00259 6.36833 1.00185 6.3625C1.00528 6.36208 1.00879 6.36181 1.01237 6.36168C1.0147 6.3616 1.01706 6.36158 1.01945 6.36163ZM1.35494 6.2788C1.34212 6.27151 1.32689 6.26385 1.30944 6.25666C1.30605 6.26025 1.30257 6.26399 1.29901 6.26784L1.33278 6.29724L1.35494 6.2788ZM1.15762 6.62823C1.17788 6.64305 1.20265 6.65767 1.23109 6.67006C1.25116 6.64808 1.27592 6.61933 1.30115 6.58829L1.2201 6.50764L1.16351 6.4632L1.14954 6.45222L1.1361 6.4632L1.08455 6.50533L1.07727 6.51128L1.06076 6.52477C1.08106 6.55635 1.10474 6.58327 1.12932 6.60528C1.13253 6.60815 1.13575 6.61093 1.13898 6.61364C1.14517 6.61881 1.1514 6.62368 1.15762 6.62823ZM1.16669 6.4632L1.21196 6.49955L1.17543 6.4632L1.15769 6.44555L1.15126 6.45081L1.16669 6.4632ZM1.27675 6.34825L1.15832 6.44504L1.18113 6.4632L1.31559 6.57023C1.34424 6.53393 1.37565 6.49527 1.40214 6.4632C1.40351 6.46154 1.40487 6.4599 1.40621 6.45828L1.27675 6.34825ZM1.27739 6.34772L1.40914 6.45474C1.41135 6.45208 1.41351 6.44947 1.41563 6.44693C1.41477 6.42827 1.41216 6.40273 1.40513 6.37322C1.40394 6.36821 1.40268 6.36332 1.40136 6.35857L1.34381 6.31025L1.33366 6.30173L1.32324 6.31025L1.27739 6.34772ZM1.34772 6.31025L1.40076 6.35643C1.39589 6.33926 1.3903 6.32382 1.3846 6.31025C1.38186 6.30373 1.37909 6.29765 1.37636 6.29201C1.37219 6.28923 1.36767 6.28635 1.3628 6.28341C1.36153 6.28265 1.36024 6.28187 1.35891 6.2811L1.33586 6.29993L1.34772 6.31025Z" fill="#002266" stroke="#002266"/>
<mask id="path-15-inside-5_576_237" fill="white">
<path d="M2.00068 6.36213C1.96264 6.3693 1.92578 6.42188 1.92578 6.46728C1.92578 6.49715 1.93529 6.51508 1.96264 6.53778L1.99949 6.56885H2.82578H3.65207L3.68655 6.5342C3.74362 6.47684 3.72935 6.40156 3.65564 6.3705C3.62116 6.35616 3.48087 6.35377 2.82103 6.35496C2.3847 6.35616 2.01495 6.35974 2.00068 6.36213Z"/>
</mask>
<path d="M2.00068 6.36213C1.96264 6.3693 1.92578 6.42188 1.92578 6.46728C1.92578 6.49715 1.93529 6.51508 1.96264 6.53778L1.99949 6.56885H2.82578H3.65207L3.68655 6.5342C3.74362 6.47684 3.72935 6.40156 3.65564 6.3705C3.62116 6.35616 3.48087 6.35377 2.82103 6.35496C2.3847 6.35616 2.01495 6.35974 2.00068 6.36213Z" fill="#002266"/>
<path d="M2.00068 6.36213L1.8155 5.37943L1.82547 5.37755L1.83548 5.37587L2.00068 6.36213ZM1.96264 6.53778L2.60144 5.76837L2.60714 5.77318L1.96264 6.53778ZM1.99949 6.56885V7.56885H1.63425L1.35499 7.33345L1.99949 6.56885ZM3.65207 6.56885L4.36095 7.27418L4.06776 7.56885H3.65207V6.56885ZM3.65564 6.3705L4.03964 5.44715L4.04402 5.449L3.65564 6.3705ZM2.82103 6.35496L2.81829 5.35497L2.81922 5.35496L2.82103 6.35496ZM2.18587 7.34483C2.51912 7.28204 2.69835 7.07243 2.7649 6.9785C2.84315 6.86807 2.92578 6.69471 2.92578 6.46728H0.925781C0.925781 6.19445 1.02684 5.97209 1.13303 5.82223C1.22752 5.68887 1.4442 5.4494 1.8155 5.37943L2.18587 7.34483ZM2.92578 6.46728C2.92578 6.36885 2.90857 6.21051 2.81958 6.04081C2.73871 5.8866 2.63669 5.79768 2.60142 5.76839L1.32386 7.30717C1.26124 7.25518 1.14079 7.14595 1.04833 6.96963C0.947752 6.77782 0.925781 6.59558 0.925781 6.46728H2.92578ZM2.60714 5.77318L2.644 5.80425L1.35499 7.33345L1.31813 7.30238L2.60714 5.77318ZM1.99949 5.56885H2.82578V7.56885H1.99949V5.56885ZM2.82578 5.56885H3.65207V7.56885H2.82578V5.56885ZM2.94319 5.86352L2.97767 5.82887L4.39543 7.23952L4.36095 7.27418L2.94319 5.86352ZM2.97767 5.82887C2.82098 5.98635 2.67045 6.27333 2.73754 6.62825C2.80519 6.98605 3.05431 7.20224 3.26726 7.29199L4.04402 5.449C4.33068 5.56981 4.6238 5.83918 4.70273 6.25673C4.78113 6.67139 4.60919 7.02469 4.39543 7.23952L2.97767 5.82887ZM3.27165 7.29383C3.36532 7.33279 3.44168 7.3468 3.46899 7.35146C3.50156 7.35701 3.52344 7.35864 3.52524 7.35879C3.52817 7.35902 3.51147 7.35778 3.45446 7.35673C3.34476 7.35472 3.15568 7.35436 2.82284 7.35496L2.81922 5.35496C3.14622 5.35437 3.35721 5.35461 3.49123 5.35707C3.55609 5.35826 3.62217 5.36024 3.68171 5.36492C3.70521 5.36676 3.86738 5.37552 4.03963 5.44716L3.27165 7.29383ZM2.82377 7.35496C2.60734 7.35555 2.40795 7.35674 2.26162 7.35806C2.18819 7.35872 2.12959 7.35941 2.0894 7.36004C2.06889 7.36037 2.05577 7.36064 2.04881 7.36083C2.04484 7.36094 2.04648 7.36092 2.05127 7.36071C2.05332 7.36062 2.06073 7.36029 2.07087 7.3596C2.07593 7.35926 2.08526 7.35858 2.09705 7.35745C2.10524 7.35667 2.1319 7.35408 2.16589 7.34839L1.83548 5.37587C1.86991 5.3701 1.89719 5.36744 1.90617 5.36658C1.91876 5.36538 1.92904 5.36463 1.93523 5.36421C1.94764 5.36336 1.95798 5.36288 1.96364 5.36263C1.97562 5.3621 1.98709 5.36177 1.99545 5.36154C2.01315 5.36107 2.03466 5.36066 2.05764 5.3603C2.10443 5.35955 2.16821 5.35882 2.24355 5.35814C2.39474 5.35677 2.59839 5.35557 2.81829 5.35497L2.82377 7.35496Z" fill="#002266" mask="url(#path-15-inside-5_576_237)"/>
<path d="M5.47893 6.85046C5.47489 6.85485 5.47143 6.85862 5.46845 6.86274C5.45032 6.88776 5.44989 6.9256 5.44682 7.1934C5.44678 7.19723 5.44673 7.20104 5.44668 7.20481C5.46536 7.20002 5.48524 7.19636 5.50631 7.19417C5.50658 7.19414 5.50686 7.19411 5.50713 7.19409C5.5152 7.19327 5.52344 7.19266 5.53185 7.19229C5.53683 7.19208 5.54178 7.19195 5.54669 7.1919C5.56619 7.19172 5.5851 7.19288 5.60337 7.19519C5.60408 7.19528 5.60479 7.19537 5.60549 7.19546C5.6238 7.19787 5.64147 7.20145 5.65843 7.20599C5.65842 7.20268 5.65842 7.1994 5.65841 7.19615C5.65841 7.19604 5.65841 7.19593 5.65841 7.19582C5.65831 7.12327 5.65793 7.0647 5.65658 7.01741L5.54669 6.91415L5.47893 6.85046ZM5.47893 6.85046C5.49914 6.82895 5.52054 6.8194 5.54669 6.8194C5.62918 6.8194 5.65081 6.82551 5.65646 7.01352L5.54669 6.9127L5.47893 6.85046ZM5.55041 7.31938C5.54942 7.31934 5.54817 7.31929 5.54669 7.31921C5.54241 7.31899 5.53628 7.31857 5.52926 7.31781C5.51481 7.31626 5.48432 7.31218 5.44567 7.2994C5.44533 7.34128 5.44522 7.37803 5.4454 7.41038L5.59267 7.55691L5.65845 7.62236M5.55041 7.31938C5.5834 7.31906 5.62017 7.31455 5.65845 7.30369V7.49146V7.62236M5.55041 7.31938C5.55206 7.31944 5.55299 7.31945 5.55302 7.31945C5.55306 7.31944 5.55115 7.3194 5.54669 7.3194C5.54793 7.3194 5.54917 7.31939 5.55041 7.31938ZM5.65845 7.62236L5.62397 7.65702C5.57998 7.70123 5.52648 7.70362 5.48606 7.66299C5.47587 7.65275 5.46801 7.64082 5.46203 7.62236H5.52689H5.58915H5.65845Z" fill="#002266" stroke="#002266"/>
<path d="M7.94141 7.62239L7.97588 7.65704C8.03331 7.71476 8.1126 7.69409 8.14147 7.62239H8.01071H7.94141ZM7.94141 7.62239V7.56222L7.99363 7.57043L7.94141 7.62239ZM8.14823 7.20243L8.15299 7.21381L8.15289 7.20364C8.15134 7.20323 8.14979 7.20283 8.14823 7.20243ZM8.14823 7.20243C8.08477 7.1864 8.01406 7.18485 7.94146 7.20491C7.94156 7.15289 7.94182 7.10899 7.94228 7.07184L8.05153 6.97151L8.14823 7.20243ZM7.95924 6.86722L7.98946 6.88326L7.95352 6.88364C7.9552 6.87679 7.9571 6.87152 7.95924 6.86722ZM7.95924 6.86722L7.99144 6.88324L8.01446 6.88299L7.99134 6.82779M7.95924 6.86722C7.96875 6.8493 7.98302 6.83137 7.99134 6.82779M7.99134 6.82779C8.03414 6.80987 8.0924 6.82062 8.12093 6.85049M7.99134 6.82779L8.01512 6.88299L8.08638 6.88223L8.12093 6.85049M8.12093 6.85049L8.14946 6.88156M8.12093 6.85049L8.08772 6.88221L8.14946 6.88156M8.14946 6.88156L8.15032 6.96228L8.09276 6.93364L8.14946 6.88156ZM7.94141 7.5551L7.99813 7.56595L8.15389 7.41097C8.15404 7.37676 8.15402 7.33944 8.1538 7.30039C8.08458 7.32292 8.02183 7.32202 7.97381 7.31347C7.96409 7.31174 7.9532 7.30937 7.94141 7.30612V7.5551ZM8.0897 6.93645L8.05276 6.97038L8.15288 7.20282L8.15039 6.96866L8.0897 6.93645Z" fill="#002266" stroke="#002266"/>
<path d="M1.34847 7.77163L1.21436 7.66187L1.16724 7.69958L1.16145 7.70421L1.0775 7.7714L1.07616 7.77247L1.06805 7.77896C1.09489 7.81731 1.12697 7.84871 1.16 7.87237C1.16798 7.87808 1.1765 7.88368 1.18554 7.88907C1.18868 7.89094 1.19188 7.89279 1.19514 7.89461C1.20526 7.90027 1.21595 7.90565 1.22717 7.91066C1.24671 7.89139 1.26875 7.86675 1.29443 7.83652C1.30787 7.82071 1.3223 7.80337 1.33789 7.78448C1.34136 7.78027 1.34489 7.77599 1.34847 7.77163ZM1.34847 7.77163L1.2147 7.6616L1.28094 7.60858L1.3998 7.7083C1.38492 7.72692 1.3679 7.7479 1.34847 7.77163ZM1.24028 7.57448C1.24673 7.56679 1.2532 7.55919 1.25962 7.55177C1.27641 7.53235 1.2928 7.51417 1.30735 7.49879C1.33341 7.51001 1.3544 7.52221 1.37013 7.53268L1.34662 7.55177L1.2793 7.60645L1.24028 7.57448ZM1.24028 7.57448L1.27884 7.60683L1.21306 7.66025L1.18722 7.63899C1.18784 7.63824 1.18847 7.63749 1.1891 7.63672C1.20396 7.61868 1.22162 7.59724 1.24028 7.57448ZM1.28143 7.60819L1.4013 7.70642C1.40503 7.70174 1.40863 7.69722 1.41209 7.69284C1.41193 7.66067 1.40814 7.63065 1.4021 7.60389C1.39749 7.58346 1.39182 7.56597 1.38634 7.55177C1.38484 7.54788 1.38336 7.54424 1.38191 7.54086C1.37924 7.53892 1.37634 7.53687 1.3732 7.53474L1.35192 7.55177L1.28143 7.60819ZM1.16563 7.69878L1.21272 7.66053L1.1869 7.63939C1.16317 7.66819 1.14708 7.68773 1.14636 7.68919C1.14557 7.68997 1.14285 7.68856 1.13875 7.6854L1.08828 7.6603L1.03066 7.71275C1.03355 7.71926 1.03658 7.72564 1.03976 7.73188C1.04044 7.73321 1.04112 7.73453 1.04182 7.73585C1.04967 7.75084 1.05834 7.76502 1.06764 7.77837L1.07562 7.77189L1.07694 7.77082L1.16033 7.70309L1.16563 7.69878ZM1.08819 7.66025L1.00236 7.61755C1.00792 7.65162 1.01765 7.68326 1.03044 7.71224L1.08819 7.66025Z" fill="#002266" stroke="#002266"/>
<path d="M3.66159 7.61388C3.73055 7.64972 3.74125 7.72142 3.68656 7.77638L3.65208 7.81104H3.5591H3.55855L3.66159 7.61388ZM3.66159 7.61388C3.65911 7.61258 3.65603 7.61137 3.65208 7.61025L3.66159 7.61388ZM1.99474 7.74208V7.61984V7.61831V7.607V7.74208Z" fill="#002266" stroke="#002266"/>
</svg>
