<svg width="101" height="92" viewBox="0 0 101 92" fill="none" xmlns="http://www.w3.org/2000/svg">
<rect width="101" height="91.6047" rx="10" fill="#FFD978"/>
<path d="M44.648 12.798C43.5256 13.1848 42.7009 14.0874 42.4261 15.2238L42.3192 15.6671L40.5706 15.7154C38.677 15.7638 38.4862 15.8041 37.7913 16.2715C37.1881 16.6825 36.7224 17.287 36.4933 17.9881L36.3559 18.4072L32.5076 18.4475C28.1936 18.5039 28.2928 18.4878 27.0635 19.1245C25.9029 19.729 24.8721 20.8895 24.3911 22.1306C23.9406 23.2992 23.9711 21.6229 23.9711 47.856C23.9711 73.6619 23.9559 72.3885 24.3453 73.5007C24.7881 74.7338 25.9105 76.0394 27.0711 76.66C27.2773 76.7728 27.7049 76.9501 28.0179 77.0549L28.5906 77.2402H45.7322H62.8738L63.4618 77.0307C64.4086 76.6841 65.0194 76.2812 65.7371 75.5155C66.4472 74.766 66.8672 74.0246 67.1955 72.9688C67.3559 72.4369 67.3711 72.2435 67.4017 69.8095L67.4322 67.2064L67.2032 66.9646C66.9588 66.7067 66.7908 66.6745 66.4625 66.8034C66.0807 66.9565 66.0426 67.2225 66.0426 69.729C66.0426 72.2757 66.0044 72.5578 65.5386 73.5007C65.0347 74.5081 64.0802 75.3463 63.0266 75.6928L62.4921 75.8702H45.694C29.6061 75.8702 28.8731 75.8621 28.4379 75.7251C27.766 75.5075 27.178 75.1448 26.7046 74.6693C25.9258 73.8876 25.5135 73.0413 25.3455 71.905C25.2921 71.5342 25.2692 63.8376 25.2844 47.5014C25.3073 24.5565 25.315 23.6297 25.4448 23.2025C25.964 21.5826 27.1017 20.414 28.5295 20.0191C28.8884 19.9224 29.6367 19.8982 32.6527 19.8982C36.1039 19.8982 36.3482 19.9063 36.3864 20.0352C36.8064 21.3892 37.9211 22.3885 39.2268 22.5658C39.9216 22.6545 51.5046 22.6545 52.2071 22.5578C53.2913 22.4047 54.2152 21.7196 54.7039 20.688C54.849 20.3737 54.9711 20.0675 54.9711 20.011C54.9711 19.9143 55.5972 19.8982 58.7049 19.8982H62.4463L63.0418 20.0997C64.3322 20.5268 65.2714 21.4698 65.7982 22.864C65.9968 23.404 66.0044 23.4201 66.0426 25.9991L66.0807 28.5861L66.264 28.7957C66.5389 29.11 66.9588 29.0858 67.2261 28.7473L67.4322 28.4894L67.394 25.9508C67.3635 23.1461 67.333 22.9688 66.8443 21.8727C66.3022 20.6719 65.363 19.6645 64.2482 19.0923C63.0647 18.4878 63.1716 18.5039 58.85 18.4717C55.9027 18.4475 54.9711 18.4153 54.9711 18.3428C54.9711 18.2863 54.8719 18.0204 54.7421 17.7464C54.4901 17.1661 53.9403 16.5052 53.4822 16.2232C52.7874 15.796 52.5889 15.7638 50.7869 15.7154L49.0842 15.6671L48.9086 15.1271C48.5726 14.0633 47.8549 13.2654 46.8852 12.8785C46.2743 12.6287 45.2283 12.5965 44.648 12.798ZM46.4881 14.2244C47.1906 14.5307 47.6029 15.1271 47.7251 16.0056C47.8854 17.1177 47.9694 17.158 50.4051 17.158C52.0468 17.158 52.2987 17.1822 52.5736 17.3112C52.9554 17.4965 53.3677 17.9237 53.5433 18.3025C54.0014 19.3179 53.5357 20.5591 52.5278 21.0185C52.146 21.1877 52.1384 21.1877 45.6024 21.1716L39.0512 21.1474L38.7381 20.9701C38.0815 20.5994 37.7303 20.0755 37.6615 19.3663C37.6004 18.778 37.7532 18.2783 38.1044 17.8511C38.6694 17.1742 38.8221 17.1419 40.983 17.1419C43.4034 17.15 43.5179 17.1016 43.6248 16.1023C43.6477 15.8524 43.7241 15.5139 43.7852 15.3528C43.9303 14.9981 44.3807 14.4501 44.6709 14.2889C45.1901 14.0068 45.9307 13.9827 46.4881 14.2244Z" fill="#7C5900"/>
<path d="M31.6449 29.521C31.5609 29.5774 31.2555 29.9401 30.9654 30.327C30.6752 30.7057 30.408 31.0201 30.3774 31.0201C30.3469 31.0201 30.2705 30.9233 30.1942 30.8105C29.9117 30.3511 29.3237 30.3028 29.0565 30.7138C28.8122 31.0845 28.8962 31.3586 29.4764 32.1C30.3469 33.2203 30.4462 33.1961 31.7213 31.5762C32.5306 30.5365 32.6757 30.3189 32.6757 30.0771C32.6757 29.5452 32.0649 29.2067 31.6449 29.521Z" fill="#7C5900"/>
<path d="M35.8296 30.4963C35.6998 30.5527 35.5547 30.6736 35.5089 30.7703C35.3027 31.1652 35.5089 31.6891 35.906 31.7858C35.9976 31.81 40.9835 31.818 46.9774 31.81L57.8885 31.7858L58.0335 31.5924C58.2473 31.3103 58.2244 30.8509 57.9801 30.6091L57.7816 30.4157L46.9316 30.3996C37.8225 30.3835 36.0358 30.3996 35.8296 30.4963Z" fill="#7C5900"/>
<path d="M65.6607 31.2699C64.462 31.415 63.057 31.9711 61.9346 32.7367C60.8657 33.4701 59.728 34.7838 59.1019 36.0168C58.7354 36.7422 58.2925 38.1042 58.178 38.8698C58.0787 39.5388 58.0711 41.207 58.1703 41.8196C58.6437 44.8096 60.4457 47.3482 62.996 48.6297C66.2945 50.2738 70.0359 49.6532 72.6701 47.0259C76.2893 43.4153 76.2893 37.3225 72.6701 33.7119C71.9371 32.9785 71.3339 32.5513 70.3642 32.0678C68.8753 31.3263 67.3482 31.0684 65.6607 31.2699ZM68.6004 32.8657C71.96 33.8086 74.2277 37.121 74.0368 40.796C73.8612 44.1568 71.7462 46.9211 68.6004 47.8802C68.0735 48.0413 67.8216 48.0655 66.7297 48.0655C65.6378 48.0655 65.3859 48.0413 64.859 47.8802C64.0649 47.6384 63.0952 47.1548 62.4997 46.7035C61.8506 46.2199 60.8428 45.0755 60.461 44.3985C59.0561 41.8921 59.0637 38.7893 60.4839 36.3312C60.9878 35.4608 62.1408 34.2357 62.8891 33.7683C63.645 33.2928 64.4314 32.9624 65.2026 32.7851C66.0883 32.5755 67.7223 32.6158 68.6004 32.8657Z" fill="#7C5900"/>
<path d="M31.7893 37.7816C31.7053 37.8219 31.3846 38.1765 31.0715 38.5634C30.7661 38.9583 30.4836 39.3129 30.4531 39.3532C30.4149 39.4015 30.2851 39.3048 30.14 39.1275C29.9338 38.8858 29.8346 38.8213 29.6055 38.8132C29.2085 38.8052 28.9336 39.0792 28.9336 39.4902C28.9336 39.7481 29.0176 39.9012 29.4757 40.4815C30.0331 41.1988 30.2469 41.3358 30.5981 41.2068C30.7127 41.1665 31.1937 40.6266 31.7358 39.9335C32.5146 38.9341 32.675 38.6843 32.675 38.4667C32.675 37.9912 32.1863 37.6124 31.7893 37.7816Z" fill="#7C5900"/>
<path d="M35.9062 38.8133C35.5244 38.8939 35.2877 39.5708 35.5244 39.8932C35.7535 40.2075 35.7993 40.2075 41.2281 40.2075H46.5118L46.7333 39.9738C47.0998 39.587 47.0081 39.0792 46.5347 38.8697C46.3133 38.773 45.4123 38.7568 41.1746 38.7649C38.3724 38.773 35.9978 38.7971 35.9062 38.8133Z" fill="#7C5900"/>
<path d="M31.7893 46.1636C31.7053 46.2039 31.3846 46.5585 31.0715 46.9453C30.7661 47.3402 30.4836 47.6948 30.4531 47.7271C30.4225 47.7674 30.2851 47.6626 30.14 47.5014C29.9338 47.2596 29.8269 47.2032 29.5902 47.2032C29.1932 47.2032 28.9336 47.4692 28.9336 47.8721C28.9336 48.13 29.0176 48.2832 29.4757 48.8634C30.3462 49.9837 30.4454 49.9595 31.7205 48.3315C32.507 47.3241 32.675 47.0581 32.675 46.8405C32.675 46.3731 32.1863 45.9943 31.7893 46.1636Z" fill="#7C5900"/>
<path d="M35.9049 47.1951C35.6605 47.2434 35.4238 47.5981 35.4238 47.9043C35.4238 48.1058 35.4849 48.2267 35.6605 48.3798L35.8972 48.5894H41.2039H46.5105L46.732 48.3556C47.0985 47.9688 47.0068 47.4611 46.5334 47.2515C46.312 47.1548 45.411 47.1387 41.1733 47.1467C38.3711 47.1548 35.9965 47.179 35.9049 47.1951Z" fill="#7C5900"/>
<path d="M60.9652 51.0073C60.217 51.1121 59.484 51.3136 58.751 51.6279C55.628 52.9335 53.4825 55.6656 52.78 59.2278C52.6731 59.7759 52.6426 60.3239 52.6426 62.0325V64.1601L52.8564 64.3536C53.1312 64.6034 53.4519 64.6034 53.7268 64.3536L53.9406 64.1601L53.9864 61.8713C54.0322 59.7356 54.0475 59.5421 54.2384 58.8249C54.7576 56.8745 55.9182 55.1015 57.43 53.9651C58.1019 53.4574 59.3694 52.8287 60.1406 52.6192C60.9042 52.4097 62.0953 52.2968 62.6145 52.3855C62.8359 52.4258 63.2864 52.595 63.63 52.7643C64.4241 53.1672 64.5997 53.2398 65.2029 53.3768C66.8064 53.7636 68.4709 53.5299 69.9369 52.732C70.5859 52.3774 71.0364 52.3049 71.9832 52.3855C74.8694 52.6434 77.351 54.4567 78.6413 57.2533C79.3591 58.7846 79.4278 59.1714 79.4736 61.8713L79.5194 64.1601L79.7332 64.3536C80.031 64.6195 80.3517 64.6034 80.6342 64.3133L80.8556 64.0795V62.3146C80.8556 59.792 80.6953 58.6637 80.115 57.213C78.6642 53.5702 75.5108 51.1927 71.8 50.9509C70.7997 50.8864 70.25 50.9993 69.349 51.4587C67.5546 52.3774 65.9207 52.3774 64.1187 51.4667C63.7293 51.2652 63.2253 51.0637 63.0039 51.0154C62.5534 50.9187 61.6601 50.9106 60.9652 51.0073Z" fill="#7C5900"/>
<path d="M31.7893 54.5532C31.7053 54.5854 31.3846 54.94 31.0715 55.3269C30.7661 55.7218 30.4836 56.0764 30.4531 56.1086C30.4225 56.1489 30.2851 56.0441 30.14 55.8829C29.9415 55.6492 29.8269 55.5847 29.5979 55.5767C29.2085 55.5686 28.9336 55.8426 28.9336 56.2617C28.9336 56.5116 29.0099 56.6566 29.3612 57.108C30.0636 57.9945 30.308 58.1557 30.6821 57.9381C30.7585 57.8978 31.1097 57.4948 31.4609 57.0354C31.8045 56.576 32.2245 56.0441 32.3848 55.8507C32.591 55.5928 32.675 55.4236 32.675 55.2301C32.675 54.7627 32.1863 54.3839 31.7893 54.5532Z" fill="#7C5900"/>
<path d="M35.9049 55.5769C35.6605 55.6253 35.4238 55.9799 35.4238 56.2861C35.4238 56.4876 35.4849 56.6085 35.6605 56.7616L35.8972 56.9712H41.2039H46.5105L46.732 56.7375C47.0985 56.3506 47.0068 55.8429 46.5334 55.6333C46.312 55.5366 45.411 55.5205 41.1733 55.5286C38.3711 55.5366 35.9965 55.5608 35.9049 55.5769Z" fill="#7C5900"/>
<path d="M58.2471 58.8731C58.0639 59.0826 58.0639 59.0826 58.041 61.1861C58.0104 63.6522 58.041 64.0874 58.2929 64.3534C58.5525 64.6274 58.8961 64.6113 59.1786 64.3131L59.4001 64.0794V61.6455C59.4001 58.736 59.3848 58.6635 58.6823 58.6635C58.5144 58.6635 58.3769 58.728 58.2471 58.8731Z" fill="#7C5900"/>
<path d="M74.3812 58.7197C74.3278 58.7439 74.2362 58.8648 74.1751 58.9857C74.0835 59.1791 74.0605 59.6627 74.0605 61.6453V64.0792L74.282 64.3129C74.6943 64.7481 75.2822 64.5225 75.3968 63.8938C75.4197 63.7407 75.4349 62.5963 75.4197 61.3471L75.3968 59.0824L75.2135 58.8729C75.0303 58.6714 74.6561 58.5989 74.3812 58.7197Z" fill="#7C5900"/>
<path d="M31.7815 62.9349C31.6898 62.9752 31.3539 63.3459 31.0256 63.7569C30.7049 64.168 30.43 64.5145 30.4224 64.5306C30.4071 64.5468 30.2773 64.4259 30.1322 64.2566C29.8039 63.8778 29.4297 63.8375 29.1243 64.1438C28.7807 64.4823 28.8571 64.8127 29.4221 65.5542C30.3384 66.7389 30.4453 66.7147 31.7204 65.0867C32.4992 64.0874 32.6748 63.8134 32.6748 63.6038C32.6748 63.1283 32.1862 62.7576 31.7815 62.9349Z" fill="#7C5900"/>
<path d="M35.8373 63.9825C35.3945 64.1678 35.3028 64.7481 35.6464 65.1188L35.8679 65.3525H41.1898H46.5117L46.7331 65.1188C47.0844 64.7481 47.0156 64.2645 46.5728 64.0228C46.3819 63.918 45.6489 63.9019 41.1745 63.9099C38.3265 63.9099 35.9213 63.9422 35.8373 63.9825Z" fill="#7C5900"/>
</svg>
