<svg width="19" height="26" viewBox="0 0 19 26" fill="none" xmlns="http://www.w3.org/2000/svg">
<path d="M7.41595 1.10291C6.74071 1.36134 6.21552 2.03658 6.04045 2.88689C5.99044 3.12031 5.9821 3.12031 5.25683 3.12865C4.43153 3.13698 4.15643 3.17033 4.03139 3.29538C3.98971 3.33706 3.93135 3.67885 3.91468 4.03731L3.88967 4.70422H2.11402C0.605141 4.70422 0.313369 4.72089 0.204996 4.8376C0.0882866 4.95431 0.0716139 5.79629 0.0799503 12.8989V20.8351L2.18071 22.7274L4.28148 24.6198L7.10751 24.6281H9.9252L10.317 24.9116C11.5758 25.8286 13.143 26.1704 14.5769 25.8286C16.0441 25.4868 17.3612 24.4364 17.9948 23.1109C18.3533 22.369 18.5784 21.502 18.5784 20.8518C18.5784 19.9348 18.1949 18.6926 17.678 17.9424C17.3946 17.5339 16.811 16.9253 16.5193 16.7336L16.3275 16.6086V10.7564C16.3275 6.31314 16.3025 4.87929 16.2275 4.80426C16.1525 4.72923 15.6106 4.70422 14.3101 4.70422H12.4928V4.03731C12.4928 3.15366 12.4178 3.0953 11.2423 3.13698C10.4421 3.16199 10.4087 3.15366 10.4087 2.98693C10.4087 2.58678 10.1169 1.98657 9.7418 1.61977C9.11657 0.986202 8.23292 0.794465 7.41595 1.10291ZM8.9165 1.97823C9.39167 2.29501 9.58341 2.67015 9.56674 3.22035C9.54173 3.92894 9.58341 3.95395 10.7088 3.95395H11.6592V4.95431V5.95468H8.19957H4.73998V4.95431V3.95395H5.73201C6.89076 3.95395 6.94078 3.9206 6.86575 3.31205C6.72404 2.21998 8.01617 1.36967 8.9165 1.97823ZM3.92302 5.95468C3.89801 6.24645 3.93135 6.43819 4.02305 6.5799L4.15643 6.78831H8.19957C12.8179 6.78831 12.4928 6.84667 12.4928 6.0297V5.53786H13.9933H15.4939L15.5022 8.97244C15.5189 12.6988 15.5189 14.9996 15.5022 15.6832L15.4939 16.1167L15.0187 15.9416C14.3185 15.6916 13.0013 15.6415 12.2177 15.8333C10.7505 16.1917 9.45836 17.2171 8.83314 18.5509C8.10787 20.0681 8.0912 21.4603 8.75811 22.9609C8.89149 23.2526 9.05822 23.5611 9.13325 23.6445C9.25829 23.7862 9.16659 23.7945 6.79906 23.7945H4.32316V22.294V20.7934H2.61421H0.905251V13.1656V5.53786H2.43081H3.94803L3.92302 5.95468ZM14.0767 16.5419C14.8853 16.6669 15.869 17.1838 16.4776 17.8007C17.7947 19.1261 18.1032 21.0602 17.2695 22.7608C17.0695 23.1693 16.4526 23.9612 16.3359 23.9612C16.3025 23.9612 16.2025 23.8028 16.1024 23.6028C15.5356 22.444 14.2018 21.6104 13.1264 21.7438C12.1927 21.8521 11.234 22.5607 10.6588 23.5694L10.4337 23.9696L10.1253 23.6111C9.95021 23.411 9.68345 22.9859 9.52506 22.6524C8.71643 20.9851 9.06656 19.0511 10.4087 17.759C11.0256 17.1588 11.7759 16.7419 12.5261 16.5835C13.1597 16.4418 13.3931 16.4418 14.0767 16.5419ZM13.96 22.6858C14.7103 22.9359 15.7773 24.253 15.4939 24.5865C15.4355 24.6532 15.0771 24.8115 14.6853 24.9283C14.0767 25.12 13.885 25.145 13.2181 25.1033C12.4761 25.0616 11.6425 24.8366 11.2924 24.5865C11.159 24.4864 11.159 24.4531 11.334 24.1113C11.6008 23.5861 11.8926 23.2276 12.2761 22.9692C12.918 22.5274 13.3098 22.4607 13.96 22.6858Z" fill="#00194C"/>
<path d="M7.82528 2.60357C7.53351 2.90368 7.5085 3.10375 7.75026 3.40386C7.8753 3.56225 8.00035 3.62061 8.20876 3.62061C8.95903 3.62061 9.05073 2.57856 8.30879 2.4035C8.12539 2.36181 8.03369 2.4035 7.82528 2.60357Z" fill="#00194C"/>
<path d="M2.98166 8.54735C2.91497 8.68073 2.91497 8.78077 2.98166 8.92249L3.07336 9.12256H8.18355C12.0433 9.12256 13.3188 9.09755 13.3938 9.02252C13.4521 8.96417 13.4938 8.84746 13.4938 8.74742C13.4938 8.64739 13.4521 8.53068 13.3938 8.47232C13.3188 8.39729 12.0516 8.37229 8.18355 8.37229H3.0817L2.98166 8.54735Z" fill="#00194C"/>
<path d="M3.05591 11.1403C2.86418 11.332 2.86418 11.4821 3.05591 11.6488C3.19763 11.7739 3.68114 11.7905 8.24947 11.7905C12.0592 11.7905 13.318 11.7655 13.393 11.6905C13.4514 11.6321 13.493 11.5071 13.493 11.4071C13.493 10.9902 13.5764 10.9986 8.20779 10.9986C3.54776 10.9986 3.18929 11.0069 3.05591 11.1403Z" fill="#00194C"/>
<path d="M3.03913 13.6408C2.8724 13.8825 2.8724 13.9242 3.07248 14.1243C3.2392 14.291 3.34758 14.291 8.18267 14.291C12.5176 14.291 13.1428 14.2743 13.3095 14.1576C13.5263 14.0076 13.543 13.7742 13.3596 13.5908C13.2428 13.4741 12.6593 13.4574 8.19934 13.4574H3.16418L3.03913 13.6408Z" fill="#00194C"/>
<path d="M4.28157 16.1002C3.30622 16.1252 3.09781 16.1502 3.01445 16.2669C2.87273 16.4503 2.88106 16.5837 3.03946 16.7421C3.14783 16.8588 3.48962 16.8755 5.49868 16.8755H7.82453L7.91623 16.6754C7.98292 16.5337 7.98292 16.4337 7.91623 16.317C7.81619 16.1169 7.19097 16.0335 6.12391 16.0585C5.74877 16.0669 4.92347 16.0919 4.28157 16.1002Z" fill="#00194C"/>
<path d="M3.03913 18.6422C2.8724 18.884 2.8724 18.9257 3.07248 19.1258C3.23087 19.2841 3.34758 19.2925 5.18158 19.2925C7.03225 19.2925 7.14062 19.2841 7.28234 19.1258C7.40739 18.9924 7.42406 18.909 7.35737 18.7256L7.28234 18.5005L5.22326 18.4755C3.17251 18.4588 3.16418 18.4588 3.03913 18.6422Z" fill="#00194C"/>
<path d="M12.5356 17.4673C11.7603 17.8758 11.4102 18.451 11.4102 19.3013C11.4102 19.7432 11.4518 19.9099 11.6602 20.2684C12.2188 21.2354 13.4192 21.5605 14.3779 21.002C15.5783 20.3017 15.7201 18.7178 14.6697 17.7674C14.1195 17.2673 13.1691 17.1339 12.5356 17.4673ZM14.1612 18.451C14.5696 18.8428 14.6447 19.2346 14.4196 19.7432C14.1612 20.3434 13.4609 20.6185 12.919 20.335C12.4939 20.1183 12.2438 19.7432 12.2438 19.3263C12.2438 18.6844 12.5606 18.2593 13.1274 18.1426C13.5943 18.0425 13.8027 18.1092 14.1612 18.451Z" fill="#00194C"/>
</svg>
