<svg width="101" height="93" viewBox="0 0 101 93" fill="none" xmlns="http://www.w3.org/2000/svg">
<rect y="0.697754" width="101" height="91.6047" rx="10" fill="#F59498" fill-opacity="0.9"/>
<path d="M37.2809 29.0976C37.2533 29.136 37.2326 33.2272 37.2326 38.189C37.2257 47.5558 37.2188 47.4086 37.4949 47.4086C37.5433 47.4086 37.633 47.3637 37.6882 47.3061C37.7849 47.2165 37.7987 46.3201 37.7987 38.3747V29.5457H46.4964H55.1942L55.208 34.354C55.2287 38.8613 55.2356 39.175 55.353 39.239C55.4358 39.2903 55.5048 39.2903 55.5946 39.239C55.705 39.175 55.7119 38.8485 55.7326 34.1875C55.7395 30.5637 55.7257 29.1872 55.6705 29.1232C55.6015 29.0464 54.0759 29.0336 46.455 29.0336C40.3666 29.0336 37.3086 29.0528 37.2809 29.0976Z" fill="#5D2C09"/>
<path d="M58.3829 29.1103C58.2656 29.2192 58.2656 34.8661 58.3829 34.975C58.5141 35.0966 64.6025 35.0838 64.713 34.9622C64.7682 34.9045 64.782 34.0658 64.7751 31.9722L64.7544 29.0655L61.6135 29.0463C59.2251 29.0335 58.4451 29.0527 58.3829 29.1103ZM64.2367 32.0427V34.5396H61.5445H58.8523V32.0427V29.5457H61.5445H64.2367V32.0427Z" fill="#5D2C09"/>
<path d="M61.9802 31.7352L61.2002 32.4587L60.8274 32.1129C60.5099 31.8248 60.427 31.7736 60.2752 31.812C60.1371 31.844 60.0957 31.8952 60.0957 32.0297C60.0957 32.1577 60.2131 32.3114 60.572 32.6315C60.8619 32.894 61.1104 33.0669 61.2002 33.0669C61.2968 33.0669 61.6489 32.7788 62.2425 32.2154C62.9673 31.5303 63.133 31.3382 63.1192 31.2102C63.1054 31.0949 63.0502 31.0437 62.9259 31.0309C62.7879 31.0181 62.6015 31.1526 61.9802 31.7352Z" fill="#5D2C09"/>
<path d="M40.7672 32.2796C40.5464 32.3565 40.498 32.5549 40.6706 32.7086C40.7672 32.7982 41.3885 32.811 46.4898 32.811C50.8387 32.811 52.2193 32.7918 52.2814 32.7342C52.4057 32.619 52.3781 32.3757 52.2331 32.2988C52.0881 32.2284 40.9674 32.2092 40.7672 32.2796Z" fill="#5D2C09"/>
<path d="M40.6434 34.9367C40.5951 34.9815 40.5605 35.0584 40.5605 35.116C40.5605 35.3529 40.6917 35.3721 42.1206 35.3721C43.2872 35.3721 43.5288 35.3593 43.5979 35.276C43.6669 35.1992 43.6669 35.1416 43.6117 35.0199L43.5288 34.8599H42.1275C41.1266 34.8599 40.7055 34.8791 40.6434 34.9367Z" fill="#5D2C09"/>
<path d="M44.7699 34.988C44.7147 35.0776 44.7147 35.1545 44.7699 35.2441C44.8459 35.3721 44.9011 35.3721 48.5873 35.3593L52.3287 35.3401L52.3494 35.1929C52.4046 34.8535 52.5013 34.8599 48.5252 34.8599C44.9149 34.8599 44.839 34.8599 44.7699 34.988Z" fill="#5D2C09"/>
<path d="M40.6421 37.5617C40.5386 37.6577 40.5386 37.8242 40.6421 37.9202C40.7042 37.9779 41.7949 37.9971 45.1221 37.9971C49.0292 37.9971 49.5332 37.9843 49.6298 37.8946C49.761 37.773 49.7679 37.6641 49.6574 37.5617C49.5401 37.4529 40.7595 37.4529 40.6421 37.5617Z" fill="#5D2C09"/>
<path d="M58.9905 37.7344C58.7006 37.8817 58.3899 38.157 58.2657 38.381C58.0379 38.8036 58.0862 39.431 58.383 39.8152C58.5556 40.0393 58.7144 39.7832 57.037 42.0432C55.8358 43.6759 55.7047 43.8231 55.5252 43.8231C55.4148 43.8231 55.1386 43.8807 54.9177 43.9512L54.5036 44.0792L53.5855 43.4006C52.9849 42.9524 52.6812 42.6835 52.695 42.6131C52.7916 42.1777 52.7847 41.6463 52.6743 41.4478C52.3774 40.91 51.8942 40.6219 51.273 40.6219C50.0304 40.6219 49.3125 41.928 50.058 42.8435C50.1478 42.9524 50.2237 43.0676 50.2237 43.0996C50.2237 43.1253 49.637 44.0408 48.9259 45.1356L47.6351 47.1204L47.1174 47.1524C46.8205 47.1716 46.503 47.2356 46.3787 47.2996L46.1578 47.4085L45.2398 46.685C44.5702 46.1472 44.3286 45.9231 44.3424 45.8335C44.4459 45.2829 44.4321 44.8539 44.3009 44.617C44.0179 44.1048 43.5347 43.8231 42.9411 43.8231C42.2646 43.8231 41.8366 44.0664 41.5536 44.6234C41.3396 45.046 41.3396 45.4429 41.5605 45.8399L41.7261 46.1536L41.2705 46.6658C41.022 46.9539 40.5181 47.5237 40.1523 47.9399C39.6069 48.5673 39.4689 48.689 39.3515 48.657C38.2401 48.3304 37.2461 48.9515 37.2461 49.9695C37.2461 51.0707 38.4058 51.7109 39.462 51.1987C40.1937 50.8466 40.4698 50.0335 40.097 49.3356C40.0142 49.1756 39.9659 49.0155 40.0004 48.9835C40.028 48.9451 40.525 48.3689 41.1118 47.7094C42.1541 46.5121 42.1679 46.4993 42.3819 46.5506C42.7961 46.653 43.3483 46.6082 43.6245 46.4609L43.8868 46.3201L44.6806 46.9411C45.1155 47.2868 45.5366 47.6134 45.6194 47.671C45.7506 47.7734 45.7575 47.799 45.6746 48.0359C45.5228 48.4457 45.5987 49.0219 45.8472 49.342C46.7101 50.4881 48.6429 49.899 48.636 48.4969C48.636 48.2472 48.422 47.7606 48.2218 47.5685C48.0976 47.4405 48.1114 47.4085 49.4092 45.4109L50.7345 43.3814L51.128 43.4198C51.4593 43.4518 51.5767 43.4326 51.9149 43.2917L52.3084 43.1189L53.1782 43.7783C53.6545 44.1368 54.0756 44.4506 54.1101 44.4698C54.1446 44.4954 54.1239 44.5978 54.0618 44.7067C53.8271 45.1228 53.9651 45.8335 54.3517 46.2112C55.2974 47.1396 56.9886 46.5314 56.9886 45.2637C56.9886 44.8859 56.8368 44.553 56.5261 44.2585L56.2707 44.0152L56.823 43.2725C57.1198 42.8628 57.7273 42.0496 58.169 41.467L58.9698 40.3978L59.4461 40.417C60.3642 40.4618 60.9993 40.0073 61.158 39.2006C61.2616 38.6756 60.8681 38.0097 60.2952 37.7408C59.95 37.5743 59.3218 37.5743 58.9905 37.7344ZM60.1019 38.221C60.5368 38.4323 60.7162 39.0661 60.4608 39.4759C60.3435 39.6615 59.881 39.9176 59.6601 39.9176C59.4047 39.9176 58.9905 39.7064 58.8524 39.5015C58.6868 39.2518 58.673 38.8356 58.8179 38.5667C59.0388 38.1698 59.6532 38.0097 60.1019 38.221ZM51.7148 41.2365C52.3291 41.5054 52.3981 42.3185 51.839 42.7283C51.3765 43.0612 50.7 42.8948 50.4308 42.3826C50.0304 41.6207 50.8726 40.8652 51.7148 41.2365ZM43.3828 44.4506C44.1491 44.8347 43.9489 45.9487 43.086 46.096C42.7961 46.1472 42.3198 45.9743 42.1472 45.7439C41.5605 44.982 42.4924 44.0088 43.3828 44.4506ZM55.9946 44.5274C56.1396 44.617 56.2638 44.7579 56.3398 44.95C56.4916 45.3213 56.395 45.6478 56.0567 45.9295C55.4562 46.4161 54.5036 45.9871 54.5036 45.2317C54.5036 44.5722 55.3595 44.1689 55.9946 44.5274ZM47.5315 47.7606C48.2426 48.1 48.2287 49.0027 47.5039 49.3292C46.4271 49.8094 45.5987 48.4009 46.5996 47.7926C46.8481 47.639 47.2554 47.6262 47.5315 47.7606ZM39.1789 49.1948C40.0832 49.6365 39.669 50.9426 38.6543 50.8466C38.1021 50.7954 37.75 50.392 37.8121 49.8798C37.895 49.246 38.5853 48.8939 39.1789 49.1948Z" fill="#5D2C09"/>
<path d="M40.671 40.1484C40.6089 40.1997 40.5605 40.2829 40.5605 40.3277C40.5605 40.5454 40.7262 40.5582 43.0525 40.5454L45.3581 40.5262L45.3788 40.3789C45.4341 40.046 45.4133 40.046 43.0042 40.046C41.0714 40.046 40.7607 40.0588 40.671 40.1484Z" fill="#5D2C09"/>
<path d="M64.3206 41.1533C64.2585 41.2237 64.2447 42.4338 64.2516 45.9679C64.2723 50.3856 64.2792 50.6993 64.3966 50.7633C64.4794 50.8146 64.5484 50.8146 64.6382 50.7633C64.7486 50.6993 64.7555 50.392 64.7555 45.8975V41.1021L64.5761 41.0829C64.4794 41.0701 64.3621 41.1021 64.3206 41.1533Z" fill="#5D2C09"/>
<path d="M60.6131 44.7963C60.5924 44.8412 60.5855 46.2049 60.5924 47.8247L60.6131 50.7698L60.7788 50.789C61.124 50.8402 61.1309 50.8018 61.1309 47.7735C61.1309 45.9616 61.1033 44.9244 61.0618 44.8412C60.979 44.7067 60.6615 44.6747 60.6131 44.7963Z" fill="#5D2C09"/>
<path d="M62.4421 46.3776C62.4007 46.4608 62.373 47.2547 62.373 48.5288C62.373 49.8029 62.4007 50.5968 62.4421 50.68C62.5525 50.8657 62.8424 50.8401 62.9322 50.6288C62.9736 50.5264 62.9943 49.6941 62.9805 48.42C62.9598 46.6913 62.946 46.3712 62.8563 46.32C62.6906 46.224 62.5249 46.2496 62.4421 46.3776Z" fill="#5D2C09"/>
<path d="M56.8846 47.9975C56.8639 48.0807 56.857 48.721 56.8639 49.4188C56.8846 50.5521 56.8984 50.6993 57.0089 50.7633C57.0917 50.8146 57.1607 50.8146 57.2505 50.7633C57.354 50.6993 57.3678 50.5585 57.3678 49.2908V47.8886L57.1469 47.8694C56.9606 47.8502 56.9191 47.8758 56.8846 47.9975Z" fill="#5D2C09"/>
<path d="M58.8314 48.5161C58.721 48.5865 58.7141 48.7146 58.7279 49.6429C58.7486 50.5585 58.7624 50.6993 58.8729 50.7633C58.9557 50.8146 59.0247 50.8146 59.1145 50.7633C59.218 50.6993 59.2318 50.5585 59.2525 49.6621C59.2663 48.7914 59.2525 48.6185 59.1628 48.5353C59.0247 48.4136 58.9833 48.4072 58.8314 48.5161Z" fill="#5D2C09"/>
<path d="M37.274 52.4153C37.2464 52.4601 37.2188 52.8955 37.2188 53.3884C37.2188 54.4064 37.2671 54.5729 37.7089 54.8802C37.9574 55.0595 37.9643 55.0595 39.1723 55.0787L40.3941 55.0979L40.6564 55.8278C40.8014 56.2247 41.0706 56.8265 41.2501 57.1531L41.5745 57.7485L40.7669 58.5168C39.8902 59.3555 39.7452 59.6052 39.8626 60.0982C39.9454 60.4311 40.0697 60.572 41.3674 61.7564C42.6376 62.9217 42.7964 63.0177 43.3762 62.9345C43.673 62.8961 43.7697 62.832 44.529 62.1278C44.9915 61.7116 45.3919 61.3659 45.4264 61.3659C45.4678 61.3659 45.7992 61.5067 46.1719 61.6796C46.5378 61.8525 47.166 62.0894 47.5663 62.211L48.2911 62.4223V63.4467C48.298 64.7656 48.4085 65.0473 49.0712 65.3034C49.2714 65.3802 49.6441 65.3994 51.0316 65.3994C53.0128 65.3994 53.1716 65.361 53.5167 64.8808C53.7031 64.6183 53.71 64.5927 53.7307 63.5107L53.7583 62.4095L54.3865 62.2302C54.7247 62.1342 55.346 61.8973 55.7602 61.7116C56.1743 61.5195 56.5402 61.3659 56.5747 61.3659C56.6161 61.3659 56.9889 61.686 57.4169 62.0765C58.3971 62.9729 58.7077 63.1073 59.3014 62.8769C59.5637 62.7744 61.8072 60.7256 62.0281 60.3863C62.1799 60.1558 62.2145 59.65 62.0902 59.4259C62.0488 59.3491 61.6553 58.9522 61.2204 58.5424L60.4266 57.7997L60.8132 57.0634C61.0271 56.6601 61.2964 56.0519 61.4137 55.7125L61.6277 55.0915H62.7667C64.0368 55.0915 64.2854 55.0275 64.596 54.6305C64.7479 54.432 64.7548 54.368 64.7548 53.3948C64.7548 52.3769 64.7548 52.3705 64.596 52.3512C64.2785 52.3064 64.237 52.4153 64.237 53.3436V54.208L64.0368 54.3936L63.8367 54.5793H62.5182C61.2135 54.5793 61.1928 54.5793 61.1376 54.7201C61.1031 54.8034 60.9719 55.1683 60.8546 55.5397C60.7303 55.911 60.4404 56.5576 60.2057 56.9802C59.9779 57.4028 59.7708 57.7677 59.7639 57.7933C59.7501 57.8253 60.1574 58.2479 60.6751 58.7345C61.9521 59.9445 61.966 59.7845 60.4611 61.193C59.8191 61.7884 59.1979 62.3198 59.0805 62.3647C58.7354 62.5055 58.5145 62.3775 57.5757 61.5003C57.1063 61.065 56.6921 60.7256 56.623 60.7256C56.5471 60.7256 56.4091 60.7769 56.3124 60.8473C55.9189 61.1034 55.0492 61.4619 54.1587 61.7308C53.6479 61.8909 53.2061 62.0509 53.1785 62.0894C53.1508 62.1342 53.1232 62.6912 53.1232 63.3314C53.1232 64.4711 53.1163 64.5031 52.9576 64.6759L52.7919 64.8552H51.0247H49.2576L49.0712 64.6759L48.8779 64.5031L48.8572 63.2866C48.8365 62.4607 48.8089 62.0573 48.7536 62.0125C48.7053 61.9805 48.4706 61.9037 48.229 61.8461C47.6077 61.6988 46.8415 61.4107 46.096 61.0394C45.7439 60.8665 45.4126 60.7256 45.3505 60.7256C45.2883 60.7256 44.8535 61.0906 44.3771 61.5323C43.9008 61.9741 43.4314 62.3647 43.3417 62.3967C43.0449 62.4991 42.7688 62.307 41.5814 61.193C40.0697 59.7781 40.0904 59.9317 41.3191 58.7729C41.8161 58.3119 42.2165 57.8894 42.2165 57.8381C42.2165 57.7869 42.0301 57.4028 41.8023 56.9866C41.5745 56.5705 41.2708 55.8918 41.1327 55.482C40.9947 55.0723 40.8497 54.7009 40.8152 54.6561C40.7669 54.5985 40.4148 54.5793 39.476 54.5793H38.199L37.9988 54.3936C37.7986 54.208 37.7986 54.208 37.7986 53.3948C37.7986 52.9531 37.7641 52.5305 37.7296 52.4601C37.6467 52.3256 37.3499 52.2936 37.274 52.4153Z" fill="#5D2C09"/>
<path d="M42.9353 52.4089C42.8593 52.5306 42.9076 53.4717 43.0181 54.0159C43.6532 57.1083 46.3384 59.5284 49.714 60.0534C50.6045 60.1879 51.5916 60.1623 51.702 60.0022C51.7573 59.9254 51.7573 59.8614 51.702 59.7781C51.6399 59.6885 51.4812 59.6629 50.8047 59.6309C49.8451 59.5797 49.3688 59.5028 48.5681 59.2403C47.7535 58.9714 47.1737 58.6897 46.5317 58.2479C44.944 57.1531 43.8948 55.5717 43.5634 53.7854C43.5082 53.4717 43.4599 53.0556 43.4599 52.8571C43.4599 52.6586 43.4254 52.4601 43.377 52.4153C43.2735 52.3193 42.9974 52.3129 42.9353 52.4089Z" fill="#5D2C09"/>
<path d="M44.632 52.4344C44.5147 52.5689 44.5837 53.4204 44.7701 54.1054C44.9357 54.7201 45.412 55.642 45.84 56.167C46.5096 56.9865 47.5451 57.7356 48.5184 58.1006C49.4158 58.4335 49.7816 58.4975 50.8447 58.5295C51.749 58.5551 51.9077 58.5423 52.5359 58.3951C53.7854 58.0942 54.7311 57.5884 55.6423 56.724C56.6432 55.7765 57.2576 54.5664 57.4163 53.2155C57.5061 52.46 57.4577 52.3128 57.1333 52.3512C56.9607 52.3704 56.9538 52.3896 56.871 53.0298C56.6846 54.5216 56.091 55.6356 54.9727 56.5896C53.3436 57.9917 51.0449 58.4143 48.974 57.6908C48.2285 57.4347 47.7107 57.1466 47.1585 56.6984C45.9781 55.7253 45.2947 54.4704 45.1497 53.0106C45.1221 52.7289 45.0669 52.46 45.0324 52.4152C44.9357 52.3064 44.7355 52.3192 44.632 52.4344Z" fill="#5D2C09"/>
<path d="M48.2914 52.4346C48.1602 52.5818 48.2569 53.1901 48.4916 53.6575C48.9955 54.6562 49.9757 55.2004 51.163 55.1428C52.4884 55.0788 53.5032 54.2401 53.7517 53.0108C53.8483 52.5306 53.7655 52.3193 53.4825 52.3514C53.3168 52.3706 53.2892 52.4026 53.2408 52.6907C53.0614 53.6767 52.5022 54.3169 51.6117 54.5538C50.811 54.7715 49.9895 54.5538 49.389 53.9584C49.03 53.5998 48.9403 53.427 48.8229 52.8187C48.7401 52.4154 48.7194 52.3706 48.5606 52.3514C48.464 52.3386 48.3397 52.377 48.2914 52.4346Z" fill="#5D2C09"/>
<path d="M58.7358 52.4152C58.6944 52.4601 58.6461 52.7482 58.6185 53.0555C58.508 54.3616 57.9903 55.6869 57.1827 56.7305C57.0101 56.9546 56.9894 57.0186 57.0515 57.1338C57.1896 57.3707 57.445 57.3067 57.7073 56.961C58.2871 56.2311 58.8049 55.1171 59.0257 54.1247C59.1845 53.4268 59.2397 52.5561 59.1293 52.4345C59.0257 52.3192 58.8256 52.3064 58.7358 52.4152Z" fill="#5D2C09"/>
<path d="M55.2147 58.4526C54.8419 58.6894 54.2827 58.9647 53.8548 59.1248C53.2266 59.3553 53.123 59.4129 53.123 59.541C53.123 59.6178 53.1714 59.7202 53.2335 59.7651C53.4406 59.9315 54.5796 59.4897 55.6564 58.8303C56.2294 58.4782 56.3744 58.2989 56.2294 58.1324C56.0844 57.966 55.8704 58.0364 55.2147 58.4526Z" fill="#5D2C09"/>
</svg>
