<svg width="101" height="93" viewBox="0 0 101 93" fill="none" xmlns="http://www.w3.org/2000/svg">
<rect y="0.697754" width="101" height="91.6047" rx="10" fill="#FFA666"/>
<path d="M44.9102 30.1342V32.2634L44.3911 32.4315C43.6175 32.6709 42.6759 33.058 41.9939 33.4146L41.3934 33.7253L39.9073 32.2379C39.0879 31.4178 38.3957 30.7505 38.3703 30.7505C38.3397 30.7505 37.047 32.024 35.4947 33.5776L32.6701 36.4046L34.1867 37.9226L35.7034 39.4405L35.4489 39.9244C35.1079 40.5713 34.7364 41.4526 34.5074 42.1606C34.4005 42.4815 34.2936 42.7973 34.2682 42.8584L34.2274 42.9756L32.1 42.9858L29.9727 43.0011V46.9997V50.9983L32.1051 51.0238L34.2376 51.0492L34.5277 51.8897C34.8433 52.827 35.0723 53.3618 35.4489 54.075L35.7085 54.5538L34.1867 56.0768L32.6701 57.5948L35.4947 60.4218C37.047 61.9754 38.3397 63.2489 38.3601 63.2489C38.3804 63.2489 39.0675 62.5714 39.8869 61.7411L41.373 60.2384L42.0143 60.5695C42.9253 61.0433 43.6378 61.3285 44.7321 61.6596L44.8848 61.7054L44.9 63.8499L44.9102 65.9995H48.9309H52.9515V64.5478V63.0961H54.1628H55.369L55.6999 62.7395C55.8831 62.5408 56.3157 62.0722 56.6668 61.6953L57.303 61.0127L59.5424 61.0076H61.7868L61.9344 61.3489C62.0362 61.5883 62.1736 61.7869 62.3772 61.9907C63.2322 62.8516 64.581 62.8312 65.4207 61.9449C66.4233 60.8853 66.1027 59.1789 64.7693 58.5269C64.4995 58.3945 64.4334 58.3843 63.8684 58.3843C63.273 58.3843 63.2475 58.3894 62.932 58.5524C62.479 58.7918 62.1431 59.1433 61.9293 59.6068L61.7512 59.9888L59.2981 59.9939L56.845 59.999L55.8831 61.0382L54.9161 62.0773H53.4249H51.9337L51.9235 63.5188L51.9082 64.9553L48.9207 64.9706L45.9281 64.9808V62.9432V60.9108L45.7398 60.8599C45.6329 60.8344 45.4802 60.7937 45.3937 60.7733C44.386 60.5492 42.8439 59.9175 41.7955 59.291L41.2305 58.9599L39.7953 60.3963L38.355 61.8379L36.2734 59.7392C35.1334 58.583 34.1918 57.6202 34.1816 57.5948C34.1715 57.5744 34.7975 56.9173 35.5711 56.1379C36.3396 55.3586 36.9707 54.7066 36.9707 54.6913C36.9707 54.676 36.8536 54.4723 36.7111 54.2329C36.0546 53.1377 35.5405 51.905 35.1944 50.5806L35.0519 50.0305L33.0212 50.005L30.9905 49.9796V46.9997V44.0198L33.0263 43.9944L35.057 43.9689L35.1028 43.7651C35.3777 42.5222 36.0393 40.8719 36.7213 39.7359C36.8587 39.5067 36.9707 39.2979 36.9707 39.2775C36.9707 39.252 36.3294 38.5898 35.5456 37.8054L34.1206 36.3791L36.2327 34.2652L38.3448 32.1513L39.7597 33.5674C40.5333 34.3416 41.2 34.9783 41.2356 34.9783C41.2662 34.9783 41.541 34.8357 41.8413 34.6676C43.0017 33.9952 44.2028 33.5113 45.5617 33.165L45.9281 33.0733V31.0459V29.0186L48.9207 29.0288L51.9082 29.0441L51.9235 30.506L51.9337 31.973H53.43H54.9263L55.9034 33.0172L56.8806 34.0615H59.3439C61.283 34.0615 61.8072 34.0767 61.8072 34.1226C61.8072 34.1583 61.8734 34.3263 61.9548 34.4995C62.1482 34.907 62.5503 35.3044 62.9727 35.5081C63.2882 35.6558 63.3442 35.666 63.8939 35.666C64.4384 35.666 64.4995 35.6558 64.7845 35.5132C66.403 34.7084 66.4132 32.4518 64.7998 31.6419C63.7259 31.1071 62.4332 31.5859 61.9344 32.7014L61.7818 33.0376L59.5577 33.0427H57.3387L56.3564 31.9985L55.3741 30.9543H54.1628H52.9515V29.4771V27.9999H48.9309H44.9102V30.1342ZM64.3672 32.5639C64.8914 32.8288 65.1306 33.4757 64.9016 34.0105C64.5301 34.8816 63.2679 34.8968 62.8709 34.036C62.652 33.5623 62.8047 32.9561 63.217 32.6658C63.5682 32.4213 64.0058 32.3805 64.3672 32.5639ZM64.3876 59.4846C64.8405 59.7036 65.0848 60.2843 64.9372 60.7835C64.8405 61.1095 64.7133 61.2776 64.4181 61.4508C63.9397 61.7309 63.2781 61.5781 62.9574 61.1197C62.764 60.8497 62.7182 60.4014 62.8454 60.0703C62.932 59.8411 63.161 59.5915 63.4104 59.4642C63.6343 59.3419 64.1178 59.3521 64.3876 59.4846Z" fill="#9B4100"/>
<path d="M50.6769 34.2906C50.0509 34.4587 49.5877 34.8407 49.3027 35.4163C48.7734 36.4911 49.2111 37.7645 50.285 38.2943C50.5802 38.442 50.6921 38.4675 51.0993 38.4827C51.4454 38.498 51.6439 38.4827 51.8424 38.4216C52.4073 38.2382 52.9875 37.7085 53.186 37.1889C53.2369 37.0514 53.303 36.924 53.3285 36.9037C53.359 36.8833 54.9215 36.8629 56.8046 36.8629H60.2247L61.436 37.9326L62.6473 38.9972L64.2097 39.0023H65.7722L65.9503 39.3691C66.327 40.1535 67.0598 40.6323 67.8894 40.6323C68.2253 40.6323 68.6834 40.5101 68.9582 40.3522C69.2636 40.1688 69.6809 39.7103 69.8234 39.3996C70.0015 38.9972 70.0677 38.5592 70.0015 38.172C69.8794 37.464 69.4315 36.8629 68.7953 36.5471C68.4696 36.3892 68.4238 36.379 67.8894 36.379C67.3703 36.379 67.3041 36.3892 66.9988 36.5369C66.5407 36.7509 66.1895 37.1074 65.9605 37.5913L65.7722 37.9836H64.4082H63.0443L61.833 36.9139L60.6166 35.8442H56.9674H53.3132L53.1351 35.4672C52.6719 34.5096 51.6642 34.0257 50.6769 34.2906ZM51.7202 35.3806C52.4735 35.7627 52.5294 36.812 51.8322 37.2959C51.5828 37.4691 51.1451 37.5251 50.8397 37.4232C50.2086 37.2144 49.9135 36.435 50.2341 35.8442C50.5344 35.294 51.1655 35.0954 51.7202 35.3806ZM68.3118 37.4538C69.0854 37.7747 69.2432 38.8189 68.6019 39.3487C67.8691 39.9498 66.7799 39.4404 66.7799 38.4929C66.7799 37.6983 67.5891 37.1482 68.3118 37.4538Z" fill="#9B4100"/>
<path d="M59.186 38.7631C58.504 38.9923 57.9951 39.4609 57.761 40.0824L57.6694 40.3269H56.3156H54.9618L53.9184 41.3711L52.8751 42.4153H51.5417H50.2031V42.9247V43.4341H51.7503H53.2924L54.3561 42.3899L55.4198 41.3507L56.5446 41.3456H57.6694L57.761 41.585C58.102 42.4917 58.9315 43.0215 59.9138 42.9604C61.7358 42.8483 62.5654 40.6223 61.2625 39.3183C60.8655 38.9159 60.4431 38.7376 59.8527 38.7172C59.5575 38.702 59.3183 38.7223 59.186 38.7631ZM60.097 39.7716C60.4991 39.8837 60.891 40.4084 60.891 40.8312C60.891 41.3966 60.3515 41.9518 59.8018 41.9569C59.1453 41.962 58.6516 41.4781 58.6516 40.8362C58.6516 40.0773 59.3438 39.5628 60.097 39.7716Z" fill="#9B4100"/>
<path d="M48.1471 39.0583C47.1954 39.1602 46.3963 39.3843 45.5362 39.7918C43.2765 40.8666 41.6682 42.9092 41.1338 45.3949C41.0015 46.0113 40.9557 47.244 41.0422 47.9571C41.4138 51.1407 43.7396 53.8354 46.8442 54.686C47.3481 54.8235 48.1573 54.9458 48.5899 54.9458H48.936L48.9207 54.4466L48.9054 53.9525L48.4474 53.9219C46.7628 53.7997 45.2512 53.1018 44.045 51.8946C42.9762 50.8198 42.335 49.5668 42.0856 48.0692C41.9685 47.3764 42.0041 46.1692 42.1568 45.507C42.4876 44.0808 43.1442 42.9346 44.213 41.921C45.3072 40.8869 46.834 40.1891 48.2133 40.0923C48.427 40.077 48.6764 40.0567 48.768 40.0414L48.936 40.0159L48.9207 39.5218L48.9054 39.0277L48.7273 39.0226C48.6306 39.0175 48.366 39.0328 48.1471 39.0583Z" fill="#9B4100"/>
<path d="M65.0379 42.4001C64.4831 42.5988 64.02 43.042 63.7808 43.5972L63.6434 43.9181L62.4423 43.9334L61.2361 43.9436L59.5667 45.217L57.8923 46.4904H54.2839H50.6704L50.5838 46.2409C50.3955 45.6703 49.9375 45.1406 49.3878 44.8604C47.9526 44.1371 46.2374 45.0234 45.9677 46.628C45.7132 48.1357 47.006 49.5111 48.5379 49.3735C49.4387 49.292 50.2785 48.64 50.5635 47.8046L50.6551 47.5347L54.2839 47.5194L57.9177 47.5092L58.4318 47.9014C58.7168 48.1205 59.4649 48.6961 60.096 49.1749L61.2462 50.0561H62.4423H63.6383L63.6943 50.1936C63.9182 50.7998 64.3101 51.243 64.8445 51.4976C65.1702 51.6505 65.2262 51.6606 65.7504 51.6606C66.2797 51.6606 66.3306 51.6505 66.6512 51.4925C67.0838 51.2837 67.4554 50.9068 67.6742 50.4687C67.8269 50.1478 67.8371 50.107 67.8371 49.5467C67.8371 48.9762 67.832 48.9457 67.664 48.6146C66.8446 46.9947 64.5849 47.0202 63.8062 48.6604L63.6281 49.0373H62.6153H61.6025L60.2792 48.0288C59.5565 47.4786 58.956 47.0151 58.956 46.9998C58.956 46.9845 59.5515 46.521 60.2742 45.9658L61.5974 44.9623H62.6153H63.6383L63.7859 45.2934C63.8724 45.4768 64.0505 45.7417 64.1981 45.8996C65.2415 47.0049 67.0177 46.7146 67.6742 45.3291C67.8269 45.0082 67.8371 44.9521 67.8371 44.4275C67.8371 43.8926 67.8269 43.8468 67.6691 43.5208C67.4554 43.0878 67.1042 42.7261 66.6869 42.5122C66.3917 42.3594 66.3153 42.3441 65.8267 42.3288C65.4094 42.3135 65.2364 42.3339 65.0379 42.4001ZM66.1728 43.4138C66.7734 43.6634 67.0228 44.3918 66.7123 44.9674C66.2034 45.8996 64.8394 45.6653 64.6358 44.6108C64.5544 44.1779 64.8139 43.6583 65.2109 43.4495C65.4807 43.3119 65.8878 43.2915 66.1728 43.4138ZM48.6855 45.6754C49.2097 45.8232 49.627 46.3325 49.6779 46.8827C49.7288 47.4481 49.3675 48.0288 48.8382 48.258C48.5531 48.3853 48.0391 48.3701 47.749 48.2325C47.4182 48.0695 47.123 47.7333 47.0263 47.4022C46.9194 47.0457 46.9245 46.8572 47.0467 46.5261C47.2961 45.8588 48.0086 45.487 48.6855 45.6754ZM66.239 48.5636C66.6156 48.7572 66.8039 49.0373 66.8345 49.4448C66.8752 49.9746 66.6207 50.4025 66.1525 50.596C65.7758 50.754 65.2465 50.6368 64.9463 50.3312C64.4017 49.7861 64.5696 48.8845 65.2771 48.5331C65.5824 48.3853 65.898 48.3955 66.239 48.5636Z" fill="#9B4100"/>
<path d="M50.4062 51.0748V51.5842H51.643L52.8746 51.5893L53.9434 52.6284L55.0122 53.6726H56.3355H57.6638L57.8114 54.0139C58.1677 54.8289 59.0227 55.3536 59.8981 55.2873C61.0228 55.2008 61.8931 54.2788 61.9033 53.1632C61.9135 52.4552 61.5114 51.7217 60.9007 51.3397C60.5037 51.0901 60.178 51.0086 59.6436 51.034C59.2415 51.0493 59.1296 51.0748 58.8446 51.2174C58.4272 51.4212 57.9386 51.9204 57.8063 52.282C57.7605 52.4145 57.6943 52.5571 57.6689 52.5876C57.6333 52.6386 57.3432 52.6539 56.5187 52.6539H55.4194L54.376 51.6096L53.3327 50.5654H51.872H50.4062V51.0748ZM60.3918 52.2209C60.6615 52.4094 60.8905 52.8321 60.8905 53.1378C60.8905 53.4332 60.6615 53.8611 60.3968 54.0597C59.8625 54.4622 59.0838 54.2737 58.7835 53.6624C58.4934 53.0817 58.7173 52.4043 59.2873 52.1343C59.6029 51.9866 60.1067 52.0273 60.3918 52.2209Z" fill="#9B4100"/>
<path d="M67.2227 53.4585C66.612 53.6724 66.1998 54.0596 65.93 54.6555L65.7773 54.9968H64.2047H62.6371L61.4564 56.0411L60.2756 57.0853L58.4333 57.0904C57.4205 57.0955 56.3975 57.0955 56.1583 57.0955C55.9191 57.0904 55.1811 57.0853 54.5195 57.0853H53.3082L53.1606 56.7542C52.4023 55.0885 50.0916 55.058 49.2824 56.7032C49.1196 57.0394 49.1094 57.0802 49.1094 57.6201C49.1094 58.155 49.1196 58.2008 49.2824 58.537C49.9339 59.8614 51.6134 60.1721 52.672 59.1686C52.9265 58.9241 53.2573 58.3944 53.2573 58.2212C53.2573 58.1652 53.8935 58.155 56.9166 58.155H60.5759L60.749 58.0174C60.8406 57.941 61.3902 57.4571 61.9755 56.9477L63.0341 56.0156H64.4032H65.7723L65.9504 56.3874C66.1692 56.851 66.556 57.2279 67.0344 57.4571C67.35 57.6048 67.4212 57.6201 67.8895 57.6201C68.3577 57.6201 68.4289 57.6048 68.7445 57.4571C69.6708 57.0191 70.1797 56.0563 69.9812 55.1191C69.8336 54.3907 69.4468 53.8813 68.8056 53.5655C68.4951 53.4127 68.4035 53.3923 67.9709 53.3821C67.5994 53.3668 67.4212 53.3872 67.2227 53.4585ZM68.3119 54.4671C68.8259 54.681 69.116 55.2668 68.9633 55.7813C68.8565 56.1276 68.658 56.3671 68.3322 56.5097C67.7979 56.7593 67.2533 56.5759 66.9276 56.0512C66.383 55.17 67.35 54.0647 68.3119 54.4671ZM51.5167 56.5504C51.8577 56.6523 52.0969 56.8662 52.2394 57.1973C52.5295 57.8697 52.0714 58.644 51.3538 58.7051C50.9416 58.7408 50.7329 58.6796 50.4988 58.4708C49.7965 57.8341 50.0713 56.744 50.9925 56.5199C51.2164 56.4689 51.2317 56.4689 51.5167 56.5504Z" fill="#9B4100"/>
</svg>
