<svg width="105" height="91" viewBox="0 0 105 91" fill="none" xmlns="http://www.w3.org/2000/svg">
<rect x="0.126953" width="104.744" height="91" rx="10" fill="#FAA9E4"/>
<g clip-path="url(#clip0_334_529)">
<path d="M55.6992 27.1765C55.4112 27.4525 55.4038 27.9618 55.6845 28.2236C55.8839 28.4146 56.0168 28.4429 57.2946 28.5207C58.6388 28.5986 60.2636 29.0372 61.5783 29.6669C64.5695 31.096 66.6597 33.4377 67.7158 36.5294C68.1147 37.6967 68.255 37.8594 68.7794 37.8028C69.2225 37.7533 69.4515 37.5128 69.4515 37.0812C69.4515 36.7062 69.0453 35.4823 68.6243 34.605C67.9226 33.1335 67.1471 32.0723 65.8768 30.8483C64.9019 29.9145 64.2741 29.4263 63.2475 28.825C61.3567 27.7142 59.2075 27.0987 56.9696 27.0209L55.8987 26.9855L55.6992 27.1765Z" fill="#96006D"/>
<path d="M56.0332 31.4358C55.5089 31.5277 55.3021 32.2847 55.6935 32.6738C55.9668 32.9498 56.4912 32.9568 56.7718 32.6951C57.3405 32.1432 56.8457 31.2943 56.0332 31.4358Z" fill="#96006D"/>
<path d="M58.691 31.8673C58.462 31.9027 58.1518 32.2211 58.1444 32.4404C58.1149 32.9852 58.2405 33.1196 59.0972 33.4733C61.6896 34.5416 63.3588 36.7701 63.6247 39.5081C63.6911 40.2509 63.7207 40.3571 63.8979 40.5268C64.1638 40.8028 64.6882 40.8098 64.9763 40.541C65.1904 40.3358 65.1978 40.2934 65.1757 39.5222C65.1166 37.5413 64.1047 35.3764 62.5611 33.919C61.3794 32.8012 59.4148 31.7612 58.691 31.8673Z" fill="#96006D"/>
<path d="M42.605 32.0513C42.4869 32.1008 42.1545 32.3909 41.8812 32.6809C39.2076 35.5462 37.8338 38.9775 37.8338 42.7695C37.8412 46.2432 38.8605 49.1793 41.0319 51.9526L41.2682 52.2568L40.3154 55.3131C39.7984 56.9969 39.3405 58.4684 39.311 58.5887C39.2593 58.7373 39.1263 58.8717 38.8235 59.0415C37.8412 59.6145 36.918 60.5696 36.2976 61.6662C35.9135 62.3454 35.884 62.7416 36.2016 63.0316L36.4084 63.2227H42.7823H49.1488L49.326 63.0529C49.7101 62.685 49.6436 62.3029 49.0085 61.2771C48.5875 60.5908 47.4501 59.473 46.8001 59.0839L46.3348 58.8151V57.5204V56.2257L47.0586 56.5299C50.301 57.9095 53.9052 58.2067 57.3765 57.3931C59.8507 56.8129 62.3028 55.5465 64.1566 53.884C64.777 53.3321 64.9321 53.0492 64.7992 52.7096C64.7549 52.5893 62.5834 50.4598 59.6587 47.6582L54.6069 42.812L55.0722 42.3663C55.5227 41.9418 55.5375 41.9276 55.7886 41.9984C56.4459 42.1823 57.2214 41.963 57.6941 41.4748C58.0708 41.0857 58.152 40.9372 58.2185 40.5056C58.3366 39.8123 58.0929 39.1614 57.539 38.6945C57.1919 38.4044 56.8152 38.2912 56.2317 38.2912C55.8403 38.2912 55.6778 38.3337 55.3528 38.4964C54.5921 38.8996 54.2597 39.5222 54.3336 40.4066L54.3779 40.9089L53.9421 41.3263L53.499 41.7508L48.4545 36.9258C45.6849 34.2798 43.3436 32.0725 43.255 32.03C43.0482 31.931 42.8783 31.9381 42.605 32.0513ZM62.8936 52.9643C62.8641 52.9855 62.6573 53.1482 62.4357 53.3251C61.1654 54.3297 59.3633 55.2565 57.7458 55.7446C55.3602 56.4592 52.5167 56.5441 50.1754 55.9781C44.4736 54.5844 40.3745 50.2546 39.503 44.6868C39.3553 43.7458 39.3553 41.8923 39.4956 40.9584C39.9018 38.3761 40.8694 36.2678 42.5533 34.2657L42.9595 33.7846L52.9524 43.3497C58.4548 48.6204 62.9232 52.943 62.8936 52.9643ZM56.5124 39.8477C56.8078 40.0457 56.6453 40.5834 56.2908 40.5834C56.1135 40.5834 55.8624 40.3358 55.8624 40.1589C55.8624 40.0033 56.1062 39.7345 56.2539 39.7345C56.3056 39.7345 56.4237 39.784 56.5124 39.8477ZM44.3259 55.0159L44.7838 55.3272V56.7634C44.7838 57.5558 44.769 58.1996 44.7543 58.1996C44.7321 58.1996 44.4958 58.143 44.2151 58.0793C43.639 57.9449 42.0068 57.9237 41.4602 58.0439C41.283 58.0864 41.1205 58.1147 41.1131 58.1005C41.0983 58.0864 42.3539 53.9406 42.4573 53.6859C42.4795 53.6293 42.7306 53.792 43.1811 54.1528C43.5578 54.457 44.0748 54.8461 44.3259 55.0159ZM44.2151 59.6216C45.2565 59.8692 46.2905 60.4706 47.0291 61.2488C47.258 61.4964 47.4427 61.7157 47.4427 61.7511C47.4427 61.7794 45.3304 61.8077 42.7454 61.8077C39.0156 61.8077 38.0628 61.7865 38.1071 61.7157C38.277 61.4469 38.7349 60.98 39.1263 60.6828C40.6183 59.5509 42.3908 59.183 44.2151 59.6216Z" fill="#96006D"/>
<path d="M45.0503 49.9573C44.7401 50.113 44.6441 50.2686 44.6367 50.6294C44.6367 50.9266 44.6663 50.969 45.1168 51.3794C46.8894 53.0136 49.1716 54.0678 51.764 54.4569C52.6355 54.5913 54.6444 54.5701 55.4938 54.4215C57.2959 54.1173 57.7095 53.9121 57.7095 53.3391C57.7095 53.0844 57.6652 52.9853 57.4953 52.8156C57.222 52.5609 57.0152 52.5538 56.0698 52.7802C52.6502 53.615 48.9131 52.6953 46.2542 50.3606C45.8701 50.021 45.5673 49.8512 45.3531 49.8512C45.3014 49.8512 45.1685 49.9007 45.0503 49.9573Z" fill="#96006D"/>
<path d="M55.9353 35.3483C55.6473 35.4686 55.4922 35.702 55.4922 36.0416C55.4922 36.5085 55.7581 36.7279 56.3932 36.7915C57.2574 36.8835 57.7301 37.0604 58.3505 37.5344C59.0595 38.065 59.4805 38.8644 59.5987 39.8761C59.6651 40.4633 59.9015 40.7251 60.3668 40.7251C61.1497 40.7251 61.3417 40.1308 60.9798 38.7795C60.581 37.2443 59.1334 35.8577 57.5233 35.4615C56.925 35.3129 56.1569 35.2634 55.9353 35.3483Z" fill="#96006D"/>
<path d="M68.8841 39.2889C68.7955 39.3031 68.6404 39.4021 68.537 39.5012C68.2637 39.7629 68.2637 40.2723 68.537 40.5412C68.6921 40.6897 68.8029 40.7251 69.0835 40.7251C69.3642 40.7251 69.475 40.6897 69.6301 40.5412C69.7852 40.3926 69.8221 40.2865 69.8221 40.0176C69.8221 39.7488 69.7852 39.6427 69.6301 39.4941C69.5193 39.395 69.3937 39.3101 69.3346 39.3101C69.2829 39.3101 69.2017 39.296 69.1426 39.2818C69.0909 39.2677 68.9727 39.2748 68.8841 39.2889Z" fill="#96006D"/>
</g>
<defs>
<clipPath id="clip0_334_529">
<rect width="37.815" height="36.2228" fill="white" transform="translate(34 27)"/>
</clipPath>
</defs>
</svg>
