<svg width="100" height="90" viewBox="0 0 100 90" fill="none" xmlns="http://www.w3.org/2000/svg">
<rect width="99.2308" height="90" rx="10" fill="#FFD978"/>
<path d="M34.0947 25.1684C33.9684 25.4 33.9684 63.6947 34.0947 64.4316L34.2211 65L49.1895 64.9579L64.179 64.8947L64.2421 47.5263L64.2842 30.1579L61.6947 27.5684L59.0842 25H46.6421C39.8 25 34.1579 25.0842 34.0947 25.1684ZM58.6 28.1579V30.6842H61.1263H63.6526V47.5263V64.3684L49.8632 64.3895C42.2842 64.3895 35.7579 64.4105 35.4 64.4316L34.7053 64.4526L34.6421 45.0421L34.6 25.6316H46.6H58.6V28.1579ZM61.2316 28.1579L63.1263 30.0526H61.1684H59.2316V28.1579C59.2316 27.1053 59.2526 26.2632 59.2947 26.2632C59.3158 26.2632 60.2 27.1053 61.2316 28.1579Z" fill="#7C5900" stroke="#7C5900" stroke-width="0.6"/>
<path d="M48.0959 29.5681C47.9696 30.0102 47.8643 30.4734 47.8643 30.5997C47.8643 30.7471 47.6117 30.9155 47.2959 30.9997C46.8328 31.105 46.6012 30.9997 46.0117 30.3892C45.338 29.6734 45.2959 29.6524 44.7485 29.9471C43.6117 30.5576 43.6117 30.5366 43.9696 31.526C44.2854 32.3892 44.2643 32.4734 43.8854 32.8524C43.5485 33.2102 43.3801 33.2313 42.7906 33.0208C41.717 32.6418 41.4433 32.726 41.0433 33.5681L40.6643 34.3681L41.4222 35.0208C42.0538 35.5681 42.1801 35.7787 42.0749 36.2208C41.9696 36.6208 41.738 36.8102 41.2749 36.8945C39.8222 37.1892 39.8433 37.1681 39.9064 38.2208L39.9696 39.2102L40.9801 39.3997C41.8012 39.5471 41.9906 39.6734 42.117 40.1155C42.2222 40.5576 42.117 40.7681 41.4433 41.3155L40.6433 41.9892L41.1275 42.8313L41.5906 43.6734L42.6222 43.3576C43.5906 43.0418 43.6959 43.0418 44.0117 43.3787C44.3485 43.6945 44.3485 43.7997 44.0328 44.7892L43.6959 45.8418L44.538 46.2839L45.4012 46.726L46.0749 45.926C46.6222 45.2734 46.8328 45.1681 47.2959 45.2734C47.738 45.3997 47.8643 45.5681 47.9696 46.3471C48.0959 47.105 48.2222 47.3155 48.6222 47.3997C49.4643 47.6102 50.1801 47.3366 50.3064 46.705C50.5591 45.5471 50.6433 45.4208 51.1275 45.2945C51.5064 45.2102 51.7591 45.3366 52.2433 45.8629C52.8749 46.5787 53.4012 46.6208 54.2643 45.9892C54.6433 45.7155 54.6433 45.6102 54.3906 44.705C54.1591 43.8418 54.1591 43.6734 54.4538 43.3787C54.7485 43.0839 54.917 43.0839 55.7801 43.3155C56.6854 43.5681 56.7906 43.5681 57.0643 43.1892C57.6749 42.3471 57.6538 41.8418 56.917 41.2313C56.3485 40.7681 56.2433 40.5576 56.3485 40.0945C56.4749 39.6524 56.6643 39.526 57.4012 39.3787C58.2854 39.2102 58.2854 39.1892 58.3485 38.2208C58.4117 37.1892 58.4538 37.2102 57.0854 36.9155C56.6854 36.8313 56.4538 36.5997 56.3696 36.2208C56.2433 35.7576 56.3485 35.5681 56.917 35.105C57.6538 34.4945 57.6959 33.9892 57.0222 33.105C56.7064 32.726 56.6643 32.705 55.7801 33.0418C54.8959 33.3787 54.8328 33.3787 54.4749 32.9787C54.1591 32.6418 54.138 32.4524 54.3485 31.7576C54.7064 30.6208 54.6854 30.5787 53.8643 30.1366L53.1275 29.7576L52.4328 30.4313C51.5064 31.3155 50.7064 31.2102 50.4959 30.1997C50.2222 28.7892 50.2012 28.7892 49.2328 28.7892C48.3485 28.7892 48.3064 28.8102 48.0959 29.5681ZM49.8643 30.4524C50.0538 31.2945 50.1801 31.4208 50.917 31.6313C51.717 31.8629 51.8012 31.8418 52.4117 31.2734C52.8328 30.8945 53.1906 30.726 53.4012 30.8102C53.8222 30.9576 53.8433 31.2313 53.5275 32.1366C53.317 32.7681 53.338 32.8734 53.8854 33.4418C54.4959 34.0945 54.6433 34.1155 56.0117 33.7155C56.8117 33.4839 56.8749 34.1787 56.117 34.9576C55.4854 35.5892 55.4643 35.6734 55.6959 36.5155C55.8854 37.3366 55.9906 37.4208 56.7906 37.5681C57.4433 37.7155 57.6749 37.8629 57.717 38.1997C57.7801 38.5997 57.6328 38.705 56.8538 38.9155C56.0117 39.126 55.8854 39.2313 55.6538 40.0102C55.4012 40.8734 55.4012 40.8945 56.138 41.526C56.7906 42.0945 56.8328 42.2208 56.6012 42.5366C56.3485 42.8734 56.2222 42.8945 55.4433 42.6629C54.6012 42.4102 54.5591 42.4102 53.9485 43.0418C53.317 43.6524 53.317 43.6945 53.5696 44.5576C53.8012 45.3155 53.7801 45.4839 53.5275 45.6524C53.0854 45.926 53.0012 45.905 52.3906 45.1892C51.8854 44.5576 51.8012 44.5366 50.9591 44.705C50.138 44.8734 50.0538 44.9576 49.8433 45.8418C49.6749 46.5576 49.5064 46.8102 49.1696 46.8524C48.7906 46.9155 48.6854 46.7892 48.5801 46.0945C48.4117 45.0208 48.3275 44.9155 47.4643 44.5997C46.7696 44.3681 46.6854 44.3892 45.9696 45.105C45.4433 45.6102 45.0854 45.8208 44.8538 45.7155C44.4117 45.5471 44.4117 45.4839 44.7906 44.4102C45.0854 43.5892 45.0854 43.5681 44.4117 42.9155L43.738 42.2629L42.7906 42.5787C41.9275 42.8945 41.8433 42.8945 41.5906 42.5366C41.338 42.1997 41.4012 42.0734 42.0959 41.505C42.7906 40.9155 42.8538 40.7892 42.7064 40.1366C42.4959 39.1471 42.2854 38.9576 41.317 38.7892C40.6222 38.6629 40.4959 38.5576 40.4959 38.1366C40.4959 37.8629 40.6222 37.6313 40.7696 37.6313C40.8959 37.6313 41.3591 37.526 41.7801 37.4208C42.4749 37.2313 42.5591 37.105 42.6854 36.305C42.8328 35.4629 42.7906 35.3787 42.0749 34.7892C41.338 34.1576 41.317 34.1366 41.717 33.7787C42.0749 33.4418 42.1801 33.4418 42.917 33.7576L43.717 34.0945L44.4328 33.3787L45.1485 32.6629L44.8328 31.7997C44.5591 31.0208 44.5591 30.8945 44.8328 30.6629C45.0854 30.4524 45.2959 30.5366 45.9275 31.1471C46.6854 31.8629 46.7275 31.8839 47.5485 31.6313C48.3275 31.3997 48.4117 31.3155 48.5801 30.3892C48.7275 29.5471 48.8328 29.3997 49.1906 29.4629C49.5275 29.505 49.6959 29.7576 49.8643 30.4524Z" fill="#7C5900" stroke="#7C5900" stroke-width="0.6"/>
<path d="M47.6948 33.6949C46.579 34.0528 45.2106 35.4001 44.8316 36.5159C44.3895 37.8212 44.4106 38.8107 44.9369 39.9475C45.8 41.8422 47.1895 42.7475 49.2527 42.7686C52.7474 42.7686 54.9369 39.1264 53.3369 35.9475C52.3263 33.9896 49.8632 33.0001 47.6948 33.6949ZM51.5263 34.8317C54.4527 36.9159 53.4211 41.3791 49.8211 42.158C47.6106 42.6212 45.1474 40.537 45.1263 38.2001C45.1053 34.9159 48.8527 32.937 51.5263 34.8317Z" fill="#7C5900" stroke="#7C5900" stroke-width="0.6"/>
<path d="M36.916 49.9474C36.916 50.2211 38.4108 50.2632 49.1265 50.2632C59.8423 50.2632 61.3371 50.2211 61.3371 49.9474C61.3371 49.6737 59.8423 49.6316 49.1265 49.6316C38.4108 49.6316 36.916 49.6737 36.916 49.9474Z" fill="#7C5900" stroke="#7C5900" stroke-width="0.6"/>
<path d="M36.916 53.9474C36.916 54.2211 38.4108 54.2632 49.1265 54.2632C59.8423 54.2632 61.3371 54.2211 61.3371 53.9474C61.3371 53.6737 59.8423 53.6316 49.1265 53.6316C38.4108 53.6316 36.916 53.6737 36.916 53.9474Z" fill="#7C5900" stroke="#7C5900" stroke-width="0.6"/>
<path d="M37.0634 57.568C36.9792 57.6312 36.916 57.7786 36.916 57.8838C36.916 57.968 42.4108 58.0522 49.1265 58.0522C56.1581 58.0522 61.3371 57.968 61.3371 57.8628C61.3371 57.7575 61.1897 57.6101 61.0002 57.547C60.5581 57.3786 37.2318 57.3786 37.0634 57.568Z" fill="#7C5900" stroke="#7C5900" stroke-width="0.6"/>
<path d="M36.916 61.7365C36.916 62.0101 38.4108 62.0522 49.1265 62.0522C59.8423 62.0522 61.3371 62.0101 61.3371 61.7365C61.3371 61.4628 59.8423 61.4207 49.1265 61.4207C38.4108 61.4207 36.916 61.4628 36.916 61.7365Z" fill="#7C5900" stroke="#7C5900" stroke-width="0.6"/>
</svg>
