<svg width="62" height="62" viewBox="0 0 62 62" fill="none" xmlns="http://www.w3.org/2000/svg">
<path d="M1.3344e-07 19.3347C-0.000525971 23.8235 1.55463 28.1735 4.40027 31.6429C7.24591 35.1122 11.2058 37.4861 15.6046 38.3596C15.858 35.5811 16.5703 32.8641 17.7126 30.3191C14.3181 29.171 12.1365 26.5646 11.625 22.8643H9.6875V21.212H11.4933V19.5287C11.4907 19.3477 11.4958 19.1731 11.5088 19.0051H9.6875V17.3489H11.6676C12.5395 12.5083 16.3254 9.6381 22.0139 9.6381C23.2384 9.6381 24.3001 9.75834 25.1875 9.96779V12.8108C24.1509 12.5815 23.0909 12.4747 22.0294 12.4928C18.4682 12.4928 16.0696 14.3002 15.3101 17.3489H22.7385V19.0051H15.066C15.0557 19.1861 15.0518 19.3761 15.0544 19.5752V21.212H22.7385V22.8682H15.2288C15.686 25.2032 17.0422 26.8632 19.1231 27.6351C21.1635 24.2527 23.9695 21.3977 27.3148 19.3004C30.6601 17.2031 34.4511 15.9221 38.3819 15.5608C37.4315 10.8502 34.7684 6.66032 30.9083 3.80271C27.0482 0.945096 22.2659 -0.376837 17.4877 0.0929782C12.7096 0.562793 8.27569 2.79092 5.04491 6.34575C1.81413 9.90058 0.0164184 14.5291 1.3344e-07 19.3347ZM62 40.6674C62 46.3251 59.7546 51.7512 55.7577 55.7518C51.7608 59.7525 46.3399 62 40.6875 62C35.0351 62 29.6142 59.7525 25.6173 55.7518C21.6204 51.7512 19.375 46.3251 19.375 40.6674C19.375 35.0096 21.6204 29.5836 25.6173 25.5829C29.6142 21.5823 35.0351 19.3347 40.6875 19.3347C46.3399 19.3347 51.7608 21.5823 55.7577 25.5829C59.7546 29.5836 62 35.0096 62 40.6674ZM31.9688 45.795C32.2361 49.0336 34.8595 51.5548 39.5792 51.8534V54.2427H41.6717V51.8379C46.5504 51.5043 49.4062 48.9677 49.4062 45.283C49.4062 41.9279 47.2246 40.2019 43.3225 39.3098L41.6717 38.922V32.4213C43.7642 32.6541 45.0973 33.7672 45.415 35.3109H49.0885C48.8173 32.1925 46.0699 29.7528 41.6717 29.4852V27.0921H39.5792V29.5317C35.4097 29.9312 32.5733 32.3709 32.5733 35.8229C32.5733 38.8754 34.6812 40.8186 38.192 41.6138L39.5792 41.9435V48.8475C37.4325 48.5372 36.0143 47.3891 35.6926 45.795H31.9688ZM39.5638 38.4449C37.5023 37.9795 36.3863 37.0331 36.3863 35.6057C36.3863 34.0155 37.5914 32.817 39.5792 32.4679V38.441H39.5599L39.5638 38.4449ZM41.974 42.4942C44.4734 43.0566 45.6281 43.9681 45.6281 45.5816C45.6281 47.4201 44.1944 48.6846 41.6756 48.9173V42.4244L41.974 42.4942Z" fill="#005870"/>
</svg>
