<svg width="107" height="97" viewBox="0 0 107 97" fill="none" xmlns="http://www.w3.org/2000/svg">
<rect x="0.0253906" width="106.949" height="97" rx="10" fill="#FFA666"/>
<path d="M34.0156 40.5981C34.0153 43.4792 35.0135 46.2712 36.84 48.4981C38.6664 50.7249 41.2081 52.2485 44.0315 52.8092C44.1941 51.0258 44.6513 49.2819 45.3845 47.6484C43.2058 46.9115 41.8055 45.2385 41.4772 42.8635H40.2336V41.803H41.3926V40.7225C41.3909 40.6063 41.3943 40.4943 41.4025 40.3864H40.2336V39.3234H41.5045C42.0641 36.2165 44.4941 34.3742 48.1453 34.3742C48.9312 34.3742 49.6127 34.4514 50.1823 34.5858V36.4107C49.5169 36.2634 48.8366 36.1949 48.1552 36.2065C45.8695 36.2065 44.33 37.3666 43.8425 39.3234H48.6104V40.3864H43.6858C43.6791 40.5026 43.6767 40.6246 43.6783 40.7524V41.803H48.6104V42.866H43.7902C44.0837 44.3647 44.9542 45.4302 46.2899 45.9256C47.5995 43.7547 49.4005 41.9222 51.5477 40.576C53.6949 39.2298 56.1281 38.4076 58.6511 38.1757C58.0412 35.1522 56.3318 32.4629 53.8542 30.6288C51.3766 28.7946 48.307 27.9461 45.2402 28.2477C42.1733 28.5492 39.3274 29.9793 37.2537 32.261C35.18 34.5427 34.0262 37.5135 34.0156 40.5981ZM73.8105 54.2905C73.8105 57.9219 72.3693 61.4046 69.8039 63.9724C67.2385 66.5403 63.759 67.9829 60.131 67.9829C56.503 67.9829 53.0236 66.5403 50.4582 63.9724C47.8928 61.4046 46.4515 57.9219 46.4515 54.2905C46.4515 50.659 47.8928 47.1763 50.4582 44.6085C53.0236 42.0406 56.503 40.5981 60.131 40.5981C63.759 40.5981 67.2385 42.0406 69.8039 44.6085C72.3693 47.1763 73.8105 50.659 73.8105 54.2905ZM54.5349 57.5816C54.7065 59.6604 56.3903 61.2786 59.4197 61.4703V63.0038H60.7628V61.4603C63.8941 61.2462 65.7272 59.618 65.7272 57.253C65.7272 55.0996 64.3269 53.9917 61.8223 53.4191L60.7628 53.1702V48.9977C62.1058 49.1471 62.9614 49.8616 63.1654 50.8524H65.5232C65.3491 48.8508 63.5857 47.2849 60.7628 47.1131V45.5771H59.4197V47.143C56.7435 47.3994 54.9229 48.9654 54.9229 51.181C54.9229 53.1403 56.2759 54.3875 58.5293 54.8979L59.4197 55.1095V59.5409C58.0418 59.3417 57.1315 58.6048 56.925 57.5816H54.5349ZM59.4097 52.864C58.0865 52.5652 57.3702 51.9578 57.3702 51.0416C57.3702 50.0209 58.1438 49.2516 59.4197 49.0276V52.8615H59.4072L59.4097 52.864ZM60.9568 55.463C62.561 55.824 63.3022 56.409 63.3022 57.4447C63.3022 58.6247 62.3819 59.4363 60.7652 59.5857V55.4182L60.9568 55.463Z" fill="#9B4100"/>
</svg>
