<svg width="354" height="354" viewBox="0 0 354 354" fill="none" xmlns="http://www.w3.org/2000/svg">
<path d="M150.499 2.00009C71.3994 14.6001 12.3994 75.0001 1.39941 154.5C-0.900585 171.2 -0.000585167 195 3.39941 211.5C9.79941 241.8 20.9994 265.4 40.5994 289.6C89.5994 350.2 176.499 370.9 247.999 339.1C302.699 314.8 340.899 266.1 351.599 207C354.199 193 354.599 169.6 352.499 154.5C342.099 76.8001 284.699 16.8001 207.199 2.40009C193.299 -0.0999076 165.099 -0.399908 150.499 2.00009ZM167.999 50.5001V85.0001H141.199C126.399 85.0001 114.099 84.8001 113.799 84.4001C112.999 83.6001 121.199 64.1001 126.499 54.5001C133.899 40.8001 143.399 29.6001 152.999 23.1001C157.899 19.8001 165.099 16.2001 167.299 16.1001C167.699 16.0001 167.999 31.5001 167.999 50.5001ZM190.199 18.0001C201.499 22.3001 214.199 34.6001 223.699 50.5001C228.099 57.9001 238.999 81.7001 238.999 84.0001C238.999 84.6001 228.999 85.0001 210.999 85.0001H182.999V50.5001C182.999 29.1001 183.399 16.0001 183.999 16.0001C184.499 16.0001 187.299 16.9001 190.199 18.0001ZM123.199 31.6001C113.399 44.7001 106.199 58.6001 99.4994 77.2001L96.6994 85.0001H71.3994C56.2994 85.0001 45.9994 84.6001 45.9994 84.1001C45.9994 82.1001 58.0994 68.1001 67.1994 59.5001C77.7994 49.4001 89.3994 41.3001 103.799 33.7001C112.399 29.1001 127.999 22.8001 128.799 23.5001C128.999 23.6001 126.399 27.3001 123.199 31.6001ZM232.199 25.6001C252.599 33.0001 272.699 45.7001 289.399 61.8001C296.599 68.8001 307.999 82.4001 307.999 84.1001C307.999 84.7001 297.899 84.9001 281.799 84.8001L255.599 84.5001L251.499 73.5001C244.499 55.0001 235.999 39.4001 226.299 27.2001C224.399 24.9001 223.299 23.0001 223.899 23.0001C224.399 23.0001 228.199 24.2001 232.199 25.6001ZM91.4994 105.7C88.8994 117 86.0994 136.7 84.8994 152.7L83.6994 168.9L76.0994 169.2C71.8994 169.4 56.5994 169.4 42.0994 169.2L15.7994 168.9L16.4994 162.2C18.3994 143.4 23.4994 124.9 31.1994 108.7L35.2994 100H64.0994H92.7994L91.4994 105.7ZM167.999 134.5V169L135.299 169.1C117.199 169.1 101.699 169.3 100.699 169.5C98.9994 169.8 98.8994 169.2 99.4994 160.7C100.699 143.6 102.099 132.5 105.199 116.2L108.299 100H138.199H167.999V134.5ZM245.899 109.2C250.099 128.1 252.999 150.7 252.999 163.9V169.5L220.699 169.3C202.999 169.1 187.299 169 185.799 169H182.999V134.5V100H213.399H243.799L245.899 109.2ZM321.799 106.4C329.499 122.1 334.099 137.4 336.599 155.8C337.599 162.5 338.099 168.2 337.899 168.4C337.399 168.9 321.299 169.1 288.399 169H268.299L267.699 155.2C266.999 141.1 264.299 120.5 261.599 109C260.699 105.4 259.999 101.9 259.999 101.2C259.999 100.3 266.499 100 289.299 100H318.699L321.799 106.4ZM85.2994 205C86.2994 216.3 88.2994 231.9 89.8994 239.7L92.6994 254H63.9994H35.3994L31.5994 246.5C24.3994 231.8 18.1994 209.5 16.4994 192.3L15.7994 185.1L19.1994 184.8C20.9994 184.6 36.2994 184.5 53.0994 184.5H83.5994L85.2994 205ZM162.799 185H167.999V219.5V254H138.199H108.299L105.199 237.7C102.299 222.8 101.099 213.1 99.4994 192.8L98.7994 185.1L110.199 184.8C116.399 184.6 129.599 184.6 139.499 184.7C149.399 184.8 159.899 184.9 162.799 185ZM249.799 185H252.999V191.4C252.999 204.2 248.899 233.8 244.999 249.2L243.799 254H213.399H182.999V219.6C182.999 188.1 183.099 185.1 184.699 184.8C185.999 184.6 220.699 184.6 249.799 185ZM332.399 185H338.199L337.499 191.7C335.699 209.8 329.899 230.9 322.499 246.4L318.899 254H289.499C273.299 254 259.999 253.8 259.999 253.5C259.999 253.2 261.099 247.4 262.399 240.7C265.199 226.9 267.999 202.2 267.999 191.9V185.1L271.799 184.8C274.899 184.5 286.499 184.6 332.399 185ZM100.499 279.2C107.299 297.7 116.099 314.2 125.199 325.1C127.299 327.7 128.999 330 128.999 330.3C128.999 331.4 115.099 326.1 106.099 321.6C89.1994 313.1 74.8994 302.7 62.3994 289.8C54.3994 281.6 45.9994 271.4 45.9994 270C45.9994 269.4 55.7994 269 71.2994 269H96.6994L100.499 279.2ZM167.999 303.6V338.1L165.799 337.5C146.999 331.8 127.099 307.1 115.199 274.7L112.999 269H140.499H167.999V303.6ZM238.499 271.2C238.099 272.5 235.799 278.2 233.399 284C224.999 304.1 212.799 321.4 201.099 329.7C195.399 333.8 186.699 338 183.999 338C183.399 338 182.999 325.6 182.999 303.5V269H211.099H239.099L238.499 271.2ZM305.799 273.7C301.599 280 284.999 297.1 277.999 302.5C267.799 310.3 258.699 316.1 249.099 321C240.099 325.4 226.199 331 223.899 331C223.299 331 224.399 329.1 226.299 326.7C235.699 315 244.499 298.9 251.199 281C253.399 275.3 255.399 270.2 255.599 269.8C255.899 269.3 267.999 269 282.599 269H309.099L305.799 273.7Z" fill="#002266"/>
</svg>
