<svg width="15" height="17" viewBox="0 0 15 17" fill="none" xmlns="http://www.w3.org/2000/svg">
<mask id="path-1-inside-1_576_237" fill="white">
<path d="M5.44972 0.03363C5.16163 0.13292 4.94998 0.364597 4.87943 0.656263L4.85199 0.770033L4.40321 0.782444C3.91719 0.794855 3.86819 0.805198 3.68985 0.925174C3.53503 1.03067 3.41549 1.18581 3.3567 1.36577L3.32142 1.47334L2.3337 1.48368C1.22644 1.49816 1.25191 1.49402 0.936393 1.65744C0.638509 1.81258 0.373942 2.11045 0.250477 2.42901C0.134851 2.72895 0.14269 2.29869 0.14269 9.03181C0.14269 15.6553 0.13877 15.3285 0.238718 15.6139C0.352384 15.9304 0.640469 16.2655 0.938352 16.4248C0.991266 16.4538 1.10101 16.4993 1.18136 16.5262L1.32834 16.5737H5.72801H10.1277L10.2786 16.5199C10.5216 16.431 10.6784 16.3276 10.8626 16.1311C11.0448 15.9387 11.1526 15.7484 11.2369 15.4774C11.278 15.3409 11.282 15.2912 11.2898 14.6665L11.2976 13.9984L11.2388 13.9363C11.1761 13.8701 11.133 13.8619 11.0488 13.895C10.9508 13.9343 10.941 14.0025 10.941 14.6458C10.941 15.2995 10.9312 15.3719 10.8116 15.6139C10.6823 15.8725 10.4373 16.0876 10.1669 16.1766L10.0297 16.2221H5.71821C1.58899 16.2221 1.40086 16.22 1.28915 16.1848C1.11669 16.129 0.965789 16.0359 0.844284 15.9139C0.644388 15.7132 0.538561 15.496 0.495447 15.2044C0.481728 15.1092 0.475849 13.1337 0.479769 8.94079C0.485648 3.05164 0.487608 2.81376 0.520924 2.70412C0.654187 2.28835 0.946191 1.98841 1.31267 1.88705C1.40478 1.86223 1.59683 1.85602 2.37094 1.85602C3.25675 1.85602 3.31946 1.85809 3.32926 1.89119C3.43705 2.2387 3.72317 2.4952 4.05829 2.54071C4.23663 2.56346 7.20958 2.56346 7.38988 2.53864C7.66817 2.49934 7.9053 2.32351 8.03072 2.05874C8.06796 1.97806 8.09931 1.89946 8.09931 1.88498C8.09931 1.86016 8.26001 1.85602 9.05764 1.85602H10.0179L10.1708 1.90773C10.502 2.01737 10.743 2.25939 10.8783 2.61724C10.9292 2.75584 10.9312 2.75997 10.941 3.42191L10.9508 4.08591L10.9978 4.1397C11.0684 4.22037 11.1761 4.21416 11.2447 4.12728L11.2976 4.06109L11.2878 3.4095C11.28 2.68964 11.2722 2.64414 11.1467 2.36281C11.0076 2.0546 10.7665 1.79603 10.4804 1.64917C10.1767 1.49402 10.2041 1.49816 9.09487 1.48989C8.33841 1.48368 8.09931 1.47541 8.09931 1.45679C8.09931 1.44231 8.07384 1.37405 8.04052 1.30372C7.97585 1.15478 7.83475 0.985162 7.71716 0.912762C7.53882 0.803129 7.48787 0.794855 7.02537 0.782444L6.58834 0.770033L6.54327 0.63144C6.45704 0.358392 6.27282 0.153606 6.02393 0.0543155C5.86715 -0.0098095 5.59866 -0.0180837 5.44972 0.03363ZM5.92202 0.399763C6.10232 0.478368 6.20815 0.63144 6.2395 0.856912C6.28066 1.14237 6.30221 1.15271 6.92738 1.15271C7.34873 1.15271 7.4134 1.15892 7.48395 1.19202C7.58194 1.23959 7.68777 1.34923 7.73284 1.44645C7.85043 1.70708 7.73088 2.02564 7.47219 2.14355C7.3742 2.18699 7.37224 2.18699 5.69469 2.18285L4.01322 2.17664L3.93287 2.13114C3.76433 2.03598 3.67418 1.90153 3.65654 1.7195C3.64086 1.56849 3.68006 1.44024 3.77021 1.33061C3.91523 1.15685 3.95442 1.14858 4.50903 1.14858C5.13028 1.15065 5.15968 1.13823 5.18711 0.881734C5.19299 0.817609 5.21259 0.73073 5.22827 0.689359C5.2655 0.598343 5.38113 0.457682 5.4556 0.416311C5.58886 0.343912 5.77896 0.337706 5.92202 0.399763Z"/>
</mask>
<path d="M5.44972 0.03363C5.16163 0.13292 4.94998 0.364597 4.87943 0.656263L4.85199 0.770033L4.40321 0.782444C3.91719 0.794855 3.86819 0.805198 3.68985 0.925174C3.53503 1.03067 3.41549 1.18581 3.3567 1.36577L3.32142 1.47334L2.3337 1.48368C1.22644 1.49816 1.25191 1.49402 0.936393 1.65744C0.638509 1.81258 0.373942 2.11045 0.250477 2.42901C0.134851 2.72895 0.14269 2.29869 0.14269 9.03181C0.14269 15.6553 0.13877 15.3285 0.238718 15.6139C0.352384 15.9304 0.640469 16.2655 0.938352 16.4248C0.991266 16.4538 1.10101 16.4993 1.18136 16.5262L1.32834 16.5737H5.72801H10.1277L10.2786 16.5199C10.5216 16.431 10.6784 16.3276 10.8626 16.1311C11.0448 15.9387 11.1526 15.7484 11.2369 15.4774C11.278 15.3409 11.282 15.2912 11.2898 14.6665L11.2976 13.9984L11.2388 13.9363C11.1761 13.8701 11.133 13.8619 11.0488 13.895C10.9508 13.9343 10.941 14.0025 10.941 14.6458C10.941 15.2995 10.9312 15.3719 10.8116 15.6139C10.6823 15.8725 10.4373 16.0876 10.1669 16.1766L10.0297 16.2221H5.71821C1.58899 16.2221 1.40086 16.22 1.28915 16.1848C1.11669 16.129 0.965789 16.0359 0.844284 15.9139C0.644388 15.7132 0.538561 15.496 0.495447 15.2044C0.481728 15.1092 0.475849 13.1337 0.479769 8.94079C0.485648 3.05164 0.487608 2.81376 0.520924 2.70412C0.654187 2.28835 0.946191 1.98841 1.31267 1.88705C1.40478 1.86223 1.59683 1.85602 2.37094 1.85602C3.25675 1.85602 3.31946 1.85809 3.32926 1.89119C3.43705 2.2387 3.72317 2.4952 4.05829 2.54071C4.23663 2.56346 7.20958 2.56346 7.38988 2.53864C7.66817 2.49934 7.9053 2.32351 8.03072 2.05874C8.06796 1.97806 8.09931 1.89946 8.09931 1.88498C8.09931 1.86016 8.26001 1.85602 9.05764 1.85602H10.0179L10.1708 1.90773C10.502 2.01737 10.743 2.25939 10.8783 2.61724C10.9292 2.75584 10.9312 2.75997 10.941 3.42191L10.9508 4.08591L10.9978 4.1397C11.0684 4.22037 11.1761 4.21416 11.2447 4.12728L11.2976 4.06109L11.2878 3.4095C11.28 2.68964 11.2722 2.64414 11.1467 2.36281C11.0076 2.0546 10.7665 1.79603 10.4804 1.64917C10.1767 1.49402 10.2041 1.49816 9.09487 1.48989C8.33841 1.48368 8.09931 1.47541 8.09931 1.45679C8.09931 1.44231 8.07384 1.37405 8.04052 1.30372C7.97585 1.15478 7.83475 0.985162 7.71716 0.912762C7.53882 0.803129 7.48787 0.794855 7.02537 0.782444L6.58834 0.770033L6.54327 0.63144C6.45704 0.358392 6.27282 0.153606 6.02393 0.0543155C5.86715 -0.0098095 5.59866 -0.0180837 5.44972 0.03363ZM5.92202 0.399763C6.10232 0.478368 6.20815 0.63144 6.2395 0.856912C6.28066 1.14237 6.30221 1.15271 6.92738 1.15271C7.34873 1.15271 7.4134 1.15892 7.48395 1.19202C7.58194 1.23959 7.68777 1.34923 7.73284 1.44645C7.85043 1.70708 7.73088 2.02564 7.47219 2.14355C7.3742 2.18699 7.37224 2.18699 5.69469 2.18285L4.01322 2.17664L3.93287 2.13114C3.76433 2.03598 3.67418 1.90153 3.65654 1.7195C3.64086 1.56849 3.68006 1.44024 3.77021 1.33061C3.91523 1.15685 3.95442 1.14858 4.50903 1.14858C5.13028 1.15065 5.15968 1.13823 5.18711 0.881734C5.19299 0.817609 5.21259 0.73073 5.22827 0.689359C5.2655 0.598343 5.38113 0.457682 5.4556 0.416311C5.58886 0.343912 5.77896 0.337706 5.92202 0.399763Z" fill="#002266"/>
<path d="M5.44972 0.03363L5.77772 0.97831L5.77557 0.979053L5.44972 0.03363ZM4.87943 0.656263L3.9073 0.421825L3.90746 0.421152L4.87943 0.656263ZM4.85199 0.770033L5.82412 1.00447L5.6447 1.74849L4.87964 1.76965L4.85199 0.770033ZM4.40321 0.782444L4.43085 1.78206L4.42874 1.78212L4.40321 0.782444ZM3.68985 0.925174L3.12674 0.098773L3.13167 0.0954576L3.68985 0.925174ZM3.3567 1.36577L4.30726 1.67632L4.3069 1.67739L3.3567 1.36577ZM3.32142 1.47334L4.27163 1.78496L4.04835 2.46578L3.33189 2.47328L3.32142 1.47334ZM2.3337 1.48368L2.32063 0.483763L2.32323 0.483736L2.3337 1.48368ZM0.936393 1.65744L0.474473 0.770515L0.476493 0.769468L0.936393 1.65744ZM0.250477 2.42901L-0.682594 2.06931L-0.681941 2.06762L0.250477 2.42901ZM0.238718 15.6139L-0.702455 15.9519L-0.705102 15.9444L0.238718 15.6139ZM0.938352 16.4248L1.4099 15.5429L1.41845 15.5476L0.938352 16.4248ZM1.18136 16.5262L0.873389 17.4776L0.863991 17.4745L1.18136 16.5262ZM1.32834 16.5737V17.5737H1.17053L1.02039 17.5251L1.32834 16.5737ZM10.1277 16.5737L10.4634 17.5157L10.3005 17.5737H10.1277V16.5737ZM10.2786 16.5199L10.6223 17.4591L10.6143 17.4619L10.2786 16.5199ZM10.8626 16.1311L10.133 15.4471L10.1366 15.4433L10.8626 16.1311ZM11.2369 15.4774L12.1944 15.766L12.1918 15.7744L11.2369 15.4774ZM11.2898 14.6665L12.2897 14.6783L12.2897 14.6791L11.2898 14.6665ZM11.2976 13.9984L12.0236 13.3106L12.3023 13.6049L12.2976 14.0101L11.2976 13.9984ZM11.0488 13.895L10.6765 12.9668L10.6832 12.9642L11.0488 13.895ZM10.8116 15.6139L11.7082 16.0568L11.706 16.0613L10.8116 15.6139ZM10.1669 16.1766L9.852 15.2274L9.85443 15.2266L10.1669 16.1766ZM10.0297 16.2221L10.3445 17.1712L10.1912 17.2221H10.0297V16.2221ZM1.28915 16.1848L0.988865 17.1387L0.981053 17.1362L1.28915 16.1848ZM0.844284 15.9139L1.55272 15.2081L1.55295 15.2083L0.844284 15.9139ZM0.495447 15.2044L-0.49381 15.3506L-0.49432 15.347L0.495447 15.2044ZM0.479769 8.94079L-0.520231 8.93986L-0.520231 8.93979L0.479769 8.94079ZM0.520924 2.70412L-0.435873 2.41337L-0.43367 2.40612L-0.431358 2.3989L0.520924 2.70412ZM1.31267 1.88705L1.04609 0.923211L1.05246 0.921496L1.31267 1.88705ZM3.32926 1.89119L2.37407 2.18745L2.3704 2.17507L3.32926 1.89119ZM4.05829 2.54071L3.93172 3.5327L3.92373 3.53161L4.05829 2.54071ZM7.38988 2.53864L7.52972 3.52882L7.52627 3.5293L7.38988 2.53864ZM8.03072 2.05874L8.93872 2.47783L8.93445 2.48684L8.03072 2.05874ZM10.0179 1.85602V0.85602H10.1825L10.3384 0.908759L10.0179 1.85602ZM10.1708 1.90773L9.85653 2.85709L9.85032 2.85499L10.1708 1.90773ZM10.8783 2.61724L11.8137 2.26376L11.8168 2.27218L10.8783 2.61724ZM10.941 3.42191L11.9409 3.40711L11.9409 3.40715L10.941 3.42191ZM10.9508 4.08591L10.198 4.74422L9.95629 4.46782L9.95087 4.10067L10.9508 4.08591ZM11.2447 4.12728L10.4598 3.50761L10.4636 3.50289L11.2447 4.12728ZM11.2976 4.06109L12.2975 4.04605L12.3029 4.40505L12.0787 4.68549L11.2976 4.06109ZM11.2878 3.4095L10.2879 3.42454L10.2879 3.42039L11.2878 3.4095ZM11.1467 2.36281L12.0582 1.95135L12.0601 1.95561L11.1467 2.36281ZM10.4804 1.64917L10.9353 0.758591L10.9371 0.759519L10.4804 1.64917ZM9.09487 1.48989L9.08741 2.48986L9.08667 2.48985L9.09487 1.48989ZM8.04052 1.30372L7.13679 1.73182L7.12978 1.71703L7.12327 1.70202L8.04052 1.30372ZM7.71716 0.912762L8.24087 0.0608618L8.24146 0.0612295L7.71716 0.912762ZM7.02537 0.782444L6.99854 1.78209L6.99698 1.78204L7.02537 0.782444ZM6.58834 0.770033L6.55995 1.76963L5.85537 1.74962L5.63737 1.07932L6.58834 0.770033ZM6.54327 0.63144L5.59226 0.940735L5.58969 0.932583L6.54327 0.63144ZM6.02393 0.0543155L5.65338 0.983168L5.64536 0.979889L6.02393 0.0543155ZM5.92202 0.399763L6.31997 -0.517648L6.32166 -0.516908L5.92202 0.399763ZM6.2395 0.856912L5.24972 0.999609L5.24903 0.994655L6.2395 0.856912ZM7.48395 1.19202L7.90869 0.286604L7.92072 0.292445L7.48395 1.19202ZM7.73284 1.44645L8.64013 1.02581L8.64437 1.03521L7.73284 1.44645ZM7.47219 2.14355L7.88695 3.05354L7.87747 3.05774L7.47219 2.14355ZM5.69469 2.18285L5.69222 3.18285L5.691 3.18284L5.69469 2.18285ZM4.01322 2.17664L4.00952 3.17664L3.74798 3.17567L3.5204 3.04678L4.01322 2.17664ZM3.93287 2.13114L4.4245 1.26033L4.42568 1.261L3.93287 2.13114ZM3.65654 1.7195L4.65122 1.61622L4.65188 1.62305L3.65654 1.7195ZM3.77021 1.33061L2.99778 0.69546L3.00247 0.689841L3.77021 1.33061ZM4.50903 1.14858L4.50903 0.148571L4.51236 0.148582L4.50903 1.14858ZM5.18711 0.881734L6.18293 0.973036L6.18224 0.98057L6.18144 0.988093L5.18711 0.881734ZM5.22827 0.689359L4.29316 0.334989L4.29779 0.322788L4.30273 0.310713L5.22827 0.689359ZM5.4556 0.416311L4.96995 -0.457894L4.97822 -0.462387L5.4556 0.416311ZM5.77557 0.979053C5.78783 0.974825 5.80485 0.965249 5.82066 0.94798C5.83651 0.930658 5.84683 0.910241 5.8514 0.891374L3.90746 0.421152C4.05929 -0.206514 4.51784 -0.702921 5.12387 -0.911793L5.77557 0.979053ZM5.85156 0.8907L5.82412 1.00447L3.87986 0.535595L3.9073 0.421825L5.85156 0.8907ZM4.87964 1.76965L4.43085 1.78206L4.37556 -0.217174L4.82435 -0.229585L4.87964 1.76965ZM4.42874 1.78212C4.30642 1.78524 4.22838 1.78788 4.17228 1.79128C4.115 1.79475 4.11004 1.79751 4.12801 1.7939C4.13963 1.79157 4.15811 1.78718 4.18095 1.7796C4.20426 1.77186 4.22561 1.76295 4.24383 1.75413C4.27425 1.73941 4.28698 1.72869 4.24804 1.75489L3.13167 0.0954576C3.25882 0.00992047 3.44609 -0.109091 3.73429 -0.166959C3.93337 -0.206933 4.16608 -0.211827 4.37768 -0.21723L4.42874 1.78212ZM4.25296 1.75156C4.27416 1.73711 4.295 1.71382 4.30726 1.67632L2.40614 1.05523C2.53597 0.657805 2.7959 0.324229 3.12675 0.0987876L4.25296 1.75156ZM4.3069 1.67739L4.27163 1.78496L2.37121 1.16172L2.40649 1.05415L4.3069 1.67739ZM3.33189 2.47328L2.34417 2.48363L2.32323 0.483736L3.31095 0.473393L3.33189 2.47328ZM2.34678 2.4836C2.06582 2.48727 1.86881 2.48963 1.71916 2.49361C1.56561 2.49768 1.49575 2.50284 1.46085 2.50715C1.44187 2.5095 1.46222 2.50785 1.49134 2.49664C1.49575 2.49494 1.49513 2.49422 1.39629 2.54541L0.476493 0.769468C0.644016 0.682705 0.853083 0.56707 1.21543 0.522267C1.45754 0.492332 1.80664 0.490488 2.32063 0.483767L2.34678 2.4836ZM1.39831 2.54436C1.32044 2.58492 1.22044 2.69352 1.18289 2.79039L-0.681941 2.06762C-0.472557 1.52739 -0.0434239 1.04024 0.474474 0.770517L1.39831 2.54436ZM1.18355 2.7887C1.16987 2.82418 1.1569 2.85466 1.15203 2.86623C1.14563 2.88147 1.149 2.87396 1.15335 2.86191C1.15908 2.84603 1.1647 2.8278 1.1692 2.80936C1.17331 2.79248 1.17467 2.78275 1.1745 2.78391C1.1697 2.81703 1.15952 2.93751 1.15309 3.33416C1.14077 4.09504 1.14269 5.65748 1.14269 9.03181H-0.85731C-0.85731 5.67302 -0.859312 4.08402 -0.846645 3.30178C-0.840575 2.92686 -0.831038 2.67784 -0.804791 2.49686C-0.788577 2.38506 -0.7645 2.2845 -0.728053 2.18344C-0.712855 2.14129 -0.69779 2.1057 -0.691611 2.091C-0.683886 2.07263 -0.683369 2.07133 -0.682593 2.06931L1.18355 2.7887ZM1.14269 9.03181C1.14269 12.35 1.14174 13.9127 1.15312 14.6849C1.15898 15.0835 1.16798 15.2241 1.17429 15.2762C1.17559 15.2869 1.17342 15.2656 1.1632 15.2317C1.15955 15.2196 1.15684 15.2127 1.16011 15.2217C1.16136 15.2251 1.17313 15.2566 1.18254 15.2835L-0.705102 15.9444C-0.716794 15.911 -0.781517 15.7617 -0.811195 15.5167C-0.832262 15.3428 -0.841024 15.0977 -0.846668 14.7144C-0.858324 13.9228 -0.85731 12.3371 -0.85731 9.03181H1.14269ZM1.17986 15.2759C1.21022 15.3604 1.33167 15.5011 1.40988 15.5429L0.466827 17.3066C-0.050732 17.0299 -0.505451 16.5004 -0.702424 15.9519L1.17986 15.2759ZM1.41845 15.5476C1.41024 15.5431 1.40512 15.5405 1.40419 15.5401C1.40296 15.5395 1.40357 15.5398 1.40627 15.541C1.41192 15.5437 1.42137 15.5478 1.43393 15.5531C1.44624 15.5582 1.45922 15.5634 1.47153 15.568C1.48412 15.5728 1.49344 15.5761 1.49873 15.5779L0.863991 17.4745C0.751563 17.4368 0.581582 17.3695 0.458252 17.302L1.41845 15.5476ZM1.48932 15.5748L1.6363 15.6223L1.02039 17.5251L0.873404 17.4776L1.48932 15.5748ZM1.32834 15.5737H5.72801V17.5737H1.32834V15.5737ZM5.72801 15.5737H10.1277V17.5737H5.72801V15.5737ZM9.79195 15.6318L9.94285 15.578L10.6143 17.4619L10.4634 17.5157L9.79195 15.6318ZM9.93485 15.5809C10.0017 15.5564 10.0271 15.541 10.0391 15.533C10.0518 15.5246 10.0789 15.5048 10.133 15.4471L11.5921 16.815C11.3032 17.1232 11.015 17.3153 10.6223 17.459L9.93485 15.5809ZM10.1366 15.4433C10.2036 15.3726 10.2386 15.32 10.282 15.1804L12.1918 15.7744C12.0666 16.1767 11.886 16.5048 11.5885 16.8188L10.1366 15.4433ZM10.2794 15.1888C10.2861 15.1669 10.282 15.1783 10.2784 15.1974C10.2751 15.2149 10.2761 15.2181 10.278 15.1891C10.2829 15.1147 10.2858 14.9783 10.2899 14.654L12.2897 14.6791C12.2826 15.2449 12.2858 15.4626 12.1943 15.766L10.2794 15.1888ZM10.2899 14.6548L10.2977 13.9867L12.2976 14.0101L12.2897 14.6783L10.2899 14.6548ZM10.5717 14.6861L10.5129 14.6241L11.9648 13.2486L12.0236 13.3106L10.5717 14.6861ZM10.5129 14.6241C10.5311 14.6433 10.6772 14.7998 10.9437 14.8565C11.2053 14.9122 11.3991 14.8317 11.4143 14.8257L10.6832 12.9642C10.7826 12.9251 11.0402 12.8322 11.3601 12.9003C11.6849 12.9695 11.8839 13.1632 11.9648 13.2486L10.5129 14.6241ZM11.421 14.8231C11.4496 14.8116 11.5181 14.7823 11.5969 14.7261C11.6824 14.6651 11.7598 14.587 11.8218 14.4943C11.8802 14.407 11.9107 14.328 11.9265 14.2772C11.9417 14.2282 11.9469 14.1937 11.948 14.186C11.9494 14.1762 11.946 14.1976 11.9437 14.2878C11.9416 14.3713 11.941 14.4848 11.941 14.6458H9.94097C9.94097 14.3583 9.94088 14.0926 9.96826 13.9018C9.98258 13.8021 10.0195 13.5916 10.1593 13.3825C10.329 13.1288 10.5526 13.0165 10.6765 12.9668L11.421 14.8231ZM11.941 14.6458C11.941 14.949 11.9405 15.2061 11.9123 15.4168C11.8744 15.7003 11.7905 15.8903 11.7082 16.0568L9.91504 15.1711C9.94076 15.119 9.94107 15.1145 9.93764 15.1243C9.93118 15.1429 9.92925 15.1569 9.92995 15.1517C9.93183 15.1377 9.93554 15.1 9.93794 15.0117C9.94031 14.9244 9.94097 14.8097 9.94097 14.6458H11.941ZM11.706 16.0613C11.4613 16.5504 11.0111 16.9516 10.4793 17.1265L9.85443 15.2266C9.85039 15.228 9.86371 15.2237 9.88401 15.206C9.90412 15.1884 9.91461 15.1719 9.91728 15.1665L11.706 16.0613ZM10.4817 17.1257L10.3445 17.1712L9.71482 15.2729L9.852 15.2274L10.4817 17.1257ZM10.0297 17.2221H5.71821V15.2221H10.0297V17.2221ZM5.71821 17.2221C3.65621 17.2221 2.57118 17.2216 1.9886 17.2166C1.70146 17.2142 1.51788 17.2106 1.39521 17.2041C1.26921 17.1975 1.13726 17.1854 0.988875 17.1387L1.58942 15.231C1.49689 15.2019 1.43035 15.2032 1.50008 15.2069C1.57314 15.2107 1.71562 15.2142 2.00562 15.2167C2.57734 15.2216 3.65099 15.2221 5.71821 15.2221V17.2221ZM0.981053 17.1362C0.659889 17.0322 0.371023 16.8559 0.135613 16.6194L1.55295 15.2083C1.56056 15.216 1.57349 15.2258 1.59725 15.2335L0.981053 17.1362ZM0.135848 16.6196C-0.223944 16.2585 -0.421263 15.8413 -0.493803 15.3506L1.4847 15.0581C1.49392 15.1205 1.50519 15.1453 1.50884 15.1528C1.51188 15.159 1.52041 15.1757 1.55272 15.2081L0.135848 16.6196ZM-0.49432 15.347C-0.507221 15.2576 -0.508425 15.134 -0.509115 15.1004C-0.510698 15.0234 -0.512079 14.9176 -0.5133 14.7843C-0.515749 14.5169 -0.517654 14.1274 -0.519003 13.6119C-0.521703 12.5802 -0.522191 11.0366 -0.520231 8.93986L1.47977 8.94173C1.47781 11.0379 1.4783 12.5786 1.48099 13.6066C1.48234 14.121 1.48423 14.5052 1.48662 14.766C1.48781 14.8968 1.48911 14.9937 1.49046 15.0593C1.4927 15.1684 1.49468 15.1274 1.48521 15.0617L-0.49432 15.347ZM-0.520231 8.93979C-0.517293 5.99701 -0.515334 4.46142 -0.509921 3.64848C-0.507237 3.24551 -0.503657 3.00629 -0.498005 2.85848C-0.493045 2.72877 -0.48557 2.5769 -0.435873 2.41337L1.47772 2.99488C1.51076 2.88616 1.5055 2.80514 1.50053 2.9349C1.49626 3.04656 1.49274 3.25544 1.49004 3.6618C1.48467 4.46749 1.48271 5.99542 1.47977 8.94179L-0.520231 8.93979ZM-0.431358 2.3989C-0.212028 1.7146 0.304787 1.12826 1.0461 0.923232L1.57924 2.85086C1.57764 2.8513 1.56616 2.85433 1.54705 2.87402C1.527 2.89468 1.49652 2.93659 1.4732 3.00935L-0.431358 2.3989ZM1.05246 0.921496C1.22631 0.874643 1.40771 0.867093 1.55629 0.862668C1.72986 0.8575 1.98614 0.85602 2.37094 0.85602V2.85602C1.98163 2.85602 1.75483 2.85764 1.61582 2.86178C1.45181 2.86667 1.49113 2.87463 1.57288 2.8526L1.05246 0.921496ZM2.37094 0.85602C2.80297 0.85602 3.06421 0.856355 3.21505 0.861855C3.27085 0.86389 3.3976 0.868103 3.52391 0.897128C3.58876 0.912031 3.74932 0.953382 3.91417 1.07465C4.12399 1.229 4.23632 1.43235 4.28812 1.6073L2.3704 2.17507C2.39056 2.24317 2.42656 2.33735 2.49283 2.43742C2.56045 2.53955 2.64249 2.62203 2.72903 2.68569C2.88512 2.80051 3.03224 2.83627 3.076 2.84633C3.10604 2.85323 3.12943 2.85689 3.14241 2.8587C3.15594 2.8606 3.16495 2.86143 3.16756 2.86166C3.17169 2.86202 3.16547 2.86138 3.14216 2.86053C3.03773 2.85672 2.82471 2.85602 2.37094 2.85602V0.85602ZM4.28437 1.59494C4.28497 1.59688 4.28421 1.59189 4.27439 1.58313C4.2643 1.57412 4.23789 1.55592 4.19285 1.5498L3.92373 3.53161C3.16317 3.42833 2.58463 2.86604 2.37415 2.18743L4.28437 1.59494ZM4.18485 1.54875C4.14139 1.5432 4.1412 1.54569 4.26682 1.5484C4.35951 1.5504 4.48627 1.55213 4.6379 1.55352C4.94038 1.55629 5.33101 1.55764 5.72302 1.55752C6.11509 1.55739 6.50566 1.55578 6.80812 1.55269C6.95978 1.55114 7.08632 1.54924 7.17871 1.54707C7.30627 1.54406 7.30151 1.54137 7.25349 1.54798L7.52627 3.5293C7.43318 3.54211 7.29607 3.54486 7.22584 3.54651C7.12044 3.549 6.98375 3.551 6.82855 3.55258C6.5173 3.55576 6.11968 3.55739 5.72368 3.55752C5.32763 3.55765 4.93031 3.55628 4.61956 3.55343C4.46459 3.55201 4.32842 3.5502 4.22369 3.54794C4.15189 3.54639 4.01978 3.5439 3.93173 3.53267L4.18485 1.54875ZM7.25004 1.54847C7.22195 1.55243 7.19328 1.56408 7.16923 1.58204C7.14531 1.5999 7.1325 1.61902 7.12699 1.63064L8.93445 2.48684C8.66975 3.04564 8.15158 3.44099 7.52972 3.52881L7.25004 1.54847ZM7.12277 1.63966C7.13527 1.61258 7.14482 1.58997 7.14924 1.57881C7.15194 1.57202 7.14925 1.57824 7.14425 1.59338C7.14199 1.60022 7.13535 1.6206 7.12818 1.64904C7.12456 1.66343 7.11873 1.68799 7.11337 1.71924C7.10897 1.74489 7.09931 1.80596 7.09931 1.88498H9.09931C9.09931 2.01999 9.07048 2.12615 9.06761 2.13755C9.05858 2.17337 9.0492 2.2029 9.04342 2.22041C9.03138 2.25688 9.01852 2.29051 9.00872 2.31526C8.98815 2.36719 8.96341 2.42422 8.93868 2.47781L7.12277 1.63966ZM7.09931 1.88498C7.09931 1.21938 7.66312 0.978638 7.72201 0.954012C7.851 0.900077 7.96526 0.884286 7.99737 0.879762C8.08527 0.867378 8.17976 0.8637 8.2498 0.861628C8.40771 0.856958 8.66396 0.85602 9.05764 0.85602V2.85602C8.65369 2.85602 8.43078 2.85715 8.30893 2.86075C8.2391 2.86282 8.24356 2.86483 8.2764 2.8602C8.28098 2.85956 8.37646 2.84816 8.49354 2.7992C8.55246 2.77457 8.68508 2.71304 8.81405 2.582C8.96417 2.42946 9.09931 2.18895 9.09931 1.88498H7.09931ZM9.05764 0.85602H10.0179V2.85602H9.05764V0.85602ZM10.3384 0.908759L10.4912 0.960472L9.85032 2.85499L9.69746 2.80328L10.3384 0.908759ZM10.485 0.958393C11.1332 1.17295 11.5838 1.65544 11.8137 2.26377L9.94281 2.97072C9.91865 2.90677 9.89629 2.88192 9.88978 2.87539C9.88496 2.87056 9.87804 2.86419 9.85653 2.85707L10.485 0.958393ZM11.8168 2.27218C11.8262 2.29767 11.8558 2.37525 11.8787 2.46742C11.9034 2.567 11.9151 2.65867 11.9219 2.74362C11.9332 2.88594 11.9362 3.09521 11.9409 3.40711L9.94108 3.43671C9.93861 3.27011 9.93672 3.15086 9.9345 3.06106C9.93222 2.96859 9.92995 2.92463 9.92822 2.90303C9.92693 2.88688 9.92791 2.91016 9.93763 2.9493C9.94551 2.98103 9.95578 3.00612 9.93968 2.96231L11.8168 2.27218ZM11.9409 3.40715L11.9507 4.07116L9.95087 4.10067L9.94108 3.43667L11.9409 3.40715ZM11.7035 3.42761L11.7506 3.48139L10.245 4.798L10.198 4.74422L11.7035 3.42761ZM11.7506 3.48139C11.6032 3.31292 11.3599 3.18246 11.0696 3.1977C10.7871 3.21252 10.5777 3.35834 10.4599 3.50762L12.0296 4.74694C11.8431 4.98311 11.5456 5.17547 11.1744 5.19495C10.7955 5.21484 10.4629 5.04714 10.245 4.798L11.7506 3.48139ZM10.4636 3.50289L10.5165 3.43669L12.0787 4.68549L12.0258 4.75168L10.4636 3.50289ZM10.2978 4.07613L10.288 3.42453L12.2877 3.39446L12.2975 4.04605L10.2978 4.07613ZM10.2879 3.42039C10.2859 3.23906 10.2841 3.11267 10.2807 3.01636C10.2774 2.91902 10.2732 2.87586 10.2706 2.85683C10.2696 2.84948 10.2692 2.84914 10.2702 2.85318C10.2706 2.85501 10.2711 2.85702 10.2717 2.85898C10.2719 2.85991 10.2722 2.86068 10.2723 2.86126C10.2724 2.86155 10.2725 2.86177 10.2725 2.86192C10.2726 2.86208 10.2726 2.86216 10.2726 2.86216C10.2711 2.85763 10.2654 2.84171 10.2334 2.77002L12.0601 1.95561C12.1317 2.11631 12.2137 2.3042 12.2522 2.58659C12.2813 2.79961 12.2841 3.06478 12.2878 3.39861L10.2879 3.42039ZM10.2353 2.77428C10.1838 2.66006 10.0969 2.57635 10.0238 2.53881L10.9371 0.759519C11.4362 1.01571 11.8314 1.44914 12.0582 1.95135L10.2353 2.77428ZM10.0256 2.53974C9.92864 2.49023 9.93236 2.49321 9.94058 2.4963C9.97361 2.50869 9.99604 2.51026 9.9762 2.50799C9.94085 2.50395 9.87041 2.49936 9.71637 2.49624C9.56639 2.49321 9.36877 2.49196 9.08741 2.48986L9.10233 0.489915C9.61804 0.493762 9.965 0.493703 10.2032 0.520912C10.5645 0.562185 10.7706 0.674478 10.9353 0.758593L10.0256 2.53974ZM9.08667 2.48985C8.7095 2.48676 8.44864 2.48309 8.27993 2.47743C8.19992 2.47475 8.11749 2.47097 8.04705 2.46378C8.01936 2.46096 7.94786 2.45344 7.86668 2.43298C7.83442 2.42485 7.73058 2.39823 7.61334 2.33253C7.56096 2.30318 7.09931 2.04572 7.09931 1.45679H9.09931C9.09931 1.16749 8.97729 0.947132 8.86336 0.812507C8.7588 0.688952 8.6487 0.620109 8.59103 0.587791C8.47767 0.524266 8.37969 0.499734 8.35546 0.493626C8.31705 0.483946 8.28776 0.479262 8.2758 0.477455C8.26173 0.475327 8.25235 0.474348 8.24993 0.474101C8.24797 0.473901 8.27259 0.476063 8.34691 0.478554C8.48686 0.483243 8.72378 0.486809 9.10308 0.489921L9.08667 2.48985ZM7.09931 1.45679C7.09931 1.52265 7.106 1.57425 7.10985 1.60021C7.11421 1.62965 7.11912 1.6532 7.12249 1.66819C7.12909 1.69759 7.13552 1.71922 7.13834 1.72847C7.14168 1.73942 7.14432 1.74711 7.14556 1.75066C7.14692 1.75455 7.14774 1.75672 7.14786 1.75702C7.148 1.7574 7.1469 1.75452 7.14452 1.74896C7.14223 1.74361 7.13955 1.73764 7.13679 1.73182L8.94425 0.875616C8.97122 0.932549 8.99639 0.991322 9.01697 1.04538C9.02689 1.07146 9.03952 1.10626 9.05129 1.14484C9.05702 1.16362 9.06569 1.19351 9.07382 1.22969C9.07815 1.24896 9.09931 1.34008 9.09931 1.45679H7.09931ZM7.12327 1.70202C7.1315 1.72097 7.13682 1.72879 7.13552 1.72674C7.13471 1.72548 7.13215 1.72177 7.12865 1.71755C7.12496 1.71309 7.12463 1.71337 7.12988 1.71822C7.13278 1.72089 7.13874 1.72622 7.14803 1.73344C7.15707 1.74048 7.17199 1.75145 7.19286 1.7643L8.24146 0.0612295C8.42473 0.174072 8.56926 0.321493 8.66872 0.441533C8.77256 0.566863 8.8799 0.726067 8.95778 0.905419L7.12327 1.70202ZM7.19346 1.76466C7.15684 1.74215 7.16734 1.75049 7.19468 1.76257C7.21078 1.76968 7.2295 1.77682 7.24968 1.78299C7.26944 1.78903 7.28509 1.79244 7.2944 1.79418C7.30829 1.79677 7.30092 1.79417 7.24528 1.79093C7.1905 1.78773 7.11542 1.78522 6.99854 1.78208L7.05219 -0.217196C7.25364 -0.21179 7.47313 -0.206992 7.66125 -0.171888C7.93055 -0.12164 8.11026 -0.0194274 8.24087 0.060862L7.19346 1.76466ZM6.99698 1.78204L6.55995 1.76963L6.61673 -0.229564L7.05375 -0.217153L6.99698 1.78204ZM5.63737 1.07932L5.5923 0.940724L7.49424 0.322156L7.53931 0.460749L5.63737 1.07932ZM5.58969 0.932583C5.58678 0.92337 5.58761 0.931469 5.60122 0.946596C5.61543 0.96239 5.63453 0.975608 5.65339 0.983133L6.39447 -0.874503C6.94338 -0.655521 7.32743 -0.206168 7.49684 0.330297L5.58969 0.932583ZM5.64536 0.979889C5.66775 0.989048 5.68448 0.994136 5.69373 0.996695C5.70331 0.999346 5.70905 1.00043 5.71057 1.00071C5.71269 1.00109 5.70818 1.00024 5.69954 0.999943C5.69077 0.999642 5.68768 1.00025 5.69265 0.999689C5.69561 0.999354 5.70363 0.998343 5.71617 0.99571C5.72823 0.993178 5.74955 0.988087 5.77772 0.978308L5.12172 -0.911048C5.35553 -0.992227 5.59531 -1.00482 5.76823 -0.998877C5.94475 -0.992811 6.17822 -0.962989 6.4025 -0.871258L5.64536 0.979889ZM6.32166 -0.516908C6.87825 -0.274254 7.15994 0.215584 7.22997 0.719168L5.24903 0.994655C5.25011 1.00237 5.26037 1.06456 5.31496 1.14324C5.37377 1.22803 5.45224 1.28586 5.52238 1.31643L6.32166 -0.516908ZM7.22927 0.714216C7.23432 0.749223 7.23542 0.753405 7.23422 0.74767C7.23303 0.74194 7.22337 0.694649 7.19592 0.630452C7.1657 0.559755 7.11304 0.466201 7.02441 0.375816C6.93516 0.284796 6.83965 0.227791 6.76065 0.193703C6.688 0.162351 6.63289 0.151891 6.6163 0.149021C6.59886 0.146005 6.59701 0.146945 6.62178 0.14843C6.6768 0.151727 6.7639 0.152714 6.92738 0.152714V2.15271C6.77827 2.15271 6.62825 2.15241 6.5021 2.14485C6.39476 2.13841 6.18288 2.12265 5.96822 2.03002C5.67804 1.90479 5.47061 1.68254 5.35694 1.41667C5.27847 1.23312 5.25596 1.04276 5.24974 0.999607L7.22927 0.714216ZM6.92738 0.152714C7.12842 0.152714 7.28896 0.153739 7.41027 0.162626C7.5692 0.174268 7.73111 0.203394 7.90866 0.286685L7.05924 2.09735C7.07215 2.1034 7.09344 2.11282 7.1207 2.12256C7.14839 2.13245 7.17532 2.1402 7.20047 2.14604C7.24705 2.15685 7.27526 2.15809 7.26416 2.15728C7.2532 2.15648 7.22524 2.15505 7.16563 2.15406C7.10776 2.15311 7.03143 2.15271 6.92738 2.15271V0.152714ZM7.92072 0.292445C8.23119 0.443185 8.50049 0.724759 8.64008 1.02583L6.8256 1.86707C6.84581 1.91066 6.86537 1.94028 6.87736 1.95693C6.89009 1.97459 6.90174 1.98794 6.912 1.99847C6.92223 2.00897 6.93572 2.02143 6.954 2.03528C6.9713 2.04838 7.00199 2.06965 7.04718 2.09159L7.92072 0.292445ZM8.64437 1.03521C8.98731 1.79536 8.64933 2.70599 7.88693 3.05349L7.05745 1.23361C6.92656 1.29327 6.84488 1.39698 6.80708 1.49795C6.76924 1.59904 6.76336 1.72923 6.82131 1.85768L8.64437 1.03521ZM7.87747 3.05774C7.81566 3.08514 7.70424 3.13243 7.53779 3.15747C7.42816 3.17396 7.30929 3.17834 7.19786 3.1808C6.95951 3.18606 6.52185 3.18489 5.69222 3.18285L5.69716 1.18285C6.54508 1.18494 6.94718 1.18585 7.1537 1.18128C7.2647 1.17883 7.26953 1.17532 7.24026 1.17972C7.21481 1.18355 7.17437 1.19151 7.1261 1.20727C7.08377 1.22109 7.05067 1.23655 7.06692 1.22935L7.87747 3.05774ZM5.691 3.18284L4.00952 3.17664L4.01691 1.17665L5.69838 1.18286L5.691 3.18284ZM3.5204 3.04678L3.44005 3.00127L4.42568 1.261L4.50603 1.30651L3.5204 3.04678ZM3.44123 3.00194C3.00752 2.75707 2.71236 2.34398 2.6612 1.81594L4.65188 1.62305C4.6467 1.56958 4.62576 1.48603 4.56847 1.40066C4.51266 1.3175 4.45102 1.27531 4.4245 1.26033L3.44123 3.00194ZM2.66189 1.82277C2.61934 1.41298 2.73331 1.01713 2.9978 0.695477L4.54261 1.96574C4.57587 1.9253 4.61086 1.86679 4.63267 1.79301C4.65431 1.71978 4.65543 1.65707 4.65119 1.61623L2.66189 1.82277ZM3.00247 0.689841C3.03948 0.645493 3.13027 0.535474 3.25866 0.436593C3.41189 0.318584 3.57749 0.244881 3.74843 0.20307C3.99236 0.143403 4.29104 0.148577 4.50903 0.148577V2.14858C4.36691 2.14858 4.28127 2.14924 4.22156 2.15172C4.1937 2.15288 4.18172 2.15407 4.17996 2.15427C4.17825 2.15446 4.19519 2.15275 4.22362 2.1458C4.25383 2.13841 4.29667 2.1252 4.34604 2.10205C4.39662 2.07833 4.44133 2.05015 4.47901 2.02113C4.51453 1.99377 4.53727 1.97066 4.54538 1.96213C4.55209 1.95508 4.55215 1.95436 4.53794 1.97138L3.00247 0.689841ZM4.51236 0.148582C4.67308 0.149117 4.76236 0.148349 4.81939 0.145275C4.84558 0.143863 4.84696 0.142782 4.83347 0.144911C4.82131 0.146831 4.77143 0.155183 4.7036 0.181958C4.63056 0.210786 4.53278 0.262545 4.43742 0.352667C4.3403 0.444457 4.2786 0.544942 4.2412 0.630172C4.2073 0.707454 4.19555 0.767425 4.19255 0.783504C4.1896 0.799313 4.18975 0.803727 4.19278 0.775375L6.18144 0.988093C6.17715 1.02817 6.1611 1.23218 6.0727 1.43369C5.94496 1.72484 5.7147 1.93302 5.4379 2.04228C5.23347 2.12297 5.03218 2.13671 4.92704 2.14238C4.80297 2.14906 4.65561 2.14907 4.50571 2.14857L4.51236 0.148582ZM4.19129 0.790432C4.2038 0.65397 4.23971 0.476045 4.29316 0.334989L6.16337 1.04373C6.16938 1.02787 6.17335 1.01579 6.17549 1.00904C6.17777 1.00186 6.17922 0.996765 6.17995 0.994123C6.18132 0.989167 6.18154 0.987837 6.18116 0.989595C6.18082 0.991134 6.18066 0.992144 6.18074 0.991651C6.1808 0.991246 6.18105 0.98971 6.1814 0.987033C6.18174 0.984442 6.18232 0.979712 6.18293 0.973036L4.19129 0.790432ZM4.30273 0.310713C4.37529 0.13333 4.48324 -0.0136775 4.5581 -0.103987C4.62244 -0.18159 4.76612 -0.344606 4.96997 -0.457855L5.94123 1.29048C5.98639 1.26538 6.01852 1.24204 6.03631 1.22833C6.05529 1.21371 6.06856 1.20183 6.07608 1.19481C6.09043 1.18142 6.09687 1.17359 6.09784 1.17242C6.09917 1.17081 6.10256 1.16668 6.10849 1.15752C6.11188 1.15229 6.13195 1.12143 6.15381 1.06801L4.30273 0.310713ZM4.97822 -0.462387C5.3941 -0.688326 5.90783 -0.69642 6.31997 -0.517646L5.52408 1.31717C5.60567 1.35257 5.67282 1.35864 5.71977 1.35702C5.76574 1.35542 5.84154 1.34468 5.93298 1.29501L4.97822 -0.462387Z" fill="#002266" mask="url(#path-1-inside-1_576_237)"/>
<path d="M2.15613 4.38087C2.15633 4.38113 2.15643 4.38127 2.15643 4.38128C2.15644 4.3813 2.15537 4.37985 2.15321 4.37665L2.15298 4.37681M2.15613 4.38087C2.15566 4.38023 2.1546 4.37883 2.15298 4.37681M2.15613 4.38087C2.15915 4.38553 2.16211 4.39022 2.16502 4.39496L2.16374 4.39575L2.15994 4.39808L2.0452 4.46864L1.9388 4.53408L1.93878 4.53409L1.93359 4.53728L2.15613 4.38087ZM2.15298 4.37681C2.15178 4.37531 2.15027 4.37346 2.14845 4.37132L2.14833 4.37118C2.14647 4.36899 2.14081 4.36231 2.13179 4.35307C2.12982 4.35105 2.12769 4.34891 2.12541 4.34666C2.12005 4.34141 2.11385 4.33559 2.10685 4.32947C2.08652 4.34662 2.03887 4.40192 1.98633 4.46864C1.97513 4.48287 1.9637 4.49762 1.95227 4.51264L2.01728 4.46864L2.14795 4.38022L2.15071 4.37834L2.15298 4.37681Z" fill="#002266" stroke="#002266"/>
<mask id="path-4-inside-2_576_237" fill="white">
<path d="M3.18713 4.57611C3.15381 4.59059 3.11658 4.62162 3.10482 4.64644C3.05191 4.7478 3.10482 4.88226 3.20673 4.90708C3.23024 4.91329 4.50997 4.91536 6.04838 4.91329L8.84888 4.90708L8.88611 4.85744C8.94098 4.78504 8.9351 4.66713 8.87239 4.60507L8.82144 4.55543L6.03662 4.55129C3.69863 4.54715 3.24004 4.55129 3.18713 4.57611Z"/>
</mask>
<path d="M3.18713 4.57611C3.15381 4.59059 3.11658 4.62162 3.10482 4.64644C3.05191 4.7478 3.10482 4.88226 3.20673 4.90708C3.23024 4.91329 4.50997 4.91536 6.04838 4.91329L8.84888 4.90708L8.88611 4.85744C8.94098 4.78504 8.9351 4.66713 8.87239 4.60507L8.82144 4.55543L6.03662 4.55129C3.69863 4.54715 3.24004 4.55129 3.18713 4.57611Z" fill="#002266"/>
<path d="M3.18713 4.57611L3.61183 5.48145L3.59887 5.48753L3.58573 5.49324L3.18713 4.57611ZM3.10482 4.64644L4.00855 5.07455L4.00026 5.09205L3.99129 5.10922L3.10482 4.64644ZM3.20673 4.90708L3.44339 3.93549L3.45265 3.93775L3.46187 3.94018L3.20673 4.90708ZM6.04838 4.91329L6.05059 5.91328L6.04972 5.91329L6.04838 4.91329ZM8.84888 4.90708L9.64886 5.5071L9.34969 5.90597L8.85109 5.90708L8.84888 4.90708ZM8.88611 4.85744L8.08611 4.25741L8.08915 4.2534L8.88611 4.85744ZM8.87239 4.60507L9.57026 3.88881L9.57577 3.89426L8.87239 4.60507ZM8.82144 4.55543L8.82292 3.55543L9.22867 3.55603L9.51929 3.83918L8.82144 4.55543ZM6.03662 4.55129L6.03513 5.55129L6.03485 5.55129L6.03662 4.55129ZM3.58573 5.49324C3.67224 5.45564 3.73683 5.41064 3.78459 5.37014C3.81093 5.34781 3.84353 5.3172 3.87802 5.27686C3.90937 5.2402 3.96216 5.17247 4.00855 5.07455L2.20109 4.21834C2.29474 4.02064 2.42886 3.8975 2.49119 3.84466C2.56884 3.77882 2.6687 3.71107 2.78853 3.65899L3.58573 5.49324ZM3.99129 5.10922C4.11278 4.87651 4.10335 4.63091 4.02878 4.44062C3.95536 4.25324 3.77247 4.01565 3.44339 3.93549L2.97007 5.87867C2.53907 5.77369 2.27878 5.45646 2.16665 5.17031C2.05337 4.88124 2.04395 4.51774 2.21834 4.18367L3.99129 5.10922ZM3.46187 3.94018C3.40617 3.92548 3.36168 3.91909 3.34861 3.91723C3.32929 3.91448 3.31388 3.91288 3.30546 3.91206C3.28852 3.91041 3.2757 3.90964 3.27133 3.90938C3.26141 3.90879 3.25555 3.90864 3.2578 3.90871C3.26071 3.90881 3.27006 3.90905 3.28854 3.90934C3.32419 3.90992 3.37851 3.91047 3.45134 3.91098C3.59613 3.912 3.8044 3.91277 4.06147 3.91329C4.57513 3.91432 5.27846 3.91432 6.04703 3.91329L6.04972 5.91329C5.27989 5.91432 4.57415 5.91432 4.05746 5.91328C3.79936 5.91277 3.58714 5.91199 3.4373 5.91094C3.3628 5.91041 3.30127 5.90981 3.25642 5.90909C3.23466 5.90874 3.2126 5.9083 3.19343 5.90768C3.18464 5.9074 3.17006 5.90688 3.15383 5.90592C3.1463 5.90548 3.13092 5.90452 3.11203 5.90268C3.10263 5.90177 3.0864 5.90007 3.0664 5.89722C3.05266 5.89526 3.00765 5.88878 2.95158 5.87398L3.46187 3.94018ZM6.04616 3.91329L8.84666 3.90708L8.85109 5.90708L6.05059 5.91328L6.04616 3.91329ZM8.04889 4.30706L8.08612 4.25742L9.6861 5.45745L9.64886 5.5071L8.04889 4.30706ZM8.08915 4.2534C7.95227 4.43401 7.91674 4.62901 7.92474 4.78023C7.93266 4.92987 7.98944 5.1382 8.16901 5.31589L9.57577 3.89426C9.81805 4.13401 9.90913 4.43232 9.92195 4.67452C9.93485 4.91831 9.87483 5.20847 9.68307 5.46147L8.08915 4.2534ZM8.17454 5.32132L8.12359 5.27167L9.51929 3.83918L9.57024 3.88883L8.17454 5.32132ZM8.81995 5.55543L6.03513 5.55129L6.03811 3.55129L8.82292 3.55543L8.81995 5.55543ZM6.03485 5.55129C4.86428 5.54922 4.17088 5.54924 3.76372 5.5528C3.558 5.55461 3.43777 5.55724 3.36972 5.56022C3.33415 5.56178 3.32892 5.5628 3.34006 5.56155C3.3456 5.56093 3.36885 5.55828 3.40181 5.55157C3.4239 5.54707 3.50911 5.52964 3.61183 5.48145L2.76242 3.67078C2.9382 3.58832 3.10849 3.57498 3.11767 3.57395C3.17315 3.56774 3.23069 3.5644 3.28209 3.56214C3.38796 3.5575 3.53843 3.5547 3.74622 3.55288C4.16608 3.54921 4.87097 3.54923 6.03839 3.55129L6.03485 5.55129Z" fill="#002266" mask="url(#path-4-inside-2_576_237)"/>
<path d="M11.7023 9.38162L11.5975 9.03797L11.7023 9.38162Z" fill="#002266" stroke="#002266"/>
<path d="M2.1138 6.4764C2.11402 6.47662 2.11343 6.47586 2.11202 6.47429L2.1138 6.4764ZM2.1138 6.4764C2.13003 6.46014 2.14235 6.44939 2.14897 6.44621M2.1138 6.4764L2.24124 6.8607C2.26191 6.83326 2.27959 6.80924 2.29467 6.78803L2.22391 6.62204L2.14897 6.44621M2.14897 6.44621C2.25087 6.40277 2.3763 6.5 2.3763 6.62204C2.3763 6.65573 2.36132 6.69244 2.30555 6.77258L2.23332 6.62204L2.14897 6.44621Z" fill="#002266" stroke="#002266"/>
<mask id="path-8-inside-3_576_237" fill="white">
<path d="M3.20628 6.71099C3.10829 6.73167 3.04754 6.90543 3.10829 6.98817C3.16708 7.06885 3.17884 7.06885 4.57223 7.06885H5.92839L5.98522 7.00886C6.07929 6.90957 6.05577 6.77925 5.93427 6.72547C5.87743 6.70065 5.64618 6.69651 4.55851 6.69858C3.83928 6.70065 3.2298 6.70685 3.20628 6.71099Z"/>
</mask>
<path d="M3.20628 6.71099C3.10829 6.73167 3.04754 6.90543 3.10829 6.98817C3.16708 7.06885 3.17884 7.06885 4.57223 7.06885H5.92839L5.98522 7.00886C6.07929 6.90957 6.05577 6.77925 5.93427 6.72547C5.87743 6.70065 5.64618 6.69651 4.55851 6.69858C3.83928 6.70065 3.2298 6.70685 3.20628 6.71099Z" fill="#002266"/>
<path d="M3.20628 6.71099L2.99973 5.73255L3.01632 5.72905L3.03302 5.72611L3.20628 6.71099ZM3.10829 6.98817L3.91435 6.39633L3.91645 6.39921L3.10829 6.98817ZM5.92839 7.06885L6.65432 7.75661L6.35851 8.06885H5.92839V7.06885ZM5.93427 6.72547L6.33452 5.80905L6.33902 5.81104L5.93427 6.72547ZM4.55851 6.69858L4.55564 5.69858L4.55661 5.69858L4.55851 6.69858ZM3.41283 7.68943C3.64757 7.63987 3.80102 7.51256 3.88288 7.42202C3.96615 7.32991 4.01375 7.23583 4.04102 7.15836C4.0685 7.08029 4.08849 6.98183 4.08311 6.86631C4.07786 6.75366 4.04497 6.57423 3.91435 6.39633L2.30224 7.58001C1.99501 7.16159 2.08015 6.70546 2.1545 6.49426C2.22567 6.29207 2.45438 5.84768 2.99973 5.73255L3.41283 7.68943ZM3.91645 6.39921C3.92678 6.41339 3.87706 6.34022 3.79598 6.26801C3.69959 6.18217 3.59728 6.12768 3.50818 6.09522C3.43274 6.06774 3.37735 6.06004 3.36898 6.05887C3.35776 6.05729 3.36229 6.0585 3.39437 6.06025C3.54346 6.0684 3.85511 6.06885 4.57223 6.06885V8.06885C3.89597 8.06885 3.50504 8.06929 3.2852 8.05727C3.19642 8.05242 3.00965 8.04219 2.8236 7.97441C2.70336 7.93061 2.5796 7.86287 2.46587 7.7616C2.36745 7.67395 2.3045 7.58313 2.30013 7.57714L3.91645 6.39921ZM4.57223 6.06885H5.92839V8.06885H4.57223V6.06885ZM5.20245 6.38109L5.25928 6.3211L6.71116 7.69662L6.65432 7.75661L5.20245 6.38109ZM5.25928 6.3211C5.1254 6.46241 5.0003 6.71559 5.0564 7.02726C5.11367 7.34538 5.32914 7.5512 5.52951 7.63989L6.33902 5.81104C6.6609 5.95352 6.94888 6.25139 7.02476 6.67294C7.09948 7.08803 6.9391 7.45602 6.71116 7.69662L5.25928 6.3211ZM5.53401 7.64187C5.62791 7.68288 5.70351 7.69721 5.72732 7.70147C5.75632 7.70666 5.77271 7.70767 5.76614 7.70712C5.75226 7.70598 5.70995 7.70361 5.61365 7.70175C5.42554 7.69812 5.10732 7.69754 4.56042 7.69858L4.55661 5.69858C5.09738 5.69755 5.43861 5.698 5.65226 5.70213C5.75683 5.70414 5.85097 5.70734 5.93042 5.71388C5.97284 5.71738 6.15105 5.72893 6.33452 5.80906L5.53401 7.64187ZM4.56139 7.69857C4.2036 7.6996 3.87365 7.70166 3.63099 7.70396C3.50939 7.70512 3.41124 7.70632 3.34303 7.70746C3.30848 7.70803 3.28434 7.70855 3.26966 7.70896C3.2618 7.70918 3.26058 7.70926 3.26345 7.70913C3.26453 7.70908 3.27142 7.70877 3.2814 7.70806C3.28637 7.7077 3.29586 7.70698 3.308 7.70576C3.31637 7.70492 3.34411 7.7021 3.37954 7.69587L3.03302 5.72611C3.06918 5.71975 3.09795 5.7168 3.10762 5.71583C3.12106 5.71447 3.13214 5.71362 3.13898 5.71313C3.15268 5.71216 3.16441 5.71157 3.17143 5.71125C3.18616 5.71057 3.20115 5.71009 3.21361 5.70975C3.23958 5.70902 3.27253 5.70835 3.30967 5.70773C3.38482 5.70648 3.4884 5.70523 3.61201 5.70405C3.85979 5.7017 4.1942 5.69962 4.55564 5.69858L4.56139 7.69857Z" fill="#002266" mask="url(#path-8-inside-3_576_237)"/>
<mask id="path-10-inside-4_576_237" fill="white">
<path d="M2.14897 8.59732C2.12741 8.60766 2.0451 8.69868 1.96475 8.79797C1.88636 8.89933 1.81385 8.99034 1.80601 8.99862C1.79817 9.00896 1.76289 8.98207 1.72566 8.9407C1.67274 8.87864 1.64531 8.86416 1.58455 8.86416C1.48265 8.86416 1.41602 8.93242 1.41602 9.03585C1.41602 9.10204 1.43757 9.14135 1.55516 9.29028C1.77857 9.57781 1.80405 9.5716 2.13133 9.15376C2.33318 8.89519 2.3763 8.82693 2.3763 8.77108C2.3763 8.6511 2.25087 8.55388 2.14897 8.59732Z"/>
</mask>
<path d="M2.14897 8.59732C2.12741 8.60766 2.0451 8.69868 1.96475 8.79797C1.88636 8.89933 1.81385 8.99034 1.80601 8.99862C1.79817 9.00896 1.76289 8.98207 1.72566 8.9407C1.67274 8.87864 1.64531 8.86416 1.58455 8.86416C1.48265 8.86416 1.41602 8.93242 1.41602 9.03585C1.41602 9.10204 1.43757 9.14135 1.55516 9.29028C1.77857 9.57781 1.80405 9.5716 2.13133 9.15376C2.33318 8.89519 2.3763 8.82693 2.3763 8.77108C2.3763 8.6511 2.25087 8.55388 2.14897 8.59732Z" fill="#002266"/>
<path d="M2.14897 8.59732L1.7164 7.69572L1.73642 7.68611L1.75684 7.67741L2.14897 8.59732ZM1.96475 8.79797L1.17372 8.18619L1.18046 8.17747L1.1874 8.1689L1.96475 8.79797ZM1.80601 8.99862L1.00905 8.39458L1.04226 8.35077L1.08007 8.31086L1.80601 8.99862ZM1.72566 8.9407L0.982378 9.60968L0.973414 9.59972L0.964721 9.58952L1.72566 8.9407ZM1.55516 9.29028L2.34005 8.6706L2.3448 8.67672L1.55516 9.29028ZM2.13133 9.15376L2.91958 9.76912L2.91859 9.77038L2.13133 9.15376ZM2.58153 9.49892C2.6465 9.46775 2.69353 9.43626 2.71597 9.42062C2.74169 9.40269 2.76123 9.38715 2.77291 9.37755C2.79578 9.35876 2.81094 9.34428 2.81539 9.34C2.82513 9.33064 2.82644 9.32865 2.81711 9.33887C2.80024 9.35733 2.77277 9.38914 2.7421 9.42703L1.1874 8.1689C1.23708 8.1075 1.29094 8.04416 1.3407 7.98971C1.36468 7.96347 1.39563 7.93058 1.42938 7.89814C1.44583 7.88232 1.47159 7.85826 1.50341 7.83212C1.51994 7.81853 1.60009 7.75152 1.7164 7.69572L2.58153 9.49892ZM2.75578 9.40975C2.71414 9.46358 2.67393 9.51485 2.64251 9.55448C2.63474 9.56428 2.57525 9.64067 2.53195 9.68638L1.08007 8.31086C1.06924 8.32228 1.06113 8.33141 1.05771 8.33528C1.05355 8.33998 1.05035 8.34371 1.04852 8.34584C1.04494 8.35002 1.0426 8.35284 1.04226 8.35326C1.04141 8.35428 1.0423 8.35322 1.04564 8.34909C1.05196 8.34127 1.06201 8.32872 1.07533 8.31192C1.10172 8.27864 1.13697 8.23371 1.17372 8.18619L2.75578 9.40975ZM2.60297 9.60265C2.17079 10.1729 1.53414 9.96734 1.47077 9.94559C1.323 9.89488 1.22036 9.82103 1.18541 9.79539C1.09541 9.72938 1.02603 9.65818 0.982378 9.60968L2.46894 8.27172C2.46252 8.26459 2.4294 8.22752 2.3683 8.1827C2.34781 8.16767 2.25778 8.10119 2.12 8.0539C2.05181 8.0305 1.90081 7.98646 1.7051 8.00548C1.47746 8.02761 1.20391 8.13748 1.00905 8.39458L2.60297 9.60265ZM0.964721 9.58952C0.965414 9.59034 0.969756 9.59542 0.977005 9.60316C0.984254 9.6109 0.996363 9.62339 1.01282 9.63853C1.04606 9.66911 1.1027 9.71576 1.18288 9.75905C1.36719 9.85858 1.53307 9.86416 1.58455 9.86416V7.86416C1.69679 7.86416 1.90677 7.87698 2.13321 7.99926C2.32605 8.1034 2.44559 8.24378 2.48659 8.29187L0.964721 9.58952ZM1.58455 9.86416C1.76312 9.86416 1.9918 9.79938 2.17625 9.61118C2.35874 9.42498 2.41602 9.20182 2.41602 9.03585H0.416016C0.416016 8.76646 0.506604 8.45745 0.747885 8.21126C0.991129 7.96307 1.30409 7.86416 1.58455 7.86416V9.86416ZM2.41602 9.03585C2.41602 8.99505 2.4125 8.92396 2.39094 8.83837C2.36973 8.75414 2.33981 8.69051 2.31878 8.65208C2.30046 8.61858 2.28731 8.60158 2.29416 8.61105C2.30012 8.6193 2.31308 8.63649 2.34003 8.67062L0.770289 9.90994C0.719843 9.84605 0.63123 9.73451 0.564203 9.612C0.461247 9.42381 0.416016 9.23171 0.416016 9.03585H2.41602ZM2.3448 8.67672C2.4149 8.76693 2.3962 8.73427 2.34379 8.6894C2.30796 8.65872 2.21865 8.58821 2.07862 8.53938C1.92072 8.48432 1.74445 8.47298 1.57347 8.51354C1.42014 8.54991 1.31772 8.61697 1.27229 8.65032C1.2266 8.68387 1.20363 8.70941 1.2083 8.70447C1.22222 8.68977 1.25594 8.64965 1.34407 8.53713L2.91859 9.77038C2.84307 9.86679 2.75089 9.98414 2.66099 10.0791C2.60007 10.1435 2.38369 10.3768 2.03512 10.4595C1.55793 10.5727 1.20288 10.3455 1.04303 10.2086C0.912793 10.0971 0.807125 9.9574 0.765513 9.90384L2.3448 8.67672ZM1.34308 8.5384C1.39182 8.47597 1.42672 8.43045 1.45215 8.39624C1.47871 8.36049 1.48717 8.34745 1.4868 8.34803C1.48602 8.34924 1.48012 8.35851 1.4717 8.37412C1.46331 8.38971 1.44987 8.41629 1.43581 8.45201C1.42143 8.48859 1.40584 8.53615 1.39421 8.59319C1.38228 8.65168 1.3763 8.71144 1.3763 8.77108H3.3763C3.3763 9.09589 3.23286 9.32984 3.17222 9.42476C3.10661 9.52747 3.0158 9.64585 2.91958 9.76911L1.34308 8.5384ZM1.3763 8.77108C1.3763 9.06161 1.52275 9.28619 1.69166 9.41594C1.85823 9.5439 2.18045 9.67096 2.54109 9.51723L1.75684 7.67741C2.21939 7.48024 2.65527 7.63419 2.91003 7.82989C3.16713 8.02738 3.3763 8.36057 3.3763 8.77108H1.3763Z" fill="#002266" mask="url(#path-10-inside-4_576_237)"/>
<mask id="path-12-inside-5_576_237" fill="white">
<path d="M3.2055 8.86236C3.14278 8.87477 3.08203 8.96578 3.08203 9.04439C3.08203 9.0961 3.09771 9.12713 3.14278 9.16643L3.20354 9.22021H4.56557H5.9276L5.98444 9.16023C6.0785 9.06094 6.05499 8.93062 5.93348 8.87684C5.87665 8.85201 5.6454 8.84788 4.55773 8.84994C3.8385 8.85201 3.22901 8.85822 3.2055 8.86236Z"/>
</mask>
<path d="M3.2055 8.86236C3.14278 8.87477 3.08203 8.96578 3.08203 9.04439C3.08203 9.0961 3.09771 9.12713 3.14278 9.16643L3.20354 9.22021H4.56557H5.9276L5.98444 9.16023C6.0785 9.06094 6.05499 8.93062 5.93348 8.87684C5.87665 8.85201 5.6454 8.84788 4.55773 8.84994C3.8385 8.85201 3.22901 8.85822 3.2055 8.86236Z" fill="#002266"/>
<path d="M3.2055 8.86236L3.01135 7.88138L3.02178 7.87932L3.03224 7.87748L3.2055 8.86236ZM3.14278 9.16643L3.8 8.41269L3.80563 8.41768L3.14278 9.16643ZM3.20354 9.22021V10.2202H2.8245L2.54069 9.96897L3.20354 9.22021ZM5.9276 9.22021L6.65354 9.90798L6.35772 10.2202H5.9276V9.22021ZM5.93348 8.87684L6.33374 7.96042L6.33824 7.96241L5.93348 8.87684ZM4.55773 8.84994L4.55485 7.84995L4.55583 7.84995L4.55773 8.84994ZM3.39964 9.84333C3.57862 9.80791 3.70588 9.72814 3.78097 9.66861C3.85869 9.607 3.91255 9.54219 3.94922 9.48783C4.01423 9.39149 4.08203 9.24254 4.08203 9.04439H2.08203C2.08203 8.76763 2.18021 8.53388 2.29127 8.36926C2.3874 8.22678 2.61446 7.95993 3.01135 7.88138L3.39964 9.84333ZM4.08203 9.04439C4.08203 8.96325 4.06857 8.82035 3.99018 8.66334C3.91811 8.51901 3.82704 8.43631 3.79998 8.41272L2.48559 9.92015C2.41345 9.85725 2.29201 9.73939 2.20083 9.55678C2.10333 9.36152 2.08203 9.17724 2.08203 9.04439H4.08203ZM3.80563 8.41768L3.86638 8.47146L2.54069 9.96897L2.47994 9.91519L3.80563 8.41768ZM3.20354 8.22021H4.56557V10.2202H3.20354V8.22021ZM4.56557 8.22021H5.9276V10.2202H4.56557V8.22021ZM5.20167 8.53245L5.2585 8.47247L6.71037 9.84799L6.65354 9.90798L5.20167 8.53245ZM5.2585 8.47247C5.12462 8.61378 4.99951 8.86696 5.05562 9.17863C5.11288 9.49675 5.32836 9.70257 5.52873 9.79126L6.33824 7.96241C6.66011 8.10488 6.9481 8.40275 7.02398 8.82431C7.0987 9.2394 6.93832 9.60739 6.71037 9.84799L5.2585 8.47247ZM5.53323 9.79324C5.62712 9.83425 5.70273 9.84858 5.72653 9.85284C5.75554 9.85803 5.77192 9.85903 5.76536 9.85849C5.75148 9.85735 5.70917 9.85498 5.61286 9.85312C5.42476 9.84949 5.10654 9.8489 4.55963 9.84994L4.55583 7.84995C5.09659 7.84892 5.43783 7.84937 5.65147 7.85349C5.75604 7.85551 5.85019 7.8587 5.92964 7.86525C5.97205 7.86875 6.15026 7.8803 6.33373 7.96043L5.53323 9.79324ZM4.56061 9.84994C4.20281 9.85097 3.87287 9.85303 3.63021 9.85533C3.50861 9.85648 3.41045 9.85769 3.34224 9.85882C3.30769 9.8594 3.28355 9.85992 3.26887 9.86033C3.26102 9.86055 3.2598 9.86063 3.26267 9.8605C3.26375 9.86045 3.27064 9.86014 3.28061 9.85942C3.28559 9.85907 3.29508 9.85835 3.30721 9.85713C3.31559 9.85629 3.34333 9.85347 3.37875 9.84723L3.03224 7.87748C3.0684 7.87112 3.09716 7.86817 3.10684 7.86719C3.12028 7.86584 3.13136 7.86499 3.13819 7.8645C3.1519 7.86352 3.16363 7.86294 3.17064 7.86262C3.18538 7.86194 3.20037 7.86146 3.21283 7.86111C3.23879 7.86038 3.27175 7.85972 3.30888 7.8591C3.38404 7.85785 3.48762 7.85659 3.61123 7.85542C3.859 7.85307 4.19342 7.85099 4.55485 7.84995L4.56061 9.84994Z" fill="#002266" mask="url(#path-12-inside-5_576_237)"/>
<mask id="path-14-inside-6_576_237" fill="white">
<path d="M9.63809 9.84045C9.44603 9.86734 9.2579 9.91905 9.06976 9.99973C8.26822 10.3348 7.71753 11.0361 7.53723 11.9504C7.50979 12.091 7.50195 12.2317 7.50195 12.6702V13.2163L7.55683 13.266C7.62738 13.3301 7.70969 13.3301 7.78024 13.266L7.83511 13.2163L7.84687 12.6289C7.85863 12.0807 7.86255 12.031 7.91154 11.8469C8.04481 11.3464 8.34269 10.8913 8.73072 10.5996C8.90318 10.4693 9.2285 10.3079 9.42644 10.2542C9.62241 10.2004 9.92814 10.1714 10.0614 10.1942C10.1182 10.2045 10.2339 10.248 10.322 10.2914C10.5259 10.3948 10.5709 10.4134 10.7258 10.4486C11.1373 10.5479 11.5645 10.4879 11.9408 10.2831C12.1074 10.1921 12.223 10.1735 12.466 10.1942C13.2068 10.2604 13.8437 10.7258 14.1749 11.4436C14.3592 11.8366 14.3768 11.9359 14.3885 12.6289L14.4003 13.2163L14.4552 13.266C14.5316 13.3342 14.6139 13.3301 14.6864 13.2556L14.7433 13.1956V12.7426C14.7433 12.0952 14.7021 11.8056 14.5532 11.4332C14.1808 10.4982 13.3714 9.88803 12.419 9.82597C12.1623 9.80942 12.0212 9.83838 11.7899 9.95629C11.3294 10.1921 10.91 10.1921 10.4475 9.95836C10.3475 9.90664 10.2182 9.85493 10.1613 9.84252C10.0457 9.8177 9.81643 9.81563 9.63809 9.84045Z"/>
</mask>
<path d="M9.63809 9.84045C9.44603 9.86734 9.2579 9.91905 9.06976 9.99973C8.26822 10.3348 7.71753 11.0361 7.53723 11.9504C7.50979 12.091 7.50195 12.2317 7.50195 12.6702V13.2163L7.55683 13.266C7.62738 13.3301 7.70969 13.3301 7.78024 13.266L7.83511 13.2163L7.84687 12.6289C7.85863 12.0807 7.86255 12.031 7.91154 11.8469C8.04481 11.3464 8.34269 10.8913 8.73072 10.5996C8.90318 10.4693 9.2285 10.3079 9.42644 10.2542C9.62241 10.2004 9.92814 10.1714 10.0614 10.1942C10.1182 10.2045 10.2339 10.248 10.322 10.2914C10.5259 10.3948 10.5709 10.4134 10.7258 10.4486C11.1373 10.5479 11.5645 10.4879 11.9408 10.2831C12.1074 10.1921 12.223 10.1735 12.466 10.1942C13.2068 10.2604 13.8437 10.7258 14.1749 11.4436C14.3592 11.8366 14.3768 11.9359 14.3885 12.6289L14.4003 13.2163L14.4552 13.266C14.5316 13.3342 14.6139 13.3301 14.6864 13.2556L14.7433 13.1956V12.7426C14.7433 12.0952 14.7021 11.8056 14.5532 11.4332C14.1808 10.4982 13.3714 9.88803 12.419 9.82597C12.1623 9.80942 12.0212 9.83838 11.7899 9.95629C11.3294 10.1921 10.91 10.1921 10.4475 9.95836C10.3475 9.90664 10.2182 9.85493 10.1613 9.84252C10.0457 9.8177 9.81643 9.81563 9.63809 9.84045Z" fill="#002266"/>
<path d="M9.63809 9.84045L9.49943 8.85011L9.50023 8.85L9.63809 9.84045ZM9.06976 9.99973L9.46387 10.9188L9.45548 10.9223L9.06976 9.99973ZM7.53723 11.9504L6.55572 11.7589L6.55612 11.7569L7.53723 11.9504ZM7.50195 13.2163L6.83106 13.9579L6.50195 13.6601V13.2163H7.50195ZM7.55683 13.266L8.22773 12.5244L8.22943 12.526L7.55683 13.266ZM7.78024 13.266L7.10764 12.526L7.10934 12.5244L7.78024 13.266ZM7.83511 13.2163L8.83491 13.2363L8.82627 13.6681L8.50601 13.9579L7.83511 13.2163ZM7.84687 12.6289L6.84707 12.6088L6.8471 12.6074L7.84687 12.6289ZM7.91154 11.8469L6.94518 11.5898L6.9452 11.5897L7.91154 11.8469ZM8.73072 10.5996L9.33361 11.3974L9.33157 11.399L8.73072 10.5996ZM9.42644 10.2542L9.69109 11.2185L9.68865 11.2192L9.42644 10.2542ZM10.0614 10.1942L10.2297 9.20838L10.2404 9.21033L10.0614 10.1942ZM10.322 10.2914L10.764 9.39425L10.7746 9.39964L10.322 10.2914ZM10.7258 10.4486L10.9473 9.47335L10.9603 9.47649L10.7258 10.4486ZM11.9408 10.2831L12.4203 11.1607L12.4188 11.1615L11.9408 10.2831ZM12.466 10.1942L12.5508 9.19777L12.555 9.19814L12.466 10.1942ZM14.1749 11.4436L13.2694 11.868L13.2669 11.8625L14.1749 11.4436ZM14.3885 12.6289L13.3887 12.6489L13.3887 12.6458L14.3885 12.6289ZM14.4003 13.2163L13.7294 13.9579L13.4091 13.6681L13.4005 13.2363L14.4003 13.2163ZM14.4552 13.266L13.789 14.0118L13.7843 14.0075L14.4552 13.266ZM14.6864 13.2556L15.4124 13.9434L15.4029 13.9533L14.6864 13.2556ZM14.7433 13.1956H15.7433V13.5941L15.4692 13.8834L14.7433 13.1956ZM14.5532 11.4332L13.6247 11.8046L13.6241 11.8032L14.5532 11.4332ZM12.419 9.82597L12.4833 8.82804L12.484 8.82809L12.419 9.82597ZM11.7899 9.95629L11.3341 9.06619L11.3357 9.0654L11.7899 9.95629ZM10.4475 9.95836L9.99639 10.8509L9.98793 10.8465L10.4475 9.95836ZM10.1613 9.84252L10.3712 8.86479L10.3747 8.86554L10.1613 9.84252ZM9.77676 10.8308C9.6725 10.8454 9.57028 10.8732 9.46386 10.9188L8.67566 9.08066C8.94552 8.96494 9.21957 8.8893 9.49943 8.85011L9.77676 10.8308ZM9.45548 10.9223C8.98739 11.118 8.63974 11.5282 8.51833 12.1438L6.55612 11.7569C6.79531 10.544 7.54905 9.55162 8.68404 9.07711L9.45548 10.9223ZM8.51873 12.1418C8.51262 12.1732 8.50195 12.2192 8.50195 12.6702H6.50195C6.50195 12.2442 6.50697 12.0089 6.55573 11.7589L8.51873 12.1418ZM8.50195 12.6702V13.2163H6.50195V12.6702H8.50195ZM8.17285 12.4748L8.22772 12.5244L6.88593 14.0075L6.83106 13.9579L8.17285 12.4748ZM8.22943 12.526C8.1197 12.4262 7.92722 12.3141 7.66853 12.3141C7.40985 12.3141 7.21737 12.4262 7.10764 12.526L8.45284 14.006C8.27256 14.1698 8.00365 14.3141 7.66853 14.3141C7.33342 14.3141 7.06451 14.1698 6.88423 14.006L8.22943 12.526ZM7.10934 12.5244L7.16421 12.4748L8.50601 13.9579L8.45114 14.0075L7.10934 12.5244ZM6.83531 13.1963L6.84707 12.6088L8.84667 12.6489L8.83491 13.2363L6.83531 13.1963ZM6.8471 12.6074C6.85847 12.0772 6.86044 11.9082 6.94518 11.5898L8.87791 12.1041C8.8671 12.1447 8.86528 12.1541 8.8648 12.1566C8.86469 12.1572 8.86449 12.1582 8.86413 12.1609C8.86372 12.1641 8.8629 12.171 8.86186 12.1836C8.85638 12.25 8.8528 12.3633 8.84664 12.6503L6.8471 12.6074ZM6.9452 11.5897C7.13149 10.8899 7.54886 10.237 8.12988 9.80024L9.33157 11.399C9.13652 11.5456 8.95812 11.8028 8.87789 12.1042L6.9452 11.5897ZM8.12784 9.80177C8.39719 9.59824 8.83726 9.37799 9.16423 9.28915L9.68865 11.2192C9.68951 11.2189 9.6715 11.2241 9.63398 11.2393C9.5989 11.2535 9.55739 11.2722 9.51362 11.2939C9.41691 11.3419 9.35219 11.3834 9.3336 11.3974L8.12784 9.80177ZM9.16179 9.28981C9.33056 9.2435 9.5159 9.21479 9.6733 9.1999C9.80891 9.18708 10.0274 9.17389 10.2297 9.20844L9.89309 11.1799C9.92228 11.1849 9.94097 11.186 9.94442 11.1862C9.94928 11.1865 9.94828 11.1863 9.94057 11.1864C9.92456 11.1865 9.89731 11.1876 9.86157 11.191C9.82658 11.1943 9.79041 11.1991 9.75736 11.2047C9.72313 11.2105 9.70077 11.2158 9.69108 11.2185L9.16179 9.28981ZM10.2404 9.21033C10.4328 9.24534 10.6461 9.33626 10.7639 9.39432L9.88017 11.1885C9.87594 11.1864 9.86835 11.1828 9.85814 11.1785C9.84809 11.1741 9.83819 11.1702 9.8298 11.1671C9.82574 11.1655 9.82265 11.1644 9.82065 11.1638C9.81857 11.163 9.81843 11.163 9.82017 11.1636C9.82169 11.164 9.827 11.1656 9.83558 11.1679C9.84001 11.169 9.84602 11.1705 9.85342 11.1721C9.86075 11.1738 9.87052 11.1759 9.88236 11.178L10.2404 9.21033ZM10.7746 9.39964C10.8248 9.42513 10.8564 9.4409 10.8798 9.45205C10.902 9.46263 10.9085 9.46507 10.9071 9.4645C10.894 9.45939 10.8873 9.45983 10.9473 9.47344L10.5043 11.4238C10.2379 11.3633 10.1109 11.3056 9.86952 11.1831L10.7746 9.39964ZM10.9603 9.47649C11.1232 9.51579 11.2971 9.49494 11.4628 9.40478L12.4188 11.1615C11.832 11.4809 11.1514 11.58 10.4912 11.4207L10.9603 9.47649ZM11.4613 9.40557C11.6114 9.32355 11.789 9.24752 12.0092 9.21055C12.2122 9.17648 12.3996 9.1849 12.5508 9.19777L12.3812 11.1906C12.338 11.1869 12.3174 11.1865 12.3103 11.1865C12.305 11.1866 12.3173 11.1868 12.3403 11.183C12.3516 11.1811 12.3639 11.1784 12.3764 11.175C12.389 11.1717 12.4 11.168 12.409 11.1647C12.4266 11.1581 12.4322 11.1541 12.4203 11.1607L11.4613 9.40557ZM12.555 9.19814C13.6788 9.29855 14.6131 10.0065 15.0829 11.0246L13.2669 11.8625C13.0743 11.4451 12.7348 11.2222 12.377 11.1902L12.555 9.19814ZM15.0804 11.0192C15.1798 11.2312 15.2775 11.4518 15.3306 11.7466C15.3765 12.0014 15.3828 12.2841 15.3884 12.6119L13.3887 12.6458C13.3825 12.2807 13.3742 12.1672 13.3622 12.1009C13.3575 12.0745 13.3543 12.049 13.2695 11.868L15.0804 11.0192ZM15.3883 12.6088L15.4001 13.1963L13.4005 13.2363L13.3887 12.6489L15.3883 12.6088ZM15.0712 12.4748L15.1261 12.5244L13.7843 14.0075L13.7294 13.9579L15.0712 12.4748ZM15.1213 12.5201C15.0192 12.4289 14.8136 12.3021 14.5261 12.3154C14.2432 12.3284 14.0563 12.4693 13.97 12.558L15.4029 13.9533C15.244 14.1164 14.9797 14.2966 14.6184 14.3133C14.2526 14.3301 13.9676 14.1713 13.7891 14.0118L15.1213 12.5201ZM13.9605 12.5679L14.0173 12.5079L15.4692 13.8834L15.4124 13.9434L13.9605 12.5679ZM13.7433 13.1956V12.7426H15.7433V13.1956H13.7433ZM13.7433 12.7426C13.7433 12.1514 13.7057 12.0072 13.6247 11.8046L15.4816 11.0618C15.6985 11.6039 15.7433 12.0389 15.7433 12.7426H13.7433ZM13.6241 11.8032C13.3844 11.2012 12.8947 10.8591 12.354 10.8239L12.484 8.82809C13.8482 8.91697 14.9773 9.79534 15.4822 11.0632L13.6241 11.8032ZM12.3547 10.8239C12.2747 10.8187 12.2732 10.825 12.2974 10.82C12.3213 10.815 12.3168 10.8101 12.2441 10.8472L11.3357 9.0654C11.4943 8.98453 11.6759 8.9062 11.8924 8.86143C12.1091 8.81661 12.3065 8.81665 12.4833 8.82804L12.3547 10.8239ZM12.2457 10.8464C11.9027 11.022 11.5276 11.1329 11.1206 11.1334C10.7139 11.1339 10.339 11.024 9.99641 10.8509L10.8985 9.06586C11.0184 9.12645 11.0845 9.13345 11.1183 9.13341C11.1517 9.13337 11.2166 9.12639 11.3341 9.06619L12.2457 10.8464ZM9.98793 10.8465C9.98009 10.8425 9.96865 10.8369 9.95451 10.8304C9.94054 10.8241 9.92658 10.8181 9.91423 10.8131C9.90817 10.8107 9.90309 10.8087 9.89913 10.8072C9.89718 10.8065 9.89565 10.8059 9.89454 10.8055C9.89342 10.8051 9.89287 10.8049 9.89288 10.8049C9.8929 10.805 9.8931 10.805 9.89347 10.8051C9.89385 10.8053 9.89443 10.8055 9.89523 10.8057C9.89675 10.8062 9.89943 10.807 9.90317 10.8081C9.90919 10.8099 9.92508 10.8145 9.94799 10.8195L10.3747 8.86554C10.559 8.90579 10.7798 9.00436 10.907 9.0702L9.98793 10.8465ZM9.95145 10.8202C9.97961 10.8263 9.99002 10.8262 9.97484 10.8249C9.96322 10.824 9.94367 10.823 9.91774 10.8229C9.86276 10.8225 9.80959 10.8262 9.77595 10.8309L9.50023 8.85C9.74899 8.81537 10.1038 8.80738 10.3712 8.86479L9.95145 10.8202Z" fill="#002266" mask="url(#path-14-inside-6_576_237)"/>
<mask id="path-16-inside-7_576_237" fill="white">
<path d="M2.14897 10.7505C2.12741 10.7588 2.0451 10.8498 1.96475 10.9491C1.88636 11.0505 1.81385 11.1415 1.80601 11.1498C1.79817 11.1601 1.76289 11.1332 1.72566 11.0918C1.6747 11.0318 1.64531 11.0153 1.58651 11.0132C1.48657 11.0112 1.41602 11.0815 1.41602 11.1891C1.41602 11.2532 1.43561 11.2904 1.52576 11.4063C1.70606 11.6338 1.76877 11.6752 1.8648 11.6193C1.8844 11.609 1.97455 11.5055 2.0647 11.3876C2.15289 11.2697 2.26067 11.1332 2.30183 11.0836C2.35474 11.0174 2.3763 10.9739 2.3763 10.9243C2.3763 10.8043 2.25087 10.7071 2.14897 10.7505Z"/>
</mask>
<path d="M2.14897 10.7505C2.12741 10.7588 2.0451 10.8498 1.96475 10.9491C1.88636 11.0505 1.81385 11.1415 1.80601 11.1498C1.79817 11.1601 1.76289 11.1332 1.72566 11.0918C1.6747 11.0318 1.64531 11.0153 1.58651 11.0132C1.48657 11.0112 1.41602 11.0815 1.41602 11.1891C1.41602 11.2532 1.43561 11.2904 1.52576 11.4063C1.70606 11.6338 1.76877 11.6752 1.8648 11.6193C1.8844 11.609 1.97455 11.5055 2.0647 11.3876C2.15289 11.2697 2.26067 11.1332 2.30183 11.0836C2.35474 11.0174 2.3763 10.9739 2.3763 10.9243C2.3763 10.8043 2.25087 10.7071 2.14897 10.7505Z" fill="#002266"/>
<path d="M2.14897 10.7505L2.54109 11.6704L2.52432 11.6776L2.5073 11.6841L2.14897 10.7505ZM1.96475 10.9491L1.17372 10.3373L1.18046 10.3286L1.1874 10.32L1.96475 10.9491ZM1.80601 11.1498L1.00905 10.5457L1.04226 10.5019L1.08007 10.462L1.80601 11.1498ZM1.72566 11.0918L0.982378 11.7608L0.97278 11.7502L0.963493 11.7392L1.72566 11.0918ZM1.58651 11.0132L1.60721 10.0134L1.61444 10.0136L1.62168 10.0138L1.58651 11.0132ZM1.52576 11.4063L0.741958 12.0273L0.736582 12.0204L1.52576 11.4063ZM1.8648 11.6193L1.36204 10.7549L1.37984 10.7445L1.39806 10.7349L1.8648 11.6193ZM2.0647 11.3876L2.86553 11.9866L2.8591 11.995L2.0647 11.3876ZM2.30183 11.0836L3.08293 11.708L3.07737 11.7149L3.07169 11.7218L2.30183 11.0836ZM2.5073 11.6841C2.59089 11.652 2.65125 11.6156 2.67967 11.5976C2.71235 11.5769 2.73709 11.5584 2.7518 11.5469C2.78065 11.5245 2.8 11.5065 2.80615 11.5008C2.8196 11.4882 2.82344 11.4834 2.81471 11.4929C2.79956 11.5093 2.77302 11.54 2.7421 11.5782L1.1874 10.32C1.23683 10.259 1.29162 10.1944 1.3431 10.1385C1.36768 10.1118 1.40117 10.0765 1.43863 10.0414C1.45678 10.0244 1.48672 9.99715 1.52451 9.96778C1.54231 9.95395 1.64274 9.87369 1.79063 9.81693L2.5073 11.6841ZM2.75578 11.5609C2.71414 11.6147 2.67393 11.666 2.64251 11.7056C2.63474 11.7154 2.57525 11.7918 2.53195 11.8375L1.08007 10.462C1.06924 10.4734 1.06113 10.4825 1.05771 10.4864C1.05355 10.4911 1.05035 10.4948 1.04852 10.497C1.04494 10.5012 1.0426 10.504 1.04226 10.5044C1.04141 10.5054 1.0423 10.5044 1.04564 10.5002C1.05196 10.4924 1.06201 10.4799 1.07533 10.4631C1.10172 10.4298 1.13697 10.3848 1.17372 10.3373L2.75578 11.5609ZM2.60297 11.7538C2.17079 12.324 1.53414 12.1185 1.47077 12.0967C1.323 12.046 1.22036 11.9722 1.18541 11.9465C1.09541 11.8805 1.02603 11.8093 0.982378 11.7608L2.46894 10.4229C2.46252 10.4157 2.4294 10.3787 2.3683 10.3338C2.34781 10.3188 2.25778 10.2523 2.12 10.205C2.05181 10.1816 1.90081 10.1376 1.7051 10.1566C1.47746 10.1787 1.20391 10.2886 1.00905 10.5457L2.60297 11.7538ZM0.963493 11.7392C0.96477 11.7407 0.982184 11.7614 1.01192 11.7889C1.04362 11.8182 1.09536 11.8609 1.16739 11.9016C1.33341 11.9953 1.4856 12.0103 1.55135 12.0126L1.62168 10.0138C1.74622 10.0182 1.94251 10.0425 2.15066 10.16C2.32982 10.2612 2.44258 10.3912 2.48782 10.4445L0.963493 11.7392ZM1.56582 12.013C1.76362 12.0171 1.99637 11.9454 2.17826 11.7597C2.3574 11.5768 2.41602 11.3568 2.41602 11.1891H0.416016C0.416016 10.9138 0.509902 10.6048 0.749306 10.3604C0.99146 10.1131 1.30947 10.0073 1.60721 10.0134L1.56582 12.013ZM2.41602 11.1891C2.41602 11.1526 2.41317 11.0896 2.39574 11.0127C2.37804 10.9346 2.35189 10.8711 2.32851 10.8251C2.31761 10.8037 2.308 10.7874 2.30167 10.7772C2.2954 10.767 2.29114 10.7609 2.29043 10.7599C2.29015 10.7595 2.29589 10.7676 2.31494 10.7921L0.736582 12.0204C0.696668 11.9691 0.611212 11.8604 0.545659 11.7314C0.450711 11.5447 0.416016 11.3614 0.416016 11.1891H2.41602ZM2.30954 10.7852C2.34924 10.8353 2.36702 10.8554 2.37169 10.8604C2.38106 10.8704 2.34147 10.8246 2.26192 10.7742C2.16823 10.7149 2.00017 10.6376 1.77775 10.6418C1.56728 10.6457 1.41955 10.7214 1.36204 10.7549L2.36756 12.4837C2.26204 12.5451 2.07045 12.6366 1.81559 12.6414C1.54876 12.6465 1.33575 12.555 1.19185 12.4639C0.973339 12.3255 0.811135 12.1146 0.741988 12.0273L2.30954 10.7852ZM1.39806 10.7349C1.35944 10.7553 1.32916 10.7746 1.30915 10.788C1.28832 10.802 1.27141 10.8146 1.25914 10.824C1.23529 10.8424 1.21756 10.8579 1.20788 10.8666C1.18868 10.8838 1.17647 10.8964 1.17418 10.8987C1.16846 10.9046 1.17067 10.9027 1.18218 10.8894C1.20363 10.8646 1.23596 10.8252 1.27029 10.7803L2.8591 11.995C2.80329 12.068 2.74546 12.1393 2.6944 12.1983C2.66966 12.2268 2.64002 12.2601 2.60907 12.292C2.59417 12.3073 2.57099 12.3306 2.54276 12.3559C2.53474 12.3631 2.4523 12.44 2.33154 12.5037L1.39806 10.7349ZM1.26391 10.7887C1.35955 10.6608 1.47778 10.5107 1.53196 10.4454L3.07169 11.7218C3.04356 11.7557 2.94623 11.8786 2.86548 11.9866L1.26391 10.7887ZM1.52072 10.4592C1.52808 10.45 1.49167 10.4926 1.45517 10.5696C1.40988 10.6652 1.3763 10.7875 1.3763 10.9243H3.3763C3.3763 11.327 3.17099 11.5978 3.08293 11.708L1.52072 10.4592ZM1.3763 10.9243C1.3763 11.2148 1.52275 11.4394 1.69166 11.5692C1.85823 11.6971 2.18045 11.8242 2.54109 11.6704L1.75684 9.83061C2.21939 9.63344 2.65527 9.78739 2.91003 9.9831C3.16713 10.1806 3.3763 10.5138 3.3763 10.9243H1.3763Z" fill="#002266" mask="url(#path-16-inside-7_576_237)"/>
<mask id="path-18-inside-8_576_237" fill="white">
<path d="M3.2055 11.0137C3.14278 11.0261 3.08203 11.1172 3.08203 11.1958C3.08203 11.2475 3.09771 11.2785 3.14278 11.3178L3.20354 11.3716H4.56557H5.9276L5.98444 11.3116C6.0785 11.2123 6.05499 11.082 5.93348 11.0282C5.87665 11.0034 5.6454 10.9992 4.55773 11.0013C3.8385 11.0034 3.22901 11.0096 3.2055 11.0137Z"/>
</mask>
<path d="M3.2055 11.0137C3.14278 11.0261 3.08203 11.1172 3.08203 11.1958C3.08203 11.2475 3.09771 11.2785 3.14278 11.3178L3.20354 11.3716H4.56557H5.9276L5.98444 11.3116C6.0785 11.2123 6.05499 11.082 5.93348 11.0282C5.87665 11.0034 5.6454 10.9992 4.55773 11.0013C3.8385 11.0034 3.22901 11.0096 3.2055 11.0137Z" fill="#002266"/>
<path d="M3.2055 11.0137L3.01135 10.0328L3.02178 10.0307L3.03224 10.0288L3.2055 11.0137ZM3.14278 11.3178L3.8 10.5641L3.80563 10.569L3.14278 11.3178ZM3.20354 11.3716V12.3716H2.8245L2.54069 12.1203L3.20354 11.3716ZM5.9276 11.3716L6.65354 12.0593L6.35772 12.3716H5.9276V11.3716ZM5.93348 11.0282L6.33374 10.1118L6.33824 10.1138L5.93348 11.0282ZM4.55773 11.0013L4.55485 10.0013L4.55583 10.0013L4.55773 11.0013ZM3.39964 11.9947C3.57862 11.9593 3.70588 11.8795 3.78097 11.82C3.85869 11.7584 3.91255 11.6936 3.94922 11.6392C4.01423 11.5429 4.08203 11.3939 4.08203 11.1958H2.08203C2.08203 10.919 2.18021 10.6852 2.29127 10.5206C2.3874 10.3781 2.61446 10.1113 3.01135 10.0328L3.39964 11.9947ZM4.08203 11.1958C4.08203 11.1146 4.06857 10.9717 3.99018 10.8147C3.91811 10.6704 3.82704 10.5877 3.79998 10.5641L2.48559 12.0715C2.41345 12.0086 2.29201 11.8908 2.20083 11.7082C2.10333 11.5129 2.08203 11.3286 2.08203 11.1958H4.08203ZM3.80563 10.569L3.86638 10.6228L2.54069 12.1203L2.47994 12.0666L3.80563 10.569ZM3.20354 10.3716H4.56557V12.3716H3.20354V10.3716ZM4.56557 10.3716H5.9276V12.3716H4.56557V10.3716ZM5.20167 10.6838L5.2585 10.6238L6.71037 11.9994L6.65354 12.0593L5.20167 10.6838ZM5.2585 10.6238C5.12462 10.7651 4.99951 11.0183 5.05562 11.33C5.11288 11.6481 5.32836 11.8539 5.52873 11.9426L6.33824 10.1138C6.66011 10.2563 6.9481 10.5541 7.02398 10.9757C7.0987 11.3908 6.93832 11.7588 6.71037 11.9994L5.2585 10.6238ZM5.53323 11.9446C5.62712 11.9856 5.70273 11.9999 5.72653 12.0042C5.75554 12.0094 5.77192 12.0104 5.76536 12.0099C5.75148 12.0087 5.70917 12.0063 5.61286 12.0045C5.42476 12.0009 5.10654 12.0003 4.55963 12.0013L4.55583 10.0013C5.09659 10.0003 5.43783 10.0007 5.65147 10.0049C5.75604 10.0069 5.85019 10.0101 5.92964 10.0166C5.97205 10.0201 6.15026 10.0317 6.33373 10.1118L5.53323 11.9446ZM4.56061 12.0013C4.20281 12.0023 3.87287 12.0044 3.63021 12.0067C3.50861 12.0079 3.41045 12.0091 3.34224 12.0102C3.30769 12.0108 3.28355 12.0113 3.26887 12.0117C3.26102 12.0119 3.2598 12.012 3.26267 12.0119C3.26375 12.0118 3.27064 12.0115 3.28061 12.0108C3.28559 12.0104 3.29508 12.0097 3.30721 12.0085C3.31559 12.0077 3.34333 12.0048 3.37875 11.9986L3.03224 10.0288C3.0684 10.0225 3.09716 10.0195 3.10684 10.0186C3.12028 10.0172 3.13136 10.0164 3.13819 10.0159C3.1519 10.0149 3.16363 10.0143 3.17064 10.014C3.18538 10.0133 3.20037 10.0128 3.21283 10.0125C3.23879 10.0118 3.27175 10.0111 3.30888 10.0105C3.38404 10.0092 3.48762 10.008 3.61123 10.0068C3.859 10.0044 4.19342 10.0024 4.55485 10.0013L4.56061 12.0013Z" fill="#002266" mask="url(#path-18-inside-8_576_237)"/>
<path d="M8.94017 11.8593C8.93371 11.8667 8.92813 11.873 8.92331 11.8799C8.89835 11.9156 8.89349 11.9654 8.88971 12.2424C8.90113 12.2499 8.91308 12.2569 8.92554 12.2634C8.98351 12.2936 9.03269 12.3018 9.05188 12.3042C9.05314 12.3043 9.05426 12.3045 9.05526 12.3046C9.05825 12.3049 9.06088 12.3051 9.06294 12.3053C9.10629 12.3039 9.15711 12.2939 9.20817 12.2694C9.21772 12.2649 9.22665 12.2601 9.23498 12.2552C9.23439 12.2049 9.23351 12.1602 9.23217 12.1205L9.05188 11.9592L8.94017 11.8593ZM8.94017 11.8593C8.97349 11.822 9.00876 11.8055 9.05188 11.8055C9.18397 11.8055 9.22139 11.8155 9.23196 12.1144L9.05188 11.957L8.94017 11.8593ZM9.2361 13.1955L9.13113 13.0961L8.88517 12.8631C8.88516 12.8618 8.88514 12.8606 8.88513 12.8594C8.92341 12.838 8.97516 12.8193 9.04047 12.8163C9.11893 12.8127 9.18516 12.8333 9.2361 12.8617V12.9967V13.1955ZM9.2361 13.1955L9.17926 13.2555C9.10675 13.3321 9.01856 13.3362 8.95193 13.2659C8.93514 13.2482 8.92218 13.2275 8.91233 13.1955H9.02617H9.11595H9.2361Z" fill="#002266" stroke="#002266"/>
<mask id="path-21-inside-9_576_237" fill="white">
<path d="M13.0804 11.8201C13.0666 11.8263 13.0431 11.8573 13.0274 11.8884C13.0039 11.938 12.998 12.0621 12.998 12.571V13.1957L13.0549 13.2557C13.1607 13.3674 13.3116 13.3095 13.341 13.1481C13.3469 13.1088 13.3508 12.8151 13.3469 12.4945L13.341 11.9132L13.294 11.8594C13.2469 11.8077 13.1509 11.7891 13.0804 11.8201Z"/>
</mask>
<path d="M13.0804 11.8201C13.0666 11.8263 13.0431 11.8573 13.0274 11.8884C13.0039 11.938 12.998 12.0621 12.998 12.571V13.1957L13.0549 13.2557C13.1607 13.3674 13.3116 13.3095 13.341 13.1481C13.3469 13.1088 13.3508 12.8151 13.3469 12.4945L13.341 11.9132L13.294 11.8594C13.2469 11.8077 13.1509 11.7891 13.0804 11.8201Z" fill="#002266"/>
<path d="M13.0804 11.8201L12.6682 10.9089L12.6778 10.9047L13.0804 11.8201ZM13.0274 11.8884L12.1237 11.4603L12.1292 11.4488L12.1349 11.4374L13.0274 11.8884ZM12.998 13.1957L12.2721 13.8835L11.998 13.5942V13.1957H12.998ZM13.341 13.1481L14.33 13.2961L14.3277 13.3118L14.3248 13.3274L13.341 13.1481ZM13.3469 12.4945L12.347 12.5067L12.3469 12.5046L13.3469 12.4945ZM13.341 11.9132L14.0938 11.2549L14.3372 11.5333L14.341 11.9031L13.341 11.9132ZM13.294 11.8594L14.0338 11.1866L14.0403 11.1938L14.0467 11.2011L13.294 11.8594ZM13.4925 12.7312C13.579 12.6921 13.6419 12.6484 13.6781 12.621C13.7169 12.5917 13.7465 12.5646 13.7664 12.5453C13.8053 12.5074 13.832 12.4744 13.8471 12.4549C13.8771 12.4159 13.9005 12.3779 13.92 12.3394L12.1349 11.4374C12.1701 11.3678 12.2131 11.2988 12.2622 11.235C12.2868 11.203 12.323 11.1592 12.3707 11.1128C12.404 11.0803 12.5069 10.982 12.6682 10.909L13.4925 12.7312ZM13.9312 12.3165C13.9859 12.2009 13.9997 12.1075 14.0025 12.0881C14.0058 12.0656 14.0046 12.0629 14.003 12.1012C13.9997 12.1765 13.998 12.3129 13.998 12.571H11.998C11.998 12.3202 11.9994 12.1401 12.0049 12.0138C12.0078 11.9466 12.0115 11.6972 12.1237 11.4603L13.9312 12.3165ZM13.998 12.571V13.1957H11.998V12.571H13.998ZM13.724 12.5079L13.7808 12.5679L12.3289 13.9434L12.2721 13.8835L13.724 12.5079ZM13.7808 12.5679C13.5926 12.3693 13.2416 12.2293 12.8725 12.3691C12.5343 12.4971 12.3918 12.7788 12.3572 12.9689L14.3248 13.3274C14.2608 13.6788 14.0281 14.0701 13.5807 14.2395C13.1023 14.4206 12.623 14.2538 12.3289 13.9434L13.7808 12.5679ZM12.352 13.0002C12.3473 13.0316 12.3455 13.0548 12.3453 13.0582C12.3447 13.0654 12.3445 13.0695 12.3445 13.0687C12.3446 13.0671 12.345 13.0597 12.3454 13.0447C12.3463 13.0155 12.3471 12.9721 12.3477 12.9164C12.3488 12.806 12.3488 12.6599 12.347 12.5067L14.3468 12.4822C14.3489 12.6496 14.3489 12.8108 14.3476 12.9371C14.3469 12.9999 14.3459 13.0573 14.3445 13.1042C14.3441 13.1196 14.3423 13.214 14.33 13.2961L12.352 13.0002ZM12.3469 12.5046L12.3411 11.9233L14.341 11.9031L14.3468 12.4843L12.3469 12.5046ZM12.5883 12.5715L12.5412 12.5177L14.0467 11.2011L14.0938 11.2549L12.5883 12.5715ZM12.5542 12.5323C12.7103 12.7039 12.8905 12.7689 13.0121 12.7917C13.1387 12.8154 13.3058 12.8134 13.4829 12.7355L12.6778 10.9047C12.9254 10.7958 13.1759 10.7876 13.3798 10.8258C13.5788 10.863 13.8306 10.9632 14.0338 11.1866L12.5542 12.5323Z" fill="#002266" mask="url(#path-21-inside-9_576_237)"/>
<mask id="path-23-inside-10_576_237" fill="white">
<path d="M2.14707 12.902C2.12355 12.9124 2.03732 13.0075 1.95306 13.113C1.87075 13.2185 1.80019 13.3075 1.79823 13.3116C1.79431 13.3157 1.761 13.2847 1.72376 13.2413C1.63949 13.144 1.54347 13.1337 1.46507 13.2123C1.37689 13.2992 1.39648 13.384 1.54151 13.5743C1.77668 13.8784 1.80411 13.8722 2.13139 13.4543C2.33129 13.1978 2.37636 13.1275 2.37636 13.0737C2.37636 12.9517 2.25094 12.8565 2.14707 12.902Z"/>
</mask>
<path d="M2.14707 12.902C2.12355 12.9124 2.03732 13.0075 1.95306 13.113C1.87075 13.2185 1.80019 13.3075 1.79823 13.3116C1.79431 13.3157 1.761 13.2847 1.72376 13.2413C1.63949 13.144 1.54347 13.1337 1.46507 13.2123C1.37689 13.2992 1.39648 13.384 1.54151 13.5743C1.77668 13.8784 1.80411 13.8722 2.13139 13.4543C2.33129 13.1978 2.37636 13.1275 2.37636 13.0737C2.37636 12.9517 2.25094 12.8565 2.14707 12.902Z" fill="#002266"/>
<path d="M2.14707 12.902L1.74449 11.9866L1.74576 11.9861L2.14707 12.902ZM1.95306 13.113L1.16458 12.4978L1.17173 12.4889L1.95306 13.113ZM1.79823 13.3116L2.70196 13.7397L2.63375 13.8837L2.52417 13.9994L1.79823 13.3116ZM1.72376 13.2413L2.47942 12.5863L2.48301 12.5905L1.72376 13.2413ZM1.46507 13.2123L2.17317 13.9185L2.16687 13.9247L1.46507 13.2123ZM1.54151 13.5743L0.750456 14.1861L0.746128 14.1804L1.54151 13.5743ZM2.13139 13.4543L2.92016 14.069L2.91865 14.0709L2.13139 13.4543ZM2.54965 13.8174C2.61935 13.7868 2.67004 13.7547 2.69511 13.738C2.72344 13.7192 2.74498 13.7027 2.75806 13.6923C2.78362 13.6719 2.80063 13.656 2.80596 13.6509C2.81749 13.64 2.81976 13.6369 2.81046 13.6471C2.79382 13.6652 2.76589 13.6977 2.73438 13.7371L1.17173 12.4889C1.22449 12.4228 1.28181 12.355 1.33523 12.2966C1.36096 12.2685 1.39447 12.2331 1.43141 12.1981C1.44945 12.1811 1.47771 12.1551 1.51282 12.1272C1.53225 12.1117 1.61871 12.042 1.74449 11.9866L2.54965 13.8174ZM2.74147 13.7282C2.69941 13.7821 2.6596 13.8327 2.63255 13.8672C2.61833 13.8854 2.6086 13.8978 2.60264 13.9055C2.5993 13.9098 2.59964 13.9094 2.60184 13.9065C2.60259 13.9055 2.60392 13.9037 2.60565 13.9014C2.60725 13.8992 2.61015 13.8953 2.6138 13.8901C2.61567 13.8875 2.61819 13.8839 2.62113 13.8797C2.62397 13.8756 2.62809 13.8696 2.63297 13.8622C2.63744 13.8554 2.64519 13.8435 2.65436 13.8283C2.65907 13.8205 2.66547 13.8097 2.67274 13.7966C2.67961 13.7842 2.6902 13.7645 2.70196 13.7397L0.894503 12.8835C0.915685 12.8388 0.93561 12.8056 0.942388 12.7943C0.951686 12.7789 0.959597 12.7668 0.964266 12.7597C0.973604 12.7456 0.981393 12.7346 0.984986 12.7295C0.992729 12.7187 0.999358 12.7098 1.00231 12.7059C1.00906 12.6969 1.01588 12.688 1.02072 12.6818C1.0311 12.6684 1.04452 12.6512 1.05847 12.6334C1.08776 12.596 1.12439 12.5495 1.16464 12.4979L2.74147 13.7282ZM2.52417 13.9994C2.26913 14.2686 1.95544 14.3158 1.77452 14.3117C1.60695 14.3079 1.48126 14.2627 1.4277 14.2415C1.31481 14.1968 1.236 14.1413 1.21332 14.1253C1.15228 14.0822 1.10689 14.0401 1.08844 14.0228C1.04199 13.9791 0.999385 13.9327 0.96452 13.8921L2.48301 12.5905C2.48287 12.5903 2.48167 12.5889 2.47898 12.586C2.47686 12.5838 2.46999 12.5765 2.45854 12.5658C2.45356 12.5611 2.41957 12.5287 2.36704 12.4916C2.34862 12.4786 2.27334 12.4252 2.16317 12.3816C2.11097 12.361 1.98644 12.316 1.8198 12.3122C1.63982 12.3081 1.32684 12.3552 1.0723 12.6238L2.52417 13.9994ZM0.968116 13.8962C1.02763 13.9649 1.19454 14.1229 1.48209 14.1548C1.80102 14.1901 2.04497 14.047 2.17315 13.9184L0.757003 12.5062C0.963568 12.299 1.29473 12.1218 1.70234 12.1669C2.07857 12.2086 2.33562 12.4204 2.47941 12.5863L0.968116 13.8962ZM2.16687 13.9247C2.21276 13.8795 2.30263 13.7783 2.36073 13.6163C2.4235 13.4413 2.42134 13.2739 2.39351 13.1444C2.36937 13.0321 2.32907 12.9619 2.32172 12.9492C2.31255 12.9333 2.31276 12.9365 2.33688 12.9682L0.746128 14.1804C0.677092 14.0898 0.502131 13.8623 0.438161 13.5646C0.398333 13.3793 0.398743 13.1625 0.478108 12.9412C0.552805 12.7329 0.673296 12.5886 0.76328 12.4999L2.16687 13.9247ZM2.33253 12.9625C2.40422 13.0552 2.39096 13.0299 2.34524 12.9899C2.31386 12.9625 2.23106 12.8948 2.09948 12.845C1.95068 12.7886 1.77718 12.7694 1.60165 12.8053C1.44256 12.8378 1.33447 12.9049 1.28405 12.9407C1.2572 12.9597 1.23834 12.9759 1.22803 12.9852C1.21754 12.9946 1.21196 13.0005 1.21194 13.0005C1.21178 13.0007 1.2148 12.9975 1.22163 12.9897C1.22838 12.9819 1.23741 12.9713 1.2493 12.9568C1.27384 12.927 1.30392 12.889 1.34413 12.8377L2.91865 14.0709C2.84334 14.1671 2.74935 14.2867 2.65651 14.3837C2.59224 14.4508 2.36639 14.6903 2.00217 14.7648C1.52259 14.8628 1.17632 14.6246 1.02849 14.4953C0.901257 14.384 0.796378 14.2454 0.750476 14.1861L2.33253 12.9625ZM1.34263 12.8396C1.39093 12.7777 1.42581 12.7321 1.45142 12.6977C1.464 12.6807 1.47306 12.6682 1.47944 12.6592C1.48594 12.6499 1.48825 12.6463 1.48779 12.647C1.48747 12.6475 1.4821 12.6559 1.47417 12.6704C1.46631 12.6847 1.45317 12.7102 1.43919 12.7447C1.42494 12.78 1.40867 12.8275 1.39625 12.8854C1.38347 12.945 1.37636 13.0083 1.37636 13.0737H3.37636C3.37636 13.4063 3.22342 13.6457 3.16989 13.729C3.10516 13.8296 3.01571 13.9464 2.92016 14.069L1.34263 12.8396ZM1.37636 13.0737C1.37636 13.3596 1.52001 13.5891 1.69951 13.7242C1.87888 13.8591 2.20139 13.97 2.54838 13.818L1.74576 11.9861C2.19662 11.7885 2.63378 11.9243 2.90183 12.1259C3.17 12.3276 3.37636 12.6658 3.37636 13.0737H1.37636Z" fill="#002266" mask="url(#path-23-inside-10_576_237)"/>
<mask id="path-25-inside-11_576_237" fill="white">
<path d="M3.18856 13.1708C3.07489 13.2184 3.05137 13.3673 3.13956 13.4625L3.1964 13.5225H4.56235H5.9283L5.98513 13.4625C6.07528 13.3673 6.05765 13.2432 5.94398 13.1812C5.89499 13.1543 5.70685 13.1501 4.55843 13.1522C3.82744 13.1522 3.21011 13.1605 3.18856 13.1708Z"/>
</mask>
<path d="M3.18856 13.1708C3.07489 13.2184 3.05137 13.3673 3.13956 13.4625L3.1964 13.5225H4.56235H5.9283L5.98513 13.4625C6.07528 13.3673 6.05765 13.2432 5.94398 13.1812C5.89499 13.1543 5.70685 13.1501 4.55843 13.1522C3.82744 13.1522 3.21011 13.1605 3.18856 13.1708Z" fill="#002266"/>
<path d="M3.18856 13.1708L3.62112 14.0724L3.59816 14.0834L3.57466 14.0933L3.18856 13.1708ZM3.13956 13.4625L2.41358 14.1503L2.40613 14.1422L3.13956 13.4625ZM3.1964 13.5225V14.5225H2.76628L2.47046 14.2102L3.1964 13.5225ZM5.9283 13.5225L6.65424 14.2102L6.35842 14.5225H5.9283V13.5225ZM5.94398 13.1812L5.46479 14.0589L5.46282 14.0578L5.94398 13.1812ZM4.55843 13.1522L4.56023 14.1522H4.55843V13.1522ZM3.57466 14.0933C4.20824 13.8281 4.17612 13.1098 3.873 12.7827L2.40613 14.1422C1.92663 13.6249 1.94155 12.6087 2.80245 12.2484L3.57466 14.0933ZM3.8655 12.7747L3.92233 12.8347L2.47046 14.2102L2.41362 14.1502L3.8655 12.7747ZM3.1964 12.5225H4.56235V14.5225H3.1964V12.5225ZM4.56235 12.5225H5.9283V14.5225H4.56235V12.5225ZM5.20236 12.8347L5.2592 12.7747L6.71107 14.1502L6.65424 14.2102L5.20236 12.8347ZM5.2592 12.7747C5.13042 12.9106 5.00766 13.1517 5.05134 13.4529C5.09564 13.7584 5.2877 13.9622 5.46479 14.0589L6.42317 12.3034C6.71392 12.4622 6.97164 12.759 7.03064 13.1659C7.08901 13.5685 6.92999 13.9192 6.71107 14.1502L5.2592 12.7747ZM5.46282 14.0578C5.56828 14.1157 5.65882 14.139 5.70062 14.1483C5.72372 14.1534 5.74167 14.1563 5.75221 14.1579C5.76296 14.1594 5.76981 14.1601 5.77136 14.1603C5.77351 14.1605 5.76554 14.1597 5.7417 14.1586C5.71876 14.1576 5.68673 14.1565 5.64246 14.1556C5.45969 14.1517 5.13847 14.1511 4.56023 14.1522L4.55663 12.1522C5.12681 12.1512 5.47386 12.1516 5.68452 12.156C5.78632 12.1582 5.88247 12.1616 5.96526 12.1697C6.01137 12.1742 6.21673 12.1901 6.42513 12.3045L5.46282 14.0578ZM4.55843 14.1522C4.1961 14.1522 3.86371 14.1542 3.62099 14.1575C3.49888 14.1592 3.40352 14.1611 3.33972 14.1631C3.30665 14.1641 3.28918 14.1649 3.28322 14.1653C3.27883 14.1655 3.28869 14.1651 3.30571 14.1632C3.31322 14.1624 3.33545 14.16 3.36471 14.1549C3.3793 14.1523 3.40572 14.1474 3.4385 14.139C3.46213 14.1329 3.53468 14.1139 3.62112 14.0724L2.75599 12.2692C2.84311 12.2274 2.91662 12.2081 2.9415 12.2017C2.97554 12.193 3.0035 12.1877 3.01991 12.1848C3.05281 12.1791 3.07982 12.176 3.09321 12.1746C3.122 12.1715 3.14805 12.1698 3.16403 12.1688C3.19881 12.1667 3.23882 12.1652 3.27808 12.164C3.35893 12.1615 3.46763 12.1594 3.59392 12.1577C3.84801 12.1543 4.18977 12.1522 4.55843 12.1522V14.1522Z" fill="#002266" mask="url(#path-25-inside-11_576_237)"/>
</svg>
