<svg width="20" height="20" viewBox="0 0 20 20" fill="none" xmlns="http://www.w3.org/2000/svg">
<rect width="18.6667" height="20" transform="translate(0.666016)" fill="white"/>
<path d="M6.54819 1.23205C6.52457 1.21253 6.50003 1.19344 6.47455 1.17484C6.45295 1.15909 6.43142 1.14425 6.41004 1.13028C6.46554 1.12452 6.53128 1.12042 6.61212 1.11707L6.85993 1.13997L6.86 1.13998L6.9833 1.15138L6.98457 1.15149L7.38817 1.1888L7.7787 1.2249M6.54819 1.23205L8.76031 0.262207C8.5764 0.187597 8.26146 0.177971 8.08675 0.23814C8.02068 0.260723 7.95805 0.289194 7.8994 0.322922C7.89829 0.323559 7.89719 0.324202 7.89608 0.324842C7.69133 0.443604 7.53563 0.626638 7.45332 0.846956C7.45208 0.850267 7.45086 0.853586 7.44966 0.856915C7.43723 0.891277 7.42657 0.926529 7.41778 0.962568M6.54819 1.23205L6.8623 1.2332L6.86256 1.2332L6.9833 1.23364L6.98429 1.23364L7.38944 1.23513L7.77743 1.23655C7.77785 1.23271 7.77828 1.22883 7.7787 1.2249M6.54819 1.23205L9.42238 1.09494L9.66215 1.10169L9.4212 1.13671L9.19445 1.16967L9.01337 1.19599L9.18949 1.1713L9.42114 1.13882L9.68197 1.10225L9.82008 1.10614L9.93502 1.10938C10.1426 1.1149 10.2795 1.11972 10.3811 1.13071C10.2485 1.21777 10.0869 1.35055 9.95373 1.54041C9.95327 1.54041 9.95281 1.54041 9.95235 1.54041L9.92519 1.47865L9.92465 1.47743L9.85538 1.31989C9.83771 1.32767 9.87548 1.31017 9.9299 1.29115C9.93 1.29112 9.93009 1.29109 9.93019 1.29105C9.93818 1.28826 9.94654 1.28544 9.95513 1.28266C10.0311 1.25804 10.096 1.24518 10.1402 1.23858C10.1645 1.23496 10.1806 1.23364 10.1806 1.23353C10.1806 1.2334 10.1526 1.23537 10.0786 1.23699C10.0371 1.2379 9.98865 1.23862 9.93157 1.23918C9.9315 1.23918 9.93143 1.23918 9.93137 1.23918C9.89743 1.23951 9.86044 1.23978 9.82008 1.24C9.71237 1.24058 9.58059 1.24079 9.41827 1.24073C9.30193 1.24068 9.16991 1.2405 9.01983 1.24021C9.01917 1.23606 9.01852 1.23185 9.01787 1.22758C9.01631 1.21739 9.01476 1.20688 9.01318 1.19602C9.00643 1.14786 8.99673 1.10253 8.98409 1.06006C8.98376 1.05895 8.98342 1.05783 8.98309 1.05672C8.92652 0.869646 8.81241 0.738356 8.64077 0.664131C8.6296 0.659325 8.61818 0.654871 8.60656 0.650768C8.60543 0.65037 8.60429 0.649973 8.60316 0.64958C8.48508 0.608736 8.34599 0.603878 8.22317 0.634268C8.22286 0.634344 8.22255 0.63442 8.22224 0.634497C8.17645 0.645901 8.13294 0.662209 8.09364 0.683386C8.00629 0.731522 7.87065 0.89518 7.82698 1.00108C7.82135 1.01579 7.8153 1.03545 7.80941 1.05779L7.41778 0.962568M7.7787 1.2249L7.38801 1.18277L6.98461 1.13927L6.9833 1.13912L6.85961 1.12579L6.85958 1.12578L6.73806 1.11268C6.77568 1.11156 6.81595 1.11047 6.85916 1.10938L6.9833 1.10597L6.98472 1.10593L7.3856 1.09494L7.41778 0.962568M7.7787 1.2249C7.77969 1.21422 7.781 1.203 7.78259 1.19146C7.78868 1.14716 7.79875 1.09829 7.80934 1.05806L7.41778 0.962568M14.5396 4.95294L14.5948 5.01552C14.6776 5.10938 14.804 5.10216 14.8844 5.00107L14.9279 4.94716L14.8196 4.94878L14.8188 4.94879L14.6679 4.95103L14.5396 4.95294ZM14.5396 4.95294L14.5393 4.93023L14.5658 4.92983L14.5396 4.95294ZM6.92667 2.95139C6.94445 2.94312 6.9618 2.9345 6.97871 2.9256L6.97934 2.73363L6.8989 2.73334L6.81154 2.99755C6.84665 2.98567 6.88543 2.97057 6.92667 2.95139ZM6.9833 2.73365V2.92316C7.04224 2.89177 7.09565 2.85688 7.14289 2.82079C7.18776 2.78651 7.22133 2.75551 7.24253 2.7346L6.9833 2.73365ZM14.5342 4.5918L14.751 4.76653L14.9416 4.59853L14.9351 4.17432V4.1743L14.935 4.16594C14.9323 3.91451 14.9295 3.73378 14.923 3.59512C14.8393 3.58307 14.7523 3.57876 14.6625 3.58343C14.6122 3.58605 14.5634 3.59134 14.516 3.59904C14.5209 3.71957 14.5239 3.89573 14.528 4.17041C14.528 4.17097 14.528 4.17154 14.528 4.17211C14.528 4.17485 14.5281 4.17761 14.5281 4.18038L14.5342 4.5918ZM6.62892 3.04043C6.62633 3.04063 6.62512 3.04076 6.62517 3.04077L6.62892 3.04043Z" fill="#00194C" stroke="#00194C" stroke-width="3"/>
<path d="M4.19458 5.84572C4.23085 5.79952 4.26268 5.75875 4.2906 5.72259C4.29145 5.72149 4.2923 5.72039 4.29314 5.7193C4.33872 5.66021 4.37374 5.61354 4.40048 5.57556C4.40492 5.56926 4.40913 5.56319 4.41312 5.55735C4.46819 5.4768 4.48194 5.43857 4.48194 5.39807C4.48194 5.35245 4.46677 5.3116 4.44215 5.27876C4.44133 5.27766 4.4405 5.27657 4.43965 5.27549C4.42187 5.25274 4.39949 5.23401 4.37451 5.22045L4.22968 5.31025L4.22546 5.31287L4.08804 5.39807L3.96732 5.47292L3.96731 5.47293L3.96634 5.47353C3.93296 5.51673 3.90062 5.55708 3.8729 5.59044L3.95647 5.65675L3.95804 5.658L4.19458 5.84572ZM4.19458 5.84572C4.14089 5.91338 4.09412 5.97171 4.05268 6.0211C4.05161 6.02237 4.05055 6.02363 4.04949 6.02489C3.93271 6.16365 3.8584 6.23046 3.78998 6.23376C3.71066 6.23758 3.63924 6.15601 3.51872 6.00216C3.46877 5.93886 3.43104 5.88697 3.40434 5.84255C3.40125 5.83742 3.39831 5.83239 3.39552 5.82745C3.33793 5.72561 3.34218 5.66361 3.39228 5.5882C3.47274 5.46546 3.64975 5.4799 3.73481 5.61708C3.7578 5.65078 3.78079 5.67966 3.78998 5.67966C3.79558 5.67966 3.82759 5.64487 3.87149 5.59213L3.95515 5.6578L3.95673 5.65904L4.19458 5.84572ZM4.3386 5.20514C4.28429 5.18787 4.22316 5.19372 4.17159 5.232C4.15189 5.24513 4.09173 5.31376 4.0248 5.39807C4.01312 5.41279 4.00123 5.42798 3.98931 5.44344L4.05582 5.39807L4.21148 5.29187L4.2145 5.28981L4.3386 5.20514Z" fill="#00194C" stroke="#00194C" stroke-width="3"/>
<mask id="path-3-inside-1_128_332" fill="white">
<path d="M5.43154 5.5233C5.39246 5.54015 5.34878 5.57625 5.33499 5.60513C5.27292 5.72306 5.33499 5.8795 5.45453 5.90838C5.48211 5.9156 6.98326 5.91801 8.78786 5.9156L12.0729 5.90838L12.1166 5.85062C12.181 5.76638 12.1741 5.6292 12.1005 5.557L12.0407 5.49924L8.77407 5.49442C6.03154 5.48961 5.49361 5.49442 5.43154 5.5233Z"/>
</mask>
<path d="M5.43154 5.5233C5.39246 5.54015 5.34878 5.57625 5.33499 5.60513C5.27292 5.72306 5.33499 5.8795 5.45453 5.90838C5.48211 5.9156 6.98326 5.91801 8.78786 5.9156L12.0729 5.90838L12.1166 5.85062C12.181 5.76638 12.1741 5.6292 12.1005 5.557L12.0407 5.49924L8.77407 5.49442C6.03154 5.48961 5.49361 5.49442 5.43154 5.5233Z" fill="#00194C"/>
<path d="M5.43154 5.5233L6.69715 8.24327L6.6584 8.2613L6.61915 8.27822L5.43154 5.5233ZM5.33499 5.60513L8.0421 6.89801L8.01693 6.95071L7.98974 7.00238L5.33499 5.60513ZM5.45453 5.90838L6.15905 2.99228L6.18666 2.99895L6.21414 3.00614L5.45453 5.90838ZM8.78786 5.9156L8.79445 8.9156L8.79186 8.9156L8.78786 5.9156ZM12.0729 5.90838L14.4658 7.71783L13.568 8.9051L12.0795 8.90837L12.0729 5.90838ZM12.1166 5.85062L9.72371 4.04117L9.72827 4.03514L9.73287 4.02912L12.1166 5.85062ZM12.1005 5.557L14.1853 3.39974L14.1936 3.40782L14.2019 3.41596L12.1005 5.557ZM12.0407 5.49924L12.0452 2.49924L13.2553 2.50102L14.1255 3.34198L12.0407 5.49924ZM8.77407 5.49442L8.76965 8.49442L8.7688 8.49442L8.77407 5.49442ZM6.61915 8.27822C6.90787 8.15376 7.13359 7.99959 7.30467 7.85571C7.39751 7.77764 7.50821 7.67408 7.62272 7.54124C7.72761 7.41955 7.8959 7.20413 8.0421 6.89801L2.62787 4.31225C2.90084 3.74069 3.28376 3.39752 3.44289 3.2637C3.64903 3.09033 3.91612 2.9097 4.24392 2.76839L6.61915 8.27822ZM7.98974 7.00238C8.40848 6.20678 8.38015 5.35442 8.1168 4.68784C7.85638 4.02868 7.23193 3.25149 6.15905 2.99228L4.75 8.82448C3.55758 8.53639 2.84232 7.66654 2.53651 6.89246C2.22776 6.11096 2.19943 5.12141 2.68024 4.20789L7.98974 7.00238ZM6.21414 3.00614C6.04783 2.96261 5.91487 2.94367 5.87539 2.93809C5.81725 2.92987 5.77065 2.92505 5.74472 2.92255C5.69253 2.91753 5.65208 2.91507 5.63621 2.91414C5.60101 2.91209 5.5757 2.91131 5.57246 2.91121C5.56122 2.91085 5.56072 2.91095 5.57944 2.91124C5.61296 2.91178 5.6702 2.91238 5.75412 2.91297C5.91941 2.91412 6.16016 2.91501 6.46079 2.91561C7.06059 2.9168 7.88344 2.9168 8.78386 2.9156L8.79186 8.9156C7.88768 8.9168 7.05766 8.91681 6.44884 8.9156C6.14516 8.91499 5.89266 8.91408 5.71234 8.91282C5.62344 8.9122 5.54478 8.91145 5.48387 8.91048C5.45538 8.91003 5.41805 8.90934 5.38091 8.90815C5.36471 8.90763 5.32919 8.90643 5.28658 8.90395C5.26701 8.9028 5.22355 8.90013 5.16907 8.89488C5.142 8.89227 5.09442 8.88734 5.03549 8.87901C4.99523 8.87332 4.86165 8.85426 4.69491 8.81062L6.21414 3.00614ZM8.78127 2.91561L12.0663 2.90839L12.0795 8.90837L8.79445 8.91559L8.78127 2.91561ZM9.68003 4.09893L9.72371 4.04117L14.5095 7.66007L14.4658 7.71783L9.68003 4.09893ZM9.73287 4.02912C9.26761 4.638 9.13547 5.31441 9.16454 5.85915C9.19337 6.39956 9.39943 7.10947 9.99908 7.69803L14.2019 3.41596C14.8751 4.07673 15.1214 4.89133 15.156 5.53944C15.1908 6.19188 15.03 6.97901 14.5003 7.67212L9.73287 4.02912ZM10.0157 7.71425L9.95597 7.65649L14.1255 3.34198L14.1853 3.39974L10.0157 7.71425ZM12.0363 8.49923L8.76965 8.49442L8.77849 2.49443L12.0452 2.49924L12.0363 8.49923ZM8.7688 8.49442C7.39285 8.492 6.58984 8.49207 6.12368 8.49611C5.88423 8.49819 5.77044 8.50111 5.7247 8.5031C5.69724 8.50429 5.73828 8.50338 5.81141 8.49527C5.84786 8.49122 5.93293 8.48105 6.04343 8.45872C6.12135 8.44297 6.38437 8.38881 6.69715 8.24327L4.16593 2.80333C4.48646 2.65419 4.76096 2.5966 4.85492 2.57761C4.98145 2.55204 5.08712 2.53881 5.14958 2.53188C5.27473 2.51799 5.3894 2.51201 5.46395 2.50876C5.62223 2.50188 5.82598 2.49847 6.07158 2.49634C6.57554 2.49196 7.41275 2.49203 8.77933 2.49443L8.7688 8.49442Z" fill="#00194C" mask="url(#path-3-inside-1_128_332)"/>
<mask id="path-5-inside-2_128_332" fill="white">
<path d="M14.4132 5.75423C14.0523 5.79755 13.6293 5.96361 13.2913 6.19225C12.9695 6.41127 12.627 6.80356 12.4385 7.1718C12.3281 7.3884 12.1948 7.79514 12.1603 8.02378C12.1304 8.22354 12.1281 8.72174 12.158 8.90465C12.3005 9.79755 12.8431 10.5557 13.6109 10.9383C14.604 11.4293 15.7304 11.244 16.5235 10.4594C17.6132 9.38118 17.6132 7.56169 16.5235 6.48347C16.3028 6.26446 16.1212 6.1369 15.8293 5.99249C15.381 5.77107 14.9212 5.69406 14.4132 5.75423ZM15.2982 6.23076C16.3097 6.51235 16.9925 7.50152 16.935 8.59899C16.8822 9.6026 16.2454 10.4281 15.2982 10.7145C15.1396 10.7627 15.0638 10.7699 14.735 10.7699C14.4063 10.7699 14.3304 10.7627 14.1718 10.7145C13.9327 10.6423 13.6408 10.4979 13.4615 10.3631C13.2661 10.2187 12.9626 9.87697 12.8477 9.6748C12.4247 8.92631 12.427 7.99971 12.8546 7.26566C13.0063 7.00573 13.3534 6.63991 13.5787 6.50032C13.8063 6.35832 14.0431 6.25964 14.2753 6.20669C14.5419 6.14412 15.0339 6.15615 15.2982 6.23076Z"/>
</mask>
<path d="M14.4132 5.75423C14.0523 5.79755 13.6293 5.96361 13.2913 6.19225C12.9695 6.41127 12.627 6.80356 12.4385 7.1718C12.3281 7.3884 12.1948 7.79514 12.1603 8.02378C12.1304 8.22354 12.1281 8.72174 12.158 8.90465C12.3005 9.79755 12.8431 10.5557 13.6109 10.9383C14.604 11.4293 15.7304 11.244 16.5235 10.4594C17.6132 9.38118 17.6132 7.56169 16.5235 6.48347C16.3028 6.26446 16.1212 6.1369 15.8293 5.99249C15.381 5.77107 14.9212 5.69406 14.4132 5.75423ZM15.2982 6.23076C16.3097 6.51235 16.9925 7.50152 16.935 8.59899C16.8822 9.6026 16.2454 10.4281 15.2982 10.7145C15.1396 10.7627 15.0638 10.7699 14.735 10.7699C14.4063 10.7699 14.3304 10.7627 14.1718 10.7145C13.9327 10.6423 13.6408 10.4979 13.4615 10.3631C13.2661 10.2187 12.9626 9.87697 12.8477 9.6748C12.4247 8.92631 12.427 7.99971 12.8546 7.26566C13.0063 7.00573 13.3534 6.63991 13.5787 6.50032C13.8063 6.35832 14.0431 6.25964 14.2753 6.20669C14.5419 6.14412 15.0339 6.15615 15.2982 6.23076Z" fill="#00194C"/>
<path d="M14.4132 5.75423L14.0557 2.7756L14.0604 2.77505L14.4132 5.75423ZM13.2913 6.19225L11.6036 3.71205L11.6102 3.70754L13.2913 6.19225ZM12.4385 7.1718L9.76534 5.81003L9.76805 5.80475L12.4385 7.1718ZM12.1603 8.02378L9.19333 7.57991L9.19386 7.57639L12.1603 8.02378ZM12.158 8.90465L15.1188 8.4209L15.1205 8.43176L12.158 8.90465ZM13.6109 10.9383L12.2813 13.6277L12.2727 13.6234L13.6109 10.9383ZM16.5235 10.4594L18.6336 12.5919L18.6334 12.5921L16.5235 10.4594ZM16.5235 6.48347L14.4134 8.61595L14.4103 8.61286L16.5235 6.48347ZM15.8293 5.99249L17.1579 3.30272L17.1593 3.30344L15.8293 5.99249ZM15.2982 6.23076L14.4937 9.12088L14.4834 9.11799L15.2982 6.23076ZM16.935 8.59899L19.9309 8.75588L19.9309 8.75682L16.935 8.59899ZM15.2982 10.7145L14.4271 7.84378L14.4299 7.84293L15.2982 10.7145ZM14.1718 10.7145L15.0391 7.84262L15.043 7.84378L14.1718 10.7145ZM13.4615 10.3631L15.2445 7.95046L15.2542 7.9577L15.264 7.96502L13.4615 10.3631ZM12.8477 9.6748L10.2397 11.1576L10.2359 11.1508L12.8477 9.6748ZM12.8546 7.26566L10.2623 5.75566L10.2637 5.75331L12.8546 7.26566ZM13.5787 6.50032L15.1667 9.04555L15.1588 9.05047L13.5787 6.50032ZM14.2753 6.20669L14.9606 9.12736L14.9514 9.12951L14.9423 9.1316L14.2753 6.20669ZM14.7707 8.73285C14.8342 8.72522 14.8768 8.71524 14.8981 8.70963C14.9203 8.70377 14.9324 8.69921 14.9362 8.69772C14.9403 8.69613 14.9428 8.69497 14.9455 8.69353C14.9481 8.69217 14.957 8.68741 14.9725 8.67697L11.6102 3.70754C12.2888 3.24841 13.1588 2.88326 14.0557 2.77561L14.7707 8.73285ZM14.9791 8.67245C15.0345 8.63475 15.0641 8.60821 15.0716 8.6014C15.0805 8.59325 15.081 8.59196 15.0767 8.59695C15.0725 8.60178 15.0708 8.60434 15.073 8.60127C15.0744 8.59922 15.0881 8.5794 15.1089 8.53885L9.76805 5.80475C10.1734 5.01291 10.8444 4.22866 11.6036 3.71206L14.9791 8.67245ZM15.1116 8.53355C15.1276 8.50223 15.137 8.4813 15.1402 8.47387C15.1439 8.46555 15.1447 8.46342 15.1429 8.46799C15.1412 8.47224 15.1382 8.47992 15.1344 8.49064C15.1306 8.50127 15.1265 8.5131 15.1224 8.52547C15.1184 8.53785 15.1149 8.54923 15.112 8.55891C15.1091 8.56874 15.1075 8.57476 15.107 8.57659C15.1065 8.57883 15.1081 8.57276 15.1111 8.55889C15.1126 8.55165 15.1148 8.54096 15.1174 8.52708C15.12 8.51334 15.1232 8.49451 15.1268 8.47117L9.19386 7.57639C9.27968 7.00738 9.51913 6.29337 9.76535 5.81004L15.1116 8.53355ZM15.1273 8.46766C15.1318 8.43756 15.1346 8.41442 15.1362 8.4002C15.1379 8.38552 15.1388 8.37525 15.1392 8.37017C15.14 8.36078 15.1398 8.36111 15.1393 8.37241C15.1387 8.38291 15.1381 8.39835 15.1376 8.41806C15.1371 8.43757 15.1368 8.45878 15.1367 8.48053C15.1367 8.50232 15.1368 8.52272 15.1372 8.54065C15.1375 8.55888 15.138 8.57156 15.1383 8.57831C15.1385 8.58147 15.1385 8.582 15.1384 8.58003C15.1383 8.5782 15.1379 8.57228 15.137 8.56276C15.1362 8.55353 15.1347 8.5376 15.1322 8.5162C15.1298 8.49554 15.1256 8.46273 15.1188 8.42091L9.19727 9.38839C9.13866 9.02965 9.13617 8.64089 9.13677 8.46053C9.13743 8.26084 9.14459 7.90574 9.19333 7.57991L15.1273 8.46766ZM15.1205 8.43176C15.1196 8.42598 15.099 8.32804 14.9491 8.25333L12.2727 13.6234C10.5872 12.7833 9.4815 11.1691 9.19552 9.37753L15.1205 8.43176ZM14.9404 8.24905C14.8888 8.22352 14.7847 8.19571 14.6554 8.21698C14.5267 8.23813 14.4448 8.29591 14.4137 8.32667L18.6334 12.5921C16.939 14.2683 14.4335 14.6916 12.2813 13.6276L14.9404 8.24905ZM14.4134 8.32692C14.3484 8.39131 14.3408 8.45346 14.3408 8.47143C14.3408 8.48941 14.3484 8.55156 14.4134 8.61595L18.6336 4.35099C20.9098 6.60329 20.9098 10.3396 18.6336 12.5919L14.4134 8.32692ZM14.4103 8.61286C14.3978 8.60044 14.3997 8.60307 14.4129 8.61438C14.4273 8.62669 14.4479 8.6431 14.4726 8.66054C14.497 8.6778 14.5159 8.6893 14.5247 8.69443C14.5321 8.69871 14.5262 8.69489 14.4992 8.68154L17.1593 3.30344C17.7201 3.58082 18.171 3.89191 18.6368 4.35408L14.4103 8.61286ZM14.5007 8.68227C14.5233 8.69344 14.5753 8.71432 14.6464 8.72627C14.6792 8.73178 14.7081 8.73402 14.731 8.73444C14.7421 8.73464 14.7508 8.7344 14.7569 8.73408C14.763 8.73376 14.7661 8.73339 14.766 8.73341L14.0604 2.77505C15.1287 2.64853 16.1743 2.81691 17.1579 3.30272L14.5007 8.68227ZM16.1028 3.34066C18.5606 4.02488 20.0568 6.35276 19.9309 8.75588L13.9391 8.44211C13.9282 8.65028 14.0589 8.99982 14.4937 9.12086L16.1028 3.34066ZM19.9309 8.75682C19.8132 10.9896 18.3555 12.9242 16.1666 13.5861L14.4299 7.84293C14.3073 7.88 14.1767 7.96381 14.0785 8.09089C13.9812 8.21672 13.9441 8.34741 13.9392 8.44116L19.9309 8.75682ZM16.1694 13.5852C15.5683 13.7677 15.1243 13.7699 14.735 13.7699V7.76987C14.8111 7.76987 14.8464 7.76939 14.8626 7.76897C14.8779 7.76858 14.8455 7.7689 14.7881 7.77452C14.7211 7.78108 14.642 7.7926 14.5576 7.81078C14.4808 7.82734 14.4289 7.84324 14.4271 7.84378L16.1694 13.5852ZM14.735 13.7699C14.3457 13.7699 13.9018 13.7677 13.3007 13.5852L15.043 7.84378C15.0412 7.84324 14.9893 7.82734 14.9124 7.81078C14.828 7.7926 14.7489 7.78108 14.682 7.77452C14.6246 7.7689 14.5922 7.76858 14.6074 7.76897C14.6236 7.76939 14.659 7.76987 14.735 7.76987V13.7699ZM13.3045 13.5864C12.7665 13.4239 12.15 13.1303 11.6589 12.7612L15.264 7.96502C15.2066 7.92187 15.1667 7.89745 15.1521 7.88876C15.1352 7.87867 15.1263 7.87423 15.1243 7.87328C15.1221 7.87218 15.1181 7.87026 15.1099 7.8669C15.1027 7.86403 15.0794 7.85477 15.0391 7.84262L13.3045 13.5864ZM11.6785 12.7758C11.3408 12.5263 11.0581 12.2313 10.8839 12.0357C10.7124 11.8431 10.449 11.5256 10.2397 11.1576L15.4556 8.19204C15.4217 8.13239 15.3944 8.09104 15.3807 8.07095C15.366 8.04916 15.3562 8.03618 15.3532 8.03224C15.3482 8.02567 15.3526 8.03184 15.3649 8.04558C15.377 8.05924 15.3833 8.06507 15.3787 8.06064C15.3758 8.05785 15.3652 8.04777 15.3469 8.03195C15.33 8.01728 15.2952 7.988 15.2445 7.95046L11.6785 12.7758ZM10.2359 11.1508C9.29701 9.48942 9.28938 7.42589 10.2623 5.75566L15.4468 8.77566C15.5646 8.57353 15.5524 8.3632 15.4595 8.19883L10.2359 11.1508ZM10.2637 5.75331C10.4973 5.35304 10.7882 5.01006 11.0108 4.775C11.22 4.55417 11.5683 4.21677 11.9986 3.95017L15.1588 9.05047C15.2296 9.00658 15.2796 8.96999 15.3065 8.94946C15.3351 8.92768 15.3536 8.91196 15.3619 8.90473C15.377 8.89157 15.377 8.89045 15.3673 8.90072C15.358 8.91049 15.3544 8.91542 15.3587 8.90989C15.3615 8.90638 15.3699 8.89551 15.3828 8.87702C15.395 8.85942 15.4174 8.82609 15.4455 8.77801L10.2637 5.75331ZM11.9907 3.9551C12.4778 3.65116 13.0234 3.41516 13.6082 3.28178L14.9423 9.1316C15.0628 9.10413 15.1348 9.06547 15.1667 9.04554L11.9907 3.9551ZM13.5899 3.28603C14.0731 3.17265 14.5469 3.1607 14.8591 3.16813C15.1728 3.17561 15.6411 3.21034 16.1131 3.34354L14.4834 9.11799C14.612 9.15427 14.6933 9.1637 14.702 9.16476C14.7212 9.16709 14.7243 9.16663 14.7161 9.16643C14.708 9.16624 14.7117 9.16687 14.7322 9.16535C14.7419 9.16464 14.8266 9.1588 14.9606 9.12736L13.5899 3.28603Z" fill="#00194C" mask="url(#path-5-inside-2_128_332)"/>
<path d="M3.55777 8.00717C3.57274 8.00769 3.58588 8.00901 3.5979 8.01149C3.60195 8.01233 3.60587 8.0133 3.6097 8.01441C3.61064 8.01468 3.61157 8.01497 3.6125 8.01526L3.70651 8.08709C3.71044 8.09151 3.71449 8.09615 3.71869 8.10103M3.55777 8.00717L3.5537 8.20934L3.55313 8.23761L3.5874 8.20934L3.65087 8.15697L3.65753 8.15148L3.71869 8.10103M3.55777 8.00717C3.43823 8.00476 3.35547 8.08659 3.35547 8.20934C3.35547 8.25793 3.36554 8.29407 3.40761 8.35765L3.54963 8.2405L3.55071 8.20934L3.55777 8.00717ZM3.71869 8.10103L3.6581 8.15312L3.65153 8.15877L3.5927 8.20934L3.55301 8.24346L3.54821 8.48187L3.5482 8.48224L3.54702 8.54109C3.69415 8.72407 3.75704 8.75823 3.85662 8.72197C3.88639 8.71158 3.99845 8.58993 4.13358 8.42364C4.13528 8.42155 4.13698 8.41945 4.13869 8.41734C4.15843 8.39299 4.17864 8.36771 4.19915 8.34171M3.71869 8.10103C3.76237 8.15398 3.80145 8.18286 3.81294 8.16842C3.8158 8.16468 3.826 8.15185 3.84147 8.13241C3.85124 8.12012 3.86311 8.1052 3.87656 8.08825L3.96018 8.15395L3.9637 8.15672L4.03067 8.20934L4.19915 8.34171M3.99915 7.93256C3.95407 7.99037 3.91065 8.04529 3.87701 8.08768L3.96061 8.1536L3.96413 8.15638L4.03129 8.20934L4.19915 8.34171M3.99915 7.93256C4.00707 7.92285 4.01501 7.91321 4.02292 7.90368C4.10913 7.7999 4.19208 7.71013 4.21524 7.69911M3.99915 7.93256L4.11996 8.02677L4.12478 8.03052L4.32153 8.18393C4.34582 8.15198 4.36663 8.12398 4.38441 8.09923L4.30173 7.90368L4.29799 7.89482L4.2949 7.88752L4.21524 7.69911M3.99915 7.93256L4.11725 8.02892L4.12194 8.03275L4.31606 8.19112C4.31153 8.19706 4.30689 8.20313 4.30213 8.20934C4.27262 8.24783 4.2385 8.29162 4.19915 8.34171M4.21524 7.69911C4.29406 7.66578 4.38486 7.70361 4.43759 7.77394C4.4394 7.77636 4.44116 7.77881 4.44288 7.7813C4.46702 7.81628 4.48191 7.85852 4.48191 7.90368C4.48191 7.94324 4.46402 7.98636 4.39714 8.08135L4.31259 7.90368L4.30555 7.88889L4.30215 7.88175L4.21524 7.69911ZM3.62798 8.0212L3.69533 8.0748C3.67043 8.04811 3.65021 8.03137 3.62798 8.0212ZM3.541 8.4876L3.54941 8.24655L3.4122 8.36451C3.43658 8.40054 3.47086 8.44529 3.51869 8.50537C3.52579 8.51444 3.53272 8.5232 3.53946 8.53166L3.54099 8.48789L3.541 8.4876Z" fill="#00194C" stroke="#00194C" stroke-width="3"/>
<mask id="path-8-inside-3_128_332" fill="white">
<path d="M5.454 8.00697C5.33906 8.03104 5.2678 8.23321 5.33906 8.32948C5.40803 8.42334 5.42182 8.42334 7.0563 8.42334H8.64711L8.71377 8.35354C8.82412 8.23802 8.79653 8.0864 8.654 8.02382C8.58734 7.99494 8.31607 7.99013 7.04021 7.99253C6.19653 7.99494 5.48159 8.00216 5.454 8.00697Z"/>
</mask>
<path d="M5.454 8.00697C5.33906 8.03104 5.2678 8.23321 5.33906 8.32948C5.40803 8.42334 5.42182 8.42334 7.0563 8.42334H8.64711L8.71377 8.35354C8.82412 8.23802 8.79653 8.0864 8.654 8.02382C8.58734 7.99494 8.31607 7.99013 7.04021 7.99253C6.19653 7.99494 5.48159 8.00216 5.454 8.00697Z" fill="#00194C"/>
<path d="M5.454 8.00697L4.83918 5.07065L4.88859 5.0603L4.93833 5.05163L5.454 8.00697ZM5.33906 8.32948L7.7503 6.54453L7.75664 6.55316L5.33906 8.32948ZM8.64711 8.42334L10.8165 10.4955L9.93023 11.4233H8.64711V8.42334ZM8.654 8.02382L9.84655 5.27103L9.85328 5.27395L9.86 5.2769L8.654 8.02382ZM7.04021 7.99253L7.03165 4.99254L7.03455 4.99254L7.04021 7.99253ZM6.06883 10.9433C7.49285 10.6451 8.01879 9.52533 8.15393 9.14454C8.29696 8.74154 8.55493 7.63152 7.75029 6.54455L2.92783 10.1144C2.05193 8.93117 2.3099 7.67193 2.49948 7.13776C2.68117 6.62581 3.30021 5.39289 4.83918 5.07065L6.06883 10.9433ZM7.75664 6.55316C7.75661 6.55311 7.74585 6.53843 7.7312 6.5192C7.71578 6.49897 7.69068 6.46664 7.65823 6.42762C7.5916 6.34752 7.48976 6.23398 7.35168 6.11201C7.04604 5.84204 6.71994 5.66845 6.42611 5.56228C6.17294 5.4708 5.97098 5.43961 5.89558 5.4291C5.81158 5.4174 5.76069 5.41534 5.77304 5.41601C5.80165 5.41756 5.89388 5.42046 6.12708 5.42193C6.34753 5.42333 6.64353 5.42334 7.0563 5.42334V11.4233C6.29985 11.4233 5.76983 11.4246 5.44818 11.4072C5.35051 11.4019 4.88548 11.3853 4.38714 11.2052C4.05677 11.0858 3.70552 10.8968 3.37954 10.6089C3.23129 10.478 3.12048 10.3548 3.04528 10.2644C2.97739 10.1828 2.92604 10.112 2.92148 10.1058L7.75664 6.55316ZM7.0563 5.42334H8.64711V11.4233H7.0563V5.42334ZM6.47772 6.3512L6.54439 6.28141L10.8832 10.4257L10.8165 10.4955L6.47772 6.3512ZM6.54439 6.28141C6.05445 6.79433 5.63811 7.66411 5.82693 8.70453C6.019 9.76285 6.74125 10.4605 7.44801 10.7707L9.86 5.2769C10.7093 5.64977 11.5166 6.45447 11.7305 7.63313C11.9412 8.79388 11.4834 9.79723 10.8832 10.4257L6.54439 6.28141ZM7.46146 10.7766C7.61718 10.8441 7.7527 10.8866 7.85156 10.9135C7.95137 10.9407 8.03498 10.9575 8.09363 10.9679C8.20506 10.9877 8.28619 10.9946 8.30871 10.9964C8.33717 10.9988 8.34823 10.9989 8.33154 10.9982C8.31674 10.9976 8.28894 10.9968 8.24311 10.9959C8.04547 10.9921 7.69293 10.9913 7.04587 10.9925L7.03455 4.99254C7.66335 4.99135 8.08437 4.99175 8.358 4.99699C8.4881 4.99949 8.64526 5.00393 8.79757 5.01638C8.83925 5.01979 9.3249 5.04505 9.84655 5.27103L7.46146 10.7766ZM7.04877 10.9925C6.63235 10.9937 6.24935 10.9961 5.96931 10.9987C5.82848 11 5.71823 11.0014 5.64448 11.0026C5.60629 11.0032 5.58591 11.0037 5.57886 11.0039C5.5738 11.0041 5.58477 11.0038 5.60401 11.0029C5.61258 11.0025 5.63745 11.0014 5.67049 10.999C5.68697 10.9979 5.71665 10.9956 5.75394 10.9919C5.78003 10.9893 5.86353 10.9808 5.96968 10.9623L4.93833 5.05163C5.04534 5.03295 5.13004 5.02436 5.15765 5.0216C5.19647 5.01772 5.22802 5.01533 5.24668 5.01401C5.2841 5.01136 5.31465 5.00988 5.33017 5.00917C5.36333 5.00766 5.39332 5.00675 5.41209 5.00623C5.45272 5.0051 5.49931 5.0042 5.54521 5.00344C5.63963 5.00187 5.76602 5.00037 5.91283 4.99898C6.20808 4.9962 6.60439 4.99376 7.03165 4.99255L7.04877 10.9925Z" fill="#00194C" mask="url(#path-8-inside-3_128_332)"/>
<path d="M3.81294 10.6689C3.80374 10.6809 3.76237 10.6496 3.71869 10.6015C3.71443 10.5965 3.71031 10.5919 3.70632 10.5874C3.67366 10.5511 3.6489 10.5314 3.61991 10.5214C3.6007 10.5148 3.57963 10.5125 3.55317 10.5125C3.43363 10.5125 3.35547 10.5919 3.35547 10.7122C3.35547 10.7621 3.3661 10.7989 3.41117 10.8659C3.41317 10.8688 3.41523 10.8718 3.41736 10.8749C3.44135 10.9096 3.47415 10.9523 3.51869 11.0082C3.53065 11.0235 3.54212 11.0381 3.55317 11.0519C3.76545 11.3176 3.81978 11.3158 4.11135 10.9539L3.87554 10.7287L3.87298 10.7262L3.85829 10.7122L3.81294 10.6689ZM3.81294 10.6689C3.81742 10.6642 3.83994 10.6366 3.8725 10.5959L3.95506 10.6609L3.95856 10.6637L4.02025 10.7122L4.19455 10.8494M3.81294 10.6689L3.86963 10.7122L3.88033 10.7204L3.88327 10.7226L4.13969 10.9186C4.15714 10.8967 4.17541 10.8736 4.19455 10.8494M4.19455 10.8494L4.02083 10.7122L3.95895 10.6633L3.95545 10.6606L3.87291 10.5954C3.90708 10.5527 3.95221 10.4956 3.99915 10.4354M4.19455 10.8494C4.23546 10.7974 4.27082 10.752 4.30131 10.7122C4.30618 10.7059 4.31092 10.6996 4.31554 10.6936L4.12197 10.5356L4.11725 10.5318L3.99915 10.4354M3.99915 10.4354C4.00774 10.4249 4.01635 10.4145 4.02492 10.4041C4.11041 10.3014 4.19226 10.2129 4.21524 10.202M3.99915 10.4354L4.11996 10.5296L4.12481 10.5334L4.32099 10.6864C4.34531 10.6543 4.36617 10.6261 4.38402 10.6012L4.30071 10.4041L4.298 10.3977L4.2949 10.3904L4.21524 10.202M4.21524 10.202C4.29422 10.1686 4.38524 10.2066 4.43791 10.2766C4.43974 10.279 4.44152 10.2814 4.44326 10.2839C4.46718 10.3185 4.48191 10.36 4.48191 10.4041C4.48191 10.4434 4.46346 10.4879 4.39669 10.5833L4.31145 10.4041L4.30557 10.3918L4.30215 10.3846L4.21524 10.202Z" fill="#00194C" stroke="#00194C" stroke-width="3"/>
<mask id="path-11-inside-4_128_332" fill="white">
<path d="M5.45537 10.5099C5.38181 10.5243 5.31055 10.6302 5.31055 10.7217C5.31055 10.7819 5.32894 10.818 5.38181 10.8637L5.45308 10.9263H7.05078H8.64848L8.71514 10.8565C8.82549 10.741 8.7979 10.5893 8.65537 10.5268C8.58871 10.4979 8.31744 10.4931 7.04158 10.4955C6.1979 10.4979 5.48296 10.5051 5.45537 10.5099Z"/>
</mask>
<path d="M5.45537 10.5099C5.38181 10.5243 5.31055 10.6302 5.31055 10.7217C5.31055 10.7819 5.32894 10.818 5.38181 10.8637L5.45308 10.9263H7.05078H8.64848L8.71514 10.8565C8.82549 10.741 8.7979 10.5893 8.65537 10.5268C8.58871 10.4979 8.31744 10.4931 7.04158 10.4955C6.1979 10.4979 5.48296 10.5051 5.45537 10.5099Z" fill="#00194C"/>
<path d="M5.45537 10.5099L4.8775 7.56609L4.90854 7.55999L4.9397 7.55456L5.45537 10.5099ZM5.38181 10.8637L7.34426 8.5946L7.35278 8.60197L7.36124 8.6094L5.38181 10.8637ZM5.45308 10.9263V13.9263H4.3229L3.47364 13.1806L5.45308 10.9263ZM8.64848 10.9263L10.8179 12.9984L9.9316 13.9263H8.64848V10.9263ZM8.65537 10.5268L9.84792 7.77396L9.85465 7.77688L9.86137 7.77983L8.65537 10.5268ZM7.04158 10.4955L7.03302 7.49547L7.03592 7.49547L7.04158 10.4955ZM6.03324 13.4537C7.08649 13.247 7.63987 12.5624 7.83592 12.2742C8.07514 11.9225 8.31055 11.3945 8.31055 10.7217H2.31055C2.31055 9.95741 2.58159 9.33076 2.87482 8.89965C3.1249 8.532 3.75069 7.78728 4.8775 7.56609L6.03324 13.4537ZM8.31055 10.7217C8.31055 10.4277 8.26196 9.95768 8.00598 9.44918C7.76981 8.98004 7.46635 8.70019 7.34426 8.5946L3.41937 13.1328C3.2444 12.9815 2.90531 12.6607 2.64673 12.147C2.36833 11.594 2.31055 11.0759 2.31055 10.7217H8.31055ZM7.36124 8.6094L7.43251 8.67197L3.47364 13.1806L3.40238 13.118L7.36124 8.6094ZM5.45308 7.92627H7.05078V13.9263H5.45308V7.92627ZM7.05078 7.92627H8.64848V13.9263H7.05078V7.92627ZM6.47909 8.85413L6.54576 8.78434L10.8845 12.9286L10.8179 12.9984L6.47909 8.85413ZM6.54576 8.78434C6.05582 9.29726 5.63949 10.167 5.8283 11.2075C6.02037 12.2658 6.74262 12.9634 7.44938 13.2737L9.86137 7.77983C10.7107 8.1527 11.518 8.9574 11.7319 10.1361C11.9425 11.2968 11.4848 12.3002 10.8845 12.9286L6.54576 8.78434ZM7.46283 13.2795C7.61855 13.347 7.75407 13.3896 7.85293 13.4164C7.95274 13.4436 8.03635 13.4605 8.095 13.4709C8.20643 13.4906 8.28756 13.4975 8.31008 13.4994C8.33855 13.5017 8.34961 13.5018 8.33291 13.5012C8.31812 13.5006 8.29031 13.4997 8.24448 13.4988C8.04685 13.495 7.6943 13.4942 7.04724 13.4955L7.03592 7.49547C7.66472 7.49428 8.08574 7.49468 8.35937 7.49992C8.48948 7.50242 8.64664 7.50686 8.79894 7.51931C8.84062 7.52272 9.32627 7.54798 9.84792 7.77396L7.46283 13.2795ZM7.05014 13.4955C6.63372 13.4966 6.25072 13.499 5.97068 13.5016C5.82985 13.503 5.71961 13.5043 5.64585 13.5055C5.60766 13.5062 5.58728 13.5066 5.58023 13.5068C5.57517 13.507 5.58614 13.5067 5.60539 13.5058C5.61395 13.5055 5.63882 13.5043 5.67186 13.502C5.68834 13.5008 5.71802 13.4985 5.75531 13.4948C5.7814 13.4922 5.8649 13.4838 5.97105 13.4653L4.9397 7.55456C5.04671 7.53588 5.13141 7.52729 5.15902 7.52453C5.19784 7.52065 5.22939 7.51826 5.24805 7.51694C5.28547 7.51429 5.31603 7.51281 5.33155 7.5121C5.36471 7.51059 5.39469 7.50968 5.41346 7.50916C5.45409 7.50803 5.50068 7.50713 5.54658 7.50637C5.641 7.5048 5.7674 7.5033 5.91421 7.50191C6.20945 7.49913 6.60576 7.49669 7.03302 7.49548L7.05014 13.4955Z" fill="#00194C" mask="url(#path-11-inside-4_128_332)"/>
<mask id="path-13-inside-5_128_332" fill="white">
<path d="M12.9999 11.6485C12.7746 11.6797 12.5539 11.7399 12.3332 11.8338C11.393 12.2237 10.747 13.0395 10.5355 14.1033C10.5033 14.267 10.4941 14.4306 10.4941 14.9409V15.5763L10.5585 15.634C10.6413 15.7086 10.7378 15.7086 10.8206 15.634L10.8849 15.5763L10.8987 14.8927C10.9125 14.255 10.9171 14.1972 10.9746 13.983C11.1309 13.4006 11.4803 12.8711 11.9355 12.5317C12.1378 12.3801 12.5194 12.1924 12.7516 12.1298C12.9815 12.0672 13.3401 12.0335 13.4964 12.06C13.5631 12.072 13.6987 12.1226 13.8022 12.1731C14.0413 12.2935 14.0941 12.3151 14.2757 12.356C14.7585 12.4716 15.2597 12.4018 15.701 12.1635C15.8964 12.0576 16.0321 12.0359 16.3171 12.06C17.1861 12.137 17.9332 12.6785 18.3217 13.5137C18.5378 13.971 18.5585 14.0865 18.5723 14.8927L18.5861 15.5763L18.6505 15.634C18.7401 15.7134 18.8367 15.7086 18.9217 15.622L18.9884 15.5522V15.0251C18.9884 14.2718 18.9401 13.9349 18.7654 13.5016C18.3286 12.4138 17.3792 11.7038 16.262 11.6316C15.9608 11.6124 15.7953 11.646 15.524 11.7832C14.9838 12.0576 14.4918 12.0576 13.9493 11.7856C13.8321 11.7255 13.6803 11.6653 13.6137 11.6509C13.478 11.622 13.2091 11.6196 12.9999 11.6485Z"/>
</mask>
<path d="M12.9999 11.6485C12.7746 11.6797 12.5539 11.7399 12.3332 11.8338C11.393 12.2237 10.747 13.0395 10.5355 14.1033C10.5033 14.267 10.4941 14.4306 10.4941 14.9409V15.5763L10.5585 15.634C10.6413 15.7086 10.7378 15.7086 10.8206 15.634L10.8849 15.5763L10.8987 14.8927C10.9125 14.255 10.9171 14.1972 10.9746 13.983C11.1309 13.4006 11.4803 12.8711 11.9355 12.5317C12.1378 12.3801 12.5194 12.1924 12.7516 12.1298C12.9815 12.0672 13.3401 12.0335 13.4964 12.06C13.5631 12.072 13.6987 12.1226 13.8022 12.1731C14.0413 12.2935 14.0941 12.3151 14.2757 12.356C14.7585 12.4716 15.2597 12.4018 15.701 12.1635C15.8964 12.0576 16.0321 12.0359 16.3171 12.06C17.1861 12.137 17.9332 12.6785 18.3217 13.5137C18.5378 13.971 18.5585 14.0865 18.5723 14.8927L18.5861 15.5763L18.6505 15.634C18.7401 15.7134 18.8367 15.7086 18.9217 15.622L18.9884 15.5522V15.0251C18.9884 14.2718 18.9401 13.9349 18.7654 13.5016C18.3286 12.4138 17.3792 11.7038 16.262 11.6316C15.9608 11.6124 15.7953 11.646 15.524 11.7832C14.9838 12.0576 14.4918 12.0576 13.9493 11.7856C13.8321 11.7255 13.6803 11.6653 13.6137 11.6509C13.478 11.622 13.2091 11.6196 12.9999 11.6485Z" fill="#00194C"/>
<path d="M12.9999 11.6485L12.5872 8.67697L12.5896 8.67664L12.9999 11.6485ZM12.3332 11.8338L13.5074 14.5945L13.4949 14.5998L13.4824 14.605L12.3332 11.8338ZM10.5355 14.1033L7.59189 13.5245L7.59311 13.5183L10.5355 14.1033ZM10.4941 15.5763L8.49049 17.8091L7.49414 16.915V15.5763H10.4941ZM10.5585 15.634L12.5622 13.4012L12.5673 13.4058L10.5585 15.634ZM10.8206 15.634L8.8118 13.4058L8.81693 13.4012L10.8206 15.634ZM10.8849 15.5763L13.8843 15.6368L13.8581 16.9391L12.8886 17.8091L10.8849 15.5763ZM10.8987 14.8927L7.89935 14.8322L7.89944 14.8279L10.8987 14.8927ZM10.9746 13.983L8.07708 13.2056L8.07715 13.2053L10.9746 13.983ZM11.9355 12.5317L13.7348 14.9323L13.7287 14.9369L11.9355 12.5317ZM12.7516 12.1298L13.5396 15.0245L13.5323 15.0264L12.7516 12.1298ZM13.4964 12.06L13.9974 9.10212L14.0134 9.10483L14.0293 9.10772L13.4964 12.06ZM13.8022 12.1731L15.1191 9.47763L15.1351 9.48543L15.151 9.49342L13.8022 12.1731ZM14.2757 12.356L14.9351 9.42939L14.9545 9.43377L14.9739 9.43841L14.2757 12.356ZM15.701 12.1635L17.1304 14.8011L17.1261 14.8034L15.701 12.1635ZM16.3171 12.06L16.5695 9.07061L16.582 9.07172L16.3171 12.06ZM18.3217 13.5137L15.6093 14.7954L15.6055 14.7873L15.6016 14.7791L18.3217 13.5137ZM18.5723 14.8927L15.5729 14.9533L15.5727 14.9441L18.5723 14.8927ZM18.5861 15.5763L16.5824 17.809L15.613 16.9391L15.5867 15.6368L18.5861 15.5763ZM18.6505 15.634L16.6612 17.8796L16.654 17.8732L16.6468 17.8668L18.6505 15.634ZM18.9217 15.622L21.0911 17.6941L21.0769 17.709L21.0625 17.7236L18.9217 15.622ZM18.9884 15.5522H21.9884V16.7547L21.1578 17.6243L18.9884 15.5522ZM18.7654 13.5016L15.9831 14.6237L15.9814 14.6194L18.7654 13.5016ZM16.262 11.6316L16.4534 8.63772L16.4554 8.63785L16.262 11.6316ZM15.524 11.7832L14.1656 9.10842L14.1701 9.1061L15.524 11.7832ZM13.9493 11.7856L12.6049 14.4675L12.5922 14.4612L12.5796 14.4547L13.9493 11.7856ZM13.6137 11.6509L14.2385 8.71662L14.2488 8.71885L13.6137 11.6509ZM13.4126 14.6199C13.428 14.6178 13.446 14.6142 13.4647 14.609C13.4834 14.6039 13.498 14.5984 13.5074 14.5945L11.1591 9.07309C11.6238 8.87543 12.1006 8.74455 12.5872 8.67697L13.4126 14.6199ZM13.4824 14.605C13.4782 14.6067 13.483 14.6051 13.4922 14.5981C13.5015 14.5912 13.5087 14.5837 13.5128 14.5784C13.5168 14.5734 13.5137 14.5759 13.5069 14.5909C13.5 14.6061 13.4881 14.6372 13.4779 14.6883L7.59311 13.5183C7.98452 11.5496 9.24799 9.86544 11.1841 9.06259L13.4824 14.605ZM13.4791 14.6822C13.4851 14.6517 13.4911 14.615 13.4954 14.578C13.4992 14.5452 13.4996 14.53 13.4989 14.5435C13.4982 14.5589 13.4968 14.5946 13.4957 14.6634C13.4947 14.7317 13.4941 14.8207 13.4941 14.9409H7.49414C7.49414 14.4684 7.49473 14.0186 7.5919 13.5245L13.4791 14.6822ZM13.4941 14.9409V15.5763H7.49414V14.9409H13.4941ZM12.4978 13.3435L12.5622 13.4012L8.55486 17.8668L8.49049 17.8091L12.4978 13.3435ZM12.5673 13.4058C12.1719 13.0494 11.5275 12.69 10.6895 12.69C9.85158 12.69 9.20715 13.0494 8.81181 13.4058L12.8293 17.8622C12.3512 18.2932 11.6172 18.69 10.6895 18.69C9.76192 18.69 9.02784 18.2932 8.54974 17.8622L12.5673 13.4058ZM8.81693 13.4012L8.8813 13.3435L12.8886 17.8091L12.8242 17.8668L8.81693 13.4012ZM7.88556 15.5157L7.89935 14.8322L13.8981 14.9533L13.8843 15.6368L7.88556 15.5157ZM7.89944 14.8279C7.91206 14.2443 7.91073 13.8256 8.07708 13.2056L13.8721 14.7604C13.8621 14.7976 13.8742 14.756 13.8867 14.691C13.8934 14.6564 13.8988 14.6225 13.903 14.5907C13.9071 14.56 13.9091 14.5379 13.91 14.5276C13.9111 14.5142 13.9094 14.53 13.9067 14.6112C13.9041 14.6898 13.9015 14.7964 13.898 14.9576L7.89944 14.8279ZM8.07715 13.2053C8.39514 12.0205 9.10752 10.8981 10.1424 10.1266L13.7287 14.9369C13.8017 14.8824 13.8339 14.8382 13.845 14.8214C13.8568 14.8037 13.8653 14.7859 13.8721 14.7607L8.07715 13.2053ZM10.1363 10.1312C10.6295 9.76152 11.3542 9.39937 11.9709 9.23315L13.5323 15.0264C13.583 15.0128 13.619 15.0009 13.6378 14.9944C13.6576 14.9875 13.6696 14.9828 13.6732 14.9813C13.6791 14.979 13.6723 14.9815 13.6574 14.9889C13.6427 14.9961 13.6346 15.0009 13.6364 14.9998C13.638 14.9989 13.6461 14.994 13.6602 14.9848C13.6735 14.9762 13.6995 14.9587 13.7348 14.9323L10.1363 10.1312ZM11.9637 9.23512C12.2895 9.14642 12.6151 9.09866 12.8715 9.07462C13.063 9.05665 13.5153 9.02048 13.9974 9.10212L12.9955 15.0179C13.1125 15.0377 13.203 15.0447 13.252 15.0476C13.3052 15.0508 13.3449 15.051 13.3674 15.0509C13.3911 15.0507 13.4075 15.05 13.416 15.0495C13.4248 15.049 13.4299 15.0486 13.4317 15.0484C13.4336 15.0482 13.4355 15.0481 13.4423 15.0469C13.4456 15.0464 13.4799 15.0407 13.5395 15.0245L11.9637 9.23512ZM14.0293 9.10772C14.4998 9.19264 14.9267 9.3836 15.1191 9.47763L12.4853 14.8686C12.5325 14.8917 12.5652 14.9048 12.5925 14.915C12.6085 14.9209 12.6394 14.932 12.6837 14.9455C12.7065 14.9524 12.7396 14.9621 12.781 14.9727C12.8203 14.9827 12.8833 14.9978 12.9635 15.0123L14.0293 9.10772ZM15.151 9.49342C15.2086 9.52241 15.2286 9.53213 15.2344 9.53486C15.2366 9.53588 15.2023 9.51951 15.1472 9.49807C15.0853 9.47406 15.0255 9.45454 14.9739 9.43998C14.9322 9.42821 14.9095 9.42361 14.9351 9.42939L13.6164 15.2827C13.1022 15.1668 12.8049 15.0297 12.4534 14.8528L15.151 9.49342ZM14.9739 9.43841C14.717 9.37693 14.464 9.42206 14.2759 9.52358L17.1261 14.8034C16.0553 15.3815 14.8 15.5662 13.5776 15.2737L14.9739 9.43841ZM14.2716 9.52592C14.5695 9.3645 14.9714 9.18887 15.4828 9.10374C15.9426 9.0272 16.3385 9.05113 16.5695 9.07064L16.0647 15.0494C16.0107 15.0448 16.1963 15.0675 16.4681 15.0223C16.7915 14.9684 17.028 14.8566 17.1304 14.8011L14.2716 9.52592ZM16.582 9.07172C18.5885 9.24956 20.2319 10.5072 21.0418 12.2483L15.6016 14.7791C15.6141 14.8058 15.6526 14.869 15.7386 14.9313C15.8264 14.995 15.9379 15.0382 16.0523 15.0483L16.582 9.07172ZM21.0341 12.2319C21.1641 12.507 21.3672 12.9444 21.4747 13.5366C21.5603 14.0085 21.5659 14.4947 21.5719 14.8414L15.5727 14.9441C15.5711 14.8478 15.5695 14.7707 15.5676 14.706C15.5658 14.6411 15.564 14.5971 15.5623 14.5669C15.5588 14.5032 15.5576 14.5337 15.5711 14.6081C15.5783 14.6479 15.5884 14.693 15.6016 14.7405C15.6146 14.7876 15.6276 14.8258 15.6374 14.852C15.6464 14.8764 15.6513 14.8868 15.6467 14.8763C15.6415 14.8645 15.6309 14.8411 15.6093 14.7954L21.0341 12.2319ZM21.5717 14.8322L21.5855 15.5157L15.5867 15.6368L15.5729 14.9533L21.5717 14.8322ZM20.5897 13.3435L20.6541 13.4012L16.6468 17.8668L16.5824 17.809L20.5897 13.3435ZM20.6398 13.3884C20.2618 13.0536 19.5758 12.651 18.6506 12.6934C17.7382 12.7352 17.1088 13.1864 16.7809 13.5203L21.0625 17.7236C20.6496 18.1442 19.9294 18.6411 18.9251 18.6871C17.9079 18.7337 17.1288 18.2939 16.6612 17.8796L20.6398 13.3884ZM16.7523 13.5498L16.819 13.48L21.1578 17.6243L21.0911 17.6941L16.7523 13.5498ZM15.9884 15.5522V15.0251H21.9884V15.5522H15.9884ZM15.9884 15.0251C15.9884 14.8655 15.9857 14.7573 15.9819 14.6808C15.9782 14.6064 15.974 14.5773 15.9738 14.5762C15.9738 14.5761 15.9746 14.5817 15.9767 14.5915C15.9788 14.6014 15.9814 14.6122 15.9843 14.6227C15.9906 14.6454 15.9936 14.6497 15.9831 14.6237L21.5477 12.3796C21.929 13.3251 21.9884 14.1013 21.9884 15.0251H15.9884ZM15.9814 14.6194C15.9704 14.592 15.9612 14.5794 15.9595 14.5772C15.9578 14.5749 15.9615 14.5803 15.9731 14.589C15.9849 14.5977 16.0011 14.6071 16.0208 14.6144C16.0408 14.6218 16.0579 14.6247 16.0685 14.6254L16.4554 8.63785C18.795 8.78905 20.7089 10.2905 21.5494 12.3838L15.9814 14.6194ZM16.0705 14.6255C16.064 14.6251 16.2389 14.638 16.4846 14.5876C16.7298 14.5373 16.8848 14.4569 16.8779 14.4604L14.1701 9.1061C14.4345 8.97239 14.8079 8.80657 15.279 8.70994C15.7505 8.61322 16.1588 8.61888 16.4534 8.63772L16.0705 14.6255ZM16.8825 14.458C16.2752 14.7664 15.555 14.9884 14.741 14.9893C13.9279 14.9903 13.2093 14.7705 12.6049 14.4675L15.2937 9.10374C15.2318 9.07272 15.0305 8.98896 14.734 8.98931C14.4367 8.98966 14.2326 9.07439 14.1656 9.10843L16.8825 14.458ZM12.5796 14.4547C12.6161 14.4735 12.6356 14.4814 12.6483 14.4865C12.6569 14.4899 12.6796 14.4989 12.7156 14.5111C12.734 14.5173 12.7631 14.5268 12.8007 14.5378C12.8353 14.5479 12.8975 14.5653 12.9786 14.5829L14.2488 8.71885C14.6954 8.81559 15.1199 9.0144 15.3191 9.1166L12.5796 14.4547ZM12.9889 14.5851C13.0631 14.6009 13.122 14.6098 13.1594 14.6148C13.1984 14.62 13.2288 14.6229 13.2488 14.6245C13.2873 14.6276 13.3104 14.6279 13.318 14.628C13.324 14.628 13.3495 14.6286 13.4102 14.6203L12.5896 8.67664C13.0084 8.61883 13.6509 8.59152 14.2385 8.71664L12.9889 14.5851Z" fill="#00194C" mask="url(#path-13-inside-5_128_332)"/>
<path d="M3.99915 12.9384L4.07549 12.998L4.17533 12.9182L4.1646 12.9095L4.08052 12.8418C4.06193 12.8631 4.04251 12.886 4.02292 12.9095C4.01501 12.9191 4.00707 12.9287 3.99915 12.9384ZM3.99915 12.9384L4.07378 12.9993L3.83586 13.1894L3.81294 13.1719M3.99915 12.9384C3.90719 13.0564 3.82214 13.1623 3.81294 13.1719M3.81294 13.1719L3.83336 13.1914L3.80845 13.2113L3.69628 13.1248L3.69558 13.1243L3.5554 13.0162L3.55547 13.013M3.81294 13.1719C3.80374 13.1839 3.76237 13.1526 3.71869 13.1045C3.71447 13.0996 3.71038 13.0949 3.7064 13.0905C3.67406 13.0545 3.64862 13.0343 3.61888 13.0236C3.60033 13.0169 3.5801 13.0139 3.55547 13.013M3.55547 13.013L3.55536 13.0162L3.5512 13.013C3.55262 13.013 3.55404 13.013 3.55547 13.013ZM3.4842 13.4703L3.5411 13.4249L3.54684 13.2604L3.54715 13.2514L3.54833 13.2176L3.55088 13.1444L3.5528 13.0895L3.55504 13.0254L3.539 13.0133C3.53054 13.0137 3.52227 13.0145 3.51424 13.0158C3.50283 13.0177 3.49187 13.0204 3.48142 13.024C3.40487 13.0501 3.35547 13.1209 3.35547 13.2176C3.35547 13.2696 3.36663 13.3064 3.40918 13.3695C3.41133 13.3727 3.41355 13.376 3.41586 13.3793C3.43346 13.4046 3.45586 13.4342 3.4842 13.4703ZM3.4842 13.4703L3.54107 13.4257L3.53723 13.5356C3.52056 13.5155 3.50292 13.4937 3.4842 13.4703ZM4.39455 13.0949L4.37107 13.0759L4.34868 13.0579L4.18153 12.9232L4.08088 13.0022L4.31908 13.1879C4.33954 13.1623 4.35783 13.1396 4.3728 13.1212C4.37689 13.1162 4.38073 13.1116 4.38429 13.1072C4.38802 13.1027 4.39145 13.0986 4.39455 13.0949ZM4.39455 13.0949L4.37061 13.0749L4.34792 13.0559L4.18546 12.9201L4.19892 12.9095L4.27075 12.8532L4.27536 12.8496L4.40574 12.7473C4.45088 12.7869 4.48191 12.8454 4.48191 12.9095C4.48191 12.9673 4.45662 13.0178 4.39455 13.0949ZM4.39772 12.7405C4.34542 12.6987 4.27669 12.6814 4.21524 12.7074C4.19779 12.714 4.1464 12.7665 4.08526 12.8364L4.17282 12.9095L4.17934 12.915L4.18616 12.9095L4.26747 12.8446L4.27179 12.8411L4.39772 12.7405ZM3.54709 13.421L3.54456 13.5444C3.71104 13.7437 3.7807 13.7766 3.88191 13.7182C3.90447 13.7064 4.0068 13.5902 4.11058 13.4562L4.05139 13.3996L3.80999 13.2176L3.8081 13.2162L3.80629 13.2176L3.67413 13.3213L3.65954 13.3327L3.54709 13.421ZM3.81665 13.2176L4.04548 13.394L3.86081 13.2176L3.83622 13.1941L3.81142 13.2136L3.81665 13.2176ZM4.07904 13.0036L3.8391 13.1919L3.87278 13.2176L4.13793 13.4202C4.19059 13.3509 4.24722 13.2784 4.29544 13.2176C4.3016 13.2098 4.30763 13.2023 4.31349 13.1949L4.07904 13.0036ZM3.80054 13.2176L3.80513 13.2139L3.69205 13.1287L3.6912 13.128L3.55521 13.0255L3.55386 13.0915L3.55271 13.1476L3.55127 13.2176L3.55064 13.2484L3.55046 13.2571L3.54711 13.4201L3.65855 13.331L3.67313 13.3194L3.80054 13.2176Z" fill="#00194C" stroke="#00194C" stroke-width="3"/>
<mask id="path-16-inside-6_128_332" fill="white">
<path d="M5.45537 13.0133C5.38181 13.0278 5.31055 13.1337 5.31055 13.2251C5.31055 13.2853 5.32894 13.3214 5.38181 13.3671L5.45308 13.4297H7.05078H8.64848L8.71514 13.3599C8.82549 13.2444 8.7979 13.0927 8.65537 13.0302C8.58871 13.0013 8.31744 12.9965 7.04158 12.9989C6.1979 13.0013 5.48296 13.0085 5.45537 13.0133Z"/>
</mask>
<path d="M5.45537 13.0133C5.38181 13.0278 5.31055 13.1337 5.31055 13.2251C5.31055 13.2853 5.32894 13.3214 5.38181 13.3671L5.45308 13.4297H7.05078H8.64848L8.71514 13.3599C8.82549 13.2444 8.7979 13.0927 8.65537 13.0302C8.58871 13.0013 8.31744 12.9965 7.04158 12.9989C6.1979 13.0013 5.48296 13.0085 5.45537 13.0133Z" fill="#00194C"/>
<path d="M5.45537 13.0133L4.8775 10.0695L4.90854 10.0634L4.9397 10.058L5.45537 13.0133ZM5.38181 13.3671L7.34426 11.098L7.35278 11.1054L7.36124 11.1128L5.38181 13.3671ZM5.45308 13.4297V16.4297H4.3229L3.47364 15.684L5.45308 13.4297ZM8.64848 13.4297L10.8179 15.5018L9.9316 16.4297H8.64848V13.4297ZM8.65537 13.0302L9.84792 10.2774L9.85465 10.2803L9.86137 10.2832L8.65537 13.0302ZM7.04158 12.9989L7.03302 9.99889L7.03592 9.99889L7.04158 12.9989ZM6.03324 15.9571C7.08649 15.7504 7.63987 15.0658 7.83592 14.7776C8.07514 14.4259 8.31055 13.8979 8.31055 13.2251H2.31055C2.31055 12.4608 2.58159 11.8342 2.87482 11.4031C3.1249 11.0354 3.75069 10.2907 4.8775 10.0695L6.03324 15.9571ZM8.31055 13.2251C8.31055 12.9311 8.26196 12.4611 8.00598 11.9526C7.76981 11.4835 7.46635 11.2036 7.34426 11.098L3.41937 15.6362C3.2444 15.4849 2.90531 15.1641 2.64673 14.6505C2.36833 14.0974 2.31055 13.5793 2.31055 13.2251H8.31055ZM7.36124 11.1128L7.43251 11.1754L3.47364 15.684L3.40238 15.6214L7.36124 11.1128ZM5.45308 10.4297H7.05078V16.4297H5.45308V10.4297ZM7.05078 10.4297H8.64848V16.4297H7.05078V10.4297ZM6.47909 11.3575L6.54576 11.2878L10.8845 15.432L10.8179 15.5018L6.47909 11.3575ZM6.54576 11.2878C6.05582 11.8007 5.63949 12.6705 5.8283 13.7109C6.02037 14.7692 6.74262 15.4668 7.44938 15.7771L9.86137 10.2832C10.7107 10.6561 11.518 11.4608 11.7319 12.6395C11.9425 13.8002 11.4848 14.8036 10.8845 15.432L6.54576 11.2878ZM7.46283 15.783C7.61855 15.8504 7.75407 15.893 7.85293 15.9199C7.95274 15.947 8.03635 15.9639 8.095 15.9743C8.20643 15.9941 8.28756 16.0009 8.31008 16.0028C8.33855 16.0051 8.34961 16.0052 8.33291 16.0046C8.31812 16.004 8.29031 16.0031 8.24448 16.0022C8.04685 15.9985 7.6943 15.9977 7.04724 15.9989L7.03592 9.99889C7.66472 9.9977 8.08574 9.9981 8.35937 10.0033C8.48948 10.0058 8.64664 10.0103 8.79894 10.0227C8.84062 10.0261 9.32627 10.0514 9.84792 10.2774L7.46283 15.783ZM7.05014 15.9989C6.63372 16.0001 6.25072 16.0024 5.97068 16.0051C5.82985 16.0064 5.71961 16.0077 5.64585 16.009C5.60766 16.0096 5.58728 16.0101 5.58023 16.0103C5.57517 16.0104 5.58614 16.0101 5.60539 16.0093C5.61395 16.0089 5.63882 16.0077 5.67186 16.0054C5.68834 16.0042 5.71802 16.002 5.75531 15.9982C5.7814 15.9956 5.8649 15.9872 5.97105 15.9687L4.9397 10.058C5.04671 10.0393 5.13141 10.0307 5.15902 10.0279C5.19784 10.0241 5.22939 10.0217 5.24805 10.0204C5.28547 10.0177 5.31603 10.0162 5.33155 10.0155C5.36471 10.014 5.39469 10.0131 5.41346 10.0126C5.45409 10.0114 5.50068 10.0105 5.54658 10.0098C5.641 10.0082 5.7674 10.0067 5.91421 10.0053C6.20945 10.0026 6.60576 10.0001 7.03302 9.99889L7.05014 15.9989Z" fill="#00194C" mask="url(#path-16-inside-6_128_332)"/>
<path d="M12.5227 14.2995C12.5215 14.2656 12.52 14.2348 12.5182 14.2069C12.481 14.2014 12.443 14.1973 12.4041 14.1949L12.5227 14.2995ZM12.5274 15.4171V15.3158V14.8255C12.5274 14.7791 12.5273 14.7351 12.5273 14.6934C12.5273 14.6932 12.5273 14.693 12.5273 14.6928C12.5271 14.5327 12.5262 14.4064 12.5229 14.3067L12.3986 14.1946C12.37 14.1929 12.3408 14.1922 12.3113 14.1924C12.2932 14.1925 12.275 14.1929 12.2566 14.1938C12.2117 14.1958 12.1684 14.1999 12.1265 14.2059C12.1224 14.301 12.1208 14.4491 12.1182 14.6883C12.1176 14.7366 12.117 14.7823 12.1166 14.8255C12.1153 14.9583 12.1148 15.068 12.1156 15.1591L12.3113 15.3459L12.4013 15.4319C12.4029 15.4318 12.4045 15.4317 12.4061 15.4315C12.4457 15.4287 12.4862 15.424 12.5274 15.4171Z" fill="#00194C" stroke="#00194C" stroke-width="3"/>
<path d="M17.0666 15.4328L17.3521 15.1601C17.3527 15.0605 17.3526 14.9459 17.3515 14.8256C17.3513 14.7962 17.351 14.7665 17.3506 14.7365L17.3499 14.667L17.157 14.2248L16.9435 14.4131C16.9422 14.5006 16.9416 14.6081 16.9415 14.7407C16.9415 14.741 16.9415 14.7413 16.9415 14.7416C16.9414 14.7685 16.9414 14.7965 16.9414 14.8256V15.4205C16.9811 15.4264 17.023 15.4307 17.0666 15.4328ZM17.3452 14.203C17.3404 14.2022 17.3356 14.2015 17.3308 14.2009L17.3452 14.2077L17.3452 14.203ZM17.3453 14.2196L17.3011 14.197C17.267 14.1931 17.2325 14.1904 17.1975 14.1891L17.1594 14.2227L17.3497 14.6467L17.3453 14.2196Z" fill="#00194C" stroke="#00194C" stroke-width="3"/>
<path d="M3.98611 15.4559C3.95003 15.5018 3.91589 15.545 3.88714 15.5813C3.88238 15.5873 3.87777 15.5932 3.87332 15.5988L3.94046 15.6518L4.08722 15.5374L3.98611 15.4559ZM3.98611 15.4559C3.99858 15.4404 4.0111 15.4251 4.02349 15.4102C4.10932 15.3068 4.18959 15.221 4.21369 15.2104M3.98611 15.4559L4.08843 15.5364L4.25031 15.4102L4.2878 15.381L4.21369 15.2104M4.21369 15.2104C4.28977 15.1774 4.37571 15.2081 4.42953 15.2705L4.28801 15.3808L4.21369 15.2104ZM4.1953 15.853C4.2373 15.7996 4.27347 15.7531 4.30456 15.7124L4.09147 15.5408L3.94367 15.6543L4.1953 15.853ZM4.1953 15.853C4.19133 15.8581 4.18739 15.8631 4.1835 15.868C4.15415 15.9051 4.1269 15.9393 4.10147 15.9706C4.04973 16.0344 4.00551 16.0865 3.96643 16.1272C3.96481 16.1289 3.96321 16.1305 3.96161 16.1322C3.77946 16.3197 3.70934 16.2568 3.50335 15.9926M4.1953 15.853L3.94303 15.6548L3.86412 15.7155L3.8476 15.7281L3.68998 15.8492L3.68721 15.8514L3.50335 15.9926M3.50335 15.9926C3.46774 15.9463 3.43858 15.9053 3.41568 15.8686L3.57122 15.7327L3.57272 15.7314L3.68746 15.6311L3.79173 15.6809C3.79858 15.6862 3.80311 15.6884 3.8045 15.687C3.80579 15.6843 3.83246 15.6504 3.87269 15.5996L3.93982 15.6523L3.86084 15.7139L3.84533 15.726L3.68878 15.848L3.68604 15.8502L3.50335 15.9926ZM3.70608 15.593C3.69695 15.5833 3.68772 15.5745 3.67841 15.5665L3.70608 15.593ZM3.68725 15.631L3.47234 15.5283C3.45212 15.5384 3.43248 15.5528 3.41369 15.5715C3.33227 15.651 3.32918 15.7291 3.4145 15.8667L3.57047 15.7319L3.57198 15.7306L3.68725 15.631ZM4.09274 15.5398L4.3074 15.7087C4.338 15.6686 4.36359 15.6342 4.3849 15.6044L4.3005 15.4102L4.29072 15.3877L4.26143 15.4102L4.09274 15.5398ZM4.30083 15.4102L4.3853 15.6038C4.46126 15.4976 4.48266 15.45 4.48266 15.4102C4.48266 15.3599 4.46418 15.3135 4.43491 15.2769L4.29094 15.3875L4.30083 15.4102Z" fill="#00194C" stroke="#00194C" stroke-width="3"/>
<mask id="path-21-inside-7_128_332" fill="white">
<path d="M5.43483 15.5235C5.30149 15.5788 5.27391 15.7521 5.37736 15.8628L5.44402 15.9326H7.04632H8.64862L8.71529 15.8628C8.82104 15.7521 8.80035 15.6077 8.66701 15.5355C8.60954 15.5042 8.38885 15.4994 7.04172 15.5018C6.18425 15.5018 5.46012 15.5114 5.43483 15.5235Z"/>
</mask>
<path d="M5.43483 15.5235C5.30149 15.5788 5.27391 15.7521 5.37736 15.8628L5.44402 15.9326H7.04632H8.64862L8.71529 15.8628C8.82104 15.7521 8.80035 15.6077 8.66701 15.5355C8.60954 15.5042 8.38885 15.4994 7.04172 15.5018C6.18425 15.5018 5.46012 15.5114 5.43483 15.5235Z" fill="#00194C"/>
<path d="M5.43483 15.5235L6.72394 18.2324L6.65531 18.265L6.58512 18.2942L5.43483 15.5235ZM5.37736 15.8628L3.20797 17.935L3.1966 17.9231L3.18537 17.911L5.37736 15.8628ZM5.44402 15.9326V18.9326H4.1609L3.27464 18.0048L5.44402 15.9326ZM8.64862 15.9326L10.818 18.0048L9.93174 18.9326H8.64862V15.9326ZM8.66701 15.5355L7.23847 18.1736L7.23259 18.1704L8.66701 15.5355ZM7.04172 15.5018L7.04708 18.5018H7.04172V15.5018ZM6.58512 18.2942C8.69418 17.4186 8.65923 14.981 7.56935 13.8146L3.18537 17.911C1.88858 16.5232 1.90881 13.7391 4.28453 12.7528L6.58512 18.2942ZM7.54674 13.7907L7.61341 13.8605L3.27464 18.0048L3.20797 17.935L7.54674 13.7907ZM5.44402 12.9326H7.04632V18.9326H5.44402V12.9326ZM7.04632 12.9326H8.64862V18.9326H7.04632V12.9326ZM6.47923 13.8605L6.5459 13.7907L10.8847 17.935L10.818 18.0048L6.47923 13.8605ZM6.5459 13.7907C6.07502 14.2837 5.66517 15.1119 5.81236 16.1187C5.96127 17.1373 6.6068 17.8315 7.23847 18.1735L10.0956 12.8975C10.8606 13.3117 11.5831 14.1143 11.7492 15.2507C11.9137 16.3755 11.4613 17.3313 10.8847 17.935L6.5459 13.7907ZM7.23259 18.1704C7.55902 18.3481 7.84432 18.4225 7.9904 18.4547C8.13977 18.4876 8.25266 18.4992 8.28975 18.5028C8.33442 18.5071 8.35869 18.5079 8.34832 18.5074C8.34064 18.5071 8.31851 18.5063 8.27542 18.5054C8.18776 18.5035 8.05381 18.5022 7.84736 18.5016C7.64365 18.5011 7.38304 18.5012 7.04708 18.5018L7.03637 12.5018C7.69794 12.5006 8.12833 12.501 8.40056 12.5067C8.52618 12.5093 8.69695 12.5142 8.86676 12.5306C8.92668 12.5364 9.50113 12.5738 10.1014 12.9007L7.23259 18.1704ZM7.04172 18.5018C6.6224 18.5018 6.24095 18.5042 5.96647 18.5079C5.82702 18.5097 5.72716 18.5118 5.6677 18.5136C5.6345 18.5146 5.63432 18.515 5.65329 18.5138C5.65859 18.5135 5.70254 18.511 5.76381 18.5045C5.79147 18.5016 5.86194 18.4938 5.95234 18.4781C5.99742 18.4703 6.07752 18.4554 6.17633 18.4303C6.22708 18.4173 6.29732 18.3981 6.37985 18.3707C6.45802 18.3448 6.58019 18.3008 6.72394 18.2324L4.14572 12.8146C4.40534 12.691 4.62384 12.6341 4.69672 12.6156C4.797 12.59 4.8789 12.5748 4.92612 12.5666C5.02079 12.5501 5.09687 12.5416 5.13143 12.538C5.2065 12.53 5.26944 12.5261 5.29864 12.5243C5.3654 12.5204 5.43264 12.518 5.48428 12.5164C5.5945 12.513 5.73401 12.5104 5.88594 12.5084C6.19423 12.5043 6.60358 12.5018 7.04172 12.5018V18.5018Z" fill="#00194C" mask="url(#path-21-inside-7_128_332)"/>
</svg>
