<svg width="58" height="21" viewBox="0 0 58 21" fill="none" xmlns="http://www.w3.org/2000/svg">
<path d="M1.88416 0.830923C-0.126997 2.29358 1.09189 4.36569 5.29704 6.8644C8.46614 8.63178 9.3803 8.9365 10.3554 8.388C11.0258 8.02234 12.4885 7.59573 13.5854 7.4129C15.5357 7.04723 15.4747 6.98629 10.2335 3.87813C3.52965 -0.083241 3.28588 -0.144185 1.88416 0.830923Z" fill="#F9B276"/>
<path d="M7.97886 0.526203C7.43036 1.37942 18.4003 7.47384 20.1677 7.23007C21.5085 7.04723 20.899 6.55968 15.9626 3.51247C10.4166 0.160538 8.64925 -0.509848 7.97886 0.526203Z" fill="#F9B276"/>
<path d="M14.9258 1.13565C14.9258 2.04981 23.9455 7.47385 25.1035 7.23007C25.8957 7.10818 20.5326 3.51247 15.4133 0.830927C15.1086 0.709039 14.9258 0.830927 14.9258 1.13565Z" fill="#F9B276"/>
<path d="M40.5229 3.51246C40.0354 3.69529 37.5976 4.79229 35.1599 5.95023C30.7109 8.08327 30.5281 8.14422 21.1427 8.44894C10.8431 8.75366 9.44141 9.18027 9.44141 12.0446C9.44141 13.4464 9.56329 13.4464 16.0234 13.5073C19.6191 13.5073 23.7633 13.7511 25.2869 13.9949C27.7247 14.4824 27.4809 14.5434 22.8491 14.6043C19.9848 14.6043 17.9736 14.909 18.2783 15.2137C19.5581 16.3107 29.9187 20.3331 32.2955 20.5768C34.0629 20.8206 36.8054 20.2112 41.9247 18.6266C48.6285 16.4936 50.0912 16.3717 52.8946 17.4687C53.565 17.7125 54.2354 16.4326 55.6981 12.1056C56.7341 8.99744 57.5873 6.07211 57.5873 5.6455C57.5873 5.27984 56.856 4.91417 55.9418 4.91417C54.9667 4.85323 52.5899 4.48756 50.5787 4.00001C46.983 3.14679 42.2903 2.90301 40.5229 3.51246Z" fill="#F9B276"/>
</svg>
