<svg width="48" height="54" viewBox="0 0 48 54" fill="none" xmlns="http://www.w3.org/2000/svg">
<path d="M17.7634 0.657459C16.8382 0.976343 16.1584 1.72041 15.9318 2.65713L15.8437 3.02252L14.4024 3.06238C12.8414 3.10224 12.6841 3.13546 12.1113 3.52078C11.6141 3.85959 11.2302 4.35785 11.0413 4.93583L10.928 5.28129L7.75585 5.3145C4.19971 5.36101 4.28154 5.34772 3.2682 5.87255C2.3115 6.37081 1.46181 7.32746 1.06528 8.35055C0.693933 9.31385 0.719109 7.93201 0.719109 29.5564C0.719109 50.8286 0.706521 49.779 1.02752 50.6958C1.39257 51.7122 2.3178 52.7884 3.27449 53.3C3.44443 53.393 3.7969 53.5392 4.05495 53.6255L4.52701 53.7783H18.6571H32.7873L33.2719 53.6056C34.0524 53.3199 34.5559 52.9878 35.1475 52.3566C35.7329 51.7388 36.079 51.1276 36.3497 50.2573C36.4819 49.8188 36.4945 49.6594 36.5196 47.6531L36.5448 45.5073L36.356 45.3079C36.1546 45.0954 36.0161 45.0688 35.7455 45.1751C35.4308 45.3013 35.3993 45.5205 35.3993 47.5866C35.3993 49.686 35.3678 49.9185 34.9839 50.6958C34.5685 51.5262 33.7817 52.2171 32.9131 52.5028L32.4726 52.6489H18.6257C5.36411 52.6489 4.75988 52.6423 4.40112 52.5294C3.84725 52.35 3.36261 52.051 2.97238 51.6591C2.33038 51.0147 1.99051 50.3171 1.85204 49.3804C1.80798 49.0748 1.7891 42.7303 1.80168 29.2641C1.82057 10.3502 1.82686 9.58623 1.93386 9.23413C2.36185 7.8988 3.29967 6.9355 4.47665 6.60997C4.77247 6.53025 5.38929 6.51032 7.87544 6.51032C10.7203 6.51032 10.9218 6.51696 10.9532 6.62326C11.2994 7.73935 12.2183 8.56314 13.2946 8.7093C13.8674 8.78237 23.4154 8.78237 23.9945 8.70265C24.8882 8.57643 25.6498 8.01174 26.0526 7.16138C26.1722 6.90228 26.2729 6.64983 26.2729 6.60333C26.2729 6.52361 26.789 6.51032 29.3507 6.51032H32.4348L32.9257 6.67641C33.9894 7.02851 34.7636 7.80579 35.1979 8.9551C35.3615 9.40021 35.3678 9.4135 35.3993 11.5394L35.4308 13.6719L35.5818 13.8447C35.8084 14.1038 36.1546 14.0838 36.3749 13.8048L36.5448 13.5922L36.5133 11.4995C36.4882 9.18762 36.463 9.04147 36.0602 8.13796C35.6133 7.14809 34.8391 6.31766 33.9202 5.84598C32.9446 5.34772 33.0327 5.36101 29.4703 5.33443C27.0408 5.3145 26.2729 5.28793 26.2729 5.22814C26.2729 5.18163 26.1911 4.9624 26.0841 4.73652C25.8764 4.2582 25.4232 3.71344 25.0456 3.48092C24.4728 3.12881 24.3092 3.10224 22.8238 3.06238L21.4202 3.02252L21.2755 2.57741C20.9985 1.70048 20.4069 1.04278 19.6075 0.723893C19.104 0.517947 18.2417 0.491373 17.7634 0.657459ZM19.2802 1.83335C19.8593 2.0858 20.1992 2.57741 20.2999 3.30154C20.4321 4.21834 20.5013 4.25155 22.5091 4.25155C23.8623 4.25155 24.07 4.27148 24.2966 4.37778C24.6113 4.53058 24.9512 4.88268 25.0959 5.19492C25.4736 6.03199 25.0896 7.05508 24.2588 7.43376C23.9441 7.57327 23.9378 7.57327 18.5501 7.55998L13.1498 7.54005L12.8918 7.3939C12.3505 7.0883 12.061 6.65648 12.0043 6.07185C11.954 5.58688 12.0799 5.17499 12.3694 4.82289C12.8351 4.26484 12.961 4.23827 14.7422 4.23827C16.7375 4.24491 16.8319 4.20505 16.92 3.38126C16.9389 3.17532 17.0018 2.89629 17.0522 2.76343C17.1717 2.47112 17.5431 2.01936 17.7823 1.88649C18.2103 1.65397 18.8208 1.63404 19.2802 1.83335Z" fill="#7C5900"/>
<path d="M7.04451 14.4425C6.97527 14.489 6.72351 14.7879 6.48434 15.1068C6.24517 15.4191 6.02487 15.6781 5.9997 15.6781C5.97452 15.6781 5.91158 15.5984 5.84864 15.5054C5.61576 15.1267 5.13112 15.0869 4.91083 15.4257C4.70942 15.7313 4.77865 15.9572 5.257 16.5684C5.97452 17.4918 6.05634 17.4719 7.10745 16.1365C7.77462 15.2795 7.8942 15.1002 7.8942 14.9009C7.8942 14.4624 7.39068 14.1834 7.04451 14.4425Z" fill="#7C5900"/>
<path d="M10.4934 15.2467C10.3864 15.2932 10.2668 15.3928 10.229 15.4725C10.0591 15.7981 10.229 16.2299 10.5563 16.3096C10.6318 16.3295 14.7419 16.3362 19.6827 16.3295L28.6769 16.3096L28.7965 16.1502C28.9727 15.9176 28.9538 15.539 28.7524 15.3397L28.5888 15.1802L19.6449 15.1669C12.1361 15.1537 10.6633 15.1669 10.4934 15.2467Z" fill="#7C5900"/>
<path d="M35.0843 15.884C34.0962 16.0036 32.9381 16.462 32.0128 17.0931C31.1317 17.6977 30.1939 18.7806 29.6777 19.797C29.3756 20.3949 29.0106 21.5176 28.9162 22.1488C28.8343 22.7002 28.8281 24.0754 28.9099 24.5803C29.3001 27.045 30.7855 29.1377 32.8877 30.194C35.6067 31.5492 38.6908 31.0377 40.8623 28.8719C43.8456 25.8957 43.8456 20.8732 40.8623 17.897C40.258 17.2924 39.7608 16.9403 38.9615 16.5417C37.7341 15.9305 36.4753 15.7179 35.0843 15.884ZM37.5075 17.1994C40.2769 17.9767 42.1462 20.7072 41.9889 23.7366C41.8441 26.5069 40.1007 28.7856 37.5075 29.5761C37.0732 29.709 36.8655 29.7289 35.9655 29.7289C35.0654 29.7289 34.8577 29.709 34.4235 29.5761C33.7689 29.3768 32.9695 28.9782 32.4786 28.6062C31.9436 28.2076 31.1128 27.2642 30.7981 26.7062C29.64 24.6401 29.6463 22.0823 30.817 20.0561C31.2324 19.3386 32.1828 18.3288 32.7996 17.9435C33.4227 17.5515 34.071 17.2791 34.7067 17.133C35.4368 16.9603 36.7837 16.9935 37.5075 17.1994Z" fill="#7C5900"/>
<path d="M7.16452 21.2523C7.09528 21.2855 6.83094 21.5778 6.57288 21.8967C6.32112 22.2222 6.08824 22.5145 6.06306 22.5478C6.03159 22.5876 5.92459 22.5079 5.80501 22.3617C5.63507 22.1624 5.55324 22.1093 5.36442 22.1026C5.03713 22.096 4.81055 22.3219 4.81055 22.6607C4.81055 22.8733 4.87978 22.9995 5.25742 23.4778C5.71689 24.0691 5.89312 24.182 6.18265 24.0757C6.27706 24.0425 6.67358 23.5974 7.12046 23.0261C7.76245 22.2023 7.89463 21.9964 7.89463 21.817C7.89463 21.425 7.49181 21.1128 7.16452 21.2523Z" fill="#7C5900"/>
<path d="M10.5568 22.1026C10.2421 22.1691 10.047 22.7271 10.2421 22.9929C10.431 23.252 10.4687 23.252 14.9438 23.252H19.2993L19.4818 23.0593C19.7839 22.7404 19.7084 22.3219 19.3181 22.1491C19.1356 22.0694 18.3929 22.0561 14.8997 22.0628C12.5898 22.0694 10.6324 22.0894 10.5568 22.1026Z" fill="#7C5900"/>
<path d="M7.16452 28.1613C7.09528 28.1945 6.83094 28.4868 6.57288 28.8057C6.32112 29.1312 6.08824 29.4235 6.06306 29.4501C6.03789 29.4833 5.92459 29.397 5.80501 29.2641C5.63507 29.0648 5.54695 29.0183 5.35183 29.0183C5.02454 29.0183 4.81055 29.2375 4.81055 29.5697C4.81055 29.7823 4.87978 29.9085 5.25742 30.3868C5.97495 31.3103 6.05677 31.2903 7.10787 29.9484C7.75616 29.1179 7.89463 28.8987 7.89463 28.7193C7.89463 28.334 7.49181 28.0218 7.16452 28.1613Z" fill="#7C5900"/>
<path d="M10.5567 29.0118C10.3553 29.0517 10.1602 29.344 10.1602 29.5964C10.1602 29.7625 10.2105 29.8622 10.3553 29.9884L10.5504 30.1611H14.9247H19.2991L19.4816 29.9685C19.7838 29.6496 19.7082 29.2311 19.318 29.0583C19.1355 28.9786 18.3928 28.9653 14.8996 28.972C12.5897 28.9786 10.6322 28.9985 10.5567 29.0118Z" fill="#7C5900"/>
<path d="M31.214 32.1538C30.5972 32.2401 29.993 32.4062 29.3888 32.6653C26.8145 33.7416 25.0459 35.9937 24.4668 38.9301C24.3787 39.3818 24.3535 39.8336 24.3535 41.242V42.9959L24.5297 43.1553C24.7563 43.3612 25.0207 43.3612 25.2473 43.1553L25.4235 42.9959L25.4613 41.1091C25.499 39.3486 25.5116 39.1892 25.669 38.5979C26.097 36.9902 27.0537 35.5286 28.2999 34.5919C28.8538 34.1734 29.8986 33.6552 30.5343 33.4825C31.1637 33.3097 32.1455 33.2167 32.5735 33.2898C32.7561 33.323 33.1274 33.4625 33.4106 33.6021C34.0652 33.9342 34.21 33.994 34.7072 34.107C36.029 34.4258 37.4011 34.2332 38.6095 33.5755C39.1445 33.2832 39.5159 33.2234 40.2963 33.2898C42.6755 33.5024 44.721 34.9972 45.7847 37.3024C46.3764 38.5647 46.433 38.8836 46.4708 41.1091L46.5085 42.9959L46.6848 43.1553C46.9303 43.3745 47.1946 43.3612 47.4275 43.1221L47.61 42.9294V41.4745C47.61 39.3951 47.4778 38.465 46.9995 37.2692C45.8036 34.2664 43.2042 32.3066 40.1453 32.1073C39.3208 32.0541 38.8676 32.1471 38.1249 32.5258C36.6458 33.2832 35.2989 33.2832 33.8135 32.5325C33.4925 32.3664 33.0771 32.2003 32.8945 32.1604C32.5232 32.0807 31.7868 32.0741 31.214 32.1538Z" fill="#7C5900"/>
<path d="M7.16452 35.0771C7.09528 35.1037 6.83094 35.396 6.57288 35.7149C6.32112 36.0404 6.08824 36.3328 6.06306 36.3593C6.03789 36.3925 5.92459 36.3062 5.80501 36.1733C5.64136 35.9807 5.54695 35.9275 5.35813 35.9209C5.03713 35.9142 4.81055 36.1401 4.81055 36.4856C4.81055 36.6915 4.87349 36.8111 5.16301 37.1831C5.74207 37.9139 5.94347 38.0468 6.25188 37.8674C6.31482 37.8342 6.60435 37.502 6.89388 37.1233C7.17711 36.7446 7.52328 36.3062 7.65545 36.1467C7.82539 35.9341 7.89463 35.7946 7.89463 35.6352C7.89463 35.2499 7.49181 34.9376 7.16452 35.0771Z" fill="#7C5900"/>
<path d="M10.5567 35.921C10.3553 35.9609 10.1602 36.2532 10.1602 36.5056C10.1602 36.6717 10.2105 36.7714 10.3553 36.8976L10.5504 37.0703H14.9247H19.2991L19.4816 36.8777C19.7838 36.5588 19.7082 36.1402 19.318 35.9675C19.1355 35.8878 18.3928 35.8745 14.8996 35.8811C12.5897 35.8878 10.6322 35.9077 10.5567 35.921Z" fill="#7C5900"/>
<path d="M28.9729 38.6382C28.8218 38.8109 28.8218 38.8109 28.8029 40.5448C28.7778 42.5777 28.8029 42.9365 29.0106 43.1557C29.2246 43.3816 29.5079 43.3683 29.7407 43.1225L29.9233 42.9298V40.9235C29.9233 38.5252 29.9107 38.4654 29.3316 38.4654C29.1932 38.4654 29.0799 38.5186 28.9729 38.6382Z" fill="#7C5900"/>
<path d="M42.2722 38.5119C42.2281 38.5319 42.1526 38.6315 42.1022 38.7312C42.0267 38.8906 42.0078 39.2892 42.0078 40.9235V42.9298L42.1903 43.1225C42.5302 43.4812 43.0149 43.2952 43.1093 42.777C43.1282 42.6508 43.1407 41.7074 43.1282 40.6777L43.1093 38.8109L42.9582 38.6382C42.8072 38.4721 42.4987 38.4123 42.2722 38.5119Z" fill="#7C5900"/>
<path d="M7.15731 41.986C7.08178 42.0192 6.80484 42.3248 6.5342 42.6637C6.26985 43.0025 6.04326 43.2881 6.03697 43.3014C6.02438 43.3147 5.91738 43.2151 5.79779 43.0756C5.52715 42.7633 5.21874 42.7301 4.96698 42.9825C4.68375 43.2616 4.74669 43.534 5.21245 44.1451C5.96773 45.1217 6.05585 45.1018 7.10696 43.7598C7.74895 42.936 7.89371 42.7102 7.89371 42.5374C7.89371 42.1455 7.49089 41.8399 7.15731 41.986Z" fill="#7C5900"/>
<path d="M10.4995 42.8501C10.1344 43.0029 10.0589 43.4812 10.3421 43.7868L10.5247 43.9795H14.9116H19.2986L19.4811 43.7868C19.7706 43.4812 19.714 43.0826 19.3489 42.8833C19.1916 42.797 18.5873 42.7837 14.899 42.7903C12.5514 42.7903 10.5687 42.8169 10.4995 42.8501Z" fill="#7C5900"/>
</svg>
