<svg width="101" height="90" viewBox="0 0 101 90" fill="none" xmlns="http://www.w3.org/2000/svg">
<rect x="0.884766" width="99.2308" height="90" rx="10" fill="#93E7FE"/>
<path d="M41.1448 40.626L37.0288 44.742C35.3409 46.43 34.3926 48.7193 34.3926 51.1065C34.3926 53.4936 35.3409 55.783 37.0288 57.471C38.7168 59.159 41.0062 60.1073 43.3933 60.1073C45.7805 60.1073 48.0699 59.159 49.7578 57.471L55.2418 51.984C56.2597 50.966 57.0185 49.7186 57.4546 48.3466C57.8907 46.9747 57.9913 45.5181 57.7479 44.0992C57.5046 42.6803 56.9244 41.3405 56.0561 40.1922C55.1878 39.0439 54.0568 38.1207 52.7578 37.5L50.9998 39.258C50.8213 39.4368 50.6661 39.6373 50.5378 39.855C51.5414 40.1435 52.4523 40.6889 53.1805 41.4374C53.9087 42.1858 54.429 43.1113 54.6898 44.1224C54.9507 45.1336 54.9432 46.1953 54.668 47.2026C54.3929 48.2099 53.8596 49.128 53.1208 49.866L47.6398 55.35C46.514 56.4758 44.987 57.1083 43.3948 57.1083C41.8027 57.1083 40.2757 56.4758 39.1498 55.35C38.024 54.2242 37.3915 52.6972 37.3915 51.105C37.3915 49.5128 38.024 47.9858 39.1498 46.86L41.5288 44.484C41.1922 43.2264 41.0625 41.9253 41.1448 40.626Z" fill="black"/>
<path d="M46.7586 35.0158C45.7407 36.0338 44.9819 37.2812 44.5459 38.6531C44.1098 40.0251 44.0092 41.4817 44.2526 42.9006C44.4959 44.3195 45.0761 45.6593 45.9443 46.8076C46.8126 47.9558 47.9437 48.8791 49.2426 49.4998L51.5676 47.1718C50.5505 46.8989 49.623 46.3632 48.8785 45.6184C48.134 44.8736 47.5987 43.9459 47.3263 42.9286C47.0539 41.9114 47.054 40.8403 47.3267 39.8231C47.5993 38.8059 48.1349 37.8784 48.8796 37.1338L54.3606 31.6498C55.4865 30.5239 57.0134 29.8914 58.6056 29.8914C60.1978 29.8914 61.7248 30.5239 62.8506 31.6498C63.9765 32.7756 64.609 34.3026 64.609 35.8948C64.609 37.487 63.9765 39.0139 62.8506 40.1398L60.4716 42.5158C60.8076 43.7758 60.9366 45.0808 60.8556 46.3768L64.9716 42.2608C66.6596 40.5728 67.6079 38.2834 67.6079 35.8963C67.6079 33.5091 66.6596 31.2197 64.9716 29.5318C63.2837 27.8438 60.9943 26.8955 58.6071 26.8955C56.22 26.8955 53.9306 27.8438 52.2426 29.5318L46.7586 35.0158Z" fill="black"/>
</svg>
