<svg width="101" height="93" viewBox="0 0 101 93" fill="none" xmlns="http://www.w3.org/2000/svg">
<rect y="0.697754" width="101" height="91.6047" rx="10" fill="#FAA9E4"/>
<g clip-path="url(#clip0_577_161)">
<path d="M47.9939 27.3255C47.0205 27.5836 46.3109 28.2345 46.006 29.1493C45.9121 29.4249 45.8828 29.6654 45.8828 30.1052C45.8828 31.0376 46.1584 31.6885 46.78 32.2515C47.1436 32.5799 47.4896 32.7558 47.9998 32.8849C49.0319 33.137 50.1051 32.8731 50.7912 32.1811C51.1372 31.8352 51.4832 31.1901 51.5477 30.762L51.5887 30.4981L52.4449 30.5391C53.4653 30.5802 54.8669 30.7913 56.0045 31.0728C61.9274 32.533 66.8827 36.6966 69.3516 42.3029C70.3426 44.543 70.8411 46.66 71.017 49.3165L71.0522 49.9029L70.7707 50.0144C70.3544 50.1727 69.9204 50.6301 69.7914 51.0465C69.6624 51.4687 69.6624 51.7033 69.809 52.1724C69.9439 52.6064 70.2664 52.9875 70.6593 53.181C70.9936 53.3452 71.8497 53.3452 72.184 53.181C73.2337 52.665 73.4566 51.1403 72.6004 50.3486C72.4655 50.2255 72.2309 50.073 72.0843 50.0202L71.8146 49.9147L71.7794 49.4045C71.58 46.6365 71.1929 44.8186 70.3368 42.684C69.2402 39.9396 67.7037 37.6525 65.5222 35.5296C61.9802 32.0814 57.3181 30.0348 52.3687 29.7651L51.6122 29.724L51.536 29.3898C51.2427 28.0938 50.1051 27.22 48.727 27.2376C48.5041 27.2376 48.1699 27.2786 47.9939 27.3255ZM49.6653 28.1817C50.2869 28.4808 50.6153 28.8502 50.7853 29.4484C51.0551 30.3691 50.7384 31.366 50.023 31.841C49.0143 32.5095 47.5952 32.2691 46.956 31.3132C46.7038 30.9438 46.6276 30.6447 46.6276 30.0759C46.6334 29.1024 47.0908 28.4456 47.9998 28.1113C48.4455 27.9413 49.2489 27.9765 49.6653 28.1817ZM71.9318 50.7826C72.3482 50.9937 72.53 51.7033 72.2602 52.0903C72.0257 52.4363 71.838 52.536 71.4217 52.536C71.0053 52.536 70.8176 52.4363 70.5889 52.0962C70.3368 51.7326 70.4541 51.1168 70.8176 50.8471C71.105 50.6301 71.5741 50.6066 71.9318 50.7826Z" fill="#96006D"/>
<path d="M50.2224 33.6588C48.1347 33.8406 46.1115 34.427 44.2995 35.3653C43.8948 35.5764 43.5312 35.7699 43.4961 35.8051C43.3846 35.899 43.4022 36.2274 43.5254 36.3388C43.6837 36.4854 43.8596 36.4619 44.2584 36.2391C45.6717 35.4474 47.6069 34.8258 49.372 34.5854C50.3045 34.4622 51.9875 34.4446 52.8906 34.556C56.2625 34.9548 59.2944 36.415 61.6577 38.7842C62.6487 39.7694 63.2762 40.5786 64.0855 41.9098C64.1734 42.0564 64.2145 42.074 64.4315 42.0564C64.6367 42.0388 64.6836 42.0154 64.7305 41.8805C64.9006 41.3879 64.1617 40.1916 62.8598 38.8487C60.2385 36.1511 56.7786 34.3332 53.2425 33.7996C52.4566 33.6823 50.8322 33.606 50.2224 33.6588Z" fill="#96006D"/>
<path d="M50.7309 37.1595C50.6722 37.2006 50.5256 37.5583 50.3907 37.9923C50.2617 38.4086 50.1503 38.7546 50.1445 38.7663C50.1151 38.7957 49.3176 38.9481 48.9833 38.9892L48.6608 39.0302L48.1799 38.3793C47.8867 37.9864 47.6404 37.7166 47.5642 37.699C47.4821 37.6756 47.1126 37.8046 46.5438 38.045C44.9839 38.7018 45.0308 38.6432 45.2654 39.7222C45.3768 40.2207 45.412 40.508 45.3768 40.5315C45.3416 40.5549 45.0895 40.7485 44.8138 40.9654C44.5382 41.1883 44.2802 41.3642 44.2509 41.3642C44.2157 41.3642 43.8932 41.2176 43.5296 41.0417C43.166 40.8657 42.8141 40.7191 42.7379 40.7191C42.6617 40.7191 42.5092 40.8012 42.3978 40.8951C42.0811 41.1766 41.0138 42.6192 41.0138 42.7716C41.0138 42.8479 41.219 43.1704 41.5181 43.5457L42.0283 44.1908L41.7468 44.8124C41.5944 45.1584 41.4419 45.4751 41.4067 45.5102C41.3657 45.563 41.1311 45.5865 40.5974 45.5865C39.5243 45.5865 39.6064 45.4751 39.2135 47.5041C39.0669 48.284 39.1255 48.3779 40.0521 48.759C40.3922 48.8939 40.6854 49.0405 40.7147 49.0698C40.744 49.105 40.7734 49.451 40.7851 49.8381L40.8086 50.5359L40.1342 50.9229C39.4187 51.3276 39.2897 51.4683 39.3484 51.7733C39.407 52.0841 39.9641 53.7612 40.0579 53.9079L40.1459 54.0486L41.0197 54.0075L41.8876 53.9724L42.2101 54.5177C42.3919 54.8227 42.5502 55.1159 42.5737 55.1687C42.5972 55.2332 42.4799 55.4619 42.2218 55.8431C41.7879 56.4881 41.7234 56.6875 41.8583 56.9455C41.999 57.2212 43.4768 58.6051 43.6293 58.6051C43.6996 58.6051 44.0574 58.4175 44.4209 58.1946C44.7904 57.9659 45.1129 57.7841 45.1481 57.79C45.1774 57.79 45.4706 57.9601 45.7932 58.1594C46.321 58.4937 46.3796 58.5465 46.3737 58.699C46.3737 58.7928 46.3503 59.1622 46.321 59.5258C46.274 60.165 46.2799 60.1826 46.4148 60.3175C46.5027 60.4055 46.9308 60.5755 47.5994 60.8042L48.6491 61.1502L48.8543 61.0388C49.0126 60.9508 49.1534 60.7632 49.429 60.2764L49.7985 59.6314L50.3204 59.6548C50.6019 59.6607 50.942 59.69 51.071 59.7135L51.3056 59.7487L51.5695 60.4172C51.8392 61.0857 52.0386 61.3613 52.2732 61.3613C52.4022 61.3613 54.3726 60.9743 54.5133 60.9215C54.6717 60.8629 54.7244 60.6166 54.7655 59.8249C54.7889 59.4085 54.8124 59.0743 54.8241 59.0743C54.83 59.0743 55.1349 58.9453 55.4927 58.7869L56.1436 58.4937L56.8004 59.0156C57.164 59.3088 57.5158 59.5434 57.5803 59.5434C57.6976 59.5434 59.3044 58.3823 59.5097 58.1419C59.6856 57.9425 59.6445 57.6962 59.3161 57.0159C59.152 56.6699 59.0171 56.365 59.0171 56.3298C59.0171 56.2946 59.2165 56.0131 59.4628 55.7023C59.7794 55.3035 59.9378 55.1511 60.0023 55.1687C60.3131 55.2625 61.2396 55.4384 61.4214 55.4384C61.5563 55.4384 61.6736 55.3974 61.7264 55.3329C61.9023 55.1276 62.7116 53.3566 62.7116 53.1748C62.7116 52.9227 62.5767 52.7702 61.9551 52.3304L61.4156 51.9492L61.4507 51.6267C61.4683 51.4507 61.527 51.1047 61.5856 50.8643L61.6853 50.4304L62.2835 50.272C62.606 50.1899 62.9579 50.0844 63.0634 50.0433C63.3918 49.9084 63.4094 49.8381 63.3566 48.6242C63.298 47.1464 63.3273 47.1874 62.1955 46.9998C61.8261 46.9353 61.5152 46.8707 61.4977 46.8532C61.4566 46.8121 61.2865 46.3195 61.1517 45.8328L61.052 45.4575L61.6443 44.8652C61.9785 44.5309 62.2424 44.2142 62.2424 44.1556C62.2424 44.0149 61.3276 42.3963 61.1047 42.1442C60.8878 41.892 60.6825 41.892 59.926 42.1559C59.6035 42.2673 59.2986 42.3611 59.2516 42.3611C59.1989 42.3611 58.9408 42.1383 58.6711 41.8685C58.1081 41.3056 58.1257 41.417 58.4658 40.4846C58.7297 39.7398 58.718 39.6284 58.331 39.3469C57.985 39.0947 56.5189 38.2562 56.4309 38.2562C56.3899 38.2562 56.0791 38.5318 55.739 38.8719L55.1115 39.4876L54.4195 39.2589C54.0383 39.1299 53.7216 39.0185 53.7099 39.0068C53.7041 39.0009 53.6513 38.6725 53.5926 38.2855C53.4402 37.1889 53.4519 37.2006 52.2908 37.1361C51.0651 37.0716 50.8423 37.0716 50.7309 37.1595ZM52.6895 37.9688C52.754 38.004 52.801 38.1741 52.8479 38.5611C52.9417 39.2883 53.0121 39.517 53.1763 39.6284C53.3581 39.7457 55.0059 40.2559 55.2229 40.2617C55.3578 40.2676 55.4927 40.162 55.9266 39.7339C56.2257 39.4349 56.5072 39.1944 56.5541 39.1944C56.601 39.1944 56.7535 39.2707 56.8825 39.3586C57.0174 39.4466 57.2871 39.6167 57.4806 39.7339L57.8384 39.9509L57.6097 40.6136C57.4806 40.9772 57.3751 41.3583 57.3751 41.4522C57.3751 41.6046 57.4982 41.7512 58.155 42.408C58.5831 42.8361 58.9878 43.1939 59.0523 43.1939C59.1109 43.1997 59.4862 43.1 59.885 42.9769C60.2779 42.8537 60.6122 42.7658 60.618 42.7775C60.6767 42.8479 61.3041 43.9269 61.3335 44.0031C61.3569 44.0676 61.1868 44.2729 60.8057 44.6365C60.401 45.0352 60.2486 45.217 60.2486 45.3226C60.2486 45.4047 60.3659 45.8856 60.5125 46.3957C60.706 47.0467 60.8233 47.3575 60.923 47.4572C61.0402 47.5745 61.1927 47.6214 61.785 47.7211L62.5063 47.8442L62.5474 48.1667C62.5649 48.3427 62.5825 48.6945 62.5884 48.9408L62.5943 49.3924L62.348 49.4569C62.2072 49.4921 62.0313 49.5448 61.9492 49.5742C61.8671 49.6035 61.656 49.668 61.4742 49.7149C61.2924 49.7677 61.1106 49.8498 61.0637 49.9026C60.9875 49.9964 60.876 50.4421 60.6825 51.4859C60.5476 52.2072 60.577 52.2776 61.2807 52.7995C61.5798 53.0224 61.8378 53.2276 61.8495 53.2511C61.8671 53.2745 61.7381 53.5971 61.568 53.9606C61.3335 54.4474 61.2279 54.6174 61.1458 54.6174C61.0872 54.6116 60.7412 54.5529 60.3717 54.4767C60.0023 54.4005 59.668 54.3477 59.627 54.3653C59.5507 54.3946 58.5655 55.5498 58.3251 55.89C58.1257 56.1715 58.1609 56.4119 58.4893 57.098C58.6535 57.4381 58.7825 57.7196 58.7825 57.7372C58.7825 57.7489 58.6418 57.8662 58.4776 57.9894C58.3075 58.1184 58.0436 58.3236 57.8853 58.4468C57.5686 58.7107 57.5862 58.7165 57.0525 58.224C56.8942 58.0773 56.642 57.8897 56.5013 57.8017L56.2433 57.6434L55.9501 57.7489C55.7917 57.8076 55.3109 58.0187 54.8769 58.224C53.9855 58.652 54.0559 58.5348 54.009 59.5962C53.9973 59.9304 53.9621 60.2237 53.9328 60.2471C53.9093 60.2764 53.6337 60.3409 53.3287 60.3937C53.0238 60.4406 52.7013 60.4993 52.6192 60.5169C52.4667 60.5462 52.4491 60.5169 52.1852 59.8835C52.0327 59.52 51.8568 59.1681 51.7982 59.1095C51.7102 59.0156 51.546 58.9804 50.8833 58.9159C49.6753 58.8104 49.558 58.8162 49.3528 58.9863C49.2531 59.0684 49.0361 59.3851 48.866 59.69C48.7018 59.995 48.5318 60.2471 48.4966 60.2471C48.4086 60.2471 47.2827 59.9011 47.1713 59.8425C47.1244 59.8132 47.0892 59.7428 47.095 59.6842C47.1009 59.6196 47.1244 59.2678 47.1478 58.8983C47.183 58.2885 47.1771 58.2122 47.0774 58.0949C46.9191 57.9131 45.2947 56.9455 45.1364 56.9455C45.066 56.9455 44.7141 57.1273 44.3564 57.3443L43.7055 57.7431L43.1777 57.2212C42.8904 56.9338 42.6558 56.6817 42.6558 56.6582C42.6558 56.6289 42.8317 56.3298 43.0428 55.9897C43.2598 55.6495 43.4357 55.3094 43.4357 55.2332C43.4357 55.1569 43.2129 54.7054 42.9373 54.2245C42.3098 53.1162 42.3098 53.122 41.3363 53.2159C40.9552 53.2511 40.6326 53.2569 40.6092 53.2335C40.5505 53.169 40.1928 51.9727 40.1928 51.8554C40.1928 51.8085 40.4332 51.6443 40.7675 51.4625C41.0842 51.2983 41.395 51.1106 41.4478 51.0461C41.6002 50.876 41.6237 50.5652 41.5474 49.5683C41.4888 48.8294 41.4595 48.6476 41.3657 48.5538C41.307 48.4951 40.9728 48.3192 40.6209 48.1609C40.2749 48.0084 39.9817 47.8442 39.9758 47.8032C39.9641 47.7621 40.0169 47.422 40.0931 47.0525L40.2221 46.3781L40.961 46.3488C41.7996 46.3136 41.9169 46.2667 42.1163 45.8738C42.4271 45.2522 42.8317 44.2612 42.8317 44.1263C42.8259 44.0266 42.6675 43.7686 42.3626 43.3874C42.1046 43.0648 41.8934 42.7892 41.8934 42.7716C41.8934 42.713 42.7907 41.5988 42.8434 41.5988C42.8669 41.5988 43.1543 41.7278 43.4768 41.892C44.0867 42.1969 44.3154 42.2438 44.5793 42.1031C44.8608 41.9565 46.1392 40.9009 46.1861 40.7778C46.2095 40.7133 46.1685 40.338 46.0864 39.9157C46.0043 39.4994 45.9398 39.1651 45.9398 39.1592C45.9398 39.1358 47.3531 38.5376 47.3707 38.5552C47.3765 38.567 47.5876 38.8484 47.8339 39.171C48.0802 39.4994 48.3207 39.7809 48.3793 39.8043C48.479 39.8454 49.9451 39.646 50.3614 39.5404C50.637 39.4642 50.8247 39.2707 50.9068 38.9775C50.942 38.8543 51.03 38.5494 51.1003 38.3031L51.2352 37.8515L51.9155 37.8867C52.2908 37.9043 52.6368 37.9395 52.6895 37.9688Z" fill="#96006D"/>
<path d="M50.25 43.0299C47.7401 43.4404 45.6759 45.405 45.1481 47.8855C44.4913 50.9701 46.2271 54.0547 49.212 55.1162C50.7954 55.6733 52.7189 55.5267 54.1908 54.735C56.6362 53.4155 57.9205 50.7297 57.4044 48.0087C56.9587 45.663 55.1643 43.763 52.8303 43.1531C52.109 42.9654 50.9654 42.9127 50.25 43.0299ZM52.6544 43.8803C54.6365 44.4022 56.1905 46.0324 56.6538 48.0673C56.8004 48.7124 56.7828 49.8207 56.6245 50.4834C55.9501 53.2162 53.2466 55.0693 50.5256 54.6529C49.3176 54.4711 48.3324 54.002 47.4997 53.2162C46.3737 52.1489 45.758 50.7063 45.7638 49.1464C45.7756 46.5602 47.6815 44.2849 50.25 43.7923C50.8364 43.6809 52.0503 43.7219 52.6544 43.8803Z" fill="#96006D"/>
<path d="M37.5541 40.3032C36.393 40.5553 35.8534 41.9041 36.5278 42.8834L36.7214 43.1649L36.5747 43.4816C35.0266 46.7949 34.9152 51.1227 36.2698 55.0107C36.6393 56.0663 36.7272 56.2012 37.0204 56.2012C37.167 56.2012 37.4016 55.9373 37.3606 55.8083C37.343 55.7496 37.1964 55.3215 37.038 54.8524C35.8945 51.5156 35.7948 48.0147 36.7624 45.1001C36.9031 44.672 37.0908 44.156 37.1846 43.9507L37.3547 43.5754L37.8766 43.5696C38.3399 43.5637 38.4396 43.5461 38.6742 43.4054C38.9674 43.2294 39.2488 42.9421 39.413 42.6371C39.5714 42.3498 39.5597 41.5288 39.3896 41.2121C39.0377 40.5553 38.2343 40.1566 37.5541 40.3032ZM38.4103 41.1945C38.7856 41.4232 38.9087 42.0449 38.6507 42.426C38.1405 43.1942 36.909 42.7896 36.9852 41.8748C37.0146 41.5229 37.1612 41.3177 37.5013 41.1418C37.8004 40.9834 38.0995 41.001 38.4103 41.1945Z" fill="#96006D"/>
<path d="M66.4062 46.3021C65.4679 46.4252 64.7232 47.0879 64.4593 48.0379C64.1895 49.0172 64.4827 50.0728 65.1864 50.6475C65.4445 50.8586 66.0368 51.1577 66.201 51.1577C66.3241 51.1577 66.3124 51.3453 66.1423 52.1898C65.0047 57.8195 60.8586 62.2939 55.3814 63.8186C54.2086 64.147 53.3113 64.2877 51.7456 64.3874C51.4054 64.4109 51.0829 64.4519 51.0301 64.4813C50.8894 64.5516 50.8894 64.9504 51.0243 65.0618C51.2061 65.2143 53.0416 65.097 54.32 64.8448C60.2546 63.6896 64.9812 59.3324 66.6115 53.5092C66.7757 52.9228 67.0513 51.5799 67.0513 51.3746C67.0513 51.2515 67.0865 51.228 67.28 51.1929C67.9309 51.0932 68.6288 50.624 68.9454 50.0904C69.4028 49.3046 69.3911 48.12 68.9103 47.3635C68.5643 46.8181 67.9251 46.39 67.3504 46.3197C67.2038 46.3021 67.0161 46.2786 66.934 46.2669C66.8519 46.261 66.6173 46.2727 66.4062 46.3021ZM67.2565 47.082C67.7843 47.2228 68.0951 47.4808 68.3883 48.0203C68.6112 48.4367 68.6112 49.0641 68.3883 49.4864C68.2065 49.8382 67.8781 50.1607 67.5322 50.3425C67.1334 50.5419 66.5059 50.5185 66.025 50.2839C64.6469 49.6036 64.8815 47.4397 66.3652 47.0761C66.7757 46.9765 66.8519 46.9765 67.2565 47.082Z" fill="#96006D"/>
<path d="M37.7659 56.5291C36.8335 56.7519 35.8952 57.526 35.4495 58.435C35.1739 58.998 35.0918 59.3615 35.0918 60.0183C35.0918 60.64 35.1739 61.0094 35.4554 61.5958C35.9069 62.5341 36.8745 63.3199 37.8363 63.5252C38.2702 63.6131 39.0971 63.6073 39.531 63.5017C40.786 63.2085 41.824 62.1705 42.1582 60.8863C42.3693 60.077 42.2345 58.998 41.824 58.2649C41.5718 57.8134 40.8388 57.0921 40.3872 56.8575C39.6366 56.4646 38.581 56.3297 37.7659 56.5291ZM39.4196 57.2856C40.7039 57.5905 41.4897 58.6168 41.5014 60.0125C41.519 61.6662 40.3344 62.8273 38.6455 62.8273C37.3085 62.8273 36.1943 61.9829 35.9128 60.7572C35.8307 60.3937 35.8424 59.5023 35.9363 59.1446C36.3057 57.7665 37.889 56.922 39.4196 57.2856Z" fill="#96006D"/>
</g>
<defs>
<clipPath id="clip0_577_161">
<rect width="45.7999" height="41.2257" fill="white" transform="translate(27.9961 26)"/>
</clipPath>
</defs>
</svg>
