<svg width="35" height="47" viewBox="0 0 35 47" fill="none" xmlns="http://www.w3.org/2000/svg">
<path d="M13.8611 0.271262C12.5927 0.756677 11.6062 2.02502 11.2774 3.62219C11.1835 4.06063 11.1678 4.06063 9.8055 4.07629C8.25531 4.09194 7.73858 4.15458 7.5037 4.38946C7.4254 4.46775 7.3158 5.10975 7.28448 5.78307L7.2375 7.03575H3.90224C1.06804 7.03575 0.519992 7.06706 0.316431 7.28628C0.097212 7.5055 0.0658949 9.08702 0.0815535 22.4281V37.335L4.0275 40.8895L7.97345 44.444L13.2817 44.4596H18.5743L19.3102 44.992C21.6747 46.7145 24.6185 47.3565 27.3117 46.7145C30.0676 46.0725 32.5417 44.0995 33.7317 41.6098C34.4051 40.2162 34.8278 38.5877 34.8278 37.3663C34.8278 35.6439 34.1075 33.3108 33.1367 31.9015C32.6043 31.1342 31.5082 29.9912 30.9602 29.631L30.6 29.3961V18.4038C30.6 10.0578 30.5531 7.36458 30.4121 7.22365C30.2712 7.08272 29.2534 7.03575 26.8107 7.03575H23.3971V5.78307C23.3971 4.12326 23.2562 4.01365 21.0483 4.09194C19.5451 4.13892 19.4825 4.12326 19.4825 3.81009C19.4825 3.05848 18.9344 1.93107 18.2298 1.24209C17.0554 0.0520428 15.3956 -0.308103 13.8611 0.271262ZM16.6796 1.91541C17.5721 2.51043 17.9323 3.21507 17.901 4.24853C17.854 5.5795 17.9323 5.62648 20.0462 5.62648H21.8313V7.5055V9.38453H15.333H8.83467V7.5055V5.62648H10.698C12.8746 5.62648 12.9685 5.56385 12.8276 4.42077C12.5614 2.36951 14.9885 0.772335 16.6796 1.91541ZM7.30014 9.38453C7.25316 9.93258 7.3158 10.2927 7.48804 10.5589L7.73858 10.9504H15.333C24.0078 10.9504 23.3971 11.06 23.3971 9.52545V8.6016H26.2156H29.0342L29.0498 15.0529C29.0812 22.0523 29.0812 26.374 29.0498 27.658L29.0342 28.4723L28.1416 28.1434C26.8263 27.6737 24.3523 27.5797 22.8804 27.9399C20.1245 28.6132 17.6974 30.5392 16.523 33.0446C15.1607 35.8944 15.1294 38.5094 16.3821 41.3279C16.6326 41.876 16.9458 42.4553 17.0867 42.6119C17.3216 42.8781 17.1494 42.8938 12.7023 42.8938H8.05175V40.0752V37.2567H4.84175H1.63175V22.9292V8.6016H4.49726H7.34711L7.30014 9.38453ZM26.3722 29.2709C27.8911 29.5057 29.7388 30.4766 30.8819 31.6353C33.3559 34.125 33.9353 37.7578 32.3694 40.9521C31.9936 41.7194 30.8349 43.207 30.6157 43.207C30.5531 43.207 30.3652 42.9094 30.1773 42.5336C29.1125 40.3571 26.6071 38.7913 24.5872 39.0418C22.8334 39.2453 21.0327 40.5763 19.9522 42.471L19.5295 43.2226L18.9501 42.5493C18.6213 42.1735 18.1202 41.3749 17.8227 40.7486C16.3038 37.6169 16.9615 33.9841 19.4825 31.557C20.6412 30.4296 22.0505 29.6467 23.4597 29.3492C24.6498 29.083 25.0882 29.083 26.3722 29.2709ZM26.153 40.8112C27.5623 41.281 29.5666 43.755 29.0342 44.3813C28.9246 44.5066 28.2513 44.8041 27.5153 45.0233C26.3722 45.3835 26.0121 45.4305 24.7594 45.3522C23.3658 45.2739 21.7999 44.8511 21.1423 44.3813C20.8917 44.1934 20.8917 44.1308 21.2206 43.4888C21.7216 42.5023 22.2697 41.829 22.99 41.3436C24.1957 40.5137 24.9316 40.3884 26.153 40.8112Z" fill="#00194C"/>
<path d="M14.6293 3.08966C14.0812 3.65337 14.0342 4.02917 14.4883 4.59288C14.7232 4.89039 14.9581 5 15.3496 5C16.7588 5 16.9311 3.04268 15.5375 2.71385C15.193 2.63556 15.0207 2.71385 14.6293 3.08966Z" fill="#00194C"/>
<path d="M5.53145 14.2545C5.40618 14.5051 5.40618 14.693 5.53145 14.9592L5.7037 15.335H15.3024C22.5523 15.335 24.948 15.288 25.089 15.1471C25.1986 15.0374 25.2769 14.8182 25.2769 14.6303C25.2769 14.4424 25.1986 14.2232 25.089 14.1136C24.948 13.9727 22.5679 13.9257 15.3024 13.9257H5.71935L5.53145 14.2545Z" fill="#00194C"/>
<path d="M5.67245 19.1243C5.31231 19.4845 5.31231 19.7663 5.67245 20.0795C5.93865 20.3144 6.84684 20.3457 15.4277 20.3457C22.5837 20.3457 24.9481 20.2987 25.089 20.1578C25.1986 20.0482 25.2769 19.8133 25.2769 19.6254C25.2769 18.8425 25.4335 18.8581 15.3494 18.8581C6.59631 18.8581 5.92299 18.8738 5.67245 19.1243Z" fill="#00194C"/>
<path d="M5.63969 23.8216C5.32652 24.2757 5.32652 24.354 5.70233 24.7298C6.0155 25.043 6.21906 25.043 15.301 25.043C23.4434 25.043 24.6178 25.0117 24.931 24.7924C25.3381 24.5106 25.3694 24.0721 25.025 23.7277C24.8057 23.5084 23.7096 23.4771 15.3323 23.4771H5.87457L5.63969 23.8216Z" fill="#00194C"/>
<path d="M7.97295 28.4407C6.1409 28.4877 5.74944 28.5347 5.59285 28.7539C5.32666 29.0984 5.34232 29.3489 5.63983 29.6464C5.84339 29.8657 6.48539 29.897 10.2591 29.897H14.6278L14.8001 29.5212C14.9253 29.255 14.9253 29.0671 14.8001 28.8479C14.6122 28.472 13.4378 28.3155 11.4335 28.3624C10.7288 28.3781 9.17866 28.4251 7.97295 28.4407Z" fill="#00194C"/>
<path d="M5.63969 33.2166C5.32652 33.6707 5.32652 33.749 5.70233 34.1248C5.99984 34.4223 6.21906 34.438 9.66394 34.438C13.1401 34.438 13.3437 34.4223 13.6099 34.1248C13.8448 33.8743 13.8761 33.7177 13.7508 33.3732L13.6099 32.9504L9.74223 32.9035C5.89023 32.8721 5.87457 32.8721 5.63969 33.2166Z" fill="#00194C"/>
<path d="M23.4752 31.0092C22.019 31.7765 21.3613 32.8569 21.3613 34.4541C21.3613 35.284 21.4396 35.5972 21.8311 36.2705C22.8802 38.0869 25.135 38.6976 26.9358 37.6484C29.1906 36.3331 29.4568 33.358 27.4838 31.5729C26.4504 30.6334 24.6653 30.3829 23.4752 31.0092ZM26.5286 32.8569C27.2959 33.5929 27.4368 34.3288 27.0141 35.284C26.5286 36.4114 25.2133 36.9281 24.1955 36.3958C23.3969 35.9886 22.9272 35.284 22.9272 34.5011C22.9272 33.2954 23.5222 32.4968 24.587 32.2776C25.4639 32.0897 25.8553 32.2149 26.5286 32.8569Z" fill="#00194C"/>
</svg>
