<svg width="105" height="91" viewBox="0 0 105 91" fill="none" xmlns="http://www.w3.org/2000/svg">
<rect width="104.744" height="91" rx="10" fill="#FFD978"/>
<path d="M42.725 26.2554C42.0542 26.5855 41.6282 26.9902 41.2875 27.6503L41 28.1828V45.9652V63.7476L41.2875 64.2906C41.6176 64.9189 42.1819 65.4513 42.8208 65.7388C43.2574 65.9304 43.6833 65.9304 52.6278 65.9091C61.338 65.8772 61.9981 65.8665 62.3176 65.6855C62.9032 65.3661 63.4144 64.855 63.7125 64.2906L64 63.7476V45.9652V28.1828L63.7444 27.7036C63.425 27.086 62.9352 26.5749 62.4028 26.2874L61.9769 26.0531L52.6065 26.0318L43.2361 25.9999L42.725 26.2554ZM46.0579 27.0647C46.0579 27.4374 46.2921 27.7888 46.6329 27.9378C46.8884 28.0443 48.1556 28.0763 52.5 28.0763C56.8444 28.0763 58.1116 28.0443 58.3671 27.9378C58.7079 27.7888 58.9421 27.4374 58.9421 27.054C58.9421 26.8411 58.9954 26.8411 60.4222 26.873C61.9023 26.905 61.9023 26.905 62.3069 27.2351C62.5306 27.4161 62.8287 27.7675 62.9565 28.023L63.2014 28.4809V45.9652V63.4494L62.9565 63.9073C62.8287 64.1628 62.5306 64.5142 62.3069 64.6953L61.9023 65.0253H52.5H43.0977L42.6824 64.6953C42.4588 64.5249 42.1713 64.1628 42.0435 63.8966L41.8093 63.4281L41.7986 45.9971C41.7986 29.173 41.8093 28.5554 42.0009 28.1082C42.1074 27.8527 42.3097 27.5439 42.4481 27.4161C42.9912 26.9263 43.2681 26.8517 44.7056 26.8517C45.9727 26.8517 46.0579 26.8624 46.0579 27.0647Z" fill="#7C5900" stroke="#7C5900" stroke-width="0.8"/>
<path d="M51.4355 39.0546C49.7318 39.4167 48.7202 39.9491 47.6021 41.0671C44.8123 43.8463 44.8123 48.0842 47.6021 50.8634C48.9438 52.2051 50.2642 52.8014 52.1808 52.9079C54.1933 53.025 55.9183 52.3541 57.3984 50.8634C58.7401 49.5217 59.3364 48.2014 59.4429 46.2847C59.56 44.2722 58.8892 42.5472 57.3984 41.0671C56.4188 40.0768 55.4605 39.5231 54.1933 39.2037C53.4373 39.012 52.0318 38.9375 51.4355 39.0546ZM54.5234 40.162C56.8873 41.0565 58.4526 43.1116 58.591 45.5393C58.6656 46.7958 58.5058 47.5731 57.9628 48.6805C57.3558 49.9157 56.4507 50.8208 55.2156 51.4278C54.1081 51.9708 53.3308 52.1305 52.0743 52.056C49.8808 51.9282 48.0174 50.6717 47.0165 48.6486C46.4947 47.5731 46.335 46.7852 46.4095 45.5393C46.4947 44.1018 47.0697 42.7815 48.0706 41.7167C48.8054 40.9393 50.3281 40.0981 51.3822 39.9065C51.5313 39.8852 52.1489 39.8745 52.7665 39.8958C53.597 39.9171 54.0443 39.9917 54.5234 40.162Z" fill="#7C5900" stroke="#7C5900"/>
<path d="M52.1268 42.0788C52.1268 42.4514 52.0949 42.5047 51.8393 42.5686C50.5828 42.8348 49.9972 43.4311 49.9972 44.4214C49.9972 45.007 50.2314 45.4862 50.668 45.7737C50.849 45.9014 51.605 46.1783 52.3398 46.3913C53.0638 46.5936 53.7453 46.8491 53.8518 46.945C54.1606 47.2218 54.0967 47.7436 53.7134 48.1056C53.4152 48.3931 53.33 48.4144 52.606 48.4144C51.5944 48.4144 51.1578 48.1269 50.9129 47.2857C50.881 47.1473 50.7745 47.126 50.3805 47.1899C50.1037 47.2325 49.8588 47.2964 49.8268 47.3283C49.7203 47.4348 50.1037 48.3079 50.3805 48.6061C50.7 48.9575 51.1365 49.1917 51.6689 49.2982C52.0523 49.3727 52.0736 49.4047 52.1055 49.8306C52.1375 50.2672 52.1481 50.2778 52.5101 50.2778C52.8615 50.2778 52.8722 50.2672 52.8722 49.8519C52.8722 49.4792 52.9041 49.426 53.1703 49.3621C54.0967 49.1598 54.725 48.7339 55.0125 48.1056C55.4064 47.2431 55.1828 46.3593 54.4588 45.9227C54.2777 45.8163 53.5217 45.5501 52.787 45.3264C52.0416 45.1135 51.3495 44.8579 51.2537 44.7621C50.9768 44.5278 51.0194 44.0806 51.3388 43.7718C51.5731 43.5482 51.7115 43.5163 52.393 43.5163C53.1171 43.5163 53.2023 43.5376 53.5004 43.8251C53.6814 44.0061 53.8305 44.2297 53.8305 44.3362C53.8305 44.5172 53.8838 44.5278 54.3416 44.4639C54.6185 44.432 54.874 44.3788 54.9166 44.3575C54.9592 44.3255 54.9166 44.0913 54.8208 43.8357C54.6291 43.2607 54.2032 42.9093 53.4578 42.6857C52.9361 42.5366 52.9254 42.526 52.8935 42.1001C52.8615 41.6635 52.8509 41.6528 52.4888 41.6528C52.1375 41.6528 52.1268 41.6635 52.1268 42.0788Z" fill="#7C5900" stroke="#7C5900" stroke-width="0.4"/>
</svg>
