<svg width="105" height="91" viewBox="0 0 105 91" fill="none" xmlns="http://www.w3.org/2000/svg">
<rect width="104.744" height="91" rx="10" fill="#93E7FE"/>
<path d="M41.1749 27.3203C40.7845 27.5016 40.2687 27.8919 40.0038 28.1847C39.0279 29.3 39.0836 28.6587 39.0418 39.6447L39 49.585H41.6628H44.3117V48.8739C44.3117 48.2605 44.3675 48.1072 44.7718 47.7029C45.5804 46.8942 46.389 46.8942 47.1976 47.7029C47.6019 48.1072 47.6577 48.2605 47.6577 48.8739V49.585H49.6792H51.7007V49.097C51.7007 47.6192 52.9276 46.713 54.1266 47.2846C54.7539 47.5774 54.9491 47.912 55.0467 48.8182L55.1164 49.5153L57.7235 49.5571L60.3445 49.585L60.3724 42.9349L60.4142 36.2708L62.7564 36.229L65.0985 36.2011L65.0567 32.7297L65.0149 29.2722L64.5966 28.589C64.3596 28.2265 63.8996 27.7246 63.565 27.4876L62.9655 27.0694L52.4257 27.0276L41.872 26.9997L41.1749 27.3203ZM58.56 38.1111C58.546 43.2416 58.5042 47.5077 58.4624 47.5913C58.4206 47.7029 58.1278 47.7726 57.6538 47.7726H56.9009L56.4269 46.9779C55.7717 45.8765 54.9212 45.3607 53.6525 45.291C53.1228 45.2631 52.4815 45.3049 52.2166 45.3886C51.5334 45.6116 50.5436 46.5178 50.2369 47.201C50.0556 47.6192 49.9023 47.7726 49.6792 47.7726C49.4561 47.7726 49.3028 47.6192 49.1216 47.201C48.8009 46.4899 47.8389 45.6395 47.1279 45.4304C46.3332 45.1934 45.1622 45.2352 44.5208 45.528C43.8795 45.8207 42.9594 46.7827 42.7503 47.3683C42.6109 47.7726 42.583 47.7865 41.7465 47.7447L40.896 47.7029V38.8918C40.896 30.2062 40.896 30.0808 41.1888 29.6904C41.8441 28.7842 41.5931 28.8121 50.5157 28.8121H58.6018L58.56 38.1111ZM62.7424 29.2164L63.2025 29.6207V31.9768V34.319L61.7805 34.3608L60.3445 34.4026V32.1581C60.3445 30.7778 60.4002 29.788 60.4978 29.6068C60.944 28.7284 61.9896 28.5472 62.7424 29.2164Z" fill="#005870"/>
<path d="M45.5234 34.4864C45.4676 34.5282 45.4258 34.9464 45.4258 35.3926V36.2012H49.6779H53.9441L53.9022 35.3229L53.8604 34.4585L49.7337 34.4167C47.4752 34.4027 45.5791 34.4306 45.5234 34.4864Z" fill="#005870"/>
<path d="M45.666 38.655C45.6102 38.7108 45.5684 39.1291 45.5684 39.5752V40.3838H48.0778H50.6013L50.5594 39.5055L50.5176 38.6411L48.1336 38.5993C46.837 38.5853 45.7217 38.6132 45.666 38.655Z" fill="#005870"/>
<path d="M39.0697 51.8715C39.0279 51.9831 39.014 53.9488 39.0419 56.2352C39.0837 60.2643 39.0976 60.4037 39.4183 61.059C39.8226 61.8676 40.7567 62.718 41.4956 62.9411C41.8859 63.0666 44.256 63.1084 49.8047 63.1084C57.3889 63.1084 57.5701 63.1084 58.1836 62.8156C58.5182 62.6623 59.034 62.2719 59.3128 61.9652C60.2748 60.8917 60.2748 60.8778 60.2748 56.0679V51.7461H59.4383H58.6018L58.5321 56.0261L58.4624 60.2922L58.1139 60.6826C57.4028 61.4354 57.4586 61.4354 49.6514 61.4354C41.6907 61.4354 41.8441 61.4494 41.1888 60.5571C40.91 60.1807 40.8961 59.9297 40.8264 55.9564L40.7567 51.7461L39.948 51.7042C39.3486 51.6763 39.1255 51.7182 39.0697 51.8715Z" fill="#005870"/>
<path d="M48.6749 55.7194C47.4759 56.4443 47.5456 58.2846 48.7864 58.9538C50.0551 59.6369 51.5608 58.7447 51.5608 57.3227C51.5608 55.8449 49.9435 54.9387 48.6749 55.7194Z" fill="#005870"/>
</svg>
