<svg width="42" height="76" viewBox="0 0 42 76" fill="none" xmlns="http://www.w3.org/2000/svg">
<rect x="2" y="2" width="38" height="72" rx="4" stroke="#7C5900" stroke-width="3"/>
<rect x="10" y="2" width="22" height="3" rx="1" fill="#7C5900" stroke="#7C5900"/>
<path d="M22.5 33L22.5 31.2857L22.5 29L22 29L21.5 29L21.5 31.2857L21.5 33L22 33L22.5 33Z" fill="#7C5900" stroke="#7C5900"/>
<path d="M22.5 46L22.5 44.7143L22.5 43L22 43L21.5 43L21.5 44.7143L21.5 46L22 46L22.5 46Z" fill="#7C5900" stroke="#7C5900"/>
<circle cx="21.5" cy="37.5" r="11.5" stroke="#7C5900" stroke-width="2"/>
<path d="M21.7028 43.24C20.5961 43.24 19.6228 42.9667 18.7828 42.42C17.9561 41.8733 17.3761 41.14 17.0428 40.22L18.7828 39.4C19.0761 40.0133 19.4761 40.5 19.9828 40.86C20.5028 41.22 21.0761 41.4 21.7028 41.4C22.2361 41.4 22.6695 41.28 23.0028 41.04C23.3361 40.8 23.5028 40.4733 23.5028 40.06C23.5028 39.7933 23.4295 39.58 23.2828 39.42C23.1361 39.2467 22.9495 39.1067 22.7228 39C22.5095 38.8933 22.2895 38.8133 22.0628 38.76L20.3628 38.28C19.4295 38.0133 18.7295 37.6133 18.2628 37.08C17.8095 36.5333 17.5828 35.9 17.5828 35.18C17.5828 34.5267 17.7495 33.96 18.0828 33.48C18.4161 32.9867 18.8761 32.6067 19.4628 32.34C20.0495 32.0733 20.7095 31.94 21.4428 31.94C22.4295 31.94 23.3095 32.1867 24.0828 32.68C24.8561 33.16 25.4028 33.8333 25.7228 34.7L23.9828 35.52C23.7695 35 23.4295 34.5867 22.9628 34.28C22.5095 33.9733 21.9961 33.82 21.4228 33.82C20.9295 33.82 20.5361 33.94 20.2428 34.18C19.9495 34.4067 19.8028 34.7067 19.8028 35.08C19.8028 35.3333 19.8695 35.5467 20.0028 35.72C20.1361 35.88 20.3095 36.0133 20.5228 36.12C20.7361 36.2133 20.9561 36.2933 21.1828 36.36L22.9428 36.88C23.8361 37.1333 24.5228 37.5333 25.0028 38.08C25.4828 38.6133 25.7228 39.2533 25.7228 40C25.7228 40.64 25.5495 41.2067 25.2028 41.7C24.8695 42.18 24.4028 42.56 23.8028 42.84C23.2028 43.1067 22.5028 43.24 21.7028 43.24Z" fill="#7C5900"/>
</svg>
