<svg width="192" height="160" viewBox="0 0 192 160" fill="none" xmlns="http://www.w3.org/2000/svg">
<mask id="path-1-inside-1_658_170" fill="white">
<path d="M8 120C8 118.895 8.89543 118 10 118H41C42.1046 118 43 118.895 43 120V160H8V120Z"/>
</mask>
<path d="M8 120C8 118.895 8.89543 118 10 118H41C42.1046 118 43 118.895 43 120V160H8V120Z" stroke="#002266" stroke-width="20" mask="url(#path-1-inside-1_658_170)"/>
<mask id="path-2-inside-2_658_170" fill="white">
<path d="M56 89C56 87.8954 56.8954 87 58 87H89C90.1046 87 91 87.8954 91 89V160H56V89Z"/>
</mask>
<path d="M56 89C56 87.8954 56.8954 87 58 87H89C90.1046 87 91 87.8954 91 89V160H56V89Z" stroke="#002266" stroke-width="20" mask="url(#path-2-inside-2_658_170)"/>
<mask id="path-3-inside-3_658_170" fill="white">
<path d="M104 64C104 62.8954 104.895 62 106 62H137C138.105 62 139 62.8954 139 64V160H104V64Z"/>
</mask>
<path d="M104 64C104 62.8954 104.895 62 106 62H137C138.105 62 139 62.8954 139 64V160H104V64Z" stroke="#002266" stroke-width="20" mask="url(#path-3-inside-3_658_170)"/>
<mask id="path-4-inside-4_658_170" fill="white">
<path d="M152 39C152 37.8954 152.895 37 154 37H185C186.105 37 187 37.8954 187 39V160H152V39Z"/>
</mask>
<path d="M152 39C152 37.8954 152.895 37 154 37H185C186.105 37 187 37.8954 187 39V160H152V39Z" stroke="#002266" stroke-width="20" mask="url(#path-4-inside-4_658_170)"/>
<mask id="path-5-inside-5_658_170" fill="white">
<rect y="152" width="192" height="8" rx="1"/>
</mask>
<rect y="152" width="192" height="8" rx="1" stroke="#002266" stroke-width="8" mask="url(#path-5-inside-5_658_170)"/>
<path d="M142.273 5.6022L122.467 3.41073C122.565 3.23405 122.716 3.0204 122.923 2.78552C122.989 2.71123 123.056 2.63902 123.125 2.56947L153.416 4.80404L153.597 4.81736L153.777 4.80451C155.034 4.71517 155.61 4.96279 155.849 5.12069C156.063 5.26291 156.252 5.49437 156.377 5.96206C156.665 7.03551 156.419 8.66834 155.94 9.98843L143.396 35.5391C142.968 35.9809 142.676 36.1648 142.527 36.2383C142.413 36.1258 142.238 35.9041 142.046 35.5268C141.921 35.2814 141.811 35.0147 141.72 34.7476L147.834 17.5911L150.094 11.2497L144.242 14.5791L12.3634 89.6212L11.443 88.0936L143.27 10.2397L149.726 6.42677L142.273 5.6022Z" stroke="#002266" stroke-width="5"/>
</svg>
