<svg width="100" height="90" viewBox="0 0 100 90" fill="none" xmlns="http://www.w3.org/2000/svg">
<rect width="99.4551" height="90" rx="10" fill="#FAA9E4"/>
<mask id="path-2-inside-1_586_211" fill="white">
<path d="M38.0144 26.5215C37.5816 26.9713 37.4915 27.1872 37.4915 27.9608V28.8784H36.8964C36.4997 28.8784 36.1571 29.0223 35.9407 29.2562C35.6162 29.616 35.5981 30.0838 35.544 38.6476C35.508 43.6132 35.4719 47.6972 35.4358 47.7152C35.3998 47.7511 34.5883 47.985 33.5966 48.2189C32.5147 48.5068 31.6672 48.8306 31.4147 49.0645L31 49.4423V55.6493V61.8383L31.5229 62.36L32.0458 62.8818H39.3488C45.678 62.8818 46.7418 62.9177 47.3369 63.1696C48.527 63.6734 50.7269 63.7094 52.0432 63.2596C53.053 62.9177 53.5759 62.8818 57.0561 62.8818C60.6985 62.8818 60.951 62.8638 61.2936 62.5219C61.564 62.2521 61.6542 61.9282 61.6542 61.2086V60.273H63.1509C64.4852 60.273 64.7737 60.2011 66.036 59.6074C67.6769 58.8157 69.2096 57.7003 69.2276 57.2865C69.2276 56.7108 68.7227 56.8007 67.767 57.5204C66.5769 58.4199 64.6475 59.3375 64.5754 59.0496C64.5573 58.9237 64.5213 51.8531 64.4852 43.3253C64.4492 27.9788 64.4492 27.8169 64.0705 27.3311C63.8721 27.0612 63.4754 26.6654 63.205 26.4675C62.7181 26.0897 62.5017 26.0897 50.6367 26.0357L38.5554 25.9998L38.0144 26.5215ZM62.5558 27.1332C62.8082 27.2591 63.1509 27.637 63.3131 27.9788C63.6197 28.5725 63.6377 29.706 63.6377 43.955C63.6377 61.0646 63.7459 59.7153 62.3575 59.3015L61.6542 59.0856V44.3508C61.6542 29.8319 61.6542 29.598 61.2936 29.2382C60.9329 28.8784 60.6985 28.8784 49.663 28.8784H38.3931V28.1047C38.3931 27.6729 38.4832 27.2412 38.6095 27.1152C38.934 26.7914 61.9067 26.8094 62.5558 27.1332ZM60.7887 40.1588C60.8428 51.2594 60.7346 58.24 60.5362 57.9162C60.4641 57.8082 60.1576 56.8007 59.851 55.6673C59.5445 54.5518 59.1478 53.4724 58.9855 53.2924C58.5708 52.8247 57.3626 52.2849 56.6594 52.231C56.2086 52.195 55.884 51.9791 55.2529 51.2414C54.6578 50.5758 54.0267 50.108 53.035 49.6222C51.7186 48.9745 51.5924 48.9386 49.8614 48.9386C48.2385 48.9386 47.9139 48.9925 46.9222 49.4603C46.291 49.7482 45.7861 50.054 45.7861 50.126C45.7861 50.2159 45.696 50.2879 45.5698 50.2879C45.4435 50.2879 45.137 50.5038 44.8665 50.7557C44.3977 51.2055 44.2895 51.2234 42.288 51.2234C41.1339 51.2234 40.1422 51.1875 40.1061 51.1515C40.052 51.0975 41.0979 50.6657 42.3962 50.18L44.7944 49.2984L44.8485 47.8591C44.8846 46.6897 44.8305 46.3118 44.5239 45.8441C43.8567 44.7466 43.5682 44.8006 38.0865 46.8516L36.5899 47.3913V38.5936V29.7779H48.6712H60.7526L60.7887 40.1588ZM43.6944 46.2579C43.8928 46.4378 43.983 46.8696 43.983 47.5712V48.5967L41.729 49.4603C40.5028 49.9461 39.5291 50.3959 39.5832 50.4858C39.6373 50.5758 39.5471 50.5938 39.4029 50.5398C39.0783 50.4138 37.0407 51.1335 36.7522 51.4753C36.3014 52.0151 36.7882 52.105 40.1422 52.087C41.9634 52.069 43.5141 52.087 43.5502 52.141C43.6043 52.177 43.5141 52.4469 43.3699 52.7347C43.0273 53.4184 42.7748 54.0661 42.6306 54.5518C42.5224 54.9476 42.4683 54.9476 38.339 55.0016C36.0309 55.0376 33.6507 55.0196 33.0376 55.0016L31.9016 54.9296V52.2489C31.9016 49.1005 31.6491 49.4243 34.5162 48.8486C35.544 48.6507 37.762 47.949 39.6553 47.2474C41.4946 46.5457 43.0814 45.988 43.2076 45.988C43.3158 45.97 43.5502 46.096 43.6944 46.2579ZM52.476 50.3419C53.035 50.6117 53.8644 51.1515 54.2972 51.5473C54.748 51.9431 55.1808 52.195 55.2529 52.123C55.343 52.051 55.343 52.087 55.289 52.213C55.2168 52.3209 55.4152 52.9146 55.7217 53.5263C56.7315 55.5773 56.461 58.204 55.0185 60.0931C53.6841 61.8743 51.5924 62.8098 49.3925 62.6659C47.1205 62.5039 45.2632 61.2805 44.1452 59.2475C43.5502 58.1681 43.5322 58.0241 43.5322 56.225C43.5322 54.4979 43.5682 54.246 44.0371 53.3824C44.9386 51.6912 46.5976 50.3599 48.3827 49.9101C49.4827 49.6222 51.3941 49.8381 52.476 50.3419ZM57.6872 53.4364C58.3544 53.7782 58.4806 54.0121 58.9494 55.8652C59.4363 57.8442 59.6346 58.33 60.2658 59.0316C60.7166 59.5714 60.7706 59.7333 60.7166 60.7588L60.6625 61.8922L57.6151 61.9462L54.5677 61.9822L55.325 61.1726C56.2987 60.1291 56.9479 58.7078 57.1823 57.1606C57.3446 56.1351 57.3266 55.7392 57.02 54.5518C56.6413 53.0226 56.6954 52.9326 57.6872 53.4364ZM32.7311 56.297C32.7852 56.5309 32.8212 56.8727 32.8032 57.0526C32.7311 57.6823 32.8032 57.8442 33.1458 57.8442C33.5605 57.8442 33.7048 57.5024 33.7048 56.5668C33.7048 55.9371 33.7589 55.8652 34.1375 55.8652C34.5523 55.8652 34.5883 55.9371 34.6424 56.8007C34.6965 57.6103 34.7506 57.7543 35.0572 57.7543C35.3637 57.7543 35.4358 57.6103 35.508 56.8547C35.5801 56.0991 35.6703 55.9551 35.9948 55.9012C36.3555 55.8472 36.3915 55.9371 36.4456 56.8007C36.4997 57.6283 36.5538 57.7543 36.8964 57.8082C37.2571 57.8622 37.2931 57.7723 37.3472 56.9087C37.4013 56.0271 37.4374 55.9551 37.8521 55.9551C38.2669 55.9551 38.3029 56.0271 38.357 56.9087C38.4111 57.7723 38.4472 57.8622 38.8078 57.8082C39.1504 57.7543 39.2045 57.6283 39.2586 56.8007C39.3127 55.9371 39.3488 55.8472 39.7094 55.9012C40.034 55.9551 40.1241 56.0991 40.1963 56.8547C40.2684 57.6103 40.3405 57.7543 40.6471 57.7543C40.9536 57.7543 41.0077 57.6103 41.0618 56.8007C41.1159 55.8652 41.1159 55.8652 41.729 55.8652C42.324 55.8652 42.3421 55.8832 42.4502 56.7108C42.7388 58.7618 43.2617 59.9492 44.4698 61.2805L45.1009 61.9822H38.7176C33.9933 61.9822 32.2803 61.9282 32.118 61.7663C31.8836 61.5324 31.7934 56.207 32.0278 55.9911C32.2803 55.7392 32.6229 55.8832 32.7311 56.297Z"/>
</mask>
<path d="M38.0144 26.5215C37.5816 26.9713 37.4915 27.1872 37.4915 27.9608V28.8784H36.8964C36.4997 28.8784 36.1571 29.0223 35.9407 29.2562C35.6162 29.616 35.5981 30.0838 35.544 38.6476C35.508 43.6132 35.4719 47.6972 35.4358 47.7152C35.3998 47.7511 34.5883 47.985 33.5966 48.2189C32.5147 48.5068 31.6672 48.8306 31.4147 49.0645L31 49.4423V55.6493V61.8383L31.5229 62.36L32.0458 62.8818H39.3488C45.678 62.8818 46.7418 62.9177 47.3369 63.1696C48.527 63.6734 50.7269 63.7094 52.0432 63.2596C53.053 62.9177 53.5759 62.8818 57.0561 62.8818C60.6985 62.8818 60.951 62.8638 61.2936 62.5219C61.564 62.2521 61.6542 61.9282 61.6542 61.2086V60.273H63.1509C64.4852 60.273 64.7737 60.2011 66.036 59.6074C67.6769 58.8157 69.2096 57.7003 69.2276 57.2865C69.2276 56.7108 68.7227 56.8007 67.767 57.5204C66.5769 58.4199 64.6475 59.3375 64.5754 59.0496C64.5573 58.9237 64.5213 51.8531 64.4852 43.3253C64.4492 27.9788 64.4492 27.8169 64.0705 27.3311C63.8721 27.0612 63.4754 26.6654 63.205 26.4675C62.7181 26.0897 62.5017 26.0897 50.6367 26.0357L38.5554 25.9998L38.0144 26.5215ZM62.5558 27.1332C62.8082 27.2591 63.1509 27.637 63.3131 27.9788C63.6197 28.5725 63.6377 29.706 63.6377 43.955C63.6377 61.0646 63.7459 59.7153 62.3575 59.3015L61.6542 59.0856V44.3508C61.6542 29.8319 61.6542 29.598 61.2936 29.2382C60.9329 28.8784 60.6985 28.8784 49.663 28.8784H38.3931V28.1047C38.3931 27.6729 38.4832 27.2412 38.6095 27.1152C38.934 26.7914 61.9067 26.8094 62.5558 27.1332ZM60.7887 40.1588C60.8428 51.2594 60.7346 58.24 60.5362 57.9162C60.4641 57.8082 60.1576 56.8007 59.851 55.6673C59.5445 54.5518 59.1478 53.4724 58.9855 53.2924C58.5708 52.8247 57.3626 52.2849 56.6594 52.231C56.2086 52.195 55.884 51.9791 55.2529 51.2414C54.6578 50.5758 54.0267 50.108 53.035 49.6222C51.7186 48.9745 51.5924 48.9386 49.8614 48.9386C48.2385 48.9386 47.9139 48.9925 46.9222 49.4603C46.291 49.7482 45.7861 50.054 45.7861 50.126C45.7861 50.2159 45.696 50.2879 45.5698 50.2879C45.4435 50.2879 45.137 50.5038 44.8665 50.7557C44.3977 51.2055 44.2895 51.2234 42.288 51.2234C41.1339 51.2234 40.1422 51.1875 40.1061 51.1515C40.052 51.0975 41.0979 50.6657 42.3962 50.18L44.7944 49.2984L44.8485 47.8591C44.8846 46.6897 44.8305 46.3118 44.5239 45.8441C43.8567 44.7466 43.5682 44.8006 38.0865 46.8516L36.5899 47.3913V38.5936V29.7779H48.6712H60.7526L60.7887 40.1588ZM43.6944 46.2579C43.8928 46.4378 43.983 46.8696 43.983 47.5712V48.5967L41.729 49.4603C40.5028 49.9461 39.5291 50.3959 39.5832 50.4858C39.6373 50.5758 39.5471 50.5938 39.4029 50.5398C39.0783 50.4138 37.0407 51.1335 36.7522 51.4753C36.3014 52.0151 36.7882 52.105 40.1422 52.087C41.9634 52.069 43.5141 52.087 43.5502 52.141C43.6043 52.177 43.5141 52.4469 43.3699 52.7347C43.0273 53.4184 42.7748 54.0661 42.6306 54.5518C42.5224 54.9476 42.4683 54.9476 38.339 55.0016C36.0309 55.0376 33.6507 55.0196 33.0376 55.0016L31.9016 54.9296V52.2489C31.9016 49.1005 31.6491 49.4243 34.5162 48.8486C35.544 48.6507 37.762 47.949 39.6553 47.2474C41.4946 46.5457 43.0814 45.988 43.2076 45.988C43.3158 45.97 43.5502 46.096 43.6944 46.2579ZM52.476 50.3419C53.035 50.6117 53.8644 51.1515 54.2972 51.5473C54.748 51.9431 55.1808 52.195 55.2529 52.123C55.343 52.051 55.343 52.087 55.289 52.213C55.2168 52.3209 55.4152 52.9146 55.7217 53.5263C56.7315 55.5773 56.461 58.204 55.0185 60.0931C53.6841 61.8743 51.5924 62.8098 49.3925 62.6659C47.1205 62.5039 45.2632 61.2805 44.1452 59.2475C43.5502 58.1681 43.5322 58.0241 43.5322 56.225C43.5322 54.4979 43.5682 54.246 44.0371 53.3824C44.9386 51.6912 46.5976 50.3599 48.3827 49.9101C49.4827 49.6222 51.3941 49.8381 52.476 50.3419ZM57.6872 53.4364C58.3544 53.7782 58.4806 54.0121 58.9494 55.8652C59.4363 57.8442 59.6346 58.33 60.2658 59.0316C60.7166 59.5714 60.7706 59.7333 60.7166 60.7588L60.6625 61.8922L57.6151 61.9462L54.5677 61.9822L55.325 61.1726C56.2987 60.1291 56.9479 58.7078 57.1823 57.1606C57.3446 56.1351 57.3266 55.7392 57.02 54.5518C56.6413 53.0226 56.6954 52.9326 57.6872 53.4364ZM32.7311 56.297C32.7852 56.5309 32.8212 56.8727 32.8032 57.0526C32.7311 57.6823 32.8032 57.8442 33.1458 57.8442C33.5605 57.8442 33.7048 57.5024 33.7048 56.5668C33.7048 55.9371 33.7589 55.8652 34.1375 55.8652C34.5523 55.8652 34.5883 55.9371 34.6424 56.8007C34.6965 57.6103 34.7506 57.7543 35.0572 57.7543C35.3637 57.7543 35.4358 57.6103 35.508 56.8547C35.5801 56.0991 35.6703 55.9551 35.9948 55.9012C36.3555 55.8472 36.3915 55.9371 36.4456 56.8007C36.4997 57.6283 36.5538 57.7543 36.8964 57.8082C37.2571 57.8622 37.2931 57.7723 37.3472 56.9087C37.4013 56.0271 37.4374 55.9551 37.8521 55.9551C38.2669 55.9551 38.3029 56.0271 38.357 56.9087C38.4111 57.7723 38.4472 57.8622 38.8078 57.8082C39.1504 57.7543 39.2045 57.6283 39.2586 56.8007C39.3127 55.9371 39.3488 55.8472 39.7094 55.9012C40.034 55.9551 40.1241 56.0991 40.1963 56.8547C40.2684 57.6103 40.3405 57.7543 40.6471 57.7543C40.9536 57.7543 41.0077 57.6103 41.0618 56.8007C41.1159 55.8652 41.1159 55.8652 41.729 55.8652C42.324 55.8652 42.3421 55.8832 42.4502 56.7108C42.7388 58.7618 43.2617 59.9492 44.4698 61.2805L45.1009 61.9822H38.7176C33.9933 61.9822 32.2803 61.9282 32.118 61.7663C31.8836 61.5324 31.7934 56.207 32.0278 55.9911C32.2803 55.7392 32.6229 55.8832 32.7311 56.297Z" fill="#96006D" stroke="#96006D" stroke-width="0.4" mask="url(#path-2-inside-1_586_211)"/>
<path d="M40.2919 35.3937C40.2878 35.3945 40.2853 35.395 40.2841 35.3953L40.2818 35.3961C40.254 35.406 40.2178 35.4386 40.1841 35.5056C40.1517 35.57 40.1291 35.652 40.12 35.7335C40.1108 35.8162 40.1166 35.8884 40.1325 35.9351C40.1403 35.9581 40.1486 35.9691 40.153 35.9733C40.1554 35.9755 40.1557 35.9755 40.1579 35.9755C40.158 35.9755 40.158 35.9755 40.1581 35.9755C40.5234 35.9755 41.5244 35.9764 42.8651 35.9775C44.5687 35.979 46.8207 35.981 49.0141 35.9822C50.9739 35.9834 52.8869 35.9839 54.3201 35.9831C55.0367 35.9827 55.6333 35.9819 56.0558 35.9807C56.267 35.9801 56.4346 35.9793 56.5519 35.9785C56.6106 35.978 56.6564 35.9776 56.6888 35.9771C56.714 35.9767 56.7278 35.9763 56.7334 35.9762C56.7352 35.9761 56.7362 35.9761 56.7364 35.9761L56.7364 35.9755H56.7475C56.7871 35.9755 56.8134 35.9584 56.8336 35.9215C56.8564 35.8797 56.8688 35.814 56.862 35.7355C56.848 35.5742 56.762 35.424 56.6434 35.3787C56.6422 35.3785 56.6391 35.3778 56.6333 35.377C56.6231 35.3755 56.6088 35.3738 56.5898 35.372C56.5519 35.3685 56.4995 35.365 56.4328 35.3616C56.2998 35.3548 56.1138 35.3484 55.8819 35.3426C55.4183 35.3308 54.7739 35.3211 54.0087 35.3133C52.4784 35.2979 50.4666 35.2906 48.4551 35.2917C46.4436 35.2928 44.4329 35.3024 42.905 35.3206C42.1409 35.3298 41.498 35.3411 41.0362 35.3546C40.8052 35.3613 40.6202 35.3686 40.4884 35.3764C40.4223 35.3803 40.3707 35.3843 40.3336 35.3882C40.3151 35.3902 40.3013 35.3921 40.2919 35.3937Z" fill="#96006D" stroke="#96006D" stroke-width="0.2"/>
<path d="M40.1516 40.4321L40.1517 40.4328L40.1941 40.7427L48.1313 40.7961C50.34 40.8051 52.3908 40.8051 53.9186 40.7961C54.6825 40.7916 55.3154 40.7848 55.7717 40.7759C55.9999 40.7714 56.1835 40.7663 56.317 40.7608C56.3838 40.758 56.4374 40.7551 56.4776 40.7521C56.5203 40.7489 56.5413 40.7461 56.5474 40.7447C56.7389 40.7006 56.8451 40.5563 56.8628 40.4096C56.8802 40.2648 56.8126 40.1188 56.6455 40.0551C56.6443 40.0549 56.6415 40.0543 56.6367 40.0536C56.627 40.0521 56.6131 40.0505 56.5947 40.0487C56.5578 40.0453 56.5066 40.0418 56.4413 40.0385C56.311 40.0318 56.1283 40.0256 55.9003 40.02C55.4445 40.0087 54.8101 39.9995 54.0557 39.9925C52.5472 39.9785 50.5606 39.9728 48.5683 39.9751C46.576 39.9773 44.5782 39.9875 43.0471 40.0049C42.2815 40.0136 41.6329 40.0241 41.1601 40.0364C40.9237 40.0425 40.7318 40.0491 40.5914 40.0561C40.5211 40.0596 40.4645 40.0631 40.4219 40.0667C40.3768 40.0705 40.3541 40.0739 40.3473 40.0756C40.2599 40.0974 40.2089 40.1375 40.18 40.1879C40.1497 40.2408 40.1355 40.3194 40.1516 40.4321Z" fill="#96006D" stroke="#96006D" stroke-width="0.2"/>
<path d="M48.9813 51.351L48.9806 51.3514C48.205 51.6878 47.8038 52.6392 48.0634 53.5717C48.2066 54.0844 48.622 54.4863 49.138 54.6931C49.6537 54.8998 50.2587 54.9068 50.7703 54.643L50.7703 54.643L50.7715 54.6424C51.0501 54.5034 51.3259 54.1703 51.5152 53.7839C51.7048 53.3967 51.7931 52.9855 51.7284 52.7032L51.7283 52.7028C51.581 52.0459 51.2021 51.5731 50.7111 51.3313C50.2198 51.0894 49.6064 51.0738 48.9813 51.351ZM50.405 52.0134L50.405 52.0134L50.4071 52.0144C50.7234 52.16 50.9156 52.3865 50.9973 52.6433C51.0784 52.8981 51.0476 53.1735 50.9362 53.4154C50.7134 53.8992 50.1584 54.2663 49.4752 54.0912C48.9948 53.9712 48.7311 53.5749 48.6991 53.1517C48.6671 52.7296 48.864 52.2733 49.3051 52.0188C49.5005 51.9036 49.6401 51.8298 49.8063 51.8298C49.9664 51.8298 50.14 51.8988 50.405 52.0134Z" fill="#96006D" stroke="#96006D" stroke-width="0.2"/>
<path d="M47.5986 57.8835C48.1832 57.4429 48.501 56.6641 48.2176 55.7889C48.0393 55.2731 47.6089 54.8791 47.0954 54.6811C46.5819 54.483 45.9959 54.485 45.5121 54.7471C44.9149 55.088 44.5881 55.7157 44.5558 56.347C44.5235 56.9785 44.7859 57.6008 45.3523 57.9382L45.3523 57.9382L45.3533 57.9388C46.1563 58.4298 47.0134 58.3246 47.5986 57.8835ZM45.8597 55.4097C46.3047 55.1524 46.9139 55.2381 47.3468 55.8233C47.4837 56.0056 47.5725 56.1561 47.6017 56.3174C47.6313 56.481 47.5969 56.6409 47.5225 56.8359C47.3516 57.2965 46.8944 57.5378 46.4556 57.5595C46.0173 57.5811 45.5592 57.3837 45.4049 56.9231C45.1656 56.244 45.4174 55.6655 45.8597 55.4097Z" fill="#96006D" stroke="#96006D" stroke-width="0.2"/>
<path d="M54.3173 54.8534L54.3173 54.8534L54.3166 54.853C53.9903 54.6507 53.7422 54.5571 53.4789 54.5509C53.2127 54.5447 52.918 54.6274 52.4974 54.8059C51.5544 55.2167 51.2541 56.0828 51.446 56.8487C51.6383 57.6162 52.3259 58.2843 53.3776 58.2843C54.2615 58.2843 54.882 57.6667 55.0889 56.9205C55.2958 56.1746 55.0834 55.3205 54.3173 54.8534ZM53.3277 55.2466C53.6236 55.2794 53.9119 55.4545 54.1409 55.7491C54.3605 56.0162 54.4627 56.3064 54.4374 56.5874C54.4119 56.8693 54.2593 57.1268 53.9983 57.3295C53.7251 57.5437 53.4325 57.6106 53.1618 57.5674C52.8933 57.5247 52.654 57.3749 52.4806 57.1691C52.1339 56.7574 52.0383 56.1026 52.5097 55.5828C52.7369 55.3269 53.0294 55.2135 53.3277 55.2466Z" fill="#96006D" stroke="#96006D" stroke-width="0.2"/>
<path d="M48.8783 61.4258L48.8783 61.4258L48.8789 61.4261C49.4607 61.7294 50.0581 61.7656 50.5543 61.585C51.0496 61.4047 51.4515 61.0058 51.6406 60.4225L51.6408 60.4219C52.171 58.818 50.4071 57.3639 48.9351 58.166C48.3127 58.515 47.99 59.172 47.9792 59.8253C47.9684 60.4786 48.2695 61.1137 48.8783 61.4258ZM50.9082 60.2944L50.9083 60.2945L50.9069 60.2973C50.6216 60.9158 50.0117 61.0832 49.5109 60.9289C49.0099 60.7746 48.6065 60.2941 48.7343 59.6254C48.8044 59.2372 49.0867 58.9303 49.4182 58.771C49.7485 58.6122 50.1487 58.5907 50.457 58.8049C50.95 59.1211 51.1242 59.7851 50.9082 60.2944Z" fill="#96006D" stroke="#96006D" stroke-width="0.2"/>
</svg>
