<svg width="106" height="97" viewBox="0 0 106 97" fill="none" xmlns="http://www.w3.org/2000/svg">
<rect width="106" height="96.1394" rx="10" fill="#FFA666"/>
<mask id="path-2-inside-1_94_324" fill="white">
<path d="M46.9873 30.1276L43.803 33.3119V38.8531V44.3762H40.7985H37.7761L36.013 42.6491L34.2679 40.94V38.3493V35.7407H31.3894H28.5109V38.7091V41.6776H31.1735H33.8181L35.5992 43.4587L37.3803 45.2398L39.3773 45.1498C40.4927 45.0958 41.9319 45.0958 42.5976 45.1678L43.803 45.3117V48.2622V51.2127H36.2109H28.6008L26.6578 49.2697L24.7149 47.3447L22.6279 49.4856L20.541 51.6264L22.6819 53.6594L24.8228 55.6923L26.7118 53.8033L28.6008 51.9323H36.2109H43.803V54.7208V57.5094H40.5107H37.2184L35.4373 59.2185L33.6382 60.9096L31.0836 60.9276H28.5109V63.8061V66.6846H31.3894H34.2679V64.112V61.5393L35.959 59.8842L37.6322 58.229H40.7086H43.785L43.8389 61.9531C43.8929 65.1195 43.9469 65.7851 44.2167 66.2709C44.7745 67.2963 45.656 68.1599 46.5915 68.5917L47.491 69.0234H57.7457H68.0004L68.9 68.5917C69.9794 68.0699 70.825 67.2244 71.3107 66.1449C71.6345 65.4433 71.6885 64.9575 71.6885 62.3489V59.3804L72.624 58.9846C73.7394 58.5169 73.2897 58.1571 76.456 62.0071C77.6974 63.5363 78.9567 64.9036 79.2446 65.0475C79.8923 65.3713 80.468 65.2094 81.1876 64.5078C82.231 63.4823 82.1231 63.1765 79.2266 59.6323C77.8233 57.9232 76.6 56.43 76.51 56.304C76.4021 56.1781 76.51 55.8363 76.8338 55.3145C77.2296 54.7029 78.1652 52.5979 78.1652 52.3461C78.1652 52.3101 77.9852 52.2921 77.7694 52.2921C77.4275 52.2921 77.2296 52.562 76.6539 53.7673C75.3766 56.5019 72.8219 58.4449 69.8175 58.9666C65.7516 59.6683 61.5598 57.2755 59.8506 53.2636C59.239 51.8243 59.095 49.0718 59.5268 47.5066C61.4518 40.7961 69.7815 38.5292 74.7469 43.3687C75.7004 44.3042 76.7979 45.9414 76.9958 46.769C77.1397 47.2907 77.3376 47.4886 77.8593 47.5606C78.2731 47.6325 78.2011 47.3087 77.3376 45.4736C76.528 43.7465 74.639 41.8215 72.8939 40.958L71.6885 40.3643V35.4888C71.6885 30.7393 71.6705 30.5953 71.2567 29.7138C70.735 28.6344 69.8894 27.7888 68.81 27.303C68.0364 26.9432 67.6586 26.9252 59.095 26.9252H50.1897L46.9873 30.1276ZM68.0724 27.9327C69.1698 28.2566 70.2852 29.282 70.6451 30.3075C70.807 30.7932 70.8789 32.2505 70.8789 35.5608C70.8789 39.5547 70.8429 40.1484 70.6091 40.0764C70.4651 40.0405 69.6915 39.9865 68.9 39.9325C62.4953 39.5367 57.278 45.5996 58.6273 51.8963C59.4189 55.6024 62.2614 58.6248 65.8775 59.5783C67.0109 59.8842 69.1878 59.9561 70.3212 59.7582L71.0049 59.6143L70.9329 62.3849C70.8429 65.4973 70.699 66.037 69.6376 67.0984C68.4502 68.2858 68.2703 68.3038 57.7997 68.3038C51.521 68.3038 48.1927 68.2318 47.671 68.1059C47.2032 67.98 46.5375 67.6022 46.0698 67.2064C44.5766 65.8931 44.6665 66.7926 44.6845 50.8529C44.6845 43.0809 44.6845 36.0645 44.7025 35.2549V33.7617L47.635 33.7257L50.5495 33.6718L50.6034 30.6493L50.6394 27.6449H58.8791C65.8235 27.6449 67.2808 27.6809 68.0724 27.9327ZM49.9198 30.6133V32.8622H47.635H45.3322L47.581 30.6133C48.8224 29.372 49.8478 28.3645 49.8658 28.3645C49.9018 28.3645 49.9198 29.372 49.9198 30.6133ZM33.5483 38.7091V40.7781H31.4793H29.4104L29.3924 39.1049C29.3924 38.2054 29.3564 37.2699 29.3025 37.036C29.2305 36.6402 29.2485 36.6402 31.3894 36.6402H33.5483V38.7091ZM26.2621 50.1332L27.7013 51.5725L26.2081 53.0657L24.7328 54.5409L23.2576 53.0657L21.7644 51.5725L23.2036 50.1332C23.9952 49.3416 24.6789 48.694 24.7328 48.694C24.7868 48.694 25.4705 49.3416 26.2621 50.1332ZM78.0212 59.5064C81.1516 63.2664 81.1876 63.3384 80.5579 64.022C80.0722 64.5617 79.5324 64.4178 78.7588 63.4823C77.2476 61.7012 74.639 58.4809 74.4951 58.247C74.2612 57.8872 75.6465 56.7358 75.9343 57.0237C76.0423 57.1496 76.9958 58.265 78.0212 59.5064ZM33.5483 63.8061V65.983L31.4614 65.929L29.3564 65.8751L29.3744 63.8061C29.3924 62.6727 29.3924 61.7192 29.3924 61.6832C29.4104 61.6652 30.3459 61.6473 31.4793 61.6473H33.5483V63.8061Z"/>
</mask>
<path d="M46.9873 30.1276L43.803 33.3119V38.8531V44.3762H40.7985H37.7761L36.013 42.6491L34.2679 40.94V38.3493V35.7407H31.3894H28.5109V38.7091V41.6776H31.1735H33.8181L35.5992 43.4587L37.3803 45.2398L39.3773 45.1498C40.4927 45.0958 41.9319 45.0958 42.5976 45.1678L43.803 45.3117V48.2622V51.2127H36.2109H28.6008L26.6578 49.2697L24.7149 47.3447L22.6279 49.4856L20.541 51.6264L22.6819 53.6594L24.8228 55.6923L26.7118 53.8033L28.6008 51.9323H36.2109H43.803V54.7208V57.5094H40.5107H37.2184L35.4373 59.2185L33.6382 60.9096L31.0836 60.9276H28.5109V63.8061V66.6846H31.3894H34.2679V64.112V61.5393L35.959 59.8842L37.6322 58.229H40.7086H43.785L43.8389 61.9531C43.8929 65.1195 43.9469 65.7851 44.2167 66.2709C44.7745 67.2963 45.656 68.1599 46.5915 68.5917L47.491 69.0234H57.7457H68.0004L68.9 68.5917C69.9794 68.0699 70.825 67.2244 71.3107 66.1449C71.6345 65.4433 71.6885 64.9575 71.6885 62.3489V59.3804L72.624 58.9846C73.7394 58.5169 73.2897 58.1571 76.456 62.0071C77.6974 63.5363 78.9567 64.9036 79.2446 65.0475C79.8923 65.3713 80.468 65.2094 81.1876 64.5078C82.231 63.4823 82.1231 63.1765 79.2266 59.6323C77.8233 57.9232 76.6 56.43 76.51 56.304C76.4021 56.1781 76.51 55.8363 76.8338 55.3145C77.2296 54.7029 78.1652 52.5979 78.1652 52.3461C78.1652 52.3101 77.9852 52.2921 77.7694 52.2921C77.4275 52.2921 77.2296 52.562 76.6539 53.7673C75.3766 56.5019 72.8219 58.4449 69.8175 58.9666C65.7516 59.6683 61.5598 57.2755 59.8506 53.2636C59.239 51.8243 59.095 49.0718 59.5268 47.5066C61.4518 40.7961 69.7815 38.5292 74.7469 43.3687C75.7004 44.3042 76.7979 45.9414 76.9958 46.769C77.1397 47.2907 77.3376 47.4886 77.8593 47.5606C78.2731 47.6325 78.2011 47.3087 77.3376 45.4736C76.528 43.7465 74.639 41.8215 72.8939 40.958L71.6885 40.3643V35.4888C71.6885 30.7393 71.6705 30.5953 71.2567 29.7138C70.735 28.6344 69.8894 27.7888 68.81 27.303C68.0364 26.9432 67.6586 26.9252 59.095 26.9252H50.1897L46.9873 30.1276ZM68.0724 27.9327C69.1698 28.2566 70.2852 29.282 70.6451 30.3075C70.807 30.7932 70.8789 32.2505 70.8789 35.5608C70.8789 39.5547 70.8429 40.1484 70.6091 40.0764C70.4651 40.0405 69.6915 39.9865 68.9 39.9325C62.4953 39.5367 57.278 45.5996 58.6273 51.8963C59.4189 55.6024 62.2614 58.6248 65.8775 59.5783C67.0109 59.8842 69.1878 59.9561 70.3212 59.7582L71.0049 59.6143L70.9329 62.3849C70.8429 65.4973 70.699 66.037 69.6376 67.0984C68.4502 68.2858 68.2703 68.3038 57.7997 68.3038C51.521 68.3038 48.1927 68.2318 47.671 68.1059C47.2032 67.98 46.5375 67.6022 46.0698 67.2064C44.5766 65.8931 44.6665 66.7926 44.6845 50.8529C44.6845 43.0809 44.6845 36.0645 44.7025 35.2549V33.7617L47.635 33.7257L50.5495 33.6718L50.6034 30.6493L50.6394 27.6449H58.8791C65.8235 27.6449 67.2808 27.6809 68.0724 27.9327ZM49.9198 30.6133V32.8622H47.635H45.3322L47.581 30.6133C48.8224 29.372 49.8478 28.3645 49.8658 28.3645C49.9018 28.3645 49.9198 29.372 49.9198 30.6133ZM33.5483 38.7091V40.7781H31.4793H29.4104L29.3924 39.1049C29.3924 38.2054 29.3564 37.2699 29.3025 37.036C29.2305 36.6402 29.2485 36.6402 31.3894 36.6402H33.5483V38.7091ZM26.2621 50.1332L27.7013 51.5725L26.2081 53.0657L24.7328 54.5409L23.2576 53.0657L21.7644 51.5725L23.2036 50.1332C23.9952 49.3416 24.6789 48.694 24.7328 48.694C24.7868 48.694 25.4705 49.3416 26.2621 50.1332ZM78.0212 59.5064C81.1516 63.2664 81.1876 63.3384 80.5579 64.022C80.0722 64.5617 79.5324 64.4178 78.7588 63.4823C77.2476 61.7012 74.639 58.4809 74.4951 58.247C74.2612 57.8872 75.6465 56.7358 75.9343 57.0237C76.0423 57.1496 76.9958 58.265 78.0212 59.5064ZM33.5483 63.8061V65.983L31.4614 65.929L29.3564 65.8751L29.3744 63.8061C29.3924 62.6727 29.3924 61.7192 29.3924 61.6832C29.4104 61.6652 30.3459 61.6473 31.4793 61.6473H33.5483V63.8061Z" fill="#9B4100" stroke="#9B4100" stroke-width="4" mask="url(#path-2-inside-1_94_324)"/>
<mask id="path-3-inside-2_94_324" fill="white">
<path d="M46.8255 38.1696L46.7715 40.4185H49.0383H51.3051L51.2692 39.5549C51.2512 39.0871 51.2332 38.0797 51.2152 37.3061L51.1792 35.9208H49.0383H46.8794L46.8255 38.1696ZM50.4596 38.1696V39.5189H49.0203H47.5811V38.1696V36.8203H49.0203H50.4596V38.1696Z"/>
</mask>
<path d="M46.8255 38.1696L46.7715 40.4185H49.0383H51.3051L51.2692 39.5549C51.2512 39.0871 51.2332 38.0797 51.2152 37.3061L51.1792 35.9208H49.0383H46.8794L46.8255 38.1696ZM50.4596 38.1696V39.5189H49.0203H47.5811V38.1696V36.8203H49.0203H50.4596V38.1696Z" fill="#9B4100"/>
<path d="M46.7715 40.4185V42.4185H44.7229L44.7721 40.3705L46.7715 40.4185ZM51.3051 40.4185L53.3034 40.3352L53.3902 42.4185H51.3051V40.4185ZM51.2692 39.5549L49.2709 39.6382L49.2706 39.6318L51.2692 39.5549ZM51.2152 37.3061L53.2145 37.2541L53.2146 37.2596L51.2152 37.3061ZM51.1792 35.9208V33.9208H53.1279L53.1785 35.8689L51.1792 35.9208ZM46.8794 35.9208L44.88 35.8728L44.9269 33.9208H46.8794V35.9208ZM50.4596 39.5189H52.4596V41.5189H50.4596V39.5189ZM47.5811 39.5189V41.5189H45.5811V39.5189H47.5811ZM47.5811 36.8203H45.5811V34.8203H47.5811V36.8203ZM50.4596 36.8203V34.8203H52.4596V36.8203H50.4596ZM48.8249 38.2176L48.7709 40.4664L44.7721 40.3705L44.826 38.1216L48.8249 38.2176ZM46.7715 38.4185H49.0383V42.4185H46.7715V38.4185ZM49.0383 38.4185H51.3051V42.4185H49.0383V38.4185ZM49.3069 40.5017L49.2709 39.6382L53.2674 39.4716L53.3034 40.3352L49.3069 40.5017ZM49.2706 39.6318C49.2519 39.144 49.2331 38.0995 49.2157 37.3526L53.2146 37.2596C53.2333 38.0598 53.2505 39.0303 53.2677 39.478L49.2706 39.6318ZM49.2159 37.358L49.1799 35.9727L53.1785 35.8689L53.2145 37.2541L49.2159 37.358ZM51.1792 37.9208H49.0383V33.9208H51.1792V37.9208ZM49.0383 37.9208H46.8794V33.9208H49.0383V37.9208ZM48.8789 35.9688L48.8249 38.2176L44.826 38.1216L44.88 35.8728L48.8789 35.9688ZM52.4596 38.1696V39.5189H48.4596V38.1696H52.4596ZM50.4596 41.5189H49.0203V37.5189H50.4596V41.5189ZM49.0203 41.5189H47.5811V37.5189H49.0203V41.5189ZM45.5811 39.5189V38.1696H49.5811V39.5189H45.5811ZM45.5811 38.1696V36.8203H49.5811V38.1696H45.5811ZM47.5811 34.8203H49.0203V38.8203H47.5811V34.8203ZM49.0203 34.8203H50.4596V38.8203H49.0203V34.8203ZM52.4596 36.8203V38.1696H48.4596V36.8203H52.4596Z" fill="#9B4100" mask="url(#path-3-inside-2_94_324)"/>
<mask id="path-5-inside-3_94_324" fill="white">
<path d="M52.9248 37.846C52.8528 37.9 52.7988 38.1159 52.7988 38.2958C52.7988 38.6016 53.1227 38.6196 59.5453 38.6196H66.2918V38.1699V37.7201H59.6713C56.0192 37.7201 52.9787 37.7741 52.9248 37.846Z"/>
</mask>
<path d="M52.9248 37.846C52.8528 37.9 52.7988 38.1159 52.7988 38.2958C52.7988 38.6016 53.1227 38.6196 59.5453 38.6196H66.2918V38.1699V37.7201H59.6713C56.0192 37.7201 52.9787 37.7741 52.9248 37.846Z" fill="#9B4100"/>
<path d="M52.9248 37.846L54.5248 39.046L54.3533 39.2746L54.1248 39.446L52.9248 37.846ZM66.2918 38.6196H68.2918V40.6196H66.2918V38.6196ZM66.2918 37.7201V35.7201H68.2918V37.7201H66.2918ZM54.1248 39.446C54.3162 39.3025 54.4405 39.1531 54.5123 39.0551C54.5871 38.953 54.6365 38.8629 54.6669 38.8016C54.7259 38.6824 54.7537 38.5892 54.7655 38.5455C54.7886 38.4601 54.7988 38.3836 54.7988 38.2958H50.7988C50.7988 38.0281 50.836 37.7537 50.9041 37.5019C50.9384 37.375 50.9932 37.2065 51.0826 37.0259C51.1522 36.8855 51.3389 36.5354 51.7248 36.246L54.1248 39.446ZM54.7988 38.2958C54.7988 38.1775 54.7905 37.7048 54.4491 37.23C54.1267 36.7815 53.7197 36.625 53.5969 36.583C53.4181 36.5219 53.3781 36.5514 53.8602 36.5747C54.6822 36.6145 56.3039 36.6196 59.5453 36.6196V40.6196C56.3641 40.6196 54.6125 40.6158 53.667 40.5701C53.2653 40.5506 52.7429 40.5184 52.3027 40.3678C52.0491 40.2811 51.5667 40.0731 51.2015 39.5651C50.8173 39.0307 50.7988 38.4906 50.7988 38.2958H54.7988ZM59.5453 36.6196H66.2918V40.6196H59.5453V36.6196ZM64.2918 38.6196V38.1699H68.2918V38.6196H64.2918ZM64.2918 38.1699V37.7201H68.2918V38.1699H64.2918ZM66.2918 39.7201H59.6713V35.7201H66.2918V39.7201ZM59.6713 39.7201C57.8533 39.7201 56.193 39.7335 54.9855 39.7557C54.3794 39.7669 53.8996 39.78 53.5748 39.7941C53.4083 39.8013 53.3058 39.8079 53.2549 39.8123C53.2234 39.8151 53.2469 39.8141 53.2977 39.8056C53.3169 39.8024 53.3998 39.7887 53.5081 39.7565C53.5603 39.741 53.6712 39.7059 53.8046 39.6411C53.8889 39.6 54.2359 39.4312 54.5248 39.046L51.3248 36.646C51.6153 36.2587 51.9654 36.0876 52.0544 36.0443C52.1923 35.9772 52.3093 35.9399 52.3689 35.9222C52.4921 35.8855 52.5956 35.8674 52.6409 35.8599C52.7439 35.8428 52.8418 35.8332 52.9058 35.8276C53.0457 35.8153 53.2181 35.8058 53.4014 35.7979C53.776 35.7816 54.2947 35.7678 54.912 35.7564C56.1511 35.7336 57.8371 35.7201 59.6713 35.7201V39.7201Z" fill="#9B4100" mask="url(#path-5-inside-3_94_324)"/>
<mask id="path-7-inside-4_94_324" fill="white">
<path d="M46.8613 46.445V48.6938H49.0922H51.323L51.341 47.2186C51.359 46.409 51.323 45.3836 51.2511 44.9698L51.1431 44.1962H49.0022H46.8613V46.445ZM50.4595 46.445V47.7943H49.0202H47.581V46.445V45.0957H49.0202H50.4595V46.445Z"/>
</mask>
<path d="M46.8613 46.445V48.6938H49.0922H51.323L51.341 47.2186C51.359 46.409 51.323 45.3836 51.2511 44.9698L51.1431 44.1962H49.0022H46.8613V46.445ZM50.4595 46.445V47.7943H49.0202H47.581V46.445V45.0957H49.0202H50.4595V46.445Z" fill="#9B4100"/>
<path d="M46.8613 48.6938V50.6938H44.8613V48.6938H46.8613ZM51.323 48.6938L53.3229 48.7182L53.2988 50.6938H51.323V48.6938ZM51.341 47.2186L49.3412 47.1942L49.3413 47.1842L49.3415 47.1742L51.341 47.2186ZM51.2511 44.9698L49.2806 45.3125L49.2749 45.2794L49.2702 45.2462L51.2511 44.9698ZM51.1431 44.1962V42.1962H52.8834L53.1239 43.9198L51.1431 44.1962ZM46.8613 44.1962H44.8613V42.1962H46.8613V44.1962ZM50.4595 47.7943H52.4595V49.7943H50.4595V47.7943ZM47.581 47.7943V49.7943H45.581V47.7943H47.581ZM47.581 45.0957H45.581V43.0957H47.581V45.0957ZM50.4595 45.0957V43.0957H52.4595V45.0957H50.4595ZM48.8613 46.445V48.6938H44.8613V46.445H48.8613ZM46.8613 46.6938H49.0922V50.6938H46.8613V46.6938ZM49.0922 46.6938H51.323V50.6938H49.0922V46.6938ZM49.3232 48.6695L49.3412 47.1942L53.3409 47.243L53.3229 48.7182L49.3232 48.6695ZM49.3415 47.1742C49.3495 46.8124 49.3455 46.3942 49.3312 46.0226C49.3241 45.8375 49.3148 45.6731 49.3042 45.5396C49.299 45.4732 49.2938 45.419 49.289 45.377C49.2867 45.3562 49.2846 45.3402 49.283 45.3285C49.2813 45.3165 49.2805 45.3115 49.2806 45.3125L53.2215 44.6271C53.3293 45.247 53.3588 46.44 53.3405 47.263L49.3415 47.1742ZM49.2702 45.2462L49.1623 44.4726L53.1239 43.9198L53.2319 44.6934L49.2702 45.2462ZM51.1431 46.1962H49.0022V42.1962H51.1431V46.1962ZM49.0022 46.1962H46.8613V42.1962H49.0022V46.1962ZM48.8613 44.1962V46.445H44.8613V44.1962H48.8613ZM52.4595 46.445V47.7943H48.4595V46.445H52.4595ZM50.4595 49.7943H49.0202V45.7943H50.4595V49.7943ZM49.0202 49.7943H47.581V45.7943H49.0202V49.7943ZM45.581 47.7943V46.445H49.581V47.7943H45.581ZM45.581 46.445V45.0957H49.581V46.445H45.581ZM47.581 43.0957H49.0202V47.0957H47.581V43.0957ZM49.0202 43.0957H50.4595V47.0957H49.0202V43.0957ZM52.4595 45.0957V46.445H48.4595V45.0957H52.4595Z" fill="#9B4100" mask="url(#path-7-inside-4_94_324)"/>
<mask id="path-9-inside-5_94_324" fill="white">
<path d="M52.7988 46.4453V46.895H55.1916C57.5843 46.895 57.6023 46.895 57.8002 46.4453L58.0161 45.9955H55.4075H52.7988V46.4453Z"/>
</mask>
<path d="M52.7988 46.4453V46.895H55.1916C57.5843 46.895 57.6023 46.895 57.8002 46.4453L58.0161 45.9955H55.4075H52.7988V46.4453Z" fill="#9B4100"/>
<path d="M52.7988 46.895V48.895H50.7988V46.895H52.7988ZM57.8002 46.4453L55.9696 45.6398L55.9829 45.6096L55.9972 45.5798L57.8002 46.4453ZM58.0161 45.9955V43.9955H61.1946L59.8192 46.8609L58.0161 45.9955ZM52.7988 45.9955H50.7988V43.9955H52.7988V45.9955ZM54.7988 46.4453V46.895H50.7988V46.4453H54.7988ZM52.7988 44.895H55.1916V48.895H52.7988V44.895ZM55.1916 44.895C55.7987 44.895 56.2239 44.8949 56.5396 44.8884C56.6952 44.8852 56.8061 44.8808 56.8863 44.8755C56.9693 44.8701 56.9932 44.8655 56.9814 44.8675C56.968 44.8698 56.6154 44.9269 56.2717 45.2519C56.1151 45.3999 56.0255 45.5433 55.9845 45.6165C55.9538 45.6712 55.9384 45.7106 55.9696 45.6398L59.6309 47.2507C59.6161 47.2842 59.4323 47.7684 59.0196 48.1586C58.542 48.6101 57.9983 48.7516 57.6565 48.8101C57.1114 48.9035 56.2645 48.895 55.1916 48.895V44.895ZM55.9972 45.5798L56.2131 45.13L59.8192 46.8609L59.6033 47.3107L55.9972 45.5798ZM58.0161 47.9955H55.4075V43.9955H58.0161V47.9955ZM55.4075 47.9955H52.7988V43.9955H55.4075V47.9955ZM54.7988 45.9955V46.4453H50.7988V45.9955H54.7988Z" fill="#9B4100" mask="url(#path-9-inside-5_94_324)"/>
<mask id="path-11-inside-6_94_324" fill="white">
<path d="M46.8258 52.9579C46.7898 53.2457 46.7898 54.2532 46.8258 55.2247L46.8798 56.9878L49.0746 56.9338L51.2695 56.8798V54.685V52.4721H49.0746H46.8798L46.8258 52.9579ZM50.4599 54.631V56.0703H49.0207H47.5814V54.7569C47.5814 54.0193 47.6354 53.3717 47.7074 53.3177C47.7613 53.2457 48.409 53.1918 49.1466 53.1918H50.4599V54.631Z"/>
</mask>
<path d="M46.8258 52.9579C46.7898 53.2457 46.7898 54.2532 46.8258 55.2247L46.8798 56.9878L49.0746 56.9338L51.2695 56.8798V54.685V52.4721H49.0746H46.8798L46.8258 52.9579ZM50.4599 54.631V56.0703H49.0207H47.5814V54.7569C47.5814 54.0193 47.6354 53.3717 47.7074 53.3177C47.7613 53.2457 48.409 53.1918 49.1466 53.1918H50.4599V54.631Z" fill="#9B4100"/>
<path d="M46.8258 52.9579L48.8136 53.1787L48.8121 53.1924L48.8104 53.206L46.8258 52.9579ZM46.8258 55.2247L48.8245 55.1507L48.8249 55.1635L46.8258 55.2247ZM46.8798 56.9878L46.929 58.9872L44.9416 59.0361L44.8807 57.049L46.8798 56.9878ZM51.2695 56.8798H53.2695V58.8313L51.3187 58.8792L51.2695 56.8798ZM51.2695 52.4721V50.4721H53.2695V52.4721H51.2695ZM46.8798 52.4721L44.892 52.2513L45.0897 50.4721H46.8798V52.4721ZM50.4599 56.0703H52.4599V58.0703H50.4599V56.0703ZM47.5814 56.0703V58.0703H45.5814V56.0703H47.5814ZM47.7074 53.3177L49.3074 54.5177L49.1359 54.7463L48.9074 54.9177L47.7074 53.3177ZM50.4599 53.1918V51.1918H52.4599V53.1918H50.4599ZM48.8104 53.206C48.814 53.1768 48.809 53.2123 48.8047 53.3568C48.801 53.4808 48.7988 53.643 48.7988 53.8349C48.7988 54.218 48.8073 54.688 48.8244 55.1507L44.8272 55.2987C44.7927 54.3679 44.7814 53.1891 44.8413 52.7098L48.8104 53.206ZM48.8249 55.1635L48.8788 56.9266L44.8807 57.049L44.8268 55.2859L48.8249 55.1635ZM46.8306 54.9884L49.0255 54.9344L49.1238 58.9332L46.929 58.9872L46.8306 54.9884ZM49.0255 54.9344L51.2203 54.8805L51.3187 58.8792L49.1238 58.9332L49.0255 54.9344ZM49.2695 56.8798V54.685H53.2695V56.8798H49.2695ZM49.2695 54.685V52.4721H53.2695V54.685H49.2695ZM51.2695 54.4721H49.0746V50.4721H51.2695V54.4721ZM49.0746 54.4721H46.8798V50.4721H49.0746V54.4721ZM48.8676 52.693L48.8136 53.1787L44.838 52.737L44.892 52.2513L48.8676 52.693ZM52.4599 54.631V56.0703H48.4599V54.631H52.4599ZM50.4599 58.0703H49.0207V54.0703H50.4599V58.0703ZM49.0207 58.0703H47.5814V54.0703H49.0207V58.0703ZM45.5814 56.0703V54.7569H49.5814V56.0703H45.5814ZM45.5814 54.7569C45.5814 54.3467 45.5962 53.9411 45.6248 53.6092C45.6385 53.4498 45.659 53.2642 45.6925 53.088C45.7082 53.0055 45.7373 52.8677 45.79 52.7143C45.8163 52.638 45.8637 52.5121 45.9426 52.3692C46.0068 52.2526 46.1763 51.966 46.5074 51.7177L48.9074 54.9177C49.0803 54.788 49.2001 54.6538 49.2764 54.5561C49.3545 54.4563 49.4093 54.366 49.4456 54.3001C49.5157 54.1729 49.5547 54.0673 49.5726 54.0152C49.6086 53.9105 49.6216 53.838 49.6221 53.8352C49.6253 53.8187 49.6188 53.8513 49.61 53.9527C49.5937 54.1425 49.5814 54.4296 49.5814 54.7569H45.5814ZM46.1074 52.1177C46.3557 51.7866 46.6423 51.6172 46.7588 51.5529C46.9018 51.4741 47.0277 51.4266 47.104 51.4004C47.2574 51.3476 47.3951 51.3186 47.4777 51.3029C47.6539 51.2694 47.8394 51.2489 47.9988 51.2351C48.3308 51.2065 48.7364 51.1918 49.1466 51.1918V55.1918C48.8192 55.1918 48.5322 55.204 48.3424 55.2204C48.241 55.2291 48.2084 55.2356 48.2249 55.2325C48.2276 55.2319 48.3001 55.2189 48.4049 55.1829C48.4569 55.165 48.5626 55.1261 48.6898 55.0559C48.7556 55.0197 48.846 54.9648 48.9458 54.8868C49.0434 54.8104 49.1777 54.6906 49.3074 54.5177L46.1074 52.1177ZM49.1466 51.1918H50.4599V55.1918H49.1466V51.1918ZM52.4599 53.1918V54.631H48.4599V53.1918H52.4599Z" fill="#9B4100" mask="url(#path-11-inside-6_94_324)"/>
<mask id="path-13-inside-7_94_324" fill="white">
<path d="M52.8348 54.6672C52.8888 55.081 52.9248 55.081 55.6414 55.081C57.1346 55.099 58.376 55.045 58.376 54.973C58.376 54.3074 58.1961 54.2714 55.4615 54.2714C52.7809 54.2714 52.7809 54.2714 52.8348 54.6672Z"/>
</mask>
<path d="M52.8348 54.6672C52.8888 55.081 52.9248 55.081 55.6414 55.081C57.1346 55.099 58.376 55.045 58.376 54.973C58.376 54.3074 58.1961 54.2714 55.4615 54.2714C52.7809 54.2714 52.7809 54.2714 52.8348 54.6672Z" fill="#9B4100"/>
<path d="M52.8348 54.6672L54.8165 54.397L54.818 54.4085L52.8348 54.6672ZM55.6414 55.081V53.081H55.6534L55.6655 53.0811L55.6414 55.081ZM54.818 54.4085C54.8271 54.4781 54.8179 54.3764 54.7807 54.248C54.7328 54.0823 54.6255 53.8132 54.3875 53.554C54.1544 53.3 53.9041 53.1732 53.7487 53.1134C53.6733 53.0844 53.6142 53.0687 53.5807 53.0608C53.5632 53.0567 53.5498 53.054 53.5413 53.0524C53.5329 53.0509 53.5281 53.0502 53.5277 53.0501C53.5277 53.0501 53.5396 53.0518 53.5669 53.0543C53.5939 53.0567 53.631 53.0594 53.6808 53.062C53.7822 53.0675 53.9169 53.0718 54.0979 53.0748C54.4633 53.0809 54.9549 53.081 55.6414 53.081V57.081C54.392 57.081 53.4928 57.0872 52.9515 57.0084C52.7065 56.9727 51.9945 56.8622 51.4407 56.2588C51.1493 55.9414 51.0091 55.6045 50.9383 55.3595C50.8782 55.1519 50.8561 54.9597 50.8516 54.9259L54.818 54.4085ZM55.6655 53.0811C56.3858 53.0898 57.0333 53.0809 57.4873 53.0624C57.7204 53.0529 57.8715 53.0421 57.9466 53.0341C57.9957 53.0288 57.9576 53.0305 57.879 53.0482C57.8558 53.0535 57.7085 53.0854 57.5268 53.1689C57.4426 53.2076 57.2328 53.3096 57.0152 53.5107C56.801 53.7085 56.376 54.1997 56.376 54.973H60.376C60.376 55.7508 59.9485 56.2465 59.7296 56.4488C59.5071 56.6543 59.2902 56.7607 59.1965 56.8037C58.9959 56.8959 58.8205 56.9363 58.7605 56.9499C58.6081 56.9843 58.4614 57.0019 58.3708 57.0115C58.1664 57.0333 57.9139 57.0483 57.65 57.0591C57.11 57.0811 56.3902 57.0902 55.6173 57.0808L55.6655 53.0811ZM56.376 54.973C56.376 54.918 56.3727 54.9709 56.3876 55.0651C56.4045 55.1715 56.4527 55.3881 56.6011 55.6297C56.9445 56.1885 57.4493 56.3107 57.4804 56.3181C57.4979 56.3222 57.3934 56.2997 57.0019 56.2863C56.6405 56.2739 56.1509 56.2714 55.4615 56.2714V52.2714C56.1394 52.2714 56.6977 52.2735 57.1391 52.2886C57.5505 52.3027 58.0037 52.3308 58.4079 52.4271C58.8259 52.5267 59.5466 52.7827 60.0091 53.5355C60.3976 54.1676 60.376 54.8322 60.376 54.973H56.376ZM55.4615 56.2714C54.784 56.2714 54.3012 56.2715 53.9455 56.2773C53.7692 56.2802 53.6402 56.2843 53.5451 56.2894C53.4453 56.2948 53.413 56.2997 53.4207 56.2986C53.4268 56.2976 53.4574 56.2929 53.5045 56.281C53.5505 56.2694 53.6316 56.2461 53.7323 56.2024C53.9409 56.1118 54.2903 55.9063 54.5483 55.4875C54.7985 55.0814 54.822 54.6999 54.8223 54.5403C54.8225 54.4118 54.804 54.3056 54.8165 54.397L50.8532 54.9374C50.8521 54.9298 50.8219 54.7371 50.8223 54.5328C50.8227 54.2974 50.8582 53.8511 51.1428 53.3892C51.7029 52.4802 52.6772 52.3654 52.8247 52.3432C53.3458 52.2647 54.2381 52.2714 55.4615 52.2714V56.2714Z" fill="#9B4100" mask="url(#path-13-inside-7_94_324)"/>
<mask id="path-15-inside-8_94_324" fill="white">
<path d="M48.9304 60.7122L46.7715 60.7661V62.907V65.0659H49.0743H51.3591L51.3411 63.1229C51.3411 62.0615 51.2871 61.072 51.2152 60.9281C51.1072 60.7122 50.7114 60.6582 48.9304 60.7122ZM50.4236 62.8531L50.3696 64.2563L48.9843 64.3103L47.5811 64.3643V62.907V61.4678H49.0203H50.4776L50.4236 62.8531Z"/>
</mask>
<path d="M48.9304 60.7122L46.7715 60.7661V62.907V65.0659H49.0743H51.3591L51.3411 63.1229C51.3411 62.0615 51.2871 61.072 51.2152 60.9281C51.1072 60.7122 50.7114 60.6582 48.9304 60.7122ZM50.4236 62.8531L50.3696 64.2563L48.9843 64.3103L47.5811 64.3643V62.907V61.4678H49.0203H50.4776L50.4236 62.8531Z" fill="#9B4100"/>
<path d="M48.9304 60.7122L48.9909 62.7113L48.9804 62.7115L48.9304 60.7122ZM46.7715 60.7661H44.7715V58.8155L46.7215 58.7668L46.7715 60.7661ZM46.7715 65.0659V67.0659H44.7715V65.0659H46.7715ZM51.3591 65.0659L53.359 65.0474L53.3777 67.0659H51.3591V65.0659ZM51.3411 63.1229L49.3412 63.1414L49.3411 63.1322V63.1229H51.3411ZM50.4236 62.8531L48.4251 62.7762L48.4251 62.7752L50.4236 62.8531ZM50.3696 64.2563L52.3681 64.3332L52.297 66.1828L50.4475 66.2548L50.3696 64.2563ZM48.9843 64.3103L49.0622 66.3088L49.0612 66.3088L48.9843 64.3103ZM47.5811 64.3643L47.6579 66.3628L45.5811 66.4427V64.3643H47.5811ZM47.5811 61.4678H45.5811V59.4678H47.5811V61.4678ZM50.4776 61.4678V59.4678H52.557L52.476 61.5456L50.4776 61.4678ZM48.9804 62.7115L46.8215 62.7655L46.7215 58.7668L48.8804 58.7128L48.9804 62.7115ZM48.7715 60.7661V62.907H44.7715V60.7661H48.7715ZM48.7715 62.907V65.0659H44.7715V62.907H48.7715ZM46.7715 63.0659H49.0743V67.0659H46.7715V63.0659ZM49.0743 63.0659H51.3591V67.0659H49.0743V63.0659ZM49.3592 65.0844L49.3412 63.1414L53.341 63.1044L53.359 65.0474L49.3592 65.0844ZM49.3411 63.1229C49.3411 62.6217 49.3283 62.1474 49.3083 61.7942C49.2982 61.6148 49.2874 61.4887 49.2788 61.4151C49.2743 61.3765 49.2731 61.3769 49.2782 61.4028C49.2808 61.416 49.2885 61.4543 49.3036 61.5078C49.3149 61.5481 49.3506 61.6711 49.4263 61.8225L53.004 60.0336C53.1454 60.3164 53.194 60.5844 53.2043 60.6375C53.2261 60.7492 53.241 60.8588 53.2516 60.9498C53.2734 61.1354 53.2896 61.35 53.302 61.5686C53.327 62.0116 53.3411 62.5627 53.3411 63.1229H49.3411ZM49.4263 61.8225C49.5201 62.01 49.6531 62.1909 49.8257 62.3453C49.9915 62.4935 50.1535 62.5814 50.2706 62.6319C50.4717 62.7187 50.5969 62.7186 50.4999 62.7089C50.427 62.7015 50.2816 62.6935 50.0177 62.6928C49.7606 62.692 49.4271 62.698 48.9909 62.7113L48.8698 58.7131C49.7406 58.6867 50.4144 58.68 50.9005 58.729C51.2215 58.7613 52.4253 58.8762 53.004 60.0336L49.4263 61.8225ZM52.4221 62.9299L52.3681 64.3332L48.3711 64.1795L48.4251 62.7762L52.4221 62.9299ZM50.4475 66.2548L49.0622 66.3088L48.9065 62.3118L50.2918 62.2579L50.4475 66.2548ZM49.0612 66.3088L47.6579 66.3628L47.5042 62.3658L48.9075 62.3118L49.0612 66.3088ZM45.5811 64.3643V62.907H49.5811V64.3643H45.5811ZM45.5811 62.907V61.4678H49.5811V62.907H45.5811ZM47.5811 59.4678H49.0203V63.4678H47.5811V59.4678ZM49.0203 59.4678H50.4776V63.4678H49.0203V59.4678ZM52.476 61.5456L52.4221 62.9309L48.4251 62.7752L48.4791 61.3899L52.476 61.5456Z" fill="#9B4100" mask="url(#path-15-inside-8_94_324)"/>
<path d="M53.7988 62.9068C53.7988 62.9114 53.7989 62.9143 53.799 62.9155V62.8981C53.7989 62.8993 53.7988 62.9022 53.7988 62.9068ZM65.2913 62.9068C65.2914 62.9092 65.2915 62.9122 65.2916 62.9155C65.2917 62.9143 65.2918 62.9114 65.2918 62.9068C65.2918 62.9022 65.2917 62.8993 65.2916 62.8981L65.2913 62.9068Z" fill="#9B4100" stroke="#9B4100" stroke-width="2"/>
<mask id="path-18-inside-9_94_324" fill="white">
<path d="M67.7477 47.5067C66.7762 49.3417 66.7582 49.3777 66.0385 49.4856C65.6248 49.5396 64.5453 49.5396 63.6458 49.5036L61.9727 49.4317V49.8634V50.3132H64.5633H67.172L67.9636 48.856L68.7731 47.3807L69.2229 48.3522C69.4748 48.8919 70.0145 50.0433 70.4283 50.9429C70.8421 51.8244 71.3818 52.9938 71.6157 53.5335C71.8675 54.0912 72.1194 54.4331 72.2094 54.3431C72.2813 54.2532 73.0189 53.3176 73.8285 52.2382L75.3037 50.3132H78.4521H81.5825V49.8634V49.4137L78.2182 49.4496L74.836 49.5036L73.5766 51.1588C72.893 52.0763 72.2633 52.7599 72.2094 52.688C72.1374 52.616 71.3818 50.9968 70.5002 49.0898C69.6367 47.2008 68.8811 45.6356 68.8271 45.6356C68.7731 45.6356 68.2874 46.4812 67.7477 47.5067Z"/>
</mask>
<path d="M67.7477 47.5067C66.7762 49.3417 66.7582 49.3777 66.0385 49.4856C65.6248 49.5396 64.5453 49.5396 63.6458 49.5036L61.9727 49.4317V49.8634V50.3132H64.5633H67.172L67.9636 48.856L68.7731 47.3807L69.2229 48.3522C69.4748 48.8919 70.0145 50.0433 70.4283 50.9429C70.8421 51.8244 71.3818 52.9938 71.6157 53.5335C71.8675 54.0912 72.1194 54.4331 72.2094 54.3431C72.2813 54.2532 73.0189 53.3176 73.8285 52.2382L75.3037 50.3132H78.4521H81.5825V49.8634V49.4137L78.2182 49.4496L74.836 49.5036L73.5766 51.1588C72.893 52.0763 72.2633 52.7599 72.2094 52.688C72.1374 52.616 71.3818 50.9968 70.5002 49.0898C69.6367 47.2008 68.8811 45.6356 68.8271 45.6356C68.7731 45.6356 68.2874 46.4812 67.7477 47.5067Z" fill="#9B4100"/>
<path d="M67.7477 47.5067L69.5175 48.4382L69.5152 48.4424L67.7477 47.5067ZM66.0385 49.4856L66.3352 51.4635L66.3163 51.4663L66.2972 51.4688L66.0385 49.4856ZM63.6458 49.5036L63.5659 51.502L63.5598 51.5018L63.6458 49.5036ZM61.9727 49.4317H59.9727V47.3438L62.0586 47.4335L61.9727 49.4317ZM61.9727 50.3132V52.3132H59.9727V50.3132H61.9727ZM67.172 50.3132L68.9294 51.2679L68.3616 52.3132H67.172V50.3132ZM67.9636 48.856L66.2061 47.9013L66.2102 47.8938L67.9636 48.856ZM68.7731 47.3807L67.0198 46.4185L68.9246 42.9475L70.5881 46.5405L68.7731 47.3807ZM69.2229 48.3522L67.4105 49.198L67.408 49.1925L69.2229 48.3522ZM70.4283 50.9429L68.6178 51.7927L68.6145 51.7857L68.6113 51.7787L70.4283 50.9429ZM71.6157 53.5335L69.7929 54.3567L69.7866 54.3428L69.7805 54.3287L71.6157 53.5335ZM72.2094 54.3431L73.7711 55.5925L73.7019 55.679L73.6236 55.7573L72.2094 54.3431ZM73.8285 52.2382L72.2285 51.0382L72.2347 51.0299L72.2411 51.0217L73.8285 52.2382ZM75.3037 50.3132L73.7163 49.0966L74.3167 48.3132H75.3037V50.3132ZM81.5825 50.3132H83.5825V52.3132H81.5825V50.3132ZM81.5825 49.4137L81.5611 47.4138L83.5825 47.3922V49.4137H81.5825ZM78.2182 49.4496L78.1863 47.4499L78.1968 47.4498L78.2182 49.4496ZM74.836 49.5036L73.2443 48.2926L73.8326 47.5194L74.8041 47.5039L74.836 49.5036ZM73.5766 51.1588L71.9729 49.9638L71.9789 49.9557L71.985 49.9477L73.5766 51.1588ZM72.2094 52.688L73.6236 51.2738L73.7241 51.3743L73.8094 51.488L72.2094 52.688ZM70.5002 49.0898L68.6848 49.929L68.6813 49.9214L70.5002 49.0898ZM69.5152 48.4424C69.2784 48.8897 69.0786 49.2677 68.9107 49.5631C68.7512 49.8439 68.5573 50.1652 68.3172 50.4454C68.0333 50.7766 67.6781 51.0608 67.2154 51.2459C66.8446 51.3942 66.4734 51.4428 66.3352 51.4635L65.7419 47.5078C65.7847 47.5013 65.8139 47.4968 65.8373 47.4929C65.8483 47.4911 65.8563 47.4897 65.8618 47.4887C65.8674 47.4876 65.8697 47.4871 65.8695 47.4872C65.8694 47.4872 65.8554 47.4901 65.8319 47.4968C65.8079 47.5037 65.7726 47.5148 65.7298 47.532C65.637 47.5691 65.5385 47.6221 65.4455 47.6913C65.3572 47.757 65.3027 47.8159 65.2801 47.8422C65.2559 47.8706 65.2937 47.8321 65.4332 47.5866C65.5644 47.3558 65.7311 47.0411 65.9801 46.5709L69.5152 48.4424ZM66.2972 51.4688C65.6905 51.548 64.4476 51.5373 63.5659 51.502L63.7257 47.5052C64.147 47.5221 64.6116 47.5305 65.014 47.5284C65.2151 47.5273 65.3923 47.5237 65.5356 47.5179C65.6071 47.515 65.6652 47.5118 65.7104 47.5085C65.7328 47.5069 65.75 47.5054 65.7626 47.5042C65.7756 47.503 65.7809 47.5023 65.7799 47.5024L66.2972 51.4688ZM63.5598 51.5018L61.8867 51.4298L62.0586 47.4335L63.7317 47.5055L63.5598 51.5018ZM63.9727 49.4317V49.8634H59.9727V49.4317H63.9727ZM63.9727 49.8634V50.3132H59.9727V49.8634H63.9727ZM61.9727 48.3132H64.5633V52.3132H61.9727V48.3132ZM64.5633 48.3132H67.172V52.3132H64.5633V48.3132ZM65.4145 49.3585L66.2061 47.9013L69.721 49.8106L68.9294 51.2679L65.4145 49.3585ZM66.2102 47.8938L67.0198 46.4185L70.5265 48.3429L69.7169 49.8182L66.2102 47.8938ZM70.5881 46.5405L71.0378 47.512L67.408 49.1925L66.9582 48.221L70.5881 46.5405ZM71.0353 47.5064C71.2846 48.0408 71.8284 49.2009 72.2453 50.1071L68.6113 51.7787C68.2006 50.8858 67.6649 49.7431 67.4105 49.198L71.0353 47.5064ZM72.2387 50.0931C72.6517 50.9729 73.2034 52.1675 73.4508 52.7383L69.7805 54.3287C69.5601 53.8201 69.0324 52.676 68.6178 51.7927L72.2387 50.0931ZM73.4384 52.7104C73.5348 52.9238 73.5944 53.0099 73.5852 52.9974C73.5789 52.9888 73.5558 52.9577 73.5153 52.914C73.4803 52.8763 73.3951 52.7883 73.2602 52.694C73.1474 52.6151 72.8457 52.4214 72.3954 52.37C71.84 52.3065 71.239 52.4851 70.7951 52.9289L73.6236 55.7573C73.1573 56.2236 72.5287 56.4112 71.9413 56.3441C71.459 56.289 71.121 56.079 70.9679 55.972C70.6553 55.7534 70.4523 55.489 70.3612 55.365C70.1406 55.0646 69.9484 54.701 69.7929 54.3567L73.4384 52.7104ZM70.6476 53.0937C70.707 53.0194 71.4319 52.1004 72.2285 51.0382L75.4285 53.4382C74.606 54.5349 73.8556 55.4869 73.7711 55.5925L70.6476 53.0937ZM72.2411 51.0217L73.7163 49.0966L76.8912 51.5298L75.416 53.4548L72.2411 51.0217ZM75.3037 48.3132H78.4521V52.3132H75.3037V48.3132ZM78.4521 48.3132H81.5825V52.3132H78.4521V48.3132ZM79.5825 50.3132V49.8634H83.5825V50.3132H79.5825ZM79.5825 49.8634V49.4137H83.5825V49.8634H79.5825ZM81.6039 51.4136L78.2396 51.4495L78.1968 47.4498L81.5611 47.4138L81.6039 51.4136ZM78.2501 51.4494L74.8679 51.5034L74.8041 47.5039L78.1863 47.4499L78.2501 51.4494ZM76.4276 50.7147L75.1683 52.3698L71.985 49.9477L73.2443 48.2926L76.4276 50.7147ZM75.1804 52.3537C74.8094 52.8516 74.4415 53.3021 74.1417 53.6344C73.9991 53.7923 73.8352 53.9646 73.6739 54.1071C73.6094 54.1642 73.4551 54.2982 73.2503 54.4156C73.1664 54.4637 72.9109 54.6068 72.5518 54.666C72.165 54.7299 71.2421 54.7316 70.6094 53.888L73.8094 51.488C73.5352 51.1224 73.1581 50.8803 72.7594 50.7677C72.3959 50.6651 72.086 50.6888 71.9004 50.7194C71.5568 50.7761 71.321 50.911 71.2608 50.9455C71.1682 50.9986 71.1047 51.0461 71.0793 51.0656C71.0492 51.0887 71.0304 51.1052 71.0253 51.1097C71.0187 51.1156 71.065 51.0732 71.1721 50.9545C71.3715 50.7335 71.6602 50.3834 71.9729 49.9638L75.1804 52.3537ZM70.7951 54.1022C70.6549 53.9619 70.5663 53.8299 70.5481 53.8033C70.5133 53.7522 70.4862 53.7079 70.47 53.6807C70.4368 53.625 70.4076 53.5713 70.3867 53.532C70.3428 53.4498 70.2933 53.3516 70.2429 53.2496C70.1401 53.0417 70.0054 52.7601 69.85 52.4313C69.538 51.7709 69.1257 50.8827 68.6848 49.929L72.3157 48.2506C72.7564 49.204 73.1626 50.0788 73.4668 50.7227C73.6195 51.0461 73.7422 51.302 73.829 51.4776C73.8733 51.5673 73.9014 51.6222 73.9161 51.6498C73.9245 51.6654 73.9197 51.6558 73.9059 51.6326C73.8994 51.6217 73.8808 51.5908 73.8531 51.5501C73.8421 51.534 73.7593 51.4095 73.6236 51.2738L70.7951 54.1022ZM68.6813 49.9214C68.2535 48.9855 67.8551 48.1359 67.5598 47.5255C67.4108 47.2177 67.2946 46.9841 67.2165 46.8345C67.1751 46.7552 67.1576 46.7246 67.1579 46.7252C67.1592 46.7274 67.1649 46.737 67.1743 46.7517C67.1824 46.7645 67.2018 46.7944 67.2302 46.8333C67.2496 46.8598 67.3178 46.9529 67.4246 47.059C67.4764 47.1104 67.5873 47.2156 67.75 47.32C67.8761 47.4009 68.2653 47.6356 68.8271 47.6356V43.6356C69.3906 43.6356 69.7818 43.8711 69.9103 43.9535C70.0754 44.0595 70.189 44.1669 70.2438 44.2214C70.3567 44.3335 70.4323 44.4356 70.4604 44.474C70.5266 44.5646 70.5766 44.6481 70.6002 44.6879C70.6556 44.7815 70.7127 44.888 70.7632 44.9849C70.869 45.1878 71.0057 45.4636 71.1604 45.7832C71.4722 46.4276 71.8834 47.3051 72.3192 48.2583L68.6813 49.9214ZM68.8271 47.6356C69.1447 47.6356 69.3958 47.56 69.5506 47.4997C69.7098 47.4376 69.8309 47.3667 69.9081 47.3167C70.0573 47.2201 70.1591 47.125 70.2033 47.0822C70.2966 46.9919 70.3553 46.9157 70.3673 46.9003C70.4011 46.8567 70.4125 46.8365 70.3915 46.869C70.3574 46.9219 70.2944 47.0255 70.2025 47.185C70.0232 47.4963 69.7794 47.9405 69.5175 48.4381L65.9778 46.5752C66.2556 46.0473 66.5246 45.556 66.7366 45.1881C66.8403 45.0081 66.9427 44.8362 67.0316 44.6985C67.0722 44.6357 67.1346 44.5415 67.2075 44.4476C67.2389 44.4071 67.3142 44.3118 67.4207 44.2086C67.4716 44.1593 67.5792 44.0594 67.7335 43.9594C67.8353 43.8935 68.2389 43.6356 68.8271 43.6356V47.6356Z" fill="#9B4100" mask="url(#path-18-inside-9_94_324)"/>
<path d="M82.8269 49.7018C82.772 49.7688 82.7358 49.8276 82.7174 49.8817C82.6815 49.9871 82.7138 50.0744 82.8089 50.1695C82.9709 50.3314 83.2369 50.3075 83.4062 50.1789L83.0736 49.9049L83.0454 49.8817L82.8269 49.7018ZM82.8269 49.7018C82.9833 49.5118 83.2299 49.4884 83.3943 49.5841C83.4947 49.6425 83.5645 49.7453 83.5645 49.8817C83.5645 50.0029 83.5012 50.106 83.4082 50.1774L83.0743 49.9041L83.0468 49.8817L82.8269 49.7018Z" fill="#9B4100" stroke="#9B4100" stroke-width="2"/>
<path d="M85.3431 49.6658C85.5561 49.893 85.5113 50.1651 85.2883 50.2696L85.0852 49.9559L85.3431 49.6658ZM85.3431 49.6658L85.0732 49.9188L85.0658 49.9258L84.8393 49.5759M85.3431 49.6658C85.2564 49.5888 85.1647 49.5427 85.0732 49.5302C84.9938 49.5194 84.9146 49.534 84.8393 49.5759M84.8393 49.5759L85.0447 49.9455L84.7954 50.1793C84.6482 50.0061 84.6303 49.7111 84.8393 49.5759ZM85.2361 50.2899L85.0732 49.9968L85.0638 49.98L84.8437 50.2276C84.9061 50.2804 84.9841 50.3135 85.0732 50.3135C85.1335 50.3135 85.188 50.3051 85.2361 50.2899Z" fill="#9B4100" stroke="#9B4100" stroke-width="2"/>
</svg>
